<?xml version="1.0" encoding="UTF-8" ?>
<!DOCTYPE svg PUBLIC "-//W3C//DTD SVG 1.1//EN" "http://www.w3.org/Graphics/SVG/1.1/DTD/svg11.dtd">
<svg width="799px" height="497px" viewBox="0 0 799 497" version="1.1" xmlns="http://www.w3.org/2000/svg">
<g id="#74acdfff">
<path fill="#74acdf" opacity="1.00" d=" M 0.00 0.00 L 799.00 0.00 L 799.00 166.89 C 783.69 166.37 768.36 166.82 753.04 166.67 C 502.02 166.68 251.01 166.66 0.00 166.68 L 0.00 0.00 Z" />
<path fill="#74acdf" opacity="1.00" d=" M 0.00 333.11 C 1.33 333.23 2.66 333.31 3.99 333.35 C 268.99 333.33 534.00 333.35 799.00 333.33 L 799.00 497.00 L 0.00 497.00 L 0.00 333.11 Z" />
</g>
<g id="#ffffffff">
<path fill="#ffffff" opacity="1.00" d=" M 0.00 166.68 C 251.01 166.66 502.02 166.68 753.04 166.67 C 768.36 166.82 783.69 166.37 799.00 166.89 L 799.00 333.33 C 534.00 333.35 268.99 333.33 3.99 333.35 C 2.66 333.31 1.33 333.23 0.00 333.11 L 0.00 166.68 M 397.57 181.52 C 396.74 193.67 397.09 205.89 395.84 218.01 C 394.62 215.51 393.84 212.82 393.13 210.14 C 391.82 205.69 393.02 200.92 391.51 196.50 C 390.27 191.53 385.58 187.18 388.04 181.78 C 386.82 181.12 385.24 181.50 384.82 182.95 C 382.77 186.89 384.70 191.17 386.09 194.96 C 387.98 199.75 387.10 204.95 387.73 209.94 C 387.98 213.05 388.98 216.01 389.78 219.01 C 389.15 218.44 388.66 217.77 388.31 217.00 C 383.51 206.66 378.94 196.19 373.95 185.94 C 372.92 184.04 370.65 185.68 371.55 187.42 C 375.49 198.78 379.97 209.95 383.94 221.30 C 379.73 218.38 376.78 213.73 374.95 208.97 C 373.34 204.93 370.37 201.59 366.99 198.93 C 365.80 197.84 364.22 196.93 363.76 195.29 C 363.04 193.72 363.36 191.27 361.26 190.80 C 359.10 194.02 360.68 198.25 363.12 200.84 C 366.13 204.00 369.04 207.39 370.52 211.57 C 372.40 216.41 375.08 220.89 378.60 224.72 C 377.67 224.36 376.78 223.93 375.93 223.45 C 375.74 223.30 375.38 223.00 375.19 222.85 C 375.06 222.68 374.78 222.36 374.64 222.20 C 370.50 217.43 365.39 213.63 360.94 209.17 C 357.35 205.99 354.17 202.30 350.16 199.63 C 347.30 202.25 351.83 204.64 353.24 206.71 C 360.61 214.33 367.51 222.40 375.02 229.89 L 373.24 229.54 C 372.63 229.28 371.42 228.76 370.82 228.50 L 371.45 228.61 C 369.51 227.48 367.45 226.54 365.58 225.28 C 362.41 223.28 360.36 219.93 357.06 218.11 C 354.26 216.32 351.03 215.48 347.93 214.41 C 345.51 213.77 344.44 211.34 342.86 209.65 C 340.67 210.02 341.34 212.58 342.16 213.91 C 344.48 218.46 350.01 219.16 353.89 221.84 C 357.54 224.50 360.33 228.20 364.08 230.74 C 366.15 232.16 368.54 233.15 370.31 234.99 C 359.01 230.94 347.82 226.54 336.49 222.57 C 334.64 221.69 333.05 223.79 335.01 224.98 C 346.13 230.59 357.91 235.12 368.85 240.95 C 365.26 240.79 361.66 240.53 358.12 239.84 C 354.68 239.01 351.56 237.10 348.01 236.68 C 344.67 235.95 341.28 236.47 337.93 236.68 C 335.22 237.15 333.46 234.28 330.84 234.36 C 330.91 234.96 331.05 236.15 331.12 236.74 C 334.71 241.99 341.72 240.15 347.03 241.30 C 353.21 243.27 359.11 246.53 365.80 246.37 C 364.60 246.91 363.36 247.24 362.07 247.34 C 354.37 247.61 346.67 248.04 338.96 248.12 C 335.66 248.55 332.19 247.94 329.01 249.08 C 328.60 250.47 329.08 251.25 330.43 251.41 C 342.59 252.26 354.82 251.94 366.97 253.11 C 362.08 255.60 356.37 256.67 350.85 256.57 C 345.79 256.59 341.31 259.13 336.89 261.26 C 334.79 262.48 332.47 260.62 330.29 261.41 C 330.20 263.89 332.85 264.88 334.91 265.01 C 339.88 265.56 344.04 261.94 348.93 261.71 C 353.49 261.44 358.10 261.71 362.63 260.87 L 363.07 260.11 C 364.56 260.78 365.60 260.46 366.17 259.16 C 366.74 259.21 367.89 259.31 368.46 259.36 C 357.59 264.80 346.36 269.51 335.40 274.76 C 334.50 275.16 334.05 275.86 334.04 276.87 C 335.14 278.24 336.82 277.29 338.12 276.91 C 348.97 272.89 359.81 268.85 370.66 264.85 C 367.49 269.03 362.81 272.27 357.85 274.11 C 353.16 275.94 349.63 279.71 346.60 283.59 C 345.14 285.55 342.46 285.53 340.38 286.41 C 339.13 288.10 341.77 288.80 342.99 288.84 C 349.58 288.60 352.63 281.65 358.36 279.45 C 363.48 276.89 370.12 275.22 372.97 269.88 C 373.20 270.47 373.66 271.65 373.89 272.24 C 373.76 272.38 373.50 272.65 373.37 272.79 C 373.18 273.00 372.80 273.42 372.62 273.63 L 371.82 274.06 L 371.97 274.79 L 370.61 274.44 C 364.23 281.77 357.46 288.75 350.88 295.89 C 350.04 296.80 349.38 297.84 348.71 298.88 C 349.61 299.97 350.98 300.29 351.97 299.11 C 360.63 291.29 368.94 283.07 377.76 275.43 L 376.48 274.91 L 379.01 274.42 C 378.71 275.12 378.10 276.52 377.79 277.22 L 378.55 278.72 L 377.56 277.28 C 375.97 280.90 374.06 284.49 371.10 287.19 C 368.02 289.92 365.86 293.55 364.63 297.45 C 363.74 299.81 363.42 302.74 361.09 304.19 C 360.30 305.14 358.25 305.56 358.87 307.19 C 361.41 308.39 363.93 306.36 365.63 304.62 C 368.36 301.17 369.14 296.52 372.22 293.30 C 375.91 289.41 379.89 285.63 382.23 280.71 L 381.46 279.37 L 382.61 280.43 C 382.94 280.03 383.61 279.23 383.94 278.83 C 379.95 289.85 375.74 300.81 371.76 311.84 C 371.23 312.93 371.29 314.08 372.23 314.96 C 373.84 314.96 374.38 313.17 375.00 312.02 C 379.27 302.67 383.60 293.34 387.85 283.99 C 388.53 282.70 388.81 281.11 389.96 280.15 C 389.76 283.73 389.50 287.34 388.84 290.87 C 388.00 294.38 385.94 297.50 385.55 301.14 C 384.79 304.76 385.72 308.42 385.67 312.07 C 385.71 314.31 382.79 315.88 383.65 318.10 C 384.18 318.06 385.24 317.98 385.78 317.94 C 390.79 314.24 389.32 307.48 390.23 302.15 C 391.43 297.84 393.65 293.86 394.65 289.48 C 395.05 287.42 394.98 285.27 395.78 283.30 C 397.15 293.45 396.69 303.78 397.31 314.00 C 397.46 315.96 397.24 318.03 398.06 319.89 C 399.49 320.40 400.27 319.95 400.41 318.54 C 401.24 306.52 401.00 294.45 402.01 282.43 L 402.76 282.44 C 403.20 284.74 404.04 286.92 404.70 289.16 C 405.95 293.35 404.88 297.81 406.09 302.01 C 406.91 305.97 409.15 309.38 410.64 313.08 C 410.76 314.73 410.21 316.33 410.09 317.98 C 411.22 319.56 413.14 317.92 413.41 316.49 C 415.22 312.32 412.90 308.15 411.64 304.21 C 410.14 299.95 410.82 295.38 410.35 290.97 C 410.16 287.49 409.09 284.15 408.15 280.82 C 409.97 282.93 410.83 285.63 412.01 288.11 C 415.82 296.41 419.63 304.71 423.45 313.01 C 423.85 314.10 424.63 314.95 425.88 315.00 C 427.19 313.84 426.33 312.20 425.90 310.87 C 421.88 300.03 417.85 289.19 413.85 278.34 C 416.02 279.33 417.11 281.73 418.76 283.38 C 422.18 286.98 422.77 292.23 425.93 296.00 C 427.75 298.53 430.26 300.42 432.62 302.43 C 434.56 303.90 434.56 306.59 435.41 308.69 C 437.61 309.80 438.09 306.31 437.66 304.85 C 437.20 300.61 433.53 298.05 431.14 294.90 C 428.48 291.84 427.38 287.86 425.61 284.29 C 424.20 281.10 421.80 278.52 420.06 275.54 L 421.68 275.07 L 421.50 275.72 L 422.13 275.99 C 422.32 276.23 422.71 276.69 422.90 276.92 C 423.13 277.02 423.58 277.23 423.81 277.33 L 423.48 278.46 C 431.93 285.39 439.23 293.71 447.90 300.35 C 448.87 299.39 449.26 297.99 448.09 297.02 C 440.65 288.74 432.77 280.82 425.50 272.39 L 424.34 272.96 C 424.30 272.81 424.23 272.50 424.19 272.35 C 424.00 271.83 423.60 270.81 423.41 270.30 L 425.39 269.56 L 424.18 270.53 C 428.75 272.33 433.31 274.63 436.64 278.36 C 439.46 281.42 443.25 283.42 447.20 284.62 C 449.33 285.36 451.88 285.79 453.17 287.87 C 454.12 288.68 454.52 290.71 456.18 290.15 C 457.40 287.60 455.37 285.09 453.64 283.39 C 450.16 280.64 445.49 279.83 442.25 276.73 C 438.19 272.88 434.24 268.72 429.03 266.45 C 428.76 266.22 428.21 265.74 427.94 265.50 L 428.22 265.08 C 438.20 269.03 448.36 272.54 458.38 276.39 C 460.03 276.91 461.73 277.90 463.52 277.43 C 464.43 276.28 463.55 275.26 462.50 274.72 C 451.44 269.35 439.97 264.72 429.08 259.07 C 434.20 259.31 439.50 259.48 444.24 261.65 C 449.19 263.90 454.73 263.90 460.03 263.33 C 462.72 262.92 464.53 265.51 467.11 265.73 C 467.48 260.59 461.07 259.14 457.03 259.27 C 451.32 259.64 446.24 256.89 441.03 255.07 C 438.17 253.93 435.01 254.22 432.13 253.21 C 442.35 251.85 452.73 252.31 463.02 251.69 C 464.97 251.53 467.04 251.76 468.89 250.94 C 469.40 249.49 468.94 248.70 467.50 248.58 C 455.47 247.76 443.38 247.98 431.35 246.99 L 431.41 246.18 C 434.36 245.73 437.08 244.43 440.02 243.93 C 444.18 243.07 448.55 243.94 452.62 242.52 C 457.56 241.20 461.95 236.51 467.34 239.09 C 467.89 237.47 467.09 235.86 465.37 235.53 C 459.31 233.18 453.98 238.54 447.95 238.36 C 441.82 238.23 435.65 238.70 429.87 240.87 C 430.50 240.19 431.23 239.66 432.06 239.27 C 442.37 234.52 452.77 229.93 462.99 225.00 C 464.66 224.23 463.80 221.85 462.02 222.45 C 450.49 226.32 439.21 230.94 427.72 234.96 C 428.62 232.82 430.81 231.71 432.44 230.18 C 436.43 226.57 442.21 225.94 446.11 222.18 C 448.84 220.18 450.29 216.84 453.11 215.00 C 454.61 213.89 458.16 214.73 457.93 212.15 C 454.27 209.79 449.73 212.32 447.08 215.10 C 440.79 221.93 430.60 222.75 424.31 229.65 C 424.61 228.68 425.03 227.77 425.56 226.91 C 425.71 226.74 426.01 226.38 426.15 226.20 C 426.31 226.06 426.63 225.79 426.79 225.65 C 430.90 222.17 434.16 217.81 437.92 213.97 C 441.71 209.67 446.18 205.90 449.30 201.07 C 447.34 198.65 445.34 201.51 443.81 202.82 C 436.68 209.85 428.85 216.19 422.00 223.49 C 421.52 222.94 421.06 222.38 420.60 221.82 C 421.50 220.34 422.35 218.83 423.25 217.36 C 425.33 213.56 429.36 211.29 431.28 207.37 C 433.19 204.27 433.74 200.60 435.29 197.34 C 436.44 196.01 438.00 195.10 439.25 193.86 C 439.04 191.59 436.29 192.41 435.04 193.18 C 430.27 195.69 429.74 201.64 426.67 205.59 C 423.66 209.25 419.84 212.27 417.39 216.39 C 416.76 217.71 415.18 219.03 416.14 220.63 L 415.31 219.28 L 414.50 221.56 C 413.95 220.09 415.06 218.69 415.44 217.32 C 419.12 207.20 423.12 197.18 426.55 186.98 C 426.96 184.83 424.43 184.60 423.74 186.44 C 418.74 197.46 413.36 208.34 408.76 219.52 L 407.98 219.58 C 408.34 215.77 408.43 211.91 409.38 208.18 C 410.39 205.07 412.05 202.17 412.43 198.87 C 413.10 195.21 412.30 191.52 412.33 187.85 C 412.36 185.65 415.20 184.07 414.34 181.90 C 413.81 181.94 412.76 182.01 412.24 182.04 C 406.98 185.88 408.86 192.96 407.61 198.43 C 405.46 204.43 402.54 210.32 402.61 216.85 C 402.02 215.64 401.70 214.36 401.65 213.02 C 401.37 205.36 400.96 197.71 400.89 190.04 C 400.42 186.75 401.10 183.26 399.92 180.10 C 398.48 179.60 397.69 180.07 397.57 181.52 Z" />
<path fill="#ffffff" opacity="1.00" d=" M 419.13 224.13 C 419.22 224.22 419.39 224.40 419.48 224.49 C 419.39 224.40 419.22 224.22 419.13 224.13 Z" />
</g>
<g id="#ce870eff">
<path fill="#ce870e" opacity="1.00" d=" M 397.57 181.52 C 397.69 180.07 398.48 179.60 399.92 180.10 C 401.10 183.26 400.42 186.75 400.89 190.04 C 400.96 197.71 401.37 205.36 401.65 213.02 C 401.70 214.36 402.02 215.64 402.61 216.85 C 402.54 210.32 405.46 204.43 407.61 198.43 C 408.86 192.96 406.98 185.88 412.24 182.04 C 412.76 182.01 413.81 181.94 414.34 181.90 C 415.20 184.07 412.36 185.65 412.33 187.85 C 412.30 191.52 413.10 195.21 412.43 198.87 C 412.05 202.17 410.39 205.07 409.38 208.18 C 408.43 211.91 408.34 215.77 407.98 219.58 L 408.76 219.52 C 413.36 208.34 418.74 197.46 423.74 186.44 C 424.43 184.60 426.96 184.83 426.55 186.98 C 423.12 197.18 419.12 207.20 415.44 217.32 C 415.06 218.69 413.95 220.09 414.50 221.56 L 415.31 219.28 L 416.14 220.63 C 414.97 222.18 413.67 223.78 413.81 225.85 C 414.67 224.96 415.52 224.05 416.37 223.14 C 416.44 224.41 416.53 225.69 416.60 226.97 C 417.42 226.02 417.76 224.46 419.13 224.13 C 419.22 224.22 419.39 224.40 419.48 224.49 C 419.39 224.40 419.22 224.22 419.13 224.13 C 418.29 219.04 422.77 215.89 424.93 211.90 C 426.34 209.74 429.14 208.82 430.21 206.39 C 431.78 202.97 432.79 199.33 434.18 195.84 C 434.55 195.44 434.55 195.44 434.18 195.84 C 431.75 197.47 430.90 200.29 429.94 202.88 C 428.51 206.80 425.13 209.44 422.23 212.23 C 419.67 214.62 418.34 217.95 416.14 220.63 C 415.18 219.03 416.76 217.71 417.39 216.39 C 419.84 212.27 423.66 209.25 426.67 205.59 C 429.74 201.64 430.27 195.69 435.04 193.18 C 436.29 192.41 439.04 191.59 439.25 193.86 C 438.00 195.10 436.44 196.01 435.29 197.34 C 433.74 200.60 433.19 204.27 431.28 207.37 C 429.36 211.29 425.33 213.56 423.25 217.36 C 422.35 218.83 421.50 220.34 420.60 221.82 C 421.06 222.38 421.52 222.94 422.00 223.49 C 428.85 216.19 436.68 209.85 443.81 202.82 C 445.34 201.51 447.34 198.65 449.30 201.07 C 446.18 205.90 441.71 209.67 437.92 213.97 C 434.16 217.81 430.90 222.17 426.79 225.65 C 426.63 225.79 426.31 226.06 426.15 226.20 C 426.01 226.38 425.71 226.74 425.56 226.91 C 425.03 227.77 424.61 228.68 424.31 229.65 C 430.60 222.75 440.79 221.93 447.08 215.10 C 449.73 212.32 454.27 209.79 457.93 212.15 C 458.16 214.73 454.61 213.89 453.11 215.00 C 450.29 216.84 448.84 220.18 446.11 222.18 C 442.21 225.94 436.43 226.57 432.44 230.18 C 430.81 231.71 428.62 232.82 427.72 234.96 C 439.21 230.94 450.49 226.32 462.02 222.45 C 463.80 221.85 464.66 224.23 462.99 225.00 C 452.77 229.93 442.37 234.52 432.06 239.27 C 431.23 239.66 430.50 240.19 429.87 240.87 C 435.65 238.70 441.82 238.23 447.95 238.36 C 453.98 238.54 459.31 233.18 465.37 235.53 C 467.09 235.86 467.89 237.47 467.34 239.09 C 461.95 236.51 457.56 241.20 452.62 242.52 C 448.55 243.94 444.18 243.07 440.02 243.93 C 437.08 244.43 434.36 245.73 431.41 246.18 L 431.35 246.99 C 443.38 247.98 455.47 247.76 467.50 248.58 C 468.94 248.70 469.40 249.49 468.89 250.94 C 467.04 251.76 464.97 251.53 463.02 251.69 C 452.73 252.31 442.35 251.85 432.13 253.21 C 435.01 254.22 438.17 253.93 441.03 255.07 C 446.24 256.89 451.32 259.64 457.03 259.27 C 461.07 259.14 467.48 260.59 467.11 265.73 C 464.53 265.51 462.72 262.92 460.03 263.33 C 454.73 263.90 449.19 263.90 444.24 261.65 C 439.50 259.48 434.20 259.31 429.08 259.07 C 439.97 264.72 451.44 269.35 462.50 274.72 C 463.55 275.26 464.43 276.28 463.52 277.43 C 461.73 277.90 460.03 276.91 458.38 276.39 C 448.36 272.54 438.20 269.03 428.22 265.08 L 427.94 265.50 C 428.21 265.74 428.76 266.22 429.03 266.45 C 429.32 267.14 429.90 268.51 430.20 269.19 C 429.50 269.10 428.11 268.94 427.41 268.85 L 427.13 268.62 C 425.40 268.20 423.69 267.75 422.01 267.21 C 423.15 267.96 424.28 268.74 425.39 269.56 L 423.41 270.30 C 423.60 270.81 424.00 271.83 424.19 272.35 C 422.56 271.86 421.56 270.47 420.45 269.30 C 420.40 269.79 420.31 270.77 420.26 271.26 C 419.78 271.29 418.82 271.37 418.34 271.41 C 419.51 272.58 420.62 273.79 421.68 275.07 L 420.06 275.54 C 421.80 278.52 424.20 281.10 425.61 284.29 C 427.38 287.86 428.48 291.84 431.14 294.90 C 433.53 298.05 437.20 300.61 437.66 304.85 C 438.09 306.31 437.61 309.80 435.41 308.69 C 434.56 306.59 434.56 303.90 432.62 302.43 C 430.26 300.42 427.75 298.53 425.93 296.00 C 422.77 292.23 422.18 286.98 418.76 283.38 C 417.11 281.73 416.02 279.33 413.85 278.34 C 417.85 289.19 421.88 300.03 425.90 310.87 C 426.33 312.20 427.19 313.84 425.88 315.00 C 424.63 314.95 423.85 314.10 423.45 313.01 C 419.63 304.71 415.82 296.41 412.01 288.11 C 410.83 285.63 409.97 282.93 408.15 280.82 C 409.09 284.15 410.16 287.49 410.35 290.97 C 410.82 295.38 410.14 299.95 411.64 304.21 C 412.90 308.15 415.22 312.32 413.41 316.49 C 413.14 317.92 411.22 319.56 410.09 317.98 C 410.21 316.33 410.76 314.73 410.64 313.08 C 409.15 309.38 406.91 305.97 406.09 302.01 C 404.88 297.81 405.95 293.35 404.70 289.16 C 404.04 286.92 403.20 284.74 402.76 282.44 L 402.01 282.43 C 401.00 294.45 401.24 306.52 400.41 318.54 C 400.27 319.95 399.49 320.40 398.06 319.89 C 397.24 318.03 397.46 315.96 397.31 314.00 C 396.69 303.78 397.15 293.45 395.78 283.30 C 394.98 285.27 395.05 287.42 394.65 289.48 C 393.65 293.86 391.43 297.84 390.23 302.15 C 389.32 307.48 390.79 314.24 385.78 317.94 C 385.24 317.98 384.18 318.06 383.65 318.10 C 382.79 315.88 385.71 314.31 385.67 312.07 C 385.72 308.42 384.79 304.76 385.55 301.14 C 385.94 297.50 388.00 294.38 388.84 290.87 C 389.50 287.34 389.76 283.73 389.96 280.15 C 388.81 281.11 388.53 282.70 387.85 283.99 C 383.60 293.34 379.27 302.67 375.00 312.02 C 374.38 313.17 373.84 314.96 372.23 314.96 C 371.29 314.08 371.23 312.93 371.76 311.84 C 375.74 300.81 379.95 289.85 383.94 278.83 C 383.61 279.23 382.94 280.03 382.61 280.43 L 381.46 279.37 C 382.52 277.72 383.40 275.97 384.07 274.12 C 383.03 275.59 381.85 276.97 380.34 277.99 C 380.76 276.31 381.23 274.66 381.70 273.00 C 380.59 274.87 379.52 276.77 378.55 278.72 L 377.79 277.22 C 378.10 276.52 378.71 275.12 379.01 274.42 L 376.48 274.91 C 377.47 273.66 378.56 272.49 379.69 271.36 C 379.21 271.32 378.26 271.25 377.78 271.21 C 377.78 270.72 377.77 269.74 377.77 269.25 C 376.49 270.26 375.21 271.28 373.89 272.24 C 373.66 271.65 373.20 270.47 372.97 269.88 C 373.84 268.99 374.81 268.21 375.76 267.41 C 374.73 267.49 373.71 267.57 372.70 267.65 C 372.93 266.55 373.17 265.45 373.41 264.36 C 370.27 267.54 367.18 270.95 363.10 272.97 C 359.10 275.30 354.31 276.59 351.26 280.29 C 349.25 282.55 347.15 284.75 345.21 287.08 C 348.05 285.38 350.27 282.85 353.10 281.10 C 356.31 277.25 361.70 277.30 365.71 274.67 C 368.46 273.52 369.93 270.44 372.97 269.88 C 370.12 275.22 363.48 276.89 358.36 279.45 C 352.63 281.65 349.58 288.60 342.99 288.84 C 341.77 288.80 339.13 288.10 340.38 286.41 C 342.46 285.53 345.14 285.55 346.60 283.59 C 349.63 279.71 353.16 275.94 357.85 274.11 C 362.81 272.27 367.49 269.03 370.66 264.85 C 359.81 268.85 348.97 272.89 338.12 276.91 C 336.82 277.29 335.14 278.24 334.04 276.87 C 334.05 275.86 334.50 275.16 335.40 274.76 C 346.36 269.51 357.59 264.80 368.46 259.36 C 367.89 259.31 366.74 259.21 366.17 259.16 C 364.84 258.79 363.81 259.11 363.07 260.11 L 362.63 260.87 C 358.10 261.71 353.49 261.44 348.93 261.71 C 344.04 261.94 339.88 265.56 334.91 265.01 C 332.85 264.88 330.20 263.89 330.29 261.41 C 332.47 260.62 334.79 262.48 336.89 261.26 C 341.31 259.13 345.79 256.59 350.85 256.57 C 356.37 256.67 362.08 255.60 366.97 253.11 C 354.82 251.94 342.59 252.26 330.43 251.41 C 329.08 251.25 328.60 250.47 329.01 249.08 C 332.19 247.94 335.66 248.55 338.96 248.12 C 346.67 248.04 354.37 247.61 362.07 247.34 C 363.36 247.24 364.60 246.91 365.80 246.37 C 359.11 246.53 353.21 243.27 347.03 241.30 C 341.72 240.15 334.71 241.99 331.12 236.74 C 331.05 236.15 330.91 234.96 330.84 234.36 C 333.46 234.28 335.22 237.15 337.93 236.68 C 341.28 236.47 344.67 235.95 348.01 236.68 C 351.56 237.10 354.68 239.01 358.12 239.84 C 361.66 240.53 365.26 240.79 368.85 240.95 C 357.91 235.12 346.13 230.59 335.01 224.98 C 333.05 223.79 334.64 221.69 336.49 222.57 C 347.82 226.54 359.01 230.94 370.31 234.99 C 368.54 233.15 366.15 232.16 364.08 230.74 C 360.33 228.20 357.54 224.50 353.89 221.84 C 350.01 219.16 344.48 218.46 342.16 213.91 C 341.34 212.58 340.67 210.02 342.86 209.65 C 344.44 211.34 345.51 213.77 347.93 214.41 C 351.03 215.48 354.26 216.32 357.06 218.11 C 360.36 219.93 362.41 223.28 365.58 225.28 C 367.45 226.54 369.51 227.48 371.45 228.61 L 370.82 228.50 C 365.72 227.42 360.61 224.87 357.54 220.52 C 354.15 217.18 349.02 216.76 344.84 214.82 C 344.46 214.47 344.46 214.47 344.84 214.82 C 346.27 216.62 348.14 218.01 350.42 218.52 C 355.10 219.57 357.82 223.83 361.39 226.63 C 363.12 227.71 365.30 227.73 367.09 228.73 C 369.91 230.31 372.66 232.08 375.82 232.91 C 374.99 231.76 374.14 230.62 373.24 229.54 L 375.02 229.89 C 367.51 222.40 360.61 214.33 353.24 206.71 C 351.83 204.64 347.30 202.25 350.16 199.63 C 354.17 202.30 357.35 205.99 360.94 209.17 C 365.39 213.63 370.50 217.43 374.64 222.20 C 374.78 222.36 375.06 222.68 375.19 222.85 C 375.38 223.00 375.74 223.30 375.93 223.45 C 376.78 223.93 377.67 224.36 378.60 224.72 C 375.08 220.89 372.40 216.41 370.52 211.57 C 369.04 207.39 366.13 204.00 363.12 200.84 C 360.68 198.25 359.10 194.02 361.26 190.80 C 363.36 191.27 363.04 193.72 363.76 195.29 C 364.22 196.93 365.80 197.84 366.99 198.93 C 370.37 201.59 373.34 204.93 374.95 208.97 C 376.78 213.73 379.73 218.38 383.94 221.30 C 379.97 209.95 375.49 198.78 371.55 187.42 C 370.65 185.68 372.92 184.04 373.95 185.94 C 378.94 196.19 383.51 206.66 388.31 217.00 C 388.66 217.77 389.15 218.44 389.78 219.01 C 388.98 216.01 387.98 213.05 387.73 209.94 C 387.10 204.95 387.98 199.75 386.09 194.96 C 384.70 191.17 382.77 186.89 384.82 182.95 C 385.24 181.50 386.82 181.12 388.04 181.78 C 385.58 187.18 390.27 191.53 391.51 196.50 C 393.02 200.92 391.82 205.69 393.13 210.14 C 393.84 212.82 394.62 215.51 395.84 218.01 C 397.09 205.89 396.74 193.67 397.57 181.52 M 398.07 192.03 C 399.57 196.05 396.44 200.01 397.72 204.04 C 398.75 207.56 398.46 211.24 398.51 214.87 C 399.76 212.09 399.58 208.99 400.07 206.05 C 400.92 202.94 398.65 199.92 400.29 196.90 C 399.01 192.36 402.14 187.34 399.07 183.19 C 397.02 185.71 397.10 189.10 398.07 192.03 M 410.27 186.69 C 410.23 193.36 409.22 200.04 406.48 206.18 C 406.64 207.00 406.97 208.64 407.13 209.46 C 406.62 209.20 405.61 208.69 405.11 208.44 C 406.39 212.79 406.76 217.76 405.48 222.10 C 407.68 220.99 406.54 217.96 406.93 215.99 C 406.50 210.03 409.39 204.67 410.79 199.08 C 410.59 195.00 411.72 190.51 410.27 186.69 M 386.48 189.15 C 386.48 191.82 387.13 194.43 387.85 196.98 C 388.44 198.66 390.18 200.19 389.50 202.13 C 388.63 205.27 387.74 208.70 389.31 211.79 C 389.48 211.33 389.83 210.41 390.01 209.95 C 392.38 211.93 393.02 215.73 392.90 218.70 C 392.57 218.38 391.92 217.73 391.60 217.41 C 390.99 219.20 389.91 221.23 391.98 222.53 C 392.35 222.03 393.10 221.02 393.47 220.51 C 393.98 220.91 394.50 221.30 395.02 221.70 C 395.15 216.83 392.69 212.18 390.64 207.84 C 390.06 204.20 391.19 200.33 389.69 196.85 C 388.44 194.31 389.22 190.80 386.48 189.15 M 418.11 202.01 C 415.29 206.17 413.98 211.01 412.18 215.64 C 413.31 215.42 414.85 215.67 415.48 214.44 C 415.66 213.01 415.67 211.56 415.75 210.13 C 417.41 208.14 418.88 205.95 419.44 203.38 C 420.15 199.51 423.32 196.35 422.69 192.23 C 420.17 194.99 420.25 199.02 418.11 202.01 M 361.96 196.18 C 364.06 199.93 367.35 202.83 369.72 206.39 C 371.02 209.10 372.41 211.77 373.43 214.61 C 373.77 214.42 374.43 214.04 374.77 213.85 C 375.98 215.96 376.96 218.53 379.41 219.52 C 377.06 216.42 374.90 213.16 373.49 209.52 C 371.35 203.82 366.12 200.32 361.96 196.18 M 353.20 204.31 C 353.40 204.49 353.82 204.87 354.02 205.05 C 353.82 204.87 353.40 204.49 353.20 204.31 C 352.49 203.62 352.49 203.62 353.20 204.31 M 444.78 204.21 C 445.47 203.49 445.47 203.49 444.78 204.21 M 443.99 205.05 C 444.19 204.84 444.58 204.42 444.78 204.21 C 444.58 204.42 444.19 204.84 443.99 205.05 M 354.02 205.05 C 354.26 205.27 354.72 205.70 354.95 205.91 C 354.72 205.70 354.26 205.27 354.02 205.05 M 443.08 205.98 C 443.31 205.75 443.76 205.28 443.99 205.05 C 443.76 205.28 443.31 205.75 443.08 205.98 M 354.95 205.91 C 355.19 206.15 355.67 206.63 355.90 206.86 C 355.67 206.63 355.19 206.15 354.95 205.91 M 442.09 206.92 C 442.34 206.69 442.83 206.22 443.08 205.98 C 442.83 206.22 442.34 206.69 442.09 206.92 M 355.90 206.86 C 356.13 207.09 356.58 207.54 356.80 207.76 C 356.58 207.54 356.13 207.09 355.90 206.86 M 441.17 207.79 C 440.38 208.53 440.38 208.53 441.17 207.79 C 441.40 207.57 441.86 207.14 442.09 206.92 C 441.86 207.14 441.40 207.57 441.17 207.79 M 356.80 207.76 C 357.56 208.53 357.56 208.53 356.80 207.76 M 404.07 212.01 C 404.15 214.83 404.59 217.67 402.70 220.12 C 402.86 220.53 403.18 221.36 403.34 221.77 C 404.72 218.64 406.18 215.19 404.07 212.01 M 390.09 214.29 C 388.21 217.03 393.52 214.61 390.09 214.29 M 397.04 217.49 C 396.11 218.15 396.16 220.73 397.61 220.52 C 398.40 219.79 398.43 217.40 397.04 217.49 M 413.35 217.26 C 413.65 217.74 413.65 217.74 413.35 217.26 M 379.41 219.52 C 379.56 219.57 379.87 219.69 380.02 219.75 C 379.87 219.69 379.56 219.57 379.41 219.52 M 377.29 220.23 C 377.83 220.74 377.83 220.74 377.29 220.23 M 380.02 219.75 C 380.08 220.56 380.21 222.19 380.27 223.00 C 381.60 223.73 383.01 224.40 384.56 224.45 C 383.44 222.53 381.74 221.10 380.02 219.75 M 385.34 220.48 C 384.64 221.48 385.46 223.75 386.87 223.38 C 388.05 222.45 386.77 219.88 385.34 220.48 M 412.14 220.32 C 410.90 220.60 409.98 222.53 411.10 223.44 C 412.56 223.90 413.60 220.66 412.14 220.32 M 373.13 224.12 C 373.36 224.34 373.80 224.79 374.02 225.01 C 373.80 224.79 373.36 224.34 373.13 224.12 C 372.38 223.34 372.38 223.34 373.13 224.12 M 393.63 223.71 C 389.98 224.54 386.58 226.24 383.47 228.27 C 377.95 231.79 374.72 237.88 372.86 243.97 C 370.53 252.62 373.83 261.85 379.53 268.44 C 385.90 274.75 395.41 278.38 404.33 276.30 C 409.73 274.70 415.15 272.26 418.92 267.94 C 424.21 261.53 427.22 252.88 425.29 244.61 C 423.35 237.37 419.09 230.30 412.21 226.84 C 406.66 223.59 399.95 222.27 393.63 223.71 M 424.87 224.12 C 425.61 223.32 425.61 223.32 424.87 224.12 M 423.98 225.03 C 424.20 224.81 424.64 224.35 424.87 224.12 C 424.64 224.35 424.20 224.81 423.98 225.03 M 374.02 225.01 C 374.27 225.26 374.76 225.75 375.00 225.99 C 374.76 225.75 374.27 225.26 374.02 225.01 M 423.01 226.03 C 423.25 225.78 423.74 225.28 423.98 225.03 C 423.74 225.28 423.25 225.78 423.01 226.03 M 341.13 226.36 C 342.85 228.22 345.43 228.45 347.72 229.13 C 351.66 230.71 354.92 233.76 359.12 234.77 C 362.86 235.73 365.95 238.14 369.32 239.91 C 370.33 240.48 371.81 241.29 372.75 240.05 C 371.88 239.41 370.98 238.82 370.06 238.27 C 369.04 237.81 368.01 237.37 366.97 236.95 C 365.59 233.07 360.60 233.21 357.41 231.69 C 353.77 229.58 349.59 228.78 345.80 227.02 C 344.34 226.32 342.69 226.42 341.13 226.36 M 375.00 225.99 C 375.25 226.24 375.75 226.74 375.99 226.98 C 375.75 226.74 375.25 226.24 375.00 225.99 M 422.03 227.02 C 422.28 226.77 422.76 226.28 423.01 226.03 C 422.76 226.28 422.28 226.77 422.03 227.02 M 375.99 226.98 C 376.23 227.21 376.69 227.67 376.92 227.90 C 376.69 227.67 376.23 227.21 375.99 226.98 M 421.12 227.92 C 420.34 228.69 420.34 228.69 421.12 227.92 C 421.35 227.69 421.81 227.24 422.03 227.02 C 421.81 227.24 421.35 227.69 421.12 227.92 M 376.92 227.90 C 377.70 228.68 377.70 228.68 376.92 227.90 M 427.29 230.23 C 427.84 230.73 427.84 230.73 427.29 230.23 M 370.06 238.27 C 371.45 239.35 373.66 237.13 371.40 236.56 C 370.03 235.43 368.37 237.26 370.06 238.27 M 335.02 238.50 C 340.75 239.08 346.73 238.98 352.06 241.49 C 354.05 242.69 356.31 242.32 358.47 241.94 C 358.16 242.38 357.55 243.27 357.24 243.72 C 361.57 241.93 366.36 243.58 370.86 242.48 C 366.27 241.72 361.49 242.66 357.04 241.09 C 353.35 240.16 349.94 238.00 346.03 238.14 C 342.36 238.08 338.66 237.86 335.02 238.50 M 436.15 241.20 C 436.52 242.40 437.37 242.60 438.69 241.79 C 438.30 240.59 437.45 240.39 436.15 241.20 M 361.08 244.54 C 364.42 243.92 367.47 245.58 370.76 245.75 C 367.61 244.76 364.28 242.48 361.08 244.54 M 366.47 248.20 C 366.46 249.57 368.83 249.56 369.52 248.68 C 369.62 247.22 367.12 247.26 366.47 248.20 M 428.47 248.13 C 428.35 249.54 430.73 249.54 431.42 248.69 C 431.64 247.25 429.09 247.15 428.47 248.13 M 332.25 249.97 C 335.94 253.22 340.80 250.23 345.00 251.39 C 347.70 251.86 350.24 249.58 352.96 250.68 C 356.16 251.79 359.41 250.55 362.66 250.44 C 362.66 250.19 362.67 249.68 362.67 249.43 C 357.41 249.94 352.19 248.26 347.04 249.53 C 342.09 250.19 336.75 246.64 332.25 249.97 M 366.59 251.33 C 366.31 252.76 368.88 252.88 369.53 251.93 C 369.70 250.50 367.29 250.50 366.59 251.33 M 428.50 251.34 C 428.31 252.80 430.86 252.78 431.51 251.84 C 431.55 250.45 429.17 250.48 428.50 251.34 M 427.18 254.19 C 430.22 255.73 433.58 256.30 436.92 255.43 C 433.57 255.62 430.43 254.17 427.18 254.19 M 427.96 257.48 C 432.26 258.25 436.75 257.43 440.93 258.89 C 444.65 259.82 448.08 262.03 452.02 261.92 C 455.67 261.92 459.37 262.21 462.97 261.43 C 459.84 261.03 456.67 261.19 453.56 260.66 C 448.82 260.00 444.51 257.84 439.96 256.50 C 436.14 258.06 431.89 256.25 427.96 257.48 M 425.23 260.11 C 426.11 260.71 427.02 261.27 427.96 261.81 C 428.97 262.23 430.00 262.62 431.04 262.99 C 431.84 265.85 435.16 266.46 437.62 267.30 C 440.69 268.01 443.26 269.97 446.32 270.72 C 449.90 271.52 453.00 274.17 456.84 273.68 C 455.75 272.85 454.63 272.01 453.27 271.72 C 446.80 270.19 441.85 265.17 435.42 263.55 C 432.92 262.89 430.85 261.29 428.64 260.06 C 427.65 259.56 425.80 258.36 425.23 260.11 M 370.28 261.96 C 367.92 263.32 370.98 264.68 372.16 263.28 C 373.40 262.14 371.15 261.02 370.28 261.96 M 425.94 263.11 C 427.05 264.57 430.06 263.32 427.96 261.81 C 427.12 261.06 424.66 261.95 425.94 263.11 M 350.33 269.59 C 347.50 271.57 343.57 271.05 341.12 273.69 C 342.69 273.73 344.27 273.54 345.58 272.61 C 348.27 270.79 351.72 271.18 354.54 269.68 C 358.44 267.43 363.12 267.13 366.83 264.46 C 365.85 264.12 364.92 263.55 363.88 263.52 C 359.12 264.95 354.51 266.86 350.33 269.59 M 416.52 273.10 C 416.52 274.24 416.56 275.38 416.61 276.53 C 415.59 276.10 414.55 275.69 413.44 275.61 C 415.43 278.26 418.21 280.21 420.04 283.01 C 422.61 286.87 424.43 291.16 426.79 295.14 C 429.47 297.85 431.93 300.81 434.77 303.37 C 435.21 303.34 436.08 303.30 436.52 303.28 C 434.95 301.42 432.38 300.38 431.61 297.94 C 430.98 296.11 429.29 295.04 428.07 293.65 C 426.25 292.03 426.96 289.32 425.83 287.35 C 423.96 283.88 421.56 280.75 419.04 277.73 C 418.26 276.15 417.83 274.35 416.52 273.10 M 385.97 276.96 C 384.46 278.13 385.68 281.14 387.24 278.92 C 387.96 278.10 387.08 275.56 385.97 276.96 M 387.24 278.92 C 386.81 279.95 386.42 280.99 386.06 282.05 C 383.13 282.77 382.44 286.15 381.71 288.65 C 381.15 291.47 379.30 293.81 378.64 296.60 C 377.92 300.49 374.39 303.73 375.59 307.91 C 376.66 306.41 377.42 304.73 377.79 302.92 C 378.80 298.12 382.77 294.61 383.82 289.83 C 384.63 286.07 387.13 283.06 388.88 279.72 C 389.44 278.70 390.22 277.22 389.05 276.26 C 388.40 277.12 387.80 278.00 387.24 278.92 M 390.30 290.84 C 389.70 295.05 386.63 298.62 387.10 303.03 C 387.27 306.41 386.51 309.96 387.65 313.23 C 387.90 306.67 388.81 300.11 391.49 294.07 C 391.09 292.74 390.60 291.35 391.11 289.98 C 392.01 290.27 392.59 290.93 392.86 291.94 C 391.46 287.44 392.19 282.70 391.56 278.09 C 390.64 282.30 391.75 286.72 390.30 290.84 M 393.75 287.87 C 394.22 286.63 393.71 285.34 393.63 284.10 C 394.01 282.12 394.67 280.20 394.81 278.18 C 393.17 281.20 392.40 284.55 393.75 287.87 M 403.15 278.01 C 402.34 283.32 405.90 288.23 407.51 293.10 C 407.76 295.65 407.00 298.24 407.48 300.77 C 409.26 305.53 409.91 310.73 412.84 315.02 C 413.85 313.00 412.82 310.94 411.98 309.08 C 410.68 306.37 410.27 303.20 408.08 300.97 C 408.80 296.45 410.27 291.83 408.87 287.27 C 408.50 288.35 407.91 289.27 407.08 290.03 C 405.51 286.10 405.20 281.75 403.15 278.01 M 413.10 284.24 C 411.60 287.33 416.31 284.41 413.10 284.24 Z" />
<path fill="#ce870e" opacity="1.00" d=" M 382.78 245.19 C 385.87 242.05 391.15 241.34 394.65 244.25 C 396.50 244.77 395.57 246.58 395.57 247.93 C 392.61 250.18 388.69 250.94 385.50 248.69 C 384.90 247.30 383.92 246.16 382.78 245.19 M 387.72 248.41 C 388.61 248.33 390.37 248.16 391.25 248.07 C 391.30 246.53 391.35 245.00 391.40 243.46 C 388.25 243.04 387.31 245.84 387.72 248.41 M 393.25 246.24 C 393.81 246.74 393.81 246.74 393.25 246.24 Z" />
<path fill="#ce870e" opacity="1.00" d=" M 412.54 243.03 C 413.56 243.88 414.59 244.77 415.28 245.94 C 414.72 246.17 413.61 246.64 413.05 246.88 C 414.33 244.72 410.67 244.92 412.23 246.92 C 412.42 247.40 412.80 248.36 412.99 248.85 C 409.56 250.67 405.10 250.67 402.56 247.35 L 404.18 246.81 C 404.94 246.28 405.69 245.73 406.44 245.17 C 406.61 246.13 406.80 247.10 406.98 248.07 C 407.74 248.12 409.26 248.22 410.02 248.27 C 410.16 247.05 410.32 245.83 410.48 244.61 C 410.99 244.21 412.02 243.42 412.54 243.03 Z" />
</g>
<g id="#ae630fff">
<path fill="#ae630f" opacity="1.00" d=" M 398.07 192.03 C 397.10 189.10 397.02 185.71 399.07 183.19 C 402.14 187.34 399.01 192.36 400.29 196.90 C 398.65 199.92 400.92 202.94 400.07 206.05 C 399.58 208.99 399.76 212.09 398.51 214.87 C 398.46 211.24 398.75 207.56 397.72 204.04 C 396.44 200.01 399.57 196.05 398.07 192.03 Z" />
<path fill="#ae630f" opacity="1.00" d=" M 386.48 189.15 C 389.22 190.80 388.44 194.31 389.69 196.85 C 391.19 200.33 390.06 204.20 390.64 207.84 C 392.69 212.18 395.15 216.83 395.02 221.70 C 394.50 221.30 393.98 220.91 393.47 220.51 C 393.10 221.02 392.35 222.03 391.98 222.53 C 389.91 221.23 390.99 219.20 391.60 217.41 C 391.92 217.73 392.57 218.38 392.90 218.70 C 393.02 215.73 392.38 211.93 390.01 209.95 C 389.83 210.41 389.48 211.33 389.31 211.79 C 387.74 208.70 388.63 205.27 389.50 202.13 C 390.18 200.19 388.44 198.66 387.85 196.98 C 387.13 194.43 386.48 191.82 386.48 189.15 Z" />
<path fill="#ae630f" opacity="1.00" d=" M 418.11 202.01 C 420.25 199.02 420.17 194.99 422.69 192.23 C 423.32 196.35 420.15 199.51 419.44 203.38 C 418.88 205.95 417.41 208.14 415.75 210.13 C 415.67 211.56 415.66 213.01 415.48 214.44 C 414.85 215.67 413.31 215.42 412.18 215.64 C 413.98 211.01 415.29 206.17 418.11 202.01 Z" />
<path fill="#ae630f" opacity="1.00" d=" M 434.18 195.84 C 434.55 195.44 434.55 195.44 434.18 195.84 Z" />
<path fill="#ae630f" opacity="1.00" d=" M 429.94 202.88 C 430.90 200.29 431.75 197.47 434.18 195.84 C 432.79 199.33 431.78 202.97 430.21 206.39 C 429.14 208.82 426.34 209.74 424.93 211.90 C 422.77 215.89 418.29 219.04 419.13 224.13 C 417.76 224.46 417.42 226.02 416.60 226.97 C 416.53 225.69 416.44 224.41 416.37 223.14 C 415.52 224.05 414.67 224.96 413.81 225.85 C 413.67 223.78 414.97 222.18 416.14 220.63 C 418.34 217.95 419.67 214.62 422.23 212.23 C 425.13 209.44 428.51 206.80 429.94 202.88 Z" />
<path fill="#ae630f" opacity="1.00" d=" M 353.20 204.31 C 352.49 203.62 352.49 203.62 353.20 204.31 Z" />
<path fill="#ae630f" opacity="1.00" d=" M 444.78 204.21 C 445.47 203.49 445.47 203.49 444.78 204.21 Z" />
<path fill="#ae630f" opacity="1.00" d=" M 353.20 204.31 C 353.40 204.49 353.82 204.87 354.02 205.05 C 353.82 204.87 353.40 204.49 353.20 204.31 Z" />
<path fill="#ae630f" opacity="1.00" d=" M 443.99 205.05 C 444.19 204.84 444.58 204.42 444.78 204.21 C 444.58 204.42 444.19 204.84 443.99 205.05 Z" />
<path fill="#ae630f" opacity="1.00" d=" M 354.02 205.05 C 354.26 205.27 354.72 205.70 354.95 205.91 C 354.72 205.70 354.26 205.27 354.02 205.05 Z" />
<path fill="#ae630f" opacity="1.00" d=" M 443.08 205.98 C 443.31 205.75 443.76 205.28 443.99 205.05 C 443.76 205.28 443.31 205.75 443.08 205.98 Z" />
<path fill="#ae630f" opacity="1.00" d=" M 354.95 205.91 C 355.19 206.15 355.67 206.63 355.90 206.86 C 355.67 206.63 355.19 206.15 354.95 205.91 Z" />
<path fill="#ae630f" opacity="1.00" d=" M 442.09 206.92 C 442.34 206.69 442.83 206.22 443.08 205.98 C 442.83 206.22 442.34 206.69 442.09 206.92 Z" />
<path fill="#ae630f" opacity="1.00" d=" M 356.80 207.76 C 357.56 208.53 357.56 208.53 356.80 207.76 Z" />
<path fill="#ae630f" opacity="1.00" d=" M 441.17 207.79 C 440.38 208.53 440.38 208.53 441.17 207.79 Z" />
<path fill="#ae630f" opacity="1.00" d=" M 404.07 212.01 C 406.18 215.19 404.72 218.64 403.34 221.77 C 403.18 221.36 402.86 220.53 402.70 220.12 C 404.59 217.67 404.15 214.83 404.07 212.01 Z" />
<path fill="#ae630f" opacity="1.00" d=" M 344.84 214.82 C 344.46 214.47 344.46 214.47 344.84 214.82 Z" />
<path fill="#ae630f" opacity="1.00" d=" M 390.09 214.29 C 393.52 214.61 388.21 217.03 390.09 214.29 Z" />
<path fill="#ae630f" opacity="1.00" d=" M 344.84 214.82 C 349.02 216.76 354.15 217.18 357.54 220.52 C 360.61 224.87 365.72 227.42 370.82 228.50 C 371.42 228.76 372.63 229.28 373.24 229.54 C 374.14 230.62 374.99 231.76 375.82 232.91 C 372.66 232.08 369.91 230.31 367.09 228.73 C 365.30 227.73 363.12 227.71 361.39 226.63 C 357.82 223.83 355.10 219.57 350.42 218.52 C 348.14 218.01 346.27 216.62 344.84 214.82 Z" />
<path fill="#ae630f" opacity="1.00" d=" M 397.04 217.49 C 398.43 217.40 398.40 219.79 397.61 220.52 C 396.16 220.73 396.11 218.15 397.04 217.49 Z" />
<path fill="#ae630f" opacity="1.00" d=" M 413.35 217.26 C 413.65 217.74 413.65 217.74 413.35 217.26 Z" />
<path fill="#ae630f" opacity="1.00" d=" M 379.41 219.52 C 379.56 219.57 379.87 219.69 380.02 219.75 C 379.87 219.69 379.56 219.57 379.41 219.52 Z" />
<path fill="#ae630f" opacity="1.00" d=" M 380.02 219.75 C 381.74 221.10 383.44 222.53 384.56 224.45 C 383.01 224.40 381.60 223.73 380.27 223.00 C 380.21 222.19 380.08 220.56 380.02 219.75 Z" />
<path fill="#ae630f" opacity="1.00" d=" M 385.34 220.48 C 386.77 219.88 388.05 222.45 386.87 223.38 C 385.46 223.75 384.64 221.48 385.34 220.48 Z" />
<path fill="#ae630f" opacity="1.00" d=" M 412.14 220.32 C 413.60 220.66 412.56 223.90 411.10 223.44 C 409.98 222.53 410.90 220.60 412.14 220.32 Z" />
<path fill="#ae630f" opacity="1.00" d=" M 374.64 222.20 C 374.78 222.36 375.06 222.68 375.19 222.85 C 375.06 222.68 374.78 222.36 374.64 222.20 Z" />
<path fill="#ae630f" opacity="1.00" d=" M 373.13 224.12 C 372.38 223.34 372.38 223.34 373.13 224.12 Z" />
<path fill="#ae630f" opacity="1.00" d=" M 375.19 222.85 C 375.38 223.00 375.74 223.30 375.93 223.45 C 375.74 223.30 375.38 223.00 375.19 222.85 Z" />
<path fill="#ae630f" opacity="1.00" d=" M 424.87 224.12 C 425.61 223.32 425.61 223.32 424.87 224.12 Z" />
<path fill="#ae630f" opacity="1.00" d=" M 373.13 224.12 C 373.36 224.34 373.80 224.79 374.02 225.01 C 373.80 224.79 373.36 224.34 373.13 224.12 Z" />
<path fill="#ae630f" opacity="1.00" d=" M 423.98 225.03 C 424.20 224.81 424.64 224.35 424.87 224.12 C 424.64 224.35 424.20 224.81 423.98 225.03 Z" />
<path fill="#ae630f" opacity="1.00" d=" M 374.02 225.01 C 374.27 225.26 374.76 225.75 375.00 225.99 C 374.76 225.75 374.27 225.26 374.02 225.01 Z" />
<path fill="#ae630f" opacity="1.00" d=" M 423.01 226.03 C 423.25 225.78 423.74 225.28 423.98 225.03 C 423.74 225.28 423.25 225.78 423.01 226.03 Z" />
<path fill="#ae630f" opacity="1.00" d=" M 426.15 226.20 C 426.31 226.06 426.63 225.79 426.79 225.65 C 426.63 225.79 426.31 226.06 426.15 226.20 Z" />
<path fill="#ae630f" opacity="1.00" d=" M 341.13 226.36 C 342.69 226.42 344.34 226.32 345.80 227.02 C 349.59 228.78 353.77 229.58 357.41 231.69 C 360.60 233.21 365.59 233.07 366.97 236.95 C 368.01 237.37 369.04 237.81 370.06 238.27 C 370.98 238.82 371.88 239.41 372.75 240.05 C 371.81 241.29 370.33 240.48 369.32 239.91 C 365.95 238.14 362.86 235.73 359.12 234.77 C 354.92 233.76 351.66 230.71 347.72 229.13 C 345.43 228.45 342.85 228.22 341.13 226.36 Z" />
<path fill="#ae630f" opacity="1.00" d=" M 375.00 225.99 C 375.25 226.24 375.75 226.74 375.99 226.98 C 375.75 226.74 375.25 226.24 375.00 225.99 Z" />
<path fill="#ae630f" opacity="1.00" d=" M 422.03 227.02 C 422.28 226.77 422.76 226.28 423.01 226.03 C 422.76 226.28 422.28 226.77 422.03 227.02 Z" />
<path fill="#ae630f" opacity="1.00" d=" M 425.56 226.91 C 425.71 226.74 426.01 226.38 426.15 226.20 C 426.01 226.38 425.71 226.74 425.56 226.91 Z" />
<path fill="#ae630f" opacity="1.00" d=" M 375.99 226.98 C 376.23 227.21 376.69 227.67 376.92 227.90 C 376.69 227.67 376.23 227.21 375.99 226.98 Z" />
<path fill="#ae630f" opacity="1.00" d=" M 421.12 227.92 C 421.35 227.69 421.81 227.24 422.03 227.02 C 421.81 227.24 421.35 227.69 421.12 227.92 Z" />
<path fill="#ae630f" opacity="1.00" d=" M 376.92 227.90 C 377.70 228.68 377.70 228.68 376.92 227.90 Z" />
<path fill="#ae630f" opacity="1.00" d=" M 421.12 227.92 C 420.34 228.69 420.34 228.69 421.12 227.92 Z" />
<path fill="#ae630f" opacity="1.00" d=" M 427.29 230.23 C 427.84 230.73 427.84 230.73 427.29 230.23 Z" />
<path fill="#ae630f" opacity="1.00" d=" M 370.06 238.27 C 368.37 237.26 370.03 235.43 371.40 236.56 C 373.66 237.13 371.45 239.35 370.06 238.27 Z" />
<path fill="#ae630f" opacity="1.00" d=" M 382.75 242.77 C 386.42 236.67 398.98 237.89 398.58 246.03 C 398.34 248.79 398.36 252.85 395.66 254.23 C 396.35 251.79 397.31 249.45 398.23 247.10 C 397.31 244.84 396.54 241.98 393.97 241.10 C 390.19 239.45 386.32 241.58 382.75 242.77 Z" />
<path fill="#ae630f" opacity="1.00" d=" M 400.67 241.80 C 404.23 238.13 411.69 237.52 414.58 242.29 C 410.87 241.12 406.46 239.33 402.91 241.85 C 399.29 244.85 400.55 250.46 402.83 253.93 C 400.25 254.18 400.45 250.70 400.18 248.95 C 400.34 246.61 399.28 243.87 400.67 241.80 Z" />
<path fill="#ae630f" opacity="1.00" d=" M 436.15 241.20 C 437.45 240.39 438.30 240.59 438.69 241.79 C 437.37 242.60 436.52 242.40 436.15 241.20 Z" />
<path fill="#ae630f" opacity="1.00" d=" M 401.83 245.65 C 404.80 243.09 408.70 242.00 412.54 243.03 C 412.02 243.42 410.99 244.21 410.48 244.61 C 410.32 245.83 410.16 247.05 410.02 248.27 C 409.26 248.22 407.74 248.12 406.98 248.07 C 406.80 247.10 406.61 246.13 406.44 245.17 C 405.69 245.73 404.94 246.28 404.18 246.81 C 403.59 246.52 402.42 245.94 401.83 245.65 Z" />
<path fill="#ae630f" opacity="1.00" d=" M 361.08 244.54 C 364.28 242.48 367.61 244.76 370.76 245.75 C 367.47 245.58 364.42 243.92 361.08 244.54 Z" />
<path fill="#ae630f" opacity="1.00" d=" M 387.72 248.41 C 387.31 245.84 388.25 243.04 391.40 243.46 C 391.35 245.00 391.30 246.53 391.25 248.07 C 390.37 248.16 388.61 248.33 387.72 248.41 Z" />
<path fill="#ae630f" opacity="1.00" d=" M 412.23 246.92 C 410.67 244.92 414.33 244.72 413.05 246.88 L 412.23 246.92 Z" />
<path fill="#ae630f" opacity="1.00" d=" M 393.25 246.24 C 393.81 246.74 393.81 246.74 393.25 246.24 Z" />
<path fill="#ae630f" opacity="1.00" d=" M 366.47 248.20 C 367.12 247.26 369.62 247.22 369.52 248.68 C 368.83 249.56 366.46 249.57 366.47 248.20 Z" />
<path fill="#ae630f" opacity="1.00" d=" M 428.47 248.13 C 429.09 247.15 431.64 247.25 431.42 248.69 C 430.73 249.54 428.35 249.54 428.47 248.13 Z" />
<path fill="#ae630f" opacity="1.00" d=" M 332.25 249.97 C 336.75 246.64 342.09 250.19 347.04 249.53 C 352.19 248.26 357.41 249.94 362.67 249.43 C 362.67 249.68 362.66 250.19 362.66 250.44 C 359.41 250.55 356.16 251.79 352.96 250.68 C 350.24 249.58 347.70 251.86 345.00 251.39 C 340.80 250.23 335.94 253.22 332.25 249.97 Z" />
<path fill="#ae630f" opacity="1.00" d=" M 366.59 251.33 C 367.29 250.50 369.70 250.50 369.53 251.93 C 368.88 252.88 366.31 252.76 366.59 251.33 Z" />
<path fill="#ae630f" opacity="1.00" d=" M 428.50 251.34 C 429.17 250.48 431.55 250.45 431.51 251.84 C 430.86 252.78 428.31 252.80 428.50 251.34 Z" />
<path fill="#ae630f" opacity="1.00" d=" M 427.18 254.19 C 430.43 254.17 433.57 255.62 436.92 255.43 C 433.58 256.30 430.22 255.73 427.18 254.19 Z" />
<path fill="#ae630f" opacity="1.00" d=" M 392.83 254.71 C 396.59 256.33 401.66 257.15 405.13 254.50 C 405.29 255.96 404.95 258.02 403.01 257.61 C 399.77 257.01 396.11 258.41 393.17 256.93 C 393.09 256.38 392.92 255.27 392.83 254.71 Z" />
<path fill="#ae630f" opacity="1.00" d=" M 363.07 260.11 C 363.81 259.11 364.84 258.79 366.17 259.16 C 365.60 260.46 364.56 260.78 363.07 260.11 Z" />
<path fill="#ae630f" opacity="1.00" d=" M 425.23 260.11 C 425.80 258.36 427.65 259.56 428.64 260.06 C 430.85 261.29 432.92 262.89 435.42 263.55 C 441.85 265.17 446.80 270.19 453.27 271.72 C 454.63 272.01 455.75 272.85 456.84 273.68 C 453.00 274.17 449.90 271.52 446.32 270.72 C 443.26 269.97 440.69 268.01 437.62 267.30 C 435.16 266.46 431.84 265.85 431.04 262.99 C 430.00 262.62 428.97 262.23 427.96 261.81 C 427.02 261.27 426.11 260.71 425.23 260.11 Z" />
<path fill="#ae630f" opacity="1.00" d=" M 392.38 262.36 C 393.24 261.54 394.04 260.63 395.06 260.00 C 396.82 262.08 400.67 262.85 402.36 260.25 C 403.73 259.95 404.57 261.67 405.64 262.33 C 403.89 263.55 402.34 265.18 400.23 265.74 C 400.72 265.06 401.71 263.70 402.20 263.02 C 400.03 263.09 397.85 263.08 395.68 263.00 C 396.18 263.67 397.17 265.00 397.66 265.66 C 395.51 265.26 394.17 263.42 392.38 262.36 Z" />
<path fill="#ae630f" opacity="1.00" d=" M 370.28 261.96 C 371.15 261.02 373.40 262.14 372.16 263.28 C 370.98 264.68 367.92 263.32 370.28 261.96 Z" />
<path fill="#ae630f" opacity="1.00" d=" M 425.94 263.11 C 424.66 261.95 427.12 261.06 427.96 261.81 C 430.06 263.32 427.05 264.57 425.94 263.11 Z" />
<path fill="#ae630f" opacity="1.00" d=" M 350.33 269.59 C 354.51 266.86 359.12 264.95 363.88 263.52 C 364.92 263.55 365.85 264.12 366.83 264.46 C 363.12 267.13 358.44 267.43 354.54 269.68 C 351.72 271.18 348.27 270.79 345.58 272.61 C 344.27 273.54 342.69 273.73 341.12 273.69 C 343.57 271.05 347.50 271.57 350.33 269.59 Z" />
<path fill="#ae630f" opacity="1.00" d=" M 363.10 272.97 C 367.18 270.95 370.27 267.54 373.41 264.36 C 373.17 265.45 372.93 266.55 372.70 267.65 C 373.71 267.57 374.73 267.49 375.76 267.41 C 374.81 268.21 373.84 268.99 372.97 269.88 C 369.93 270.44 368.46 273.52 365.71 274.67 C 361.70 277.30 356.31 277.25 353.10 281.10 C 350.27 282.85 348.05 285.38 345.21 287.08 C 347.15 284.75 349.25 282.55 351.26 280.29 C 354.31 276.59 359.10 275.30 363.10 272.97 Z" />
<path fill="#ae630f" opacity="1.00" d=" M 429.03 266.45 C 434.24 268.72 438.19 272.88 442.25 276.73 C 445.49 279.83 450.16 280.64 453.64 283.39 C 455.37 285.09 457.40 287.60 456.18 290.15 C 454.52 290.71 454.12 288.68 453.17 287.87 C 451.88 285.79 449.33 285.36 447.20 284.62 C 443.25 283.42 439.46 281.42 436.64 278.36 C 433.31 274.63 428.75 272.33 424.18 270.53 L 425.39 269.56 C 430.22 271.30 434.62 274.13 438.13 277.90 C 442.14 282.06 447.94 283.31 453.17 285.19 C 453.75 285.65 453.75 285.65 453.17 285.19 C 451.16 282.81 448.04 282.03 445.39 280.62 C 440.39 278.16 437.27 273.28 432.75 270.15 C 431.07 272.06 428.70 270.17 427.41 268.85 C 428.11 268.94 429.50 269.10 430.20 269.19 C 429.90 268.51 429.32 267.14 429.03 266.45 Z" />
<path fill="#ae630f" opacity="1.00" d=" M 376.95 272.01 C 377.16 271.81 377.57 271.41 377.78 271.21 C 377.57 271.41 377.16 271.81 376.95 272.01 Z" />
<path fill="#ae630f" opacity="1.00" d=" M 420.26 271.26 C 420.44 271.45 420.81 271.83 421.00 272.02 C 420.81 271.83 420.44 271.45 420.26 271.26 Z" />
<path fill="#ae630f" opacity="1.00" d=" M 373.37 272.79 C 373.50 272.65 373.76 272.38 373.89 272.24 C 373.76 272.38 373.50 272.65 373.37 272.79 Z" />
<path fill="#ae630f" opacity="1.00" d=" M 375.99 272.97 C 376.23 272.73 376.71 272.25 376.95 272.01 C 376.71 272.25 376.23 272.73 375.99 272.97 Z" />
<path fill="#ae630f" opacity="1.00" d=" M 421.00 272.02 C 421.24 272.27 421.73 272.77 421.97 273.03 C 421.73 272.77 421.24 272.27 421.00 272.02 Z" />
<path fill="#ae630f" opacity="1.00" d=" M 424.19 272.35 C 424.23 272.50 424.30 272.81 424.34 272.96 C 424.30 272.81 424.23 272.50 424.19 272.35 Z" />
<path fill="#ae630f" opacity="1.00" d=" M 372.62 273.63 C 372.80 273.42 373.18 273.00 373.37 272.79 C 373.18 273.00 372.80 273.42 372.62 273.63 Z" />
<path fill="#ae630f" opacity="1.00" d=" M 375.01 274.00 C 375.25 273.74 375.74 273.23 375.99 272.97 C 375.74 273.23 375.25 273.74 375.01 274.00 Z" />
<path fill="#ae630f" opacity="1.00" d=" M 416.52 273.10 C 417.83 274.35 418.26 276.15 419.04 277.73 C 421.56 280.75 423.96 283.88 425.83 287.35 C 426.96 289.32 426.25 292.03 428.07 293.65 C 429.29 295.04 430.98 296.11 431.61 297.94 C 432.38 300.38 434.95 301.42 436.52 303.28 C 436.08 303.30 435.21 303.34 434.77 303.37 C 431.93 300.81 429.47 297.85 426.79 295.14 C 424.43 291.16 422.61 286.87 420.04 283.01 C 418.21 280.21 415.43 278.26 413.44 275.61 C 414.55 275.69 415.59 276.10 416.61 276.53 C 416.56 275.38 416.52 274.24 416.52 273.10 Z" />
<path fill="#ae630f" opacity="1.00" d=" M 421.97 273.03 C 422.23 273.28 422.75 273.78 423.00 274.03 C 422.75 273.78 422.23 273.28 421.97 273.03 Z" />
<path fill="#ae630f" opacity="1.00" d=" M 424.34 272.96 L 425.50 272.39 C 432.77 280.82 440.65 288.74 448.09 297.02 C 449.26 297.99 448.87 299.39 447.90 300.35 C 439.23 293.71 431.93 285.39 423.48 278.46 L 423.81 277.33 C 426.63 278.11 428.25 280.79 430.35 282.63 C 433.62 285.57 436.44 289.08 440.27 291.33 C 440.44 291.48 440.79 291.77 440.96 291.92 C 441.19 292.14 441.65 292.57 441.87 292.79 C 442.16 293.10 442.73 293.73 443.02 294.04 C 443.27 294.29 443.77 294.78 444.02 295.03 C 444.22 295.23 444.63 295.63 444.83 295.82 C 445.65 296.65 445.65 296.65 444.83 295.82 C 444.63 295.63 444.22 295.23 444.02 295.03 C 443.77 294.78 443.27 294.29 443.02 294.04 C 442.73 293.73 442.16 293.10 441.87 292.79 C 441.65 292.57 441.19 292.14 440.96 291.92 C 440.79 291.77 440.44 291.48 440.27 291.33 C 435.89 284.44 428.87 279.74 424.34 272.96 Z" />
<path fill="#ae630f" opacity="1.00" d=" M 371.82 274.06 L 372.62 273.63 C 372.45 273.92 372.13 274.50 371.97 274.79 L 371.82 274.06 Z" />
<path fill="#ae630f" opacity="1.00" d=" M 374.00 275.03 C 374.25 274.77 374.75 274.26 375.01 274.00 C 374.75 274.26 374.25 274.77 374.00 275.03 Z" />
<path fill="#ae630f" opacity="1.00" d=" M 423.00 274.03 C 423.26 274.28 423.77 274.79 424.03 275.04 C 423.77 274.79 423.26 274.28 423.00 274.03 Z" />
<path fill="#ae630f" opacity="1.00" d=" M 370.61 274.44 L 371.97 274.79 C 368.03 280.95 361.54 285.01 357.71 291.29 C 357.55 291.46 357.22 291.82 357.06 292.00 C 356.83 292.23 356.39 292.69 356.16 292.92 C 355.86 293.20 355.25 293.75 354.95 294.03 C 354.70 294.27 354.21 294.77 353.96 295.01 C 353.76 295.22 353.35 295.62 353.14 295.83 C 352.29 296.64 352.29 296.64 353.14 295.83 C 353.35 295.62 353.76 295.22 353.96 295.01 C 354.21 294.77 354.70 294.27 354.95 294.03 C 355.25 293.75 355.86 293.20 356.16 292.92 C 356.39 292.69 356.83 292.23 357.06 292.00 C 357.22 291.82 357.55 291.46 357.71 291.29 C 364.71 286.75 369.57 279.59 376.48 274.91 L 377.76 275.43 C 368.94 283.07 360.63 291.29 351.97 299.11 C 350.98 300.29 349.61 299.97 348.71 298.88 C 349.38 297.84 350.04 296.80 350.88 295.89 C 357.46 288.75 364.23 281.77 370.61 274.44 Z" />
<path fill="#ae630f" opacity="1.00" d=" M 373.09 275.90 C 373.32 275.69 373.77 275.25 374.00 275.03 C 373.77 275.25 373.32 275.69 373.09 275.90 Z" />
<path fill="#ae630f" opacity="1.00" d=" M 421.68 275.07 L 422.06 275.43 L 422.13 275.99 L 421.50 275.72 L 421.68 275.07 Z" />
<path fill="#ae630f" opacity="1.00" d=" M 424.03 275.04 C 424.25 275.27 424.70 275.72 424.93 275.95 C 424.70 275.72 424.25 275.27 424.03 275.04 Z" />
<path fill="#ae630f" opacity="1.00" d=" M 373.09 275.90 C 372.20 276.73 372.20 276.73 373.09 275.90 Z" />
<path fill="#ae630f" opacity="1.00" d=" M 385.97 276.96 C 387.08 275.56 387.96 278.10 387.24 278.92 C 385.68 281.14 384.46 278.13 385.97 276.96 Z" />
<path fill="#ae630f" opacity="1.00" d=" M 422.13 275.99 L 422.82 276.26 L 422.90 276.92 C 422.71 276.69 422.32 276.23 422.13 275.99 Z" />
<path fill="#ae630f" opacity="1.00" d=" M 424.93 275.95 C 425.78 276.80 425.78 276.80 424.93 275.95 Z" />
<path fill="#ae630f" opacity="1.00" d=" M 387.24 278.92 C 387.80 278.00 388.40 277.12 389.05 276.26 C 390.22 277.22 389.44 278.70 388.88 279.72 C 387.13 283.06 384.63 286.07 383.82 289.83 C 382.77 294.61 378.80 298.12 377.79 302.92 C 377.42 304.73 376.66 306.41 375.59 307.91 C 374.39 303.73 377.92 300.49 378.64 296.60 C 379.30 293.81 381.15 291.47 381.71 288.65 C 382.44 286.15 383.13 282.77 386.06 282.05 C 386.42 280.99 386.81 279.95 387.24 278.92 Z" />
<path fill="#ae630f" opacity="1.00" d=" M 422.90 276.92 L 423.57 276.82 L 423.81 277.33 C 423.58 277.23 423.13 277.02 422.90 276.92 Z" />
<path fill="#ae630f" opacity="1.00" d=" M 377.56 277.28 L 378.55 278.72 C 376.81 282.67 374.20 286.15 371.09 289.13 C 366.95 293.14 365.73 298.94 363.81 304.15 C 363.37 304.68 363.37 304.68 363.81 304.15 C 366.41 301.99 367.11 298.55 368.72 295.73 C 370.63 292.11 373.94 289.58 376.61 286.56 C 378.57 284.41 379.91 281.81 381.46 279.37 L 382.23 280.71 C 379.89 285.63 375.91 289.41 372.22 293.30 C 369.14 296.52 368.36 301.17 365.63 304.62 C 363.93 306.36 361.41 308.39 358.87 307.19 C 358.25 305.56 360.30 305.14 361.09 304.19 C 363.42 302.74 363.74 299.81 364.63 297.45 C 365.86 293.55 368.02 289.92 371.10 287.19 C 374.06 284.49 375.97 280.90 377.56 277.28 Z" />
<path fill="#ae630f" opacity="1.00" d=" M 393.75 287.87 C 392.40 284.55 393.17 281.20 394.81 278.18 C 394.67 280.20 394.01 282.12 393.63 284.10 C 393.71 285.34 394.22 286.63 393.75 287.87 Z" />
<path fill="#ae630f" opacity="1.00" d=" M 403.15 278.01 C 405.20 281.75 405.51 286.10 407.08 290.03 C 407.91 289.27 408.50 288.35 408.87 287.27 C 410.27 291.83 408.80 296.45 408.08 300.97 C 410.27 303.20 410.68 306.37 411.98 309.08 C 412.82 310.94 413.85 313.00 412.84 315.02 C 409.91 310.73 409.26 305.53 407.48 300.77 C 407.00 298.24 407.76 295.65 407.51 293.10 C 405.90 288.23 402.34 283.32 403.15 278.01 Z" />
<path fill="#ae630f" opacity="1.00" d=" M 379.25 279.29 C 379.80 279.83 379.80 279.83 379.25 279.29 Z" />
<path fill="#ae630f" opacity="1.00" d=" M 413.10 284.24 C 416.31 284.41 411.60 287.33 413.10 284.24 Z" />
</g>
<g id="#f6b40eff">
<path fill="#f6b40e" opacity="1.00" d=" M 410.27 186.69 C 411.72 190.51 410.59 195.00 410.79 199.08 C 409.39 204.67 406.50 210.03 406.93 215.99 C 406.54 217.96 407.68 220.99 405.48 222.10 C 406.76 217.76 406.39 212.79 405.11 208.44 C 405.61 208.69 406.62 209.20 407.13 209.46 C 406.97 208.64 406.64 207.00 406.48 206.18 C 409.22 200.04 410.23 193.36 410.27 186.69 Z" />
<path fill="#f6b40e" opacity="1.00" d=" M 361.96 196.18 C 366.12 200.32 371.35 203.82 373.49 209.52 C 374.90 213.16 377.06 216.42 379.41 219.52 C 376.96 218.53 375.98 215.96 374.77 213.85 C 374.43 214.04 373.77 214.42 373.43 214.61 C 372.41 211.77 371.02 209.10 369.72 206.39 C 367.35 202.83 364.06 199.93 361.96 196.18 Z" />
<path fill="#f6b40e" opacity="1.00" d=" M 355.90 206.86 C 356.13 207.09 356.58 207.54 356.80 207.76 C 356.58 207.54 356.13 207.09 355.90 206.86 Z" />
<path fill="#f6b40e" opacity="1.00" d=" M 441.17 207.79 C 441.40 207.57 441.86 207.14 442.09 206.92 C 441.86 207.14 441.40 207.57 441.17 207.79 Z" />
<path fill="#f6b40e" opacity="1.00" d=" M 377.29 220.23 C 377.83 220.74 377.83 220.74 377.29 220.23 Z" />
<path fill="#f6b40e" opacity="1.00" d=" M 393.63 223.71 C 399.95 222.27 406.66 223.59 412.21 226.84 C 419.09 230.30 423.35 237.37 425.29 244.61 C 427.22 252.88 424.21 261.53 418.92 267.94 C 415.15 272.26 409.73 274.70 404.33 276.30 C 395.41 278.38 385.90 274.75 379.53 268.44 C 373.83 261.85 370.53 252.62 372.86 243.97 C 374.72 237.88 377.95 231.79 383.47 228.27 C 386.58 226.24 389.98 224.54 393.63 223.71 M 382.75 242.77 C 386.32 241.58 390.19 239.45 393.97 241.10 C 396.54 241.98 397.31 244.84 398.23 247.10 C 397.31 249.45 396.35 251.79 395.66 254.23 C 398.36 252.85 398.34 248.79 398.58 246.03 C 398.98 237.89 386.42 236.67 382.75 242.77 M 400.67 241.80 C 399.28 243.87 400.34 246.61 400.18 248.95 C 400.45 250.70 400.25 254.18 402.83 253.93 C 400.55 250.46 399.29 244.85 402.91 241.85 C 406.46 239.33 410.87 241.12 414.58 242.29 C 411.69 237.52 404.23 238.13 400.67 241.80 M 382.78 245.19 C 383.92 246.16 384.90 247.30 385.50 248.69 C 388.69 250.94 392.61 250.18 395.57 247.93 C 395.57 246.58 396.50 244.77 394.65 244.25 C 391.15 241.34 385.87 242.05 382.78 245.19 M 401.83 245.65 C 402.42 245.94 403.59 246.52 404.18 246.81 L 402.56 247.35 C 405.10 250.67 409.56 250.67 412.99 248.85 C 412.80 248.36 412.42 247.40 412.23 246.92 L 413.05 246.88 C 413.61 246.64 414.72 246.17 415.28 245.94 C 414.59 244.77 413.56 243.88 412.54 243.03 C 408.70 242.00 404.80 243.09 401.83 245.65 M 392.83 254.71 C 392.92 255.27 393.09 256.38 393.17 256.93 C 396.11 258.41 399.77 257.01 403.01 257.61 C 404.95 258.02 405.29 255.96 405.13 254.50 C 401.66 257.15 396.59 256.33 392.83 254.71 M 392.38 262.36 C 394.17 263.42 395.51 265.26 397.66 265.66 C 397.17 265.00 396.18 263.67 395.68 263.00 C 397.85 263.08 400.03 263.09 402.20 263.02 C 401.71 263.70 400.72 265.06 400.23 265.74 C 402.34 265.18 403.89 263.55 405.64 262.33 C 404.57 261.67 403.73 259.95 402.36 260.25 C 400.67 262.85 396.82 262.08 395.06 260.00 C 394.04 260.63 393.24 261.54 392.38 262.36 Z" />
<path fill="#f6b40e" opacity="1.00" d=" M 335.02 238.50 C 338.66 237.86 342.36 238.08 346.03 238.14 C 349.94 238.00 353.35 240.16 357.04 241.09 C 361.49 242.66 366.27 241.72 370.86 242.48 C 366.36 243.58 361.57 241.93 357.24 243.72 C 357.55 243.27 358.16 242.38 358.47 241.94 C 356.31 242.32 354.05 242.69 352.06 241.49 C 346.73 238.98 340.75 239.08 335.02 238.50 Z" />
<path fill="#f6b40e" opacity="1.00" d=" M 427.96 257.48 C 431.89 256.25 436.14 258.06 439.96 256.50 C 444.51 257.84 448.82 260.00 453.56 260.66 C 456.67 261.19 459.84 261.03 462.97 261.43 C 459.37 262.21 455.67 261.92 452.02 261.92 C 448.08 262.03 444.65 259.82 440.93 258.89 C 436.75 257.43 432.26 258.25 427.96 257.48 Z" />
<path fill="#f6b40e" opacity="1.00" d=" M 422.01 267.21 C 423.69 267.75 425.40 268.20 427.13 268.62 L 427.41 268.85 C 428.70 270.17 431.07 272.06 432.75 270.15 C 437.27 273.28 440.39 278.16 445.39 280.62 C 448.04 282.03 451.16 282.81 453.17 285.19 C 447.94 283.31 442.14 282.06 438.13 277.90 C 434.62 274.13 430.22 271.30 425.39 269.56 C 424.28 268.74 423.15 267.96 422.01 267.21 Z" />
<path fill="#f6b40e" opacity="1.00" d=" M 373.89 272.24 C 375.21 271.28 376.49 270.26 377.77 269.25 C 377.77 269.74 377.78 270.72 377.78 271.21 C 377.57 271.41 377.16 271.81 376.95 272.01 C 376.71 272.25 376.23 272.73 375.99 272.97 C 375.74 273.23 375.25 273.74 375.01 274.00 C 374.75 274.26 374.25 274.77 374.00 275.03 C 373.77 275.25 373.32 275.69 373.09 275.90 C 372.20 276.73 372.20 276.73 373.09 275.90 C 373.32 275.69 373.77 275.25 374.00 275.03 C 374.25 274.77 374.75 274.26 375.01 274.00 C 375.25 273.74 375.74 273.23 375.99 272.97 C 376.23 272.73 376.71 272.25 376.95 272.01 C 377.16 271.81 377.57 271.41 377.78 271.21 C 378.26 271.25 379.21 271.32 379.69 271.36 C 378.56 272.49 377.47 273.66 376.48 274.91 C 369.57 279.59 364.71 286.75 357.71 291.29 C 361.54 285.01 368.03 280.95 371.97 274.79 C 372.13 274.50 372.45 273.92 372.62 273.63 C 372.80 273.42 373.18 273.00 373.37 272.79 C 373.50 272.65 373.76 272.38 373.89 272.24 Z" />
<path fill="#f6b40e" opacity="1.00" d=" M 420.26 271.26 C 420.31 270.77 420.40 269.79 420.45 269.30 C 421.56 270.47 422.56 271.86 424.19 272.35 C 424.23 272.50 424.30 272.81 424.34 272.96 C 428.87 279.74 435.89 284.44 440.27 291.33 C 436.44 289.08 433.62 285.57 430.35 282.63 C 428.25 280.79 426.63 278.11 423.81 277.33 L 423.57 276.82 L 422.90 276.92 L 422.82 276.26 L 422.13 275.99 L 422.06 275.43 L 421.68 275.07 C 420.62 273.79 419.51 272.58 418.34 271.41 C 418.82 271.37 419.78 271.29 420.26 271.26 C 420.44 271.45 420.81 271.83 421.00 272.02 C 421.24 272.27 421.73 272.77 421.97 273.03 C 422.23 273.28 422.75 273.78 423.00 274.03 C 423.26 274.28 423.77 274.79 424.03 275.04 C 424.25 275.27 424.70 275.72 424.93 275.95 C 425.78 276.80 425.78 276.80 424.93 275.95 C 424.70 275.72 424.25 275.27 424.03 275.04 C 423.77 274.79 423.26 274.28 423.00 274.03 C 422.75 273.78 422.23 273.28 421.97 273.03 C 421.73 272.77 421.24 272.27 421.00 272.02 C 420.81 271.83 420.44 271.45 420.26 271.26 Z" />
<path fill="#f6b40e" opacity="1.00" d=" M 378.55 278.72 C 379.52 276.77 380.59 274.87 381.70 273.00 C 381.23 274.66 380.76 276.31 380.34 277.99 C 381.85 276.97 383.03 275.59 384.07 274.12 C 383.40 275.97 382.52 277.72 381.46 279.37 C 379.91 281.81 378.57 284.41 376.61 286.56 C 373.94 289.58 370.63 292.11 368.72 295.73 C 367.11 298.55 366.41 301.99 363.81 304.15 C 365.73 298.94 366.95 293.14 371.09 289.13 C 374.20 286.15 376.81 282.67 378.55 278.72 M 379.25 279.29 C 379.80 279.83 379.80 279.83 379.25 279.29 Z" />
<path fill="#f6b40e" opacity="1.00" d=" M 390.30 290.84 C 391.75 286.72 390.64 282.30 391.56 278.09 C 392.19 282.70 391.46 287.44 392.86 291.94 C 392.59 290.93 392.01 290.27 391.11 289.98 C 390.60 291.35 391.09 292.74 391.49 294.07 C 388.81 300.11 387.90 306.67 387.65 313.23 C 386.51 309.96 387.27 306.41 387.10 303.03 C 386.63 298.62 389.70 295.05 390.30 290.84 Z" />
<path fill="#f6b40e" opacity="1.00" d=" M 453.17 285.19 C 453.75 285.65 453.75 285.65 453.17 285.19 Z" />
<path fill="#f6b40e" opacity="1.00" d=" M 357.06 292.00 C 357.22 291.82 357.55 291.46 357.71 291.29 C 357.55 291.46 357.22 291.82 357.06 292.00 Z" />
<path fill="#f6b40e" opacity="1.00" d=" M 440.27 291.33 C 440.44 291.48 440.79 291.77 440.96 291.92 C 440.79 291.77 440.44 291.48 440.27 291.33 Z" />
<path fill="#f6b40e" opacity="1.00" d=" M 356.16 292.92 C 356.39 292.69 356.83 292.23 357.06 292.00 C 356.83 292.23 356.39 292.69 356.16 292.92 Z" />
<path fill="#f6b40e" opacity="1.00" d=" M 440.96 291.92 C 441.19 292.14 441.65 292.57 441.87 292.79 C 441.65 292.57 441.19 292.14 440.96 291.92 Z" />
<path fill="#f6b40e" opacity="1.00" d=" M 354.95 294.03 C 355.25 293.75 355.86 293.20 356.16 292.92 C 355.86 293.20 355.25 293.75 354.95 294.03 Z" />
<path fill="#f6b40e" opacity="1.00" d=" M 441.87 292.79 C 442.16 293.10 442.73 293.73 443.02 294.04 C 442.73 293.73 442.16 293.10 441.87 292.79 Z" />
<path fill="#f6b40e" opacity="1.00" d=" M 353.96 295.01 C 354.21 294.77 354.70 294.27 354.95 294.03 C 354.70 294.27 354.21 294.77 353.96 295.01 Z" />
<path fill="#f6b40e" opacity="1.00" d=" M 443.02 294.04 C 443.27 294.29 443.77 294.78 444.02 295.03 C 443.77 294.78 443.27 294.29 443.02 294.04 Z" />
<path fill="#f6b40e" opacity="1.00" d=" M 353.14 295.83 C 353.35 295.62 353.76 295.22 353.96 295.01 C 353.76 295.22 353.35 295.62 353.14 295.83 Z" />
<path fill="#f6b40e" opacity="1.00" d=" M 444.02 295.03 C 444.22 295.23 444.63 295.63 444.83 295.82 C 444.63 295.63 444.22 295.23 444.02 295.03 Z" />
<path fill="#f6b40e" opacity="1.00" d=" M 353.14 295.83 C 352.29 296.64 352.29 296.64 353.14 295.83 Z" />
<path fill="#f6b40e" opacity="1.00" d=" M 444.83 295.82 C 445.65 296.65 445.65 296.65 444.83 295.82 Z" />
<path fill="#f6b40e" opacity="1.00" d=" M 363.81 304.15 C 363.37 304.68 363.37 304.68 363.81 304.15 Z" />
</g>
</svg>
