<?xml version="1.0" encoding="UTF-8" ?>
<!DOCTYPE svg PUBLIC "-//W3C//DTD SVG 1.1//EN" "http://www.w3.org/Graphics/SVG/1.1/DTD/svg11.dtd">
<svg width="512px" height="341px" viewBox="0 0 512 341" version="1.1" xmlns="http://www.w3.org/2000/svg">
<g id="#ce1126ff">
<path fill="#ce1126" opacity="1.00" d=" M 0.00 0.00 L 512.00 0.00 L 512.00 85.25 C 341.33 85.25 170.67 85.25 0.00 85.25 L 0.00 0.00 Z" />
<path fill="#ce1126" opacity="1.00" d=" M 248.06 98.96 C 252.20 97.24 256.79 97.55 261.16 97.65 C 258.42 99.67 255.15 101.75 254.44 105.36 C 252.60 113.79 259.35 122.45 267.72 123.65 C 267.73 135.72 267.73 147.79 267.72 159.86 C 259.22 157.57 250.69 155.36 242.18 153.11 C 242.09 138.40 242.08 123.68 241.96 108.97 C 241.67 104.80 244.19 100.57 248.06 98.96 Z" />
<path fill="#ce1126" opacity="1.00" d=" M 215.94 131.35 C 216.82 131.28 217.70 131.21 218.59 131.15 C 218.41 132.08 218.24 133.00 218.07 133.93 C 219.05 134.64 220.03 135.36 221.01 136.07 C 220.20 137.01 219.12 137.79 218.65 138.98 C 218.94 140.24 220.20 140.89 220.99 141.82 C 220.31 142.57 219.66 143.34 219.04 144.14 C 219.34 146.14 220.82 147.84 220.68 149.94 C 220.58 161.96 220.29 173.99 220.77 186.00 C 220.66 190.69 225.39 193.36 229.30 194.59 C 234.74 196.43 240.65 195.24 245.50 192.36 C 243.45 196.97 241.09 201.91 236.54 204.54 C 232.41 207.08 226.89 206.75 222.93 204.02 C 217.12 200.09 213.76 192.95 213.95 185.98 C 213.87 173.25 213.79 160.52 213.62 147.79 C 214.57 146.82 215.53 145.85 216.48 144.88 C 215.76 143.85 215.05 142.82 214.33 141.80 C 215.12 140.89 215.91 139.97 216.70 139.06 C 215.96 138.14 215.22 137.22 214.48 136.30 C 215.05 134.68 215.55 133.03 215.94 131.35 Z" />
<path fill="#ce1126" opacity="1.00" d=" M 291.33 131.21 C 292.30 131.24 293.27 131.27 294.25 131.29 C 294.74 132.95 295.27 134.61 295.81 136.26 C 295.07 137.22 294.32 138.18 293.59 139.15 C 294.37 140.04 295.16 140.92 295.96 141.80 C 295.22 142.86 294.48 143.91 293.75 144.97 C 294.72 145.86 295.69 146.76 296.66 147.66 C 296.43 161.11 296.47 174.56 296.25 188.00 C 295.77 196.92 288.72 206.88 278.97 206.24 C 271.54 205.62 267.22 198.59 264.77 192.31 C 269.70 195.35 275.82 196.44 281.37 194.47 C 285.13 193.21 289.60 190.54 289.51 186.02 C 289.93 174.36 289.74 162.67 289.59 151.00 C 289.39 148.52 290.40 146.23 291.55 144.10 C 290.77 143.37 289.99 142.64 289.22 141.90 C 289.97 140.83 291.91 140.10 291.48 138.58 C 290.83 137.67 290.15 136.79 289.42 135.96 C 289.88 135.44 290.80 134.42 291.26 133.91 C 291.28 133.23 291.32 131.88 291.33 131.21 Z" />
<path fill="#ce1126" opacity="1.00" d=" M 0.00 255.75 C 170.67 255.75 341.33 255.75 512.00 255.75 L 512.00 341.00 L 0.00 341.00 L 0.00 255.75 Z" />
</g>
<g id="#ffffffff">
<path fill="#ffffff" opacity="1.00" d=" M 0.00 85.25 C 170.67 85.25 341.33 85.25 512.00 85.25 L 512.00 255.75 C 341.33 255.75 170.67 255.75 0.00 255.75 L 0.00 85.25 M 248.15 97.16 C 243.34 98.78 239.87 103.91 240.31 108.99 C 240.44 124.11 240.44 139.24 240.54 154.36 C 250.11 156.86 259.64 159.52 269.24 161.92 C 269.55 148.62 269.35 135.31 269.33 122.01 C 260.79 122.03 253.43 112.51 256.51 104.36 C 258.72 99.47 264.58 98.93 269.17 97.90 C 267.49 96.40 265.18 96.49 263.10 96.23 C 258.13 95.80 252.94 95.49 248.15 97.16 M 221.21 104.48 C 226.11 114.38 231.02 124.27 235.91 134.17 C 236.45 123.27 235.69 112.08 238.71 101.48 C 238.06 100.35 237.42 99.23 236.78 98.10 C 231.39 99.69 226.16 101.80 221.21 104.48 M 266.44 118.72 C 268.62 118.79 270.80 118.88 272.99 118.94 C 272.53 124.14 272.69 129.36 272.69 134.57 C 278.49 124.40 284.25 114.21 290.01 104.02 C 284.48 101.17 278.56 99.20 272.61 97.44 C 270.54 104.53 268.48 111.62 266.44 118.72 M 274.85 135.97 C 271.12 140.48 273.26 146.67 272.71 151.99 C 277.62 147.36 282.54 142.73 287.37 138.03 C 286.88 137.49 285.90 136.41 285.41 135.88 C 286.21 134.92 287.02 133.95 287.81 132.99 C 287.03 131.90 286.24 130.82 285.45 129.73 C 288.83 126.66 293.87 128.12 297.98 128.29 C 301.38 124.81 304.82 121.37 308.24 117.91 C 303.99 113.57 299.25 109.73 294.14 106.43 C 287.68 116.26 281.34 126.17 274.85 135.97 M 203.12 118.54 C 206.14 121.92 209.23 125.23 212.23 128.62 C 215.90 127.38 219.92 127.37 223.65 128.36 C 224.45 130.05 223.06 131.51 222.44 132.98 C 223.29 133.97 224.15 134.96 225.01 135.96 C 224.27 136.96 223.54 137.97 222.81 138.98 C 227.95 142.42 231.95 147.22 236.53 151.32 C 236.30 147.19 237.13 142.91 236.19 138.87 C 229.66 128.35 222.77 118.03 216.09 107.59 C 211.42 110.80 207.09 114.49 203.12 118.54 M 297.87 132.38 C 298.46 133.59 299.01 134.82 299.61 136.03 C 298.96 137.07 298.29 138.09 297.64 139.13 C 298.33 140.04 299.03 140.96 299.71 141.88 C 299.38 142.36 298.70 143.32 298.36 143.80 C 299.11 145.04 299.85 146.30 300.59 147.56 C 307.49 143.84 314.49 140.32 321.43 136.66 C 318.75 131.42 315.55 126.47 311.83 121.91 C 307.17 125.40 302.59 128.97 297.87 132.38 M 199.31 122.98 C 195.59 127.69 192.42 132.81 189.79 138.21 C 196.04 141.24 202.32 144.21 208.58 147.21 C 209.55 146.20 210.53 145.19 211.51 144.18 C 210.99 143.58 209.95 142.37 209.43 141.77 C 210.26 140.76 211.11 139.77 211.97 138.77 C 211.07 137.85 210.17 136.93 209.27 136.02 C 209.87 135.04 210.49 134.07 211.10 133.10 C 207.14 129.77 203.24 126.35 199.31 122.98 M 212.62 129.97 C 213.10 131.00 213.60 132.02 214.11 133.03 C 212.28 135.05 212.19 137.45 214.58 139.10 C 214.07 139.59 213.05 140.59 212.54 141.08 C 212.54 142.51 213.68 143.55 214.32 144.73 C 213.37 145.64 211.75 146.34 212.03 147.95 C 212.03 160.65 212.29 173.35 212.32 186.05 C 212.07 194.30 216.61 202.93 224.16 206.57 C 229.56 209.25 236.41 207.81 240.55 203.51 C 244.78 199.10 247.49 193.19 248.18 187.12 C 245.72 188.98 243.89 191.74 240.87 192.78 C 234.56 195.10 226.44 193.53 222.40 187.86 C 222.03 174.89 222.17 161.92 222.33 148.95 C 222.66 147.28 221.82 145.92 220.63 144.84 C 221.68 143.66 222.66 142.41 223.30 140.95 C 222.49 140.49 220.89 139.57 220.09 139.11 C 221.02 138.43 221.95 137.74 222.84 136.99 C 223.36 134.86 220.82 134.16 219.59 133.05 C 220.68 132.19 221.76 131.33 222.84 130.45 C 219.66 128.89 216.00 129.92 212.62 129.97 M 287.59 129.82 C 288.34 130.88 289.12 131.92 289.90 132.97 C 288.90 134.09 287.32 135.10 287.65 136.86 C 288.22 137.39 289.37 138.45 289.95 138.98 C 289.34 139.50 288.14 140.54 287.53 141.06 C 287.33 142.70 288.81 143.69 289.70 144.82 C 288.41 145.84 287.66 147.23 287.95 148.92 C 288.07 160.62 288.21 172.32 287.96 184.02 C 287.80 185.86 288.14 188.07 286.60 189.44 C 281.97 194.00 274.36 195.02 268.50 192.39 C 265.89 191.28 264.52 188.49 261.90 187.39 C 263.60 196.02 268.35 206.15 277.98 207.77 C 288.63 209.28 296.86 198.77 297.88 189.06 C 298.06 175.38 298.17 161.69 298.24 148.00 C 298.52 146.41 296.91 145.66 295.98 144.74 C 296.69 143.51 297.38 142.27 298.05 141.01 C 297.43 140.57 296.20 139.68 295.58 139.23 C 296.08 138.63 297.07 137.44 297.56 136.84 C 298.27 135.36 296.45 134.19 295.99 132.89 C 296.46 132.33 297.39 131.20 297.86 130.63 C 294.64 129.11 291.01 129.73 287.59 129.82 M 299.93 151.31 C 299.99 155.21 300.05 159.10 300.13 163.00 C 309.49 161.89 318.87 160.86 328.23 159.66 C 327.44 153.42 325.80 147.33 323.63 141.43 C 315.72 144.70 307.85 148.07 299.93 151.31 M 187.87 142.72 C 185.72 148.32 184.24 154.15 183.31 160.08 C 192.00 160.92 200.69 161.69 209.37 162.58 C 209.31 158.75 209.24 154.91 209.17 151.07 C 202.08 148.27 194.96 145.53 187.87 142.72 M 272.65 154.83 C 272.67 156.59 272.69 158.36 272.72 160.13 C 276.83 158.19 280.99 156.35 285.04 154.29 C 284.78 150.44 284.82 146.52 286.34 142.91 C 281.71 146.81 277.15 150.79 272.65 154.83 M 222.92 143.80 C 224.11 147.27 224.34 150.93 224.14 154.57 C 228.28 156.66 232.42 158.76 236.54 160.88 C 236.57 158.68 236.58 156.49 236.60 154.30 C 231.95 150.92 228.10 146.44 222.92 143.80 M 224.13 157.05 C 224.13 158.69 224.12 160.32 224.12 161.97 C 228.20 162.09 232.28 162.21 236.36 162.28 C 232.31 160.47 228.23 158.75 224.13 157.05 M 272.74 162.68 C 276.67 162.52 280.61 162.34 284.54 162.18 C 284.61 160.60 284.68 159.03 284.76 157.47 C 280.76 159.22 276.75 160.95 272.74 162.68 M 182.80 164.99 C 182.45 170.76 182.65 176.54 183.42 182.26 C 191.94 182.36 200.45 182.39 208.96 182.48 C 208.97 177.08 208.97 171.68 208.96 166.28 C 200.24 165.82 191.52 165.39 182.80 164.99 M 229.78 168.86 C 228.71 167.65 228.01 165.36 225.97 166.11 C 225.74 168.54 228.15 170.18 229.29 172.11 C 228.19 173.94 225.32 175.48 226.19 177.90 C 228.45 178.04 229.36 175.45 230.78 174.12 C 232.25 175.42 233.49 179.56 235.71 177.06 C 234.77 175.34 233.60 173.76 232.48 172.17 C 233.81 170.51 235.33 168.94 236.26 167.01 C 234.80 164.82 233.22 167.48 232.37 168.72 C 232.25 167.40 232.07 166.08 231.87 164.77 C 230.11 165.47 229.84 167.15 229.78 168.86 M 241.98 164.83 C 241.79 166.25 241.65 167.67 241.53 169.10 C 240.57 167.83 238.77 164.08 237.34 167.02 C 238.38 168.84 239.70 170.47 240.95 172.14 C 239.61 173.71 238.25 175.28 237.21 177.07 C 239.52 179.47 240.85 175.37 242.44 174.09 C 243.80 175.39 244.55 178.46 246.88 177.71 C 247.52 175.56 244.96 173.95 244.05 172.21 C 245.18 170.23 249.57 167.69 246.34 165.65 C 245.66 166.55 244.99 167.45 244.32 168.36 C 244.05 166.83 243.70 165.26 241.98 164.83 M 266.21 164.79 C 265.95 166.19 265.74 167.60 265.58 169.02 C 264.69 167.76 262.57 164.00 261.48 167.08 C 262.47 168.89 263.79 170.48 265.02 172.12 C 263.70 173.70 262.35 175.26 261.30 177.03 C 263.54 179.56 264.94 175.34 266.52 174.09 C 267.85 175.38 268.57 178.22 270.82 177.81 C 271.89 175.72 268.97 173.96 268.13 172.18 C 269.25 170.30 272.00 168.84 271.67 166.42 C 269.99 165.39 269.20 167.46 268.18 168.41 C 268.24 166.81 267.75 165.45 266.21 164.79 M 299.71 166.69 C 299.77 171.95 299.84 177.21 299.92 182.46 C 309.12 182.47 318.32 182.46 327.52 182.47 C 328.25 176.50 329.63 170.55 329.21 164.49 C 319.38 165.26 309.54 165.96 299.71 166.69 M 249.31 166.35 C 249.51 168.67 251.58 170.23 252.75 172.10 C 251.40 173.80 250.05 175.51 248.80 177.30 C 251.46 179.00 252.69 175.60 254.28 174.11 C 255.66 175.44 256.47 178.58 258.86 177.67 C 259.02 175.45 256.95 173.95 255.89 172.20 C 257.34 170.45 258.75 168.65 260.05 166.78 C 258.02 165.19 256.87 167.28 255.74 168.68 C 256.18 166.76 255.55 165.49 253.85 164.86 C 253.73 165.88 253.50 167.92 253.38 168.94 C 252.21 167.74 251.35 164.94 249.31 166.35 M 273.18 166.91 C 274.26 168.74 275.57 170.41 276.84 172.11 C 275.49 173.79 274.15 175.48 272.90 177.24 C 275.53 179.11 276.78 175.55 278.38 174.09 C 279.74 175.41 280.52 178.54 282.89 177.69 C 283.21 175.46 281.00 173.94 279.97 172.19 C 281.45 170.43 282.86 168.61 284.15 166.70 C 282.19 165.37 281.02 167.11 279.91 168.50 C 279.87 167.89 279.77 166.66 279.73 166.04 C 278.10 163.16 277.20 167.67 277.45 169.05 C 276.33 167.73 275.03 164.29 273.18 166.91 M 222.54 180.76 C 222.79 181.24 223.29 182.19 223.54 182.67 C 244.34 183.03 265.19 183.09 285.99 182.95 C 286.30 182.45 286.91 181.46 287.22 180.97 C 279.85 180.37 272.45 180.70 265.07 180.60 C 250.90 180.74 236.70 180.10 222.54 180.76 M 228.50 191.44 C 232.57 191.37 236.67 191.71 240.73 191.31 C 244.21 190.00 246.49 186.90 248.14 183.72 C 244.41 183.84 240.66 183.64 236.95 184.10 C 233.42 185.56 230.96 188.66 228.50 191.44 M 261.37 183.74 C 262.60 185.74 263.66 187.97 265.61 189.40 C 269.84 193.12 275.91 190.86 280.99 191.45 C 278.60 188.69 276.18 185.75 272.81 184.15 C 269.02 183.73 265.18 183.94 261.37 183.74 M 195.59 191.58 C 191.53 193.71 187.57 190.37 184.44 188.11 C 185.15 190.91 185.93 193.69 186.82 196.44 C 195.57 196.48 204.32 196.57 213.07 196.63 C 211.81 193.61 211.03 190.42 210.68 187.17 C 205.08 185.50 200.30 189.24 195.59 191.58 M 299.00 187.20 C 298.70 190.45 297.88 193.62 296.63 196.63 C 305.82 196.55 315.00 196.52 324.19 196.39 C 325.19 193.52 326.25 190.68 327.18 187.78 C 323.06 188.06 320.54 193.17 316.00 192.20 C 310.34 190.47 305.42 185.11 299.00 187.20 M 247.12 196.53 C 252.20 196.64 257.29 196.61 262.37 196.56 C 261.95 188.62 247.44 188.47 247.12 196.53 M 240.11 208.23 C 249.96 208.29 259.81 208.28 269.66 208.24 C 266.43 203.61 262.09 198.71 256.10 198.21 C 249.27 197.84 243.53 202.76 240.11 208.23 M 188.50 200.48 C 189.73 202.81 190.30 205.66 192.19 207.57 C 202.33 207.82 212.49 207.58 222.64 207.67 C 219.38 205.71 216.04 203.71 213.76 200.59 C 211.95 201.74 210.24 203.37 207.98 203.41 C 202.71 203.80 199.08 198.65 193.92 198.46 C 191.94 198.49 190.23 199.66 188.50 200.48 M 302.01 203.44 C 299.49 203.61 297.50 201.92 295.59 200.56 C 293.26 203.66 289.98 205.74 286.68 207.66 C 297.71 207.58 308.75 207.83 319.77 207.56 C 321.41 206.18 321.84 203.88 322.80 202.04 C 320.44 200.51 318.09 198.36 315.09 198.47 C 310.29 198.86 306.86 203.31 302.01 203.44 M 196.00 214.47 C 197.85 216.24 198.88 220.04 202.03 219.61 C 238.60 219.70 275.18 219.88 311.75 219.98 C 312.76 218.65 313.76 217.32 314.76 215.99 C 311.33 212.00 306.43 209.05 301.09 208.78 C 295.73 208.97 292.07 213.71 287.01 214.79 C 281.49 214.77 277.55 209.63 272.08 209.20 C 265.45 208.78 260.53 214.99 253.95 214.78 C 248.34 213.69 244.05 208.46 238.00 208.96 C 232.53 208.89 229.11 214.09 224.02 215.08 C 218.01 214.78 214.20 208.34 208.06 208.57 C 203.52 209.20 199.76 212.08 196.00 214.47 M 206.33 226.40 C 208.62 228.22 210.65 231.29 213.96 230.89 C 242.62 231.03 271.27 231.09 299.92 231.27 C 301.06 230.39 302.19 229.51 303.33 228.64 C 297.84 223.69 290.60 219.80 282.99 220.73 C 278.43 220.76 275.62 225.49 271.02 225.33 C 265.19 225.86 260.82 220.42 254.97 221.04 C 249.60 221.09 245.13 224.54 239.96 225.45 C 233.83 225.91 229.03 220.56 222.98 220.70 C 217.19 221.76 211.77 224.22 206.33 226.40 M 225.52 239.55 C 244.43 248.44 267.22 248.46 286.13 239.55 C 280.97 236.43 275.20 233.22 268.96 233.89 C 263.77 234.47 260.11 239.08 254.99 239.77 C 250.64 239.65 247.91 235.51 243.92 234.29 C 237.40 232.06 230.42 235.26 225.52 239.55 Z" />
</g>
<g id="#630810ff">
<path fill="#630810" opacity="1.00" d=" M 248.15 97.16 C 252.94 95.49 258.13 95.80 263.10 96.23 C 265.18 96.49 267.49 96.40 269.17 97.90 C 264.58 98.93 258.72 99.47 256.51 104.36 C 253.43 112.51 260.79 122.03 269.33 122.01 C 269.35 135.31 269.55 148.62 269.24 161.92 C 259.64 159.52 250.11 156.86 240.54 154.36 C 240.44 139.24 240.44 124.11 240.31 108.99 C 239.87 103.91 243.34 98.78 248.15 97.16 M 248.06 98.96 C 244.19 100.57 241.67 104.80 241.96 108.97 C 242.08 123.68 242.09 138.40 242.18 153.11 C 250.69 155.36 259.22 157.57 267.72 159.86 C 267.73 147.79 267.73 135.72 267.72 123.65 C 259.35 122.45 252.60 113.79 254.44 105.36 C 255.15 101.75 258.42 99.67 261.16 97.65 C 256.79 97.55 252.20 97.24 248.06 98.96 Z" />
<path fill="#630810" opacity="1.00" d=" M 212.62 129.97 C 216.00 129.92 219.66 128.89 222.84 130.45 C 221.76 131.33 220.68 132.19 219.59 133.05 C 220.82 134.16 223.36 134.86 222.84 136.99 C 221.95 137.74 221.02 138.43 220.09 139.11 C 220.89 139.57 222.49 140.49 223.30 140.95 C 222.66 142.41 221.68 143.66 220.63 144.84 C 221.82 145.92 222.66 147.28 222.33 148.95 C 222.17 161.92 222.03 174.89 222.40 187.86 C 226.44 193.53 234.56 195.10 240.87 192.78 C 243.89 191.74 245.72 188.98 248.18 187.12 C 247.49 193.19 244.78 199.10 240.55 203.51 C 236.41 207.81 229.56 209.25 224.16 206.57 C 216.61 202.93 212.07 194.30 212.32 186.05 C 212.29 173.35 212.03 160.65 212.03 147.95 C 211.75 146.34 213.37 145.64 214.32 144.73 C 213.68 143.55 212.54 142.51 212.54 141.08 C 213.05 140.59 214.07 139.59 214.58 139.10 C 212.19 137.45 212.28 135.05 214.11 133.03 C 213.60 132.02 213.10 131.00 212.62 129.97 M 215.94 131.35 C 215.55 133.03 215.05 134.68 214.48 136.30 C 215.22 137.22 215.96 138.14 216.70 139.06 C 215.91 139.97 215.12 140.89 214.33 141.80 C 215.05 142.82 215.76 143.85 216.48 144.88 C 215.53 145.85 214.57 146.82 213.62 147.79 C 213.79 160.52 213.87 173.25 213.95 185.98 C 213.76 192.95 217.12 200.09 222.93 204.02 C 226.89 206.75 232.41 207.08 236.54 204.54 C 241.09 201.91 243.45 196.97 245.50 192.36 C 240.65 195.24 234.74 196.43 229.30 194.59 C 225.39 193.36 220.66 190.69 220.77 186.00 C 220.29 173.99 220.58 161.96 220.68 149.94 C 220.82 147.84 219.34 146.14 219.04 144.14 C 219.66 143.34 220.31 142.57 220.99 141.82 C 220.20 140.89 218.94 140.24 218.65 138.98 C 219.12 137.79 220.20 137.01 221.01 136.07 C 220.03 135.36 219.05 134.64 218.07 133.93 C 218.24 133.00 218.41 132.08 218.59 131.15 C 217.70 131.21 216.82 131.28 215.94 131.35 Z" />
<path fill="#630810" opacity="1.00" d=" M 287.59 129.82 C 291.01 129.73 294.64 129.11 297.86 130.63 C 297.39 131.20 296.46 132.33 295.99 132.89 C 296.45 134.19 298.27 135.36 297.56 136.84 C 297.07 137.44 296.08 138.63 295.58 139.23 C 296.20 139.68 297.43 140.57 298.05 141.01 C 297.38 142.27 296.69 143.51 295.98 144.74 C 296.91 145.66 298.52 146.41 298.24 148.00 C 298.17 161.69 298.06 175.38 297.88 189.06 C 296.86 198.77 288.63 209.28 277.98 207.77 C 268.35 206.15 263.60 196.02 261.90 187.39 C 264.52 188.49 265.89 191.28 268.50 192.39 C 274.36 195.02 281.97 194.00 286.60 189.44 C 288.14 188.07 287.80 185.86 287.96 184.02 C 288.21 172.32 288.07 160.62 287.95 148.92 C 287.66 147.23 288.41 145.84 289.70 144.82 C 288.81 143.69 287.33 142.70 287.53 141.06 C 288.14 140.54 289.34 139.50 289.95 138.98 C 289.37 138.45 288.22 137.39 287.65 136.86 C 287.32 135.10 288.90 134.09 289.90 132.97 C 289.12 131.92 288.34 130.88 287.59 129.82 M 291.33 131.21 C 291.32 131.88 291.28 133.23 291.26 133.91 C 290.80 134.42 289.88 135.44 289.42 135.96 C 290.15 136.79 290.83 137.67 291.48 138.58 C 291.91 140.10 289.97 140.83 289.22 141.90 C 289.99 142.64 290.77 143.37 291.55 144.10 C 290.40 146.23 289.39 148.52 289.59 151.00 C 289.74 162.67 289.93 174.36 289.51 186.02 C 289.60 190.54 285.13 193.21 281.37 194.47 C 275.82 196.44 269.70 195.35 264.77 192.31 C 267.22 198.59 271.54 205.62 278.97 206.24 C 288.72 206.88 295.77 196.92 296.25 188.00 C 296.47 174.56 296.43 161.11 296.66 147.66 C 295.69 146.76 294.72 145.86 293.75 144.97 C 294.48 143.91 295.22 142.86 295.96 141.80 C 295.16 140.92 294.37 140.04 293.59 139.15 C 294.32 138.18 295.07 137.22 295.81 136.26 C 295.27 134.61 294.74 132.95 294.25 131.29 C 293.27 131.27 292.30 131.24 291.33 131.21 Z" />
<path fill="#630810" opacity="1.00" d=" M 229.78 168.86 C 229.84 167.15 230.11 165.47 231.87 164.77 C 232.07 166.08 232.25 167.40 232.37 168.72 C 233.22 167.48 234.80 164.82 236.26 167.01 C 235.33 168.94 233.81 170.51 232.48 172.17 C 233.60 173.76 234.77 175.34 235.71 177.06 C 233.49 179.56 232.25 175.42 230.78 174.12 C 229.36 175.45 228.45 178.04 226.19 177.90 C 225.32 175.48 228.19 173.94 229.29 172.11 C 228.15 170.18 225.74 168.54 225.97 166.11 C 228.01 165.36 228.71 167.65 229.78 168.86 Z" />
<path fill="#630810" opacity="1.00" d=" M 241.98 164.83 C 243.70 165.26 244.05 166.83 244.32 168.36 C 244.99 167.45 245.66 166.55 246.34 165.65 C 249.57 167.69 245.18 170.23 244.05 172.21 C 244.96 173.95 247.52 175.56 246.88 177.71 C 244.55 178.46 243.80 175.39 242.44 174.09 C 240.85 175.37 239.52 179.47 237.21 177.07 C 238.25 175.28 239.61 173.71 240.95 172.14 C 239.70 170.47 238.38 168.84 237.34 167.02 C 238.77 164.08 240.57 167.83 241.53 169.10 C 241.65 167.67 241.79 166.25 241.98 164.83 Z" />
<path fill="#630810" opacity="1.00" d=" M 266.21 164.79 C 267.75 165.45 268.24 166.81 268.18 168.41 C 269.20 167.46 269.99 165.39 271.67 166.42 C 272.00 168.84 269.25 170.30 268.13 172.18 C 268.97 173.96 271.89 175.72 270.82 177.81 C 268.57 178.22 267.85 175.38 266.52 174.09 C 264.94 175.34 263.54 179.56 261.30 177.03 C 262.35 175.26 263.70 173.70 265.02 172.12 C 263.79 170.48 262.47 168.89 261.48 167.08 C 262.57 164.00 264.69 167.76 265.58 169.02 C 265.74 167.60 265.95 166.19 266.21 164.79 Z" />
<path fill="#630810" opacity="1.00" d=" M 249.31 166.35 C 251.35 164.94 252.21 167.74 253.38 168.94 C 253.50 167.92 253.73 165.88 253.85 164.86 C 255.55 165.49 256.18 166.76 255.74 168.68 C 256.87 167.28 258.02 165.19 260.05 166.78 C 258.75 168.65 257.34 170.45 255.89 172.20 C 256.95 173.95 259.02 175.45 258.86 177.67 C 256.47 178.58 255.66 175.44 254.28 174.11 C 252.69 175.60 251.46 179.00 248.80 177.30 C 250.05 175.51 251.40 173.80 252.75 172.10 C 251.58 170.23 249.51 168.67 249.31 166.35 Z" />
<path fill="#630810" opacity="1.00" d=" M 273.18 166.91 C 275.03 164.29 276.33 167.73 277.45 169.05 C 277.20 167.67 278.10 163.16 279.73 166.04 C 279.77 166.66 279.87 167.89 279.91 168.50 C 281.02 167.11 282.19 165.37 284.15 166.70 C 282.86 168.61 281.45 170.43 279.97 172.19 C 281.00 173.94 283.21 175.46 282.89 177.69 C 280.52 178.54 279.74 175.41 278.38 174.09 C 276.78 175.55 275.53 179.11 272.90 177.24 C 274.15 175.48 275.49 173.79 276.84 172.11 C 275.57 170.41 274.26 168.74 273.18 166.91 Z" />
<path fill="#630810" opacity="1.00" d=" M 222.54 180.76 C 236.70 180.10 250.90 180.74 265.07 180.60 C 272.45 180.70 279.85 180.37 287.22 180.97 C 286.91 181.46 286.30 182.45 285.99 182.95 C 265.19 183.09 244.34 183.03 223.54 182.67 C 223.29 182.19 222.79 181.24 222.54 180.76 Z" />
<path fill="#630810" opacity="1.00" d=" M 228.50 191.44 C 230.96 188.66 233.42 185.56 236.95 184.10 C 240.66 183.64 244.41 183.84 248.14 183.72 C 246.49 186.90 244.21 190.00 240.73 191.31 C 236.67 191.71 232.57 191.37 228.50 191.44 Z" />
<path fill="#630810" opacity="1.00" d=" M 261.37 183.74 C 265.18 183.94 269.02 183.73 272.81 184.15 C 276.18 185.75 278.60 188.69 280.99 191.45 C 275.91 190.86 269.84 193.12 265.61 189.40 C 263.66 187.97 262.60 185.74 261.37 183.74 Z" />
</g>
<g id="#ff9c10ff">
<path fill="#ff9c10" opacity="1.00" d=" M 221.21 104.48 C 226.16 101.80 231.39 99.69 236.78 98.10 C 237.42 99.23 238.06 100.35 238.71 101.48 C 235.69 112.08 236.45 123.27 235.91 134.17 C 231.02 124.27 226.11 114.38 221.21 104.48 Z" />
<path fill="#ff9c10" opacity="1.00" d=" M 266.44 118.72 C 268.48 111.62 270.54 104.53 272.61 97.44 C 278.56 99.20 284.48 101.17 290.01 104.02 C 284.25 114.21 278.49 124.40 272.69 134.57 C 272.69 129.36 272.53 124.14 272.99 118.94 C 270.80 118.88 268.62 118.79 266.44 118.72 Z" />
<path fill="#ff9c10" opacity="1.00" d=" M 274.85 135.97 C 281.34 126.17 287.68 116.26 294.14 106.43 C 299.25 109.73 303.99 113.57 308.24 117.91 C 304.82 121.37 301.38 124.81 297.98 128.29 C 293.87 128.12 288.83 126.66 285.45 129.73 C 286.24 130.82 287.03 131.90 287.81 132.99 C 287.02 133.95 286.21 134.92 285.41 135.88 C 285.90 136.41 286.88 137.49 287.37 138.03 C 282.54 142.73 277.62 147.36 272.71 151.99 C 273.26 146.67 271.12 140.48 274.85 135.97 Z" />
<path fill="#ff9c10" opacity="1.00" d=" M 203.12 118.54 C 207.09 114.49 211.42 110.80 216.09 107.59 C 222.77 118.03 229.66 128.35 236.19 138.87 C 237.13 142.91 236.30 147.19 236.53 151.32 C 231.95 147.22 227.95 142.42 222.81 138.98 C 223.54 137.97 224.27 136.96 225.01 135.96 C 224.15 134.96 223.29 133.97 222.44 132.98 C 223.06 131.51 224.45 130.05 223.65 128.36 C 219.92 127.37 215.90 127.38 212.23 128.62 C 209.23 125.23 206.14 121.92 203.12 118.54 Z" />
<path fill="#ff9c10" opacity="1.00" d=" M 297.87 132.38 C 302.59 128.97 307.17 125.40 311.83 121.91 C 315.55 126.47 318.75 131.42 321.43 136.66 C 314.49 140.32 307.49 143.84 300.59 147.56 C 299.85 146.30 299.11 145.04 298.36 143.80 C 298.70 143.32 299.38 142.36 299.71 141.88 C 299.03 140.96 298.33 140.04 297.64 139.13 C 298.29 138.09 298.96 137.07 299.61 136.03 C 299.01 134.82 298.46 133.59 297.87 132.38 Z" />
<path fill="#ff9c10" opacity="1.00" d=" M 199.31 122.98 C 203.24 126.35 207.14 129.77 211.10 133.10 C 210.49 134.07 209.87 135.04 209.27 136.02 C 210.17 136.93 211.07 137.85 211.97 138.77 C 211.11 139.77 210.26 140.76 209.43 141.77 C 209.95 142.37 210.99 143.58 211.51 144.18 C 210.53 145.19 209.55 146.20 208.58 147.21 C 202.32 144.21 196.04 141.24 189.79 138.21 C 192.42 132.81 195.59 127.69 199.31 122.98 Z" />
<path fill="#ff9c10" opacity="1.00" d=" M 299.93 151.31 C 307.85 148.07 315.72 144.70 323.63 141.43 C 325.80 147.33 327.44 153.42 328.23 159.66 C 318.87 160.86 309.49 161.89 300.13 163.00 C 300.05 159.10 299.99 155.21 299.93 151.31 Z" />
<path fill="#ff9c10" opacity="1.00" d=" M 187.87 142.72 C 194.96 145.53 202.08 148.27 209.17 151.07 C 209.24 154.91 209.31 158.75 209.37 162.58 C 200.69 161.69 192.00 160.92 183.31 160.08 C 184.24 154.15 185.72 148.32 187.87 142.72 Z" />
<path fill="#ff9c10" opacity="1.00" d=" M 272.65 154.83 C 277.15 150.79 281.71 146.81 286.34 142.91 C 284.82 146.52 284.78 150.44 285.04 154.29 C 280.99 156.35 276.83 158.19 272.72 160.13 C 272.69 158.36 272.67 156.59 272.65 154.83 Z" />
<path fill="#ff9c10" opacity="1.00" d=" M 222.92 143.80 C 228.10 146.44 231.95 150.92 236.60 154.30 C 236.58 156.49 236.57 158.68 236.54 160.88 C 232.42 158.76 228.28 156.66 224.14 154.57 C 224.34 150.93 224.11 147.27 222.92 143.80 Z" />
<path fill="#ff9c10" opacity="1.00" d=" M 224.13 157.05 C 228.23 158.75 232.31 160.47 236.36 162.28 C 232.28 162.21 228.20 162.09 224.12 161.97 C 224.12 160.32 224.13 158.69 224.13 157.05 Z" />
<path fill="#ff9c10" opacity="1.00" d=" M 272.74 162.68 C 276.75 160.95 280.76 159.22 284.76 157.47 C 284.68 159.03 284.61 160.60 284.54 162.18 C 280.61 162.34 276.67 162.52 272.74 162.68 Z" />
<path fill="#ff9c10" opacity="1.00" d=" M 182.80 164.99 C 191.52 165.39 200.24 165.82 208.96 166.28 C 208.97 171.68 208.97 177.08 208.96 182.48 C 200.45 182.39 191.94 182.36 183.42 182.26 C 182.65 176.54 182.45 170.76 182.80 164.99 Z" />
<path fill="#ff9c10" opacity="1.00" d=" M 299.71 166.69 C 309.54 165.96 319.38 165.26 329.21 164.49 C 329.63 170.55 328.25 176.50 327.52 182.47 C 318.32 182.46 309.12 182.47 299.92 182.46 C 299.84 177.21 299.77 171.95 299.71 166.69 Z" />
</g>
<g id="#083d9cff">
<path fill="#083d9c" opacity="1.00" d=" M 195.59 191.58 C 200.30 189.24 205.08 185.50 210.68 187.17 C 211.03 190.42 211.81 193.61 213.07 196.63 C 204.32 196.57 195.57 196.48 186.82 196.44 C 185.93 193.69 185.15 190.91 184.44 188.11 C 187.57 190.37 191.53 193.71 195.59 191.58 Z" />
<path fill="#083d9c" opacity="1.00" d=" M 299.00 187.20 C 305.42 185.11 310.34 190.47 316.00 192.20 C 320.54 193.17 323.06 188.06 327.18 187.78 C 326.25 190.68 325.19 193.52 324.19 196.39 C 315.00 196.52 305.82 196.55 296.63 196.63 C 297.88 193.62 298.70 190.45 299.00 187.20 Z" />
<path fill="#083d9c" opacity="1.00" d=" M 247.12 196.53 C 247.44 188.47 261.95 188.62 262.37 196.56 C 257.29 196.61 252.20 196.64 247.12 196.53 Z" />
<path fill="#083d9c" opacity="1.00" d=" M 240.11 208.23 C 243.53 202.76 249.27 197.84 256.10 198.21 C 262.09 198.71 266.43 203.61 269.66 208.24 C 259.81 208.28 249.96 208.29 240.11 208.23 Z" />
<path fill="#083d9c" opacity="1.00" d=" M 188.50 200.48 C 190.23 199.66 191.94 198.49 193.92 198.46 C 199.08 198.65 202.71 203.80 207.98 203.41 C 210.24 203.37 211.95 201.74 213.76 200.59 C 216.04 203.71 219.38 205.71 222.64 207.67 C 212.49 207.58 202.33 207.82 192.19 207.57 C 190.30 205.66 189.73 202.81 188.50 200.48 Z" />
<path fill="#083d9c" opacity="1.00" d=" M 302.01 203.44 C 306.86 203.31 310.29 198.86 315.09 198.47 C 318.09 198.36 320.44 200.51 322.80 202.04 C 321.84 203.88 321.41 206.18 319.77 207.56 C 308.75 207.83 297.71 207.58 286.68 207.66 C 289.98 205.74 293.26 203.66 295.59 200.56 C 297.50 201.92 299.49 203.61 302.01 203.44 Z" />
<path fill="#083d9c" opacity="1.00" d=" M 196.00 214.47 C 199.76 212.08 203.52 209.20 208.06 208.57 C 214.20 208.34 218.01 214.78 224.02 215.08 C 229.11 214.09 232.53 208.89 238.00 208.96 C 244.05 208.46 248.34 213.69 253.95 214.78 C 260.53 214.99 265.45 208.78 272.08 209.20 C 277.55 209.63 281.49 214.77 287.01 214.79 C 292.07 213.71 295.73 208.97 301.09 208.78 C 306.43 209.05 311.33 212.00 314.76 215.99 C 313.76 217.32 312.76 218.65 311.75 219.98 C 275.18 219.88 238.60 219.70 202.03 219.61 C 198.88 220.04 197.85 216.24 196.00 214.47 Z" />
<path fill="#083d9c" opacity="1.00" d=" M 206.33 226.40 C 211.77 224.22 217.19 221.76 222.98 220.70 C 229.03 220.56 233.83 225.91 239.96 225.45 C 245.13 224.54 249.60 221.09 254.97 221.04 C 260.82 220.42 265.19 225.86 271.02 225.33 C 275.62 225.49 278.43 220.76 282.99 220.73 C 290.60 219.80 297.84 223.69 303.33 228.64 C 302.19 229.51 301.06 230.39 299.92 231.27 C 271.27 231.09 242.62 231.03 213.96 230.89 C 210.65 231.29 208.62 228.22 206.33 226.40 Z" />
<path fill="#083d9c" opacity="1.00" d=" M 225.52 239.55 C 230.42 235.26 237.40 232.06 243.92 234.29 C 247.91 235.51 250.64 239.65 254.99 239.77 C 260.11 239.08 263.77 234.47 268.96 233.89 C 275.20 233.22 280.97 236.43 286.13 239.55 C 267.22 248.46 244.43 248.44 225.52 239.55 Z" />
</g>
</svg>
