<?xml version="1.0" encoding="UTF-8" ?>
<!DOCTYPE svg PUBLIC "-//W3C//DTD SVG 1.1//EN" "http://www.w3.org/Graphics/SVG/1.1/DTD/svg11.dtd">
<svg width="512px" height="307px" viewBox="0 0 512 307" version="1.1" xmlns="http://www.w3.org/2000/svg">
<g id="#ce1126ff">
<path fill="#ce1126" opacity="1.00" d=" M 0.00 0.00 L 512.00 0.00 L 512.00 307.00 L 0.00 307.00 L 0.00 0.00 M 153.56 1.57 C 152.09 6.16 150.63 10.76 149.09 15.33 C 144.28 15.35 139.46 15.32 134.65 15.33 C 138.57 18.15 142.46 20.99 146.33 23.87 C 144.88 28.44 143.31 32.98 141.93 37.58 C 145.89 34.82 149.69 31.84 153.69 29.13 C 157.56 31.94 161.39 34.81 165.30 37.56 C 163.85 32.98 162.32 28.44 160.88 23.86 C 164.73 21.00 168.67 18.27 172.48 15.36 C 167.68 15.30 162.89 15.36 158.10 15.33 C 156.56 10.75 155.15 6.13 153.56 1.57 M 255.92 1.91 C 254.32 6.37 253.08 10.94 251.41 15.37 C 246.62 15.30 241.82 15.35 237.03 15.32 C 240.92 18.18 244.88 20.95 248.74 23.84 C 247.30 28.43 245.69 32.96 244.35 37.57 C 248.23 34.76 252.13 31.97 255.99 29.12 C 259.91 31.92 263.82 34.74 267.71 37.60 C 266.27 33.00 264.72 28.44 263.27 23.84 C 267.15 20.99 271.10 18.23 274.96 15.35 C 270.17 15.33 265.39 15.30 260.60 15.38 C 258.82 10.97 257.85 6.27 255.92 1.91 M 353.91 15.32 C 349.10 15.35 344.30 15.31 339.49 15.34 C 343.35 18.23 347.35 20.93 351.13 23.92 C 349.65 28.45 348.14 32.96 346.73 37.51 C 350.68 34.85 354.48 31.98 358.29 29.13 C 362.34 31.76 366.11 34.80 370.08 37.56 C 368.68 32.97 367.11 28.44 365.67 23.86 C 369.55 21.03 373.47 18.24 377.29 15.33 C 372.49 15.32 367.69 15.36 362.90 15.32 C 361.39 10.75 359.89 6.18 358.45 1.59 C 356.83 6.13 355.44 10.75 353.91 15.32 M 43.00 42.95 C 43.01 116.65 43.01 190.35 43.00 264.05 L 43.18 263.95 C 185.07 264.03 326.96 264.06 468.85 263.94 L 469.01 264.02 C 468.99 190.34 468.98 116.66 469.01 42.97 L 468.85 43.06 C 326.96 42.94 185.07 42.97 43.19 43.05 L 43.00 42.95 M 153.55 265.61 C 152.10 270.19 150.63 274.77 149.09 279.33 C 144.27 279.35 139.45 279.32 134.63 279.34 C 138.53 282.19 142.48 284.97 146.33 287.88 C 144.89 292.46 143.31 297.00 141.92 301.60 C 145.85 298.81 149.72 295.93 153.66 293.15 C 157.55 295.96 161.42 298.79 165.31 301.61 C 163.86 297.02 162.33 292.47 160.87 287.88 C 164.72 284.99 168.72 282.30 172.53 279.35 C 167.72 279.31 162.91 279.35 158.10 279.33 C 156.55 274.76 155.17 270.14 153.55 265.61 M 251.31 279.42 C 246.55 279.24 241.77 279.38 237.01 279.31 C 240.92 282.15 244.83 284.99 248.73 287.86 C 247.27 292.46 245.74 297.04 244.27 301.64 C 248.20 298.84 252.09 295.98 256.00 293.14 C 259.94 295.93 263.82 298.81 267.74 301.64 C 266.25 297.04 264.73 292.46 263.27 287.86 C 267.20 285.05 271.09 282.19 274.99 279.34 C 270.17 279.08 265.12 279.80 260.43 279.01 C 258.86 274.73 257.63 270.32 256.14 266.00 C 253.99 270.25 253.29 275.08 251.31 279.42 M 358.39 265.58 C 356.89 270.16 355.43 274.76 353.90 279.33 C 349.10 279.35 344.30 279.32 339.50 279.33 C 343.31 282.27 347.32 284.94 351.12 287.88 C 349.68 292.47 348.13 297.02 346.70 301.60 C 350.63 298.84 354.49 295.97 358.38 293.15 C 362.32 295.90 366.17 298.77 370.07 301.57 C 368.68 296.98 367.11 292.45 365.67 287.88 C 369.51 285.01 373.50 282.33 377.26 279.34 C 372.47 279.31 367.68 279.35 362.90 279.33 C 361.35 274.76 359.93 270.15 358.39 265.58 Z" />
<path fill="#ce1126" opacity="1.00" d=" M 223.29 136.49 C 230.20 122.94 246.02 114.68 261.09 117.04 C 272.77 118.53 283.33 126.12 288.72 136.54 C 294.19 146.99 294.17 160.01 288.72 170.46 C 283.44 180.62 273.28 188.09 261.94 189.83 C 246.63 192.58 230.34 184.31 223.29 170.50 C 217.80 160.03 217.81 146.97 223.29 136.49 M 248.26 143.13 C 240.14 143.00 232.02 143.10 223.90 143.07 C 230.50 147.90 237.19 152.62 243.73 157.53 C 241.16 165.28 238.68 173.07 236.12 180.83 C 242.77 176.05 249.38 171.21 256.01 166.40 C 262.66 171.17 269.26 176.01 275.88 180.83 C 273.32 173.07 270.84 165.29 268.27 157.54 C 274.84 152.67 281.52 147.95 288.09 143.08 C 279.87 142.93 271.64 143.32 263.43 142.88 C 261.14 135.23 258.55 127.66 256.09 120.06 C 253.09 127.60 251.16 135.54 248.26 143.13 Z" />
<path fill="#ce1126" opacity="1.00" d=" M 77.28 152.59 C 81.49 154.39 85.30 157.02 88.63 160.15 C 89.96 165.02 90.75 170.04 90.81 175.09 C 85.99 172.89 81.66 169.61 78.20 165.61 C 77.09 161.36 76.95 156.95 77.28 152.59 Z" />
</g>
<g id="#fcd116ff">
<path fill="#fcd116" opacity="1.00" d=" M 153.56 1.57 C 155.15 6.13 156.56 10.75 158.10 15.33 C 162.89 15.36 167.68 15.30 172.48 15.36 C 168.67 18.27 164.73 21.00 160.88 23.86 C 162.32 28.44 163.85 32.98 165.30 37.56 C 161.39 34.81 157.56 31.94 153.69 29.13 C 149.69 31.84 145.89 34.82 141.93 37.58 C 143.31 32.98 144.88 28.44 146.33 23.87 C 142.46 20.99 138.57 18.15 134.65 15.33 C 139.46 15.32 144.28 15.35 149.09 15.33 C 150.63 10.76 152.09 6.16 153.56 1.57 Z" />
<path fill="#fcd116" opacity="1.00" d=" M 255.92 1.91 C 257.85 6.27 258.82 10.97 260.60 15.38 C 265.39 15.30 270.17 15.33 274.96 15.35 C 271.10 18.23 267.15 20.99 263.27 23.84 C 264.72 28.44 266.27 33.00 267.71 37.60 C 263.82 34.74 259.91 31.92 255.99 29.12 C 252.13 31.97 248.23 34.76 244.35 37.57 C 245.69 32.96 247.30 28.43 248.74 23.84 C 244.88 20.95 240.92 18.18 237.03 15.32 C 241.82 15.35 246.62 15.30 251.41 15.37 C 253.08 10.94 254.32 6.37 255.92 1.91 Z" />
<path fill="#fcd116" opacity="1.00" d=" M 353.91 15.32 C 355.44 10.75 356.83 6.13 358.45 1.59 C 359.89 6.18 361.39 10.75 362.90 15.32 C 367.69 15.36 372.49 15.32 377.29 15.33 C 373.47 18.24 369.55 21.03 365.67 23.86 C 367.11 28.44 368.68 32.97 370.08 37.56 C 366.11 34.80 362.34 31.76 358.29 29.13 C 354.48 31.98 350.68 34.85 346.73 37.51 C 348.14 32.96 349.65 28.45 351.13 23.92 C 347.35 20.93 343.35 18.23 339.49 15.34 C 344.30 15.31 349.10 15.35 353.91 15.32 Z" />
<path fill="#fcd116" opacity="1.00" d=" M 43.19 43.05 C 185.07 42.97 326.96 42.94 468.85 43.06 C 408.82 74.25 348.77 105.39 288.72 136.54 C 283.33 126.12 272.77 118.53 261.09 117.04 C 246.02 114.68 230.20 122.94 223.29 136.49 C 163.25 105.36 103.22 74.19 43.19 43.05 Z" />
<path fill="#fcd116" opacity="1.00" d=" M 248.26 143.13 C 251.16 135.54 253.09 127.60 256.09 120.06 C 258.55 127.66 261.14 135.23 263.43 142.88 C 271.64 143.32 279.87 142.93 288.09 143.08 C 281.52 147.95 274.84 152.67 268.27 157.54 C 270.84 165.29 273.32 173.07 275.88 180.83 C 269.26 176.01 262.66 171.17 256.01 166.40 C 249.38 171.21 242.77 176.05 236.12 180.83 C 238.68 173.07 241.16 165.28 243.73 157.53 C 237.19 152.62 230.50 147.90 223.90 143.07 C 232.02 143.10 240.14 143.00 248.26 143.13 Z" />
<path fill="#fcd116" opacity="1.00" d=" M 61.84 124.91 C 71.37 133.60 85.89 134.55 94.50 144.55 C 101.22 152.06 100.75 163.08 98.15 172.19 C 95.57 167.75 92.41 163.64 88.63 160.15 C 85.30 157.02 81.49 154.39 77.28 152.59 C 76.95 156.95 77.09 161.36 78.20 165.61 C 79.31 170.54 81.39 175.23 84.21 179.42 C 75.47 177.70 65.66 173.87 62.12 164.94 C 56.94 151.89 65.23 138.12 61.84 124.91 Z" />
<path fill="#fcd116" opacity="1.00" d=" M 43.18 263.95 C 103.22 232.81 163.25 201.64 223.29 170.50 C 230.34 184.31 246.63 192.58 261.94 189.83 C 273.28 188.09 283.44 180.62 288.72 170.46 C 348.77 201.61 408.82 232.75 468.85 263.94 C 326.96 264.06 185.07 264.03 43.18 263.95 Z" />
<path fill="#fcd116" opacity="1.00" d=" M 153.55 265.61 C 155.17 270.14 156.55 274.76 158.10 279.33 C 162.91 279.35 167.72 279.31 172.53 279.35 C 168.72 282.30 164.72 284.99 160.87 287.88 C 162.33 292.47 163.86 297.02 165.31 301.61 C 161.42 298.79 157.55 295.96 153.66 293.15 C 149.72 295.93 145.85 298.81 141.92 301.60 C 143.31 297.00 144.89 292.46 146.33 287.88 C 142.48 284.97 138.53 282.19 134.63 279.34 C 139.45 279.32 144.27 279.35 149.09 279.33 C 150.63 274.77 152.10 270.19 153.55 265.61 Z" />
<path fill="#fcd116" opacity="1.00" d=" M 251.31 279.42 C 253.29 275.08 253.99 270.25 256.14 266.00 C 257.63 270.32 258.86 274.73 260.43 279.01 C 265.12 279.80 270.17 279.08 274.99 279.34 C 271.09 282.19 267.20 285.05 263.27 287.86 C 264.73 292.46 266.25 297.04 267.74 301.64 C 263.82 298.81 259.94 295.93 256.00 293.14 C 252.09 295.98 248.20 298.84 244.27 301.64 C 245.74 297.04 247.27 292.46 248.73 287.86 C 244.83 284.99 240.92 282.15 237.01 279.31 C 241.77 279.38 246.55 279.24 251.31 279.42 Z" />
<path fill="#fcd116" opacity="1.00" d=" M 358.39 265.58 C 359.93 270.15 361.35 274.76 362.90 279.33 C 367.68 279.35 372.47 279.31 377.26 279.34 C 373.50 282.33 369.51 285.01 365.67 287.88 C 367.11 292.45 368.68 296.98 370.07 301.57 C 366.17 298.77 362.32 295.90 358.38 293.15 C 354.49 295.97 350.63 298.84 346.70 301.60 C 348.13 297.02 349.68 292.47 351.12 287.88 C 347.32 284.94 343.31 282.27 339.50 279.33 C 344.30 279.32 349.10 279.35 353.90 279.33 C 355.43 274.76 356.89 270.16 358.39 265.58 Z" />
</g>
<g id="#007a5eff">
<path fill="#007a5e" opacity="1.00" d=" M 43.00 42.95 L 43.19 43.05 C 103.22 74.19 163.25 105.36 223.29 136.49 C 217.81 146.97 217.80 160.03 223.29 170.50 C 163.25 201.64 103.22 232.81 43.18 263.95 L 43.00 264.05 C 43.01 190.35 43.01 116.65 43.00 42.95 M 61.84 124.91 C 65.23 138.12 56.94 151.89 62.12 164.94 C 65.66 173.87 75.47 177.70 84.21 179.42 C 81.39 175.23 79.31 170.54 78.20 165.61 C 81.66 169.61 85.99 172.89 90.81 175.09 C 90.75 170.04 89.96 165.02 88.63 160.15 C 92.41 163.64 95.57 167.75 98.15 172.19 C 100.75 163.08 101.22 152.06 94.50 144.55 C 85.89 134.55 71.37 133.60 61.84 124.91 Z" />
<path fill="#007a5e" opacity="1.00" d=" M 468.85 43.06 L 469.01 42.97 C 468.98 116.66 468.99 190.34 469.01 264.02 L 468.85 263.94 C 408.82 232.75 348.77 201.61 288.72 170.46 C 294.17 160.01 294.19 146.99 288.72 136.54 C 348.77 105.39 408.82 74.25 468.85 43.06 Z" />
</g>
</svg>
