<?xml version="1.0" encoding="UTF-8" ?>
<!DOCTYPE svg PUBLIC "-//W3C//DTD SVG 1.1//EN" "http://www.w3.org/Graphics/SVG/1.1/DTD/svg11.dtd">
<svg width="512px" height="320px" viewBox="0 0 512 320" version="1.1" xmlns="http://www.w3.org/2000/svg">
<g id="#4997d0ff">
<path fill="#4997d0" opacity="1.00" d=" M 0.00 0.00 L 170.82 0.00 C 170.55 4.35 170.67 8.70 170.66 13.06 C 170.67 115.37 170.66 217.69 170.67 320.00 L 0.00 320.00 L 0.00 0.00 Z" />
<path fill="#4997d0" opacity="1.00" d=" M 341.33 0.00 L 512.00 0.00 L 512.00 320.00 L 341.19 320.00 C 341.45 315.67 341.33 311.33 341.34 306.99 C 341.33 204.66 341.34 102.33 341.33 0.00 Z" />
</g>
<g id="#ffffffff">
<path fill="#ffffff" opacity="1.00" d=" M 170.82 0.00 L 341.33 0.00 C 341.34 102.33 341.33 204.66 341.34 306.99 C 341.33 311.33 341.45 315.67 341.19 320.00 L 170.67 320.00 C 170.66 217.69 170.67 115.37 170.66 13.06 C 170.67 8.70 170.55 4.35 170.82 0.00 M 251.39 114.15 C 251.78 114.27 252.56 114.51 252.95 114.63 C 252.51 115.34 251.64 116.77 251.21 117.49 C 250.82 121.96 254.54 125.02 258.38 126.34 C 252.67 126.73 246.93 126.55 241.22 127.01 C 239.63 126.92 238.12 127.18 236.71 127.80 C 236.03 127.31 235.36 126.82 234.70 126.33 C 234.48 126.72 234.03 127.49 233.81 127.88 C 233.40 128.12 232.58 128.62 232.17 128.86 C 229.48 126.82 227.32 124.21 224.86 121.92 C 226.13 120.26 227.39 118.60 228.49 116.83 C 225.41 117.59 222.55 119.00 219.97 120.84 C 221.51 118.25 222.76 115.48 223.38 112.52 C 221.06 114.20 218.61 116.18 217.78 119.06 C 217.25 121.78 217.29 124.57 217.06 127.33 C 219.94 126.22 222.30 124.22 224.49 122.11 C 226.91 124.44 229.09 127.01 231.67 129.16 C 232.60 129.98 233.91 129.14 234.87 128.82 C 234.19 130.60 234.79 132.60 234.79 134.45 C 235.40 137.65 237.28 140.40 238.65 143.30 C 241.14 148.02 242.73 153.13 244.34 158.19 C 243.89 158.50 242.99 159.11 242.54 159.41 L 242.61 159.59 C 241.76 159.67 240.08 159.84 239.24 159.92 C 237.13 157.13 233.16 156.05 229.80 155.22 C 232.21 157.22 234.75 159.12 237.49 160.67 C 235.91 163.11 236.79 165.99 237.18 168.61 C 234.86 170.07 232.72 171.82 230.62 173.58 C 229.08 175.37 228.42 177.73 227.51 179.86 C 227.19 180.18 226.55 180.82 226.24 181.14 C 225.17 179.90 224.09 178.66 222.98 177.46 C 223.18 179.39 223.46 181.30 223.68 183.23 C 220.31 179.89 221.96 174.62 219.03 171.08 C 218.50 174.97 218.26 178.93 218.85 182.83 C 219.94 183.35 220.81 184.13 221.48 185.15 C 221.22 185.35 220.72 185.76 220.47 185.96 C 219.17 184.01 217.91 182.05 216.73 180.04 C 218.44 180.16 218.21 177.24 216.58 177.39 L 217.83 176.67 C 219.19 172.60 218.37 167.96 216.05 164.40 C 215.92 165.34 215.67 167.21 215.54 168.14 C 212.78 164.69 216.51 161.21 216.09 157.45 C 213.69 159.78 212.32 163.03 209.54 164.97 C 209.62 166.38 209.72 167.79 209.83 169.20 L 208.09 168.45 C 206.45 167.49 204.77 166.60 203.10 165.71 C 203.25 166.26 203.57 167.36 203.72 167.90 C 202.06 168.02 200.39 168.17 198.74 168.35 C 200.87 169.65 203.26 170.44 205.48 171.57 C 207.60 173.14 209.45 175.34 212.35 175.23 C 212.20 174.60 211.91 173.32 211.76 172.69 C 212.05 173.39 212.63 174.80 212.92 175.51 C 213.76 174.74 214.59 173.96 215.44 173.21 C 215.59 174.71 215.76 176.22 215.95 177.73 L 215.71 178.29 C 215.45 177.77 214.93 176.74 214.67 176.22 C 213.70 176.13 212.79 176.36 211.95 176.91 C 208.64 176.00 205.27 175.27 201.82 175.16 C 204.89 178.24 209.35 180.42 213.76 179.24 L 213.41 180.67 C 214.00 180.63 215.19 180.55 215.78 180.51 C 216.62 182.05 217.45 183.58 218.30 185.11 C 215.65 183.84 212.98 182.45 210.02 182.14 C 211.99 184.75 214.49 186.87 217.17 188.73 C 217.08 188.99 216.88 189.53 216.78 189.80 C 215.59 189.99 214.39 190.09 213.18 190.09 C 215.06 191.27 214.70 193.12 214.08 194.96 L 214.53 194.26 L 214.89 196.03 C 216.22 197.33 217.52 198.65 218.83 199.96 C 219.30 199.68 220.26 199.10 220.74 198.82 C 223.22 199.13 225.82 199.80 228.26 198.85 L 227.64 199.98 C 227.49 200.24 227.20 200.78 227.05 201.04 C 228.24 201.78 229.43 201.74 230.63 200.92 C 230.97 201.20 231.64 201.74 231.97 202.01 C 228.68 202.43 226.05 204.61 223.78 206.88 C 229.43 206.57 236.81 205.82 238.98 199.57 C 242.49 201.75 246.56 202.57 250.60 203.12 C 250.54 203.44 250.42 204.08 250.36 204.39 C 251.88 203.41 253.33 204.39 254.68 205.16 C 254.20 205.65 253.25 206.65 252.77 207.15 C 254.94 205.81 257.24 205.74 259.42 207.14 C 258.94 206.62 257.98 205.60 257.50 205.09 C 258.96 204.39 260.42 203.72 261.90 203.07 C 261.31 205.11 260.67 207.15 260.17 209.23 C 262.11 207.01 262.77 203.76 265.44 202.22 C 265.55 198.67 267.82 195.09 270.71 193.08 C 270.32 193.41 269.55 194.06 269.16 194.38 C 268.32 195.95 267.45 197.52 266.57 199.07 C 267.47 199.27 269.26 199.67 270.15 199.87 C 268.75 200.57 267.35 201.27 265.97 202.00 C 269.66 202.14 272.79 200.02 276.09 198.72 L 277.25 199.32 C 275.52 200.12 273.79 200.94 272.11 201.82 C 275.58 205.31 280.21 207.27 284.90 208.53 C 284.01 207.14 283.10 205.80 282.15 204.47 C 283.94 204.88 285.75 205.21 287.59 205.38 C 286.15 203.73 284.47 202.35 282.75 201.03 C 285.50 200.98 288.26 200.97 291.01 201.24 C 292.41 200.25 293.78 199.23 295.17 198.23 L 294.09 198.01 C 294.72 197.27 295.35 196.52 295.98 195.77 L 295.13 194.63 C 296.93 193.35 298.71 192.02 300.25 190.42 C 297.71 190.58 295.19 190.92 292.69 191.38 C 292.12 190.65 291.56 189.93 290.99 189.21 C 295.77 189.80 299.56 185.47 302.14 181.94 C 299.17 182.78 296.38 184.10 293.57 185.33 C 294.55 183.88 295.59 182.46 296.64 181.06 C 296.14 181.12 295.13 181.25 294.63 181.31 C 293.34 183.64 291.65 185.69 289.76 187.56 L 289.20 186.44 C 289.59 184.98 289.91 183.49 290.23 182.02 C 290.69 182.42 291.63 183.22 292.09 183.63 C 293.02 179.47 292.90 175.06 291.38 171.06 C 290.07 175.70 289.38 180.52 286.62 184.62 L 286.45 184.50 C 286.50 183.76 286.60 182.30 286.65 181.57 C 285.20 181.51 283.88 181.10 282.71 180.34 C 281.84 177.95 281.08 175.53 280.63 173.03 C 285.23 162.96 285.20 151.10 281.33 140.81 C 278.43 133.59 272.71 128.09 267.29 122.73 C 264.38 119.87 261.07 117.47 257.67 115.24 C 257.56 113.54 258.39 111.03 256.10 110.46 C 253.36 109.36 252.36 112.26 251.39 114.15 M 290.71 113.57 C 291.82 118.51 293.76 123.33 297.05 127.23 C 298.86 121.73 295.00 116.57 290.71 113.57 M 213.78 122.22 C 213.94 124.31 214.77 126.33 214.39 128.45 C 212.37 126.23 213.61 122.96 212.95 120.27 C 212.78 118.96 212.91 117.41 211.57 116.66 C 210.19 120.26 209.54 124.16 210.16 128.00 C 210.35 129.37 211.68 129.94 212.87 130.23 L 212.65 129.06 C 213.24 129.22 214.43 129.54 215.02 129.70 C 215.05 129.57 215.11 129.32 215.15 129.19 C 216.72 124.53 216.80 119.58 217.17 114.72 C 215.32 116.83 214.05 119.42 213.78 122.22 M 298.37 115.64 C 297.98 119.04 298.11 122.47 298.06 125.88 C 297.04 127.80 298.10 130.09 297.01 131.95 C 294.93 131.70 294.62 129.68 296.86 129.27 C 294.53 125.19 291.92 121.09 287.95 118.41 C 288.34 123.46 292.07 127.20 293.38 131.94 C 294.57 135.20 297.21 139.03 301.23 137.75 C 301.32 136.43 301.35 135.11 301.29 133.80 C 300.82 134.35 299.87 135.44 299.40 135.99 C 298.45 134.95 298.03 133.95 298.13 132.98 L 298.71 133.16 L 299.51 133.85 C 301.89 132.94 303.46 130.65 303.04 128.05 C 303.60 123.30 300.10 119.72 298.37 115.64 M 205.83 123.98 C 204.90 129.20 204.74 136.29 210.15 139.18 C 210.20 140.08 210.31 141.88 210.36 142.78 C 211.23 141.11 210.85 137.73 213.53 137.95 C 212.96 138.87 211.82 140.70 211.25 141.62 C 217.23 142.15 221.06 136.54 223.24 131.75 C 221.77 132.42 220.33 133.17 218.89 133.92 C 220.06 131.51 221.04 129.01 221.63 126.39 C 218.12 128.67 215.71 132.12 212.85 135.09 C 213.18 133.60 213.51 132.12 213.85 130.64 C 212.74 131.98 210.32 133.73 212.64 135.26 C 211.54 136.30 210.95 137.73 210.24 139.03 C 210.01 133.76 208.67 128.46 205.83 123.98 M 302.50 140.10 C 302.08 139.31 301.65 138.53 301.23 137.75 C 301.28 140.19 301.67 142.60 302.14 145.00 C 301.15 144.52 300.16 144.04 299.17 143.58 C 300.23 143.07 301.70 142.17 300.46 140.98 C 297.63 137.98 294.28 135.22 290.30 133.94 C 292.04 137.54 294.66 140.65 298.02 142.83 C 296.51 142.39 294.99 141.97 293.47 141.62 C 294.79 143.46 296.81 144.78 298.03 146.65 C 298.42 150.85 299.81 154.88 302.85 157.92 C 303.38 157.50 304.44 156.65 304.97 156.22 C 304.32 157.45 303.68 158.68 303.06 159.92 C 308.45 159.15 310.13 153.13 310.33 148.52 C 308.41 150.21 307.09 152.43 306.24 154.83 C 307.28 151.31 307.05 147.62 307.04 144.01 C 308.66 141.67 309.92 139.09 310.53 136.29 C 308.95 137.50 307.44 138.80 305.95 140.11 C 307.54 136.16 308.48 131.93 307.83 127.67 C 305.36 131.47 303.51 135.67 302.50 140.10 M 204.02 135.74 C 203.83 141.24 207.18 146.17 206.02 151.76 C 204.40 149.65 202.79 147.53 200.94 145.61 C 201.19 151.17 203.01 157.99 208.81 160.12 C 208.97 161.51 209.13 162.91 209.29 164.31 C 209.58 163.85 210.17 162.92 210.47 162.46 C 215.21 159.90 215.53 153.68 215.45 148.95 C 212.73 150.88 214.63 155.25 211.23 156.65 C 210.63 157.45 210.04 158.25 209.44 159.04 C 210.66 156.44 212.37 154.07 213.38 151.37 C 213.60 149.56 213.85 147.75 214.24 145.97 C 216.01 144.21 218.05 142.71 219.48 140.62 C 216.95 141.12 214.56 142.11 212.21 143.13 C 211.21 143.56 209.88 144.14 209.10 143.02 C 207.40 140.60 206.07 137.91 204.02 135.74 M 295.28 147.67 C 295.32 151.39 295.87 155.14 297.40 158.56 C 297.17 158.85 296.72 159.43 296.49 159.73 C 296.93 162.45 297.82 165.23 297.08 168.00 C 296.56 170.20 296.52 172.51 297.67 174.53 C 297.50 175.58 297.21 176.62 297.20 177.69 L 297.63 177.76 L 298.07 177.46 C 301.72 176.75 304.69 174.48 306.42 171.20 C 308.46 170.28 310.53 169.40 312.52 168.34 C 310.80 167.97 309.10 167.65 307.39 167.30 C 305.17 167.93 302.97 168.66 300.95 169.79 C 301.48 168.94 302.01 168.08 302.53 167.22 C 301.64 165.67 300.81 164.10 300.10 162.47 C 299.54 161.93 298.42 160.83 297.86 160.29 C 299.15 160.71 300.40 161.13 301.69 161.56 C 301.63 160.95 301.50 159.73 301.44 159.13 C 303.42 160.84 303.08 156.44 301.33 158.32 C 299.78 154.58 298.51 150.32 295.28 147.67 M 199.02 156.70 C 200.98 160.72 203.94 165.37 209.00 165.32 C 207.01 161.24 203.12 158.41 199.02 156.70 M 302.69 167.03 C 308.06 167.81 311.35 162.42 313.07 158.15 C 309.13 160.46 305.24 163.15 302.69 167.03 M 302.16 164.66 C 303.52 164.45 303.55 161.99 302.98 160.98 C 301.59 161.17 301.64 163.63 302.16 164.66 M 304.27 162.09 C 304.90 162.67 304.90 162.67 304.27 162.09 M 293.18 168.84 C 292.70 172.46 291.91 176.73 294.89 179.53 C 295.19 179.68 295.79 179.99 296.08 180.14 L 296.51 179.84 C 296.63 175.57 296.62 171.18 295.71 166.97 C 295.75 165.91 295.69 164.86 295.52 163.81 C 294.10 165.09 293.51 167.00 293.18 168.84 M 296.91 181.32 C 302.07 182.54 307.35 180.38 311.09 176.83 C 306.31 177.42 300.02 176.94 296.91 181.32 M 293.50 180.21 C 294.05 180.81 294.05 180.81 293.50 180.21 M 239.28 200.96 C 239.84 201.54 239.84 201.54 239.28 200.96 M 228.79 208.86 C 233.74 208.98 240.42 207.80 241.80 202.16 C 237.02 203.30 232.62 205.82 228.79 208.86 M 266.18 202.66 C 267.18 208.37 274.03 209.40 278.80 209.45 C 275.30 206.10 270.87 203.83 266.18 202.66 Z" />
<path fill="#ffffff" opacity="1.00" d=" M 267.92 130.67 C 268.12 130.32 268.52 129.64 268.72 129.30 C 270.09 130.31 271.52 131.24 272.80 132.38 C 272.97 135.50 269.42 136.64 267.46 138.39 C 266.71 137.20 265.96 136.02 265.22 134.84 C 266.11 133.52 266.98 132.18 267.82 130.82 L 267.92 130.67 Z" />
<path fill="#ffffff" opacity="1.00" d=" M 268.64 140.37 C 270.49 138.29 272.38 136.24 274.29 134.20 C 279.41 141.11 281.22 150.01 279.32 158.39 C 277.96 158.07 276.62 157.76 275.29 157.38 C 274.02 151.39 271.63 145.69 268.64 140.37 Z" />
<path fill="#ffffff" opacity="1.00" d=" M 210.24 146.40 C 212.33 145.27 212.44 149.40 210.82 149.84 C 209.10 149.85 209.05 147.18 210.24 146.40 Z" />
<path fill="#ffffff" opacity="1.00" d=" M 300.84 147.34 C 302.65 147.66 303.80 146.84 304.28 144.87 C 305.10 146.90 303.70 148.89 303.36 150.87 C 302.65 149.60 301.83 148.39 300.84 147.34 Z" />
<path fill="#ffffff" opacity="1.00" d=" M 275.57 161.34 C 276.28 160.94 277.68 160.13 278.38 159.73 C 277.23 162.62 275.93 165.44 274.70 168.30 C 274.15 168.34 273.04 168.42 272.49 168.46 C 272.37 168.46 272.14 168.47 272.02 168.47 C 273.10 167.33 274.11 166.12 275.05 164.86 C 275.29 163.70 275.46 162.52 275.57 161.34 Z" />
<path fill="#ffffff" opacity="1.00" d=" M 264.85 168.56 L 265.26 168.54 C 269.35 167.60 271.36 171.41 273.45 174.11 C 273.74 174.60 274.33 175.57 274.62 176.05 C 274.52 176.54 274.30 177.50 274.19 177.98 C 272.62 180.88 270.84 183.66 269.06 186.43 C 265.34 182.39 261.56 178.40 257.79 174.41 C 260.12 172.43 262.45 170.45 264.85 168.56 Z" />
<path fill="#ffffff" opacity="1.00" d=" M 240.45 170.02 C 243.02 170.10 245.59 169.89 248.15 169.70 C 250.41 170.87 252.31 172.56 254.18 174.26 C 249.52 178.58 244.79 182.83 240.40 187.43 C 239.29 186.67 238.19 185.92 237.09 185.17 C 237.52 186.48 237.95 187.80 238.39 189.12 L 236.90 189.43 L 235.92 188.74 C 235.57 188.47 234.86 187.94 234.51 187.67 L 233.87 188.14 L 234.24 188.87 C 234.46 189.23 234.91 189.95 235.14 190.31 C 234.96 191.60 234.57 192.84 234.09 194.05 C 233.89 193.25 233.48 191.64 233.28 190.84 C 233.14 190.30 232.85 189.22 232.71 188.68 C 231.87 187.24 232.00 184.53 230.13 184.08 C 227.94 186.06 229.04 189.07 229.59 191.49 C 229.90 192.80 229.55 193.96 228.54 194.97 C 228.96 195.09 229.80 195.32 230.23 195.44 C 227.41 195.38 224.60 195.22 221.79 195.23 C 223.37 195.03 224.95 194.85 226.54 194.67 C 226.39 194.31 226.09 193.59 225.94 193.23 C 231.18 191.44 226.11 184.78 230.18 181.94 C 232.87 179.74 234.85 176.86 236.94 174.12 C 238.05 172.70 239.26 171.36 240.45 170.02 Z" />
<path fill="#ffffff" opacity="1.00" d=" M 254.98 176.85 C 255.72 175.80 256.79 177.02 257.38 177.52 C 260.90 181.08 264.10 184.93 267.59 188.51 C 263.27 194.03 258.42 199.52 252.10 202.75 C 249.14 202.32 246.26 201.50 243.35 200.83 C 243.23 200.17 243.01 198.85 242.90 198.19 C 243.96 198.95 245.03 199.70 246.12 200.43 C 246.64 196.31 244.90 192.58 242.34 189.47 C 246.42 185.14 250.44 180.72 254.98 176.85 Z" />
<path fill="#ffffff" opacity="1.00" d=" M 275.94 182.18 C 277.45 182.52 278.98 182.83 280.54 182.82 L 281.05 184.04 C 280.53 186.23 279.79 188.35 279.18 190.52 C 278.88 191.76 278.63 193.03 278.43 194.30 C 278.52 194.88 278.68 196.05 278.77 196.63 C 277.88 196.13 277.02 195.60 276.18 195.03 C 277.92 192.49 279.01 189.62 279.66 186.63 C 278.74 187.30 276.89 188.65 275.96 189.32 C 276.11 188.47 276.40 186.78 276.55 185.93 C 275.15 187.34 273.77 188.76 272.48 190.27 C 272.35 190.04 272.09 189.56 271.97 189.33 C 273.13 186.86 274.56 184.53 275.94 182.18 Z" />
<path fill="#ffffff" opacity="1.00" d=" M 259.53 199.29 C 262.77 196.84 265.25 193.59 268.24 190.87 C 266.69 194.64 264.66 198.20 262.60 201.71 C 259.89 203.65 256.28 204.64 252.95 204.03 C 255.01 202.27 257.36 200.90 259.53 199.29 Z" />
<path fill="#ffffff" opacity="1.00" d=" M 282.24 192.51 C 285.56 192.72 280.61 195.44 282.24 192.51 Z" />
<path fill="#ffffff" opacity="1.00" d=" M 234.69 196.90 C 235.57 196.24 236.45 195.60 237.35 194.97 C 238.43 196.26 239.51 197.54 240.60 198.84 C 240.12 198.67 239.16 198.33 238.68 198.16 C 237.37 197.68 236.04 197.25 234.69 196.90 Z" />
<path fill="#ffffff" opacity="1.00" d=" M 281.19 196.33 C 281.63 195.87 282.51 194.97 282.95 194.52 C 284.04 195.13 285.15 195.72 286.27 196.29 C 287.20 196.63 288.13 196.94 289.09 197.20 C 286.35 197.07 283.62 197.14 280.88 197.18 C 280.96 196.97 281.11 196.54 281.19 196.33 Z" />
</g>
<g id="#437e27ff">
<path fill="#437e27" opacity="1.00" d=" M 251.39 114.15 C 252.36 112.26 253.36 109.36 256.10 110.46 C 258.39 111.03 257.56 113.54 257.67 115.24 C 261.07 117.47 264.38 119.87 267.29 122.73 C 272.71 128.09 278.43 133.59 281.33 140.81 C 285.20 151.10 285.23 162.96 280.63 173.03 C 279.31 176.20 277.69 179.23 275.94 182.18 C 274.56 184.53 273.13 186.86 271.97 189.33 C 271.00 188.35 270.01 187.41 269.06 186.43 C 270.84 183.66 272.62 180.88 274.19 177.98 C 276.01 174.78 277.61 171.46 279.08 168.08 C 278.84 167.56 278.36 166.51 278.11 165.98 C 278.72 163.49 279.16 160.95 279.32 158.39 C 281.22 150.01 279.41 141.11 274.29 134.20 C 272.38 136.24 270.49 138.29 268.64 140.37 C 268.25 139.70 267.86 139.04 267.46 138.39 C 269.42 136.64 272.97 135.50 272.80 132.38 C 271.52 131.24 270.09 130.31 268.72 129.30 C 268.52 129.64 268.12 130.32 267.92 130.67 C 266.98 129.94 266.03 129.23 265.07 128.54 C 263.44 128.64 261.88 128.32 260.96 126.83 C 258.05 123.37 254.37 120.69 251.21 117.49 C 251.64 116.77 252.51 115.34 252.95 114.63 C 252.56 114.51 251.78 114.27 251.39 114.15 Z" />
</g>
<g id="#5c8436ff">
<path fill="#5c8436" opacity="1.00" d=" M 217.78 119.06 C 218.61 116.18 221.06 114.20 223.38 112.52 C 222.76 115.48 221.51 118.25 219.97 120.84 C 222.55 119.00 225.41 117.59 228.49 116.83 C 227.39 118.60 226.13 120.26 224.86 121.92 C 227.32 124.21 229.48 126.82 232.17 128.86 C 232.58 128.62 233.40 128.12 233.81 127.88 C 234.03 127.49 234.48 126.72 234.70 126.33 C 235.36 126.82 236.03 127.31 236.71 127.80 C 236.09 128.13 235.47 128.47 234.87 128.82 C 233.91 129.14 232.60 129.98 231.67 129.16 C 229.09 127.01 226.91 124.44 224.49 122.11 C 222.30 124.22 219.94 126.22 217.06 127.33 C 217.29 124.57 217.25 121.78 217.78 119.06 Z" />
<path fill="#5c8436" opacity="1.00" d=" M 211.57 116.66 C 212.91 117.41 212.78 118.96 212.95 120.27 C 211.51 123.06 212.01 126.15 212.65 129.06 L 212.87 130.23 C 211.68 129.94 210.35 129.37 210.16 128.00 C 209.54 124.16 210.19 120.26 211.57 116.66 Z" />
</g>
<g id="#446726ff">
<path fill="#446726" opacity="1.00" d=" M 290.71 113.57 C 295.00 116.57 298.86 121.73 297.05 127.23 C 293.76 123.33 291.82 118.51 290.71 113.57 Z" />
<path fill="#446726" opacity="1.00" d=" M 213.78 122.22 C 214.05 119.42 215.32 116.83 217.17 114.72 C 216.80 119.58 216.72 124.53 215.15 129.19 L 215.02 129.70 C 214.43 129.54 213.24 129.22 212.65 129.06 C 212.01 126.15 211.51 123.06 212.95 120.27 C 213.61 122.96 212.37 126.23 214.39 128.45 C 214.77 126.33 213.94 124.31 213.78 122.22 Z" />
<path fill="#446726" opacity="1.00" d=" M 302.69 167.03 C 305.24 163.15 309.13 160.46 313.07 158.15 C 311.35 162.42 308.06 167.81 302.69 167.03 Z" />
<path fill="#446726" opacity="1.00" d=" M 267.59 188.51 C 268.75 189.95 269.74 191.51 270.71 193.08 C 267.82 195.09 265.55 198.67 265.44 202.22 C 262.77 203.76 262.11 207.01 260.17 209.23 C 260.67 207.15 261.31 205.11 261.90 203.07 C 260.42 203.72 258.96 204.39 257.50 205.09 C 257.98 205.60 258.94 206.62 259.42 207.14 C 257.24 205.74 254.94 205.81 252.77 207.15 C 253.25 206.65 254.20 205.65 254.68 205.16 C 253.33 204.39 251.88 203.41 250.36 204.39 C 250.42 204.08 250.54 203.44 250.60 203.12 C 246.56 202.57 242.49 201.75 238.98 199.57 C 236.81 205.82 229.43 206.57 223.78 206.88 C 226.05 204.61 228.68 202.43 231.97 202.01 C 234.67 201.69 236.81 200.00 238.68 198.16 C 239.16 198.33 240.12 198.67 240.60 198.84 C 239.51 197.54 238.43 196.26 237.35 194.97 C 238.80 194.32 240.28 193.72 241.72 193.02 C 240.96 192.45 240.19 191.89 239.42 191.35 C 240.40 190.73 241.39 190.13 242.34 189.47 C 244.90 192.58 246.64 196.31 246.12 200.43 C 245.03 199.70 243.96 198.95 242.90 198.19 C 243.01 198.85 243.23 200.17 243.35 200.83 C 246.26 201.50 249.14 202.32 252.10 202.75 C 258.42 199.52 263.27 194.03 267.59 188.51 M 259.53 199.29 C 257.36 200.90 255.01 202.27 252.95 204.03 C 256.28 204.64 259.89 203.65 262.60 201.71 C 264.66 198.20 266.69 194.64 268.24 190.87 C 265.25 193.59 262.77 196.84 259.53 199.29 Z" />
<path fill="#446726" opacity="1.00" d=" M 228.79 208.86 C 232.62 205.82 237.02 203.30 241.80 202.16 C 240.42 207.80 233.74 208.98 228.79 208.86 Z" />
</g>
<g id="#486e2aff">
<path fill="#486e2a" opacity="1.00" d=" M 298.37 115.64 C 300.10 119.72 303.60 123.30 303.04 128.05 C 303.46 130.65 301.89 132.94 299.51 133.85 L 298.71 133.16 L 298.13 132.98 C 298.03 133.95 298.45 134.95 299.40 135.99 C 299.87 135.44 300.82 134.35 301.29 133.80 C 301.35 135.11 301.32 136.43 301.23 137.75 C 297.21 139.03 294.57 135.20 293.38 131.94 C 292.07 127.20 288.34 123.46 287.95 118.41 C 291.92 121.09 294.53 125.19 296.86 129.27 C 294.62 129.68 294.93 131.70 297.01 131.95 C 298.10 130.09 297.04 127.80 298.06 125.88 C 298.11 122.47 297.98 119.04 298.37 115.64 M 299.01 127.23 C 298.20 128.35 298.41 130.98 299.70 131.53 C 300.27 130.34 300.58 127.62 299.01 127.23 Z" />
</g>
<g id="#522917ff">
<path fill="#522917" opacity="1.00" d=" M 251.21 117.49 C 254.37 120.69 258.05 123.37 260.96 126.83 C 260.10 126.67 259.24 126.50 258.38 126.34 C 254.54 125.02 250.82 121.96 251.21 117.49 Z" />
</g>
<g id="#4e722eff">
<path fill="#4e722e" opacity="1.00" d=" M 205.83 123.98 C 208.67 128.46 210.01 133.76 210.24 139.03 C 210.95 137.73 211.54 136.30 212.64 135.26 C 210.32 133.73 212.74 131.98 213.85 130.64 C 213.51 132.12 213.18 133.60 212.85 135.09 C 215.71 132.12 218.12 128.67 221.63 126.39 C 221.04 129.01 220.06 131.51 218.89 133.92 C 220.33 133.17 221.77 132.42 223.24 131.75 C 221.06 136.54 217.23 142.15 211.25 141.62 C 211.82 140.70 212.96 138.87 213.53 137.95 C 210.85 137.73 211.23 141.11 210.36 142.78 C 210.31 141.88 210.20 140.08 210.15 139.18 C 204.74 136.29 204.90 129.20 205.83 123.98 Z" />
<path fill="#4e722e" opacity="1.00" d=" M 281.05 184.04 C 282.78 188.13 284.62 192.17 286.27 196.29 C 285.15 195.72 284.04 195.13 282.95 194.52 C 282.51 194.97 281.63 195.87 281.19 196.33 C 280.60 194.36 279.90 192.43 279.18 190.52 C 279.79 188.35 280.53 186.23 281.05 184.04 M 282.24 192.51 C 280.61 195.44 285.56 192.72 282.24 192.51 Z" />
<path fill="#4e722e" opacity="1.00" d=" M 237.09 185.17 C 238.19 185.92 239.29 186.67 240.40 187.43 C 239.75 188.02 239.08 188.58 238.39 189.12 C 237.95 187.80 237.52 186.48 237.09 185.17 Z" />
</g>
<g id="#f9f0aaff">
<path fill="#f9f0aa" opacity="1.00" d=" M 258.38 126.34 C 259.24 126.50 260.10 126.67 260.96 126.83 C 261.88 128.32 263.44 128.64 265.07 128.54 C 266.03 129.23 266.98 129.94 267.92 130.67 L 267.82 130.82 C 262.20 130.80 256.62 131.54 251.01 131.85 C 246.43 132.20 241.31 132.21 237.92 135.80 C 246.99 134.98 256.09 134.13 265.22 134.84 C 265.96 136.02 266.71 137.20 267.46 138.39 C 267.86 139.04 268.25 139.70 268.64 140.37 C 271.63 145.69 274.02 151.39 275.29 157.38 C 275.37 158.70 275.50 160.01 275.57 161.34 C 275.46 162.52 275.29 163.70 275.05 164.86 C 267.05 164.14 259.02 164.71 251.01 164.72 C 246.35 164.33 242.98 168.38 238.34 168.37 L 237.18 168.61 C 236.79 165.99 235.91 163.11 237.49 160.67 C 237.95 160.74 238.87 160.89 239.32 160.96 C 239.33 162.44 239.22 163.92 239.15 165.41 C 240.69 164.47 242.23 163.53 243.78 162.60 C 243.39 161.59 242.99 160.59 242.61 159.59 L 242.54 159.41 C 242.99 159.11 243.89 158.50 244.34 158.19 C 242.73 153.13 241.14 148.02 238.65 143.30 C 237.28 140.40 235.40 137.65 234.79 134.45 C 235.32 133.44 235.87 132.43 236.44 131.44 C 237.42 131.43 238.40 131.42 239.39 131.42 C 240.16 130.79 240.94 130.17 241.72 129.55 C 241.55 128.70 241.39 127.85 241.22 127.01 C 246.93 126.55 252.67 126.73 258.38 126.34 M 257.19 140.27 C 256.34 141.37 257.11 143.19 258.31 143.71 C 260.05 143.34 258.95 139.39 257.19 140.27 M 260.19 140.35 C 260.17 141.43 260.15 142.52 260.14 143.61 C 262.27 143.58 264.41 143.44 266.52 143.11 C 265.82 140.91 263.83 139.69 261.66 140.74 C 261.29 140.64 260.55 140.45 260.19 140.35 M 244.19 141.41 C 243.41 142.50 244.37 144.91 245.85 144.60 C 246.62 143.54 245.57 141.17 244.19 141.41 M 246.22 141.31 C 246.52 142.01 247.12 143.40 247.42 144.10 C 250.61 143.93 253.80 143.84 257.00 143.81 C 256.25 142.55 256.13 140.35 254.18 140.65 C 254.05 141.26 253.78 142.49 253.64 143.10 C 253.06 142.37 252.48 141.65 251.91 140.93 C 250.01 141.06 248.11 141.18 246.22 141.31 M 256.16 146.49 C 256.48 147.57 256.80 148.65 257.12 149.74 C 259.00 149.63 260.88 149.62 262.77 149.65 C 262.45 149.43 261.81 148.99 261.49 148.77 C 261.52 147.98 261.56 147.19 261.60 146.41 C 259.79 146.46 257.97 146.49 256.16 146.49 M 251.11 147.44 C 250.23 148.37 251.43 150.43 252.67 149.83 C 253.50 148.91 252.33 146.87 251.11 147.44 M 253.41 147.10 C 252.56 147.99 253.61 150.12 254.87 149.55 C 255.74 148.65 254.66 146.53 253.41 147.10 M 264.88 152.65 C 264.87 153.48 264.84 155.15 264.82 155.98 C 267.51 155.57 270.23 155.69 272.93 155.86 C 272.53 154.68 272.15 153.48 271.68 152.34 C 269.41 152.23 267.14 152.50 264.88 152.65 M 246.41 153.50 C 245.91 154.47 246.46 155.68 246.46 156.74 C 248.49 156.75 250.52 156.76 252.56 156.77 C 252.72 156.07 253.04 154.67 253.21 153.97 C 253.89 154.91 254.57 155.84 255.26 156.78 C 255.58 156.24 255.91 155.71 256.25 155.18 C 258.64 156.57 261.49 155.92 264.12 156.04 C 264.15 155.21 264.22 153.55 264.26 152.73 C 258.32 153.13 252.32 152.68 246.41 153.50 M 253.90 158.92 C 253.92 159.70 253.96 161.27 253.98 162.05 C 255.88 162.00 257.78 161.96 259.69 161.93 C 259.32 160.69 258.95 159.45 258.60 158.20 C 257.03 158.44 255.46 158.68 253.90 158.92 M 261.69 161.80 C 264.24 161.51 266.80 161.35 269.37 161.21 C 269.24 160.31 268.98 158.49 268.85 157.58 C 268.41 158.25 267.97 158.93 267.54 159.61 C 266.81 157.26 262.74 157.49 262.46 160.07 C 262.22 159.42 261.75 158.13 261.52 157.49 C 260.62 158.88 261.33 160.37 261.69 161.80 Z" />
<path fill="#f9f0aa" opacity="1.00" d=" M 255.27 160.20 C 255.77 160.70 255.77 160.70 255.27 160.20 Z" />
</g>
<g id="#d2b75eff">
<path fill="#d2b75e" opacity="1.00" d=" M 236.71 127.80 C 238.12 127.18 239.63 126.92 241.22 127.01 C 241.39 127.85 241.55 128.70 241.72 129.55 C 240.94 130.17 240.16 130.79 239.39 131.42 C 238.40 131.42 237.42 131.43 236.44 131.44 C 235.87 132.43 235.32 133.44 234.79 134.45 C 234.79 132.60 234.19 130.60 234.87 128.82 C 235.47 128.47 236.09 128.13 236.71 127.80 Z" />
</g>
<g id="#f4f5f2ff">
<path fill="#f4f5f2" opacity="1.00" d=" M 299.01 127.23 C 300.58 127.62 300.27 130.34 299.70 131.53 C 298.41 130.98 298.20 128.35 299.01 127.23 Z" />
</g>
<g id="#4a6e2cff">
<path fill="#4a6e2c" opacity="1.00" d=" M 302.50 140.10 C 303.51 135.67 305.36 131.47 307.83 127.67 C 308.48 131.93 307.54 136.16 305.95 140.11 C 307.44 138.80 308.95 137.50 310.53 136.29 C 309.92 139.09 308.66 141.67 307.04 144.01 C 307.05 147.62 307.28 151.31 306.24 154.83 C 307.09 152.43 308.41 150.21 310.33 148.52 C 310.13 153.13 308.45 159.15 303.06 159.92 C 303.68 158.68 304.32 157.45 304.97 156.22 C 304.44 156.65 303.38 157.50 302.85 157.92 C 299.81 154.88 298.42 150.85 298.03 146.65 C 296.81 144.78 294.79 143.46 293.47 141.62 C 294.99 141.97 296.51 142.39 298.02 142.83 C 294.66 140.65 292.04 137.54 290.30 133.94 C 294.28 135.22 297.63 137.98 300.46 140.98 C 301.70 142.17 300.23 143.07 299.17 143.58 C 300.16 144.04 301.15 144.52 302.14 145.00 C 301.67 142.60 301.28 140.19 301.23 137.75 C 301.65 138.53 302.08 139.31 302.50 140.10 M 300.84 147.34 C 301.83 148.39 302.65 149.60 303.36 150.87 C 303.70 148.89 305.10 146.90 304.28 144.87 C 303.80 146.84 302.65 147.66 300.84 147.34 Z" />
</g>
<g id="#ba5166ff">
<path fill="#ba5166" opacity="1.00" d=" M 215.15 129.19 C 215.11 129.32 215.05 129.57 215.02 129.70 L 215.15 129.19 Z" />
</g>
<g id="#e4cf7bff">
<path fill="#e4cf7b" opacity="1.00" d=" M 251.01 131.85 C 256.62 131.54 262.20 130.80 267.82 130.82 C 266.98 132.18 266.11 133.52 265.22 134.84 C 256.09 134.13 246.99 134.98 237.92 135.80 C 241.31 132.21 246.43 132.20 251.01 131.85 Z" />
</g>
<g id="#577e31ff">
<path fill="#577e31" opacity="1.00" d=" M 204.02 135.74 C 206.07 137.91 207.40 140.60 209.10 143.02 C 209.88 144.14 211.21 143.56 212.21 143.13 C 214.56 142.11 216.95 141.12 219.48 140.62 C 218.05 142.71 216.01 144.21 214.24 145.97 C 213.85 147.75 213.60 149.56 213.38 151.37 C 212.37 154.07 210.66 156.44 209.44 159.04 C 210.04 158.25 210.63 157.45 211.23 156.65 C 214.63 155.25 212.73 150.88 215.45 148.95 C 215.53 153.68 215.21 159.90 210.47 162.46 C 210.17 162.92 209.58 163.85 209.29 164.31 C 209.13 162.91 208.97 161.51 208.81 160.12 C 203.01 157.99 201.19 151.17 200.94 145.61 C 202.79 147.53 204.40 149.65 206.02 151.76 C 207.18 146.17 203.83 141.24 204.02 135.74 M 210.24 146.40 C 209.05 147.18 209.10 149.85 210.82 149.84 C 212.44 149.40 212.33 145.27 210.24 146.40 Z" />
</g>
<g id="#dec66eff">
<path fill="#dec66e" opacity="1.00" d=" M 257.19 140.27 C 258.95 139.39 260.05 143.34 258.31 143.71 C 257.11 143.19 256.34 141.37 257.19 140.27 Z" />
</g>
<g id="#d2b455ff">
<path fill="#d2b455" opacity="1.00" d=" M 260.19 140.35 C 260.55 140.45 261.29 140.64 261.66 140.74 C 263.83 139.69 265.82 140.91 266.52 143.11 C 264.41 143.44 262.27 143.58 260.14 143.61 C 260.15 142.52 260.17 141.43 260.19 140.35 Z" />
<path fill="#d2b455" opacity="1.00" d=" M 246.22 141.31 C 248.11 141.18 250.01 141.06 251.91 140.93 C 252.48 141.65 253.06 142.37 253.64 143.10 C 253.78 142.49 254.05 141.26 254.18 140.65 C 256.13 140.35 256.25 142.55 257.00 143.81 C 253.80 143.84 250.61 143.93 247.42 144.10 C 247.12 143.40 246.52 142.01 246.22 141.31 Z" />
<path fill="#d2b455" opacity="1.00" d=" M 256.16 146.49 C 257.97 146.49 259.79 146.46 261.60 146.41 C 261.56 147.19 261.52 147.98 261.49 148.77 C 261.81 148.99 262.45 149.43 262.77 149.65 C 260.88 149.62 259.00 149.63 257.12 149.74 C 256.80 148.65 256.48 147.57 256.16 146.49 Z" />
</g>
<g id="#dcc36bff">
<path fill="#dcc36b" opacity="1.00" d=" M 244.19 141.41 C 245.57 141.17 246.62 143.54 245.85 144.60 C 244.37 144.91 243.41 142.50 244.19 141.41 Z" />
<path fill="#dcc36b" opacity="1.00" d=" M 253.41 147.10 C 254.66 146.53 255.74 148.65 254.87 149.55 C 253.61 150.12 252.56 147.99 253.41 147.10 Z" />
</g>
<g id="#d9bd62ff">
<path fill="#d9bd62" opacity="1.00" d=" M 251.11 147.44 C 252.33 146.87 253.50 148.91 252.67 149.83 C 251.43 150.43 250.23 148.37 251.11 147.44 Z" />
</g>
<g id="#5b8435ff">
<path fill="#5b8435" opacity="1.00" d=" M 295.28 147.67 C 298.51 150.32 299.78 154.58 301.33 158.32 L 301.44 159.13 C 301.50 159.73 301.63 160.95 301.69 161.56 C 300.40 161.13 299.15 160.71 297.86 160.29 C 298.42 160.83 299.54 161.93 300.10 162.47 C 300.81 164.10 301.64 165.67 302.53 167.22 C 302.01 168.08 301.48 168.94 300.95 169.79 C 302.97 168.66 305.17 167.93 307.39 167.30 C 309.10 167.65 310.80 167.97 312.52 168.34 C 310.53 169.40 308.46 170.28 306.42 171.20 C 304.69 174.48 301.72 176.75 298.07 177.46 L 297.63 177.76 L 297.20 177.69 C 297.21 176.62 297.50 175.58 297.67 174.53 C 296.52 172.51 296.56 170.20 297.08 168.00 C 297.82 165.23 296.93 162.45 296.49 159.73 C 296.72 159.43 297.17 158.85 297.40 158.56 C 295.87 155.14 295.32 151.39 295.28 147.67 M 300.44 171.07 C 299.55 171.89 298.81 173.33 299.25 174.53 C 301.31 175.41 303.30 170.28 300.44 171.07 Z" />
</g>
<g id="#dbc167ff">
<path fill="#dbc167" opacity="1.00" d=" M 264.88 152.65 C 267.14 152.50 269.41 152.23 271.68 152.34 C 272.15 153.48 272.53 154.68 272.93 155.86 C 270.23 155.69 267.51 155.57 264.82 155.98 C 264.84 155.15 264.87 153.48 264.88 152.65 Z" />
<path fill="#dbc167" opacity="1.00" d=" M 253.90 158.92 C 255.46 158.68 257.03 158.44 258.60 158.20 C 258.95 159.45 259.32 160.69 259.69 161.93 C 257.78 161.96 255.88 162.00 253.98 162.05 C 253.96 161.27 253.92 159.70 253.90 158.92 M 255.27 160.20 C 255.77 160.70 255.77 160.70 255.27 160.20 Z" />
</g>
<g id="#dbbf66ff">
<path fill="#dbbf66" opacity="1.00" d=" M 246.41 153.50 C 252.32 152.68 258.32 153.13 264.26 152.73 C 264.22 153.55 264.15 155.21 264.12 156.04 C 261.49 155.92 258.64 156.57 256.25 155.18 C 255.91 155.71 255.58 156.24 255.26 156.78 C 254.57 155.84 253.89 154.91 253.21 153.97 C 253.04 154.67 252.72 156.07 252.56 156.77 C 250.52 156.76 248.49 156.75 246.46 156.74 C 246.46 155.68 245.91 154.47 246.41 153.50 Z" />
</g>
<g id="#afb4b4ff">
<path fill="#afb4b4" opacity="1.00" d=" M 229.80 155.22 C 233.16 156.05 237.13 157.13 239.24 159.92 L 239.32 160.96 C 238.87 160.89 237.95 160.74 237.49 160.67 C 234.75 159.12 232.21 157.22 229.80 155.22 Z" />
</g>
<g id="#4e732cff">
<path fill="#4e732c" opacity="1.00" d=" M 199.02 156.70 C 203.12 158.41 207.01 161.24 209.00 165.32 C 203.94 165.37 200.98 160.72 199.02 156.70 Z" />
<path fill="#4e732c" opacity="1.00" d=" M 294.63 181.31 C 295.13 181.25 296.14 181.12 296.64 181.06 C 295.59 182.46 294.55 183.88 293.57 185.33 C 296.38 184.10 299.17 182.78 302.14 181.94 C 299.56 185.47 295.77 189.80 290.99 189.21 C 290.56 188.67 290.15 188.12 289.76 187.56 C 291.65 185.69 293.34 183.64 294.63 181.31 Z" />
<path fill="#4e732c" opacity="1.00" d=" M 292.69 191.38 C 295.19 190.92 297.71 190.58 300.25 190.42 C 298.71 192.02 296.93 193.35 295.13 194.63 C 294.32 193.54 293.51 192.45 292.69 191.38 Z" />
</g>
<g id="#90a583ff">
<path fill="#90a583" opacity="1.00" d=" M 275.29 157.38 C 276.62 157.76 277.96 158.07 279.32 158.39 C 279.16 160.95 278.72 163.49 278.11 165.98 C 278.36 166.51 278.84 167.56 279.08 168.08 C 277.61 171.46 276.01 174.78 274.19 177.98 C 274.30 177.50 274.52 176.54 274.62 176.05 C 274.33 175.57 273.74 174.60 273.45 174.11 C 274.07 173.93 275.32 173.55 275.95 173.36 C 274.81 171.71 273.68 170.07 272.49 168.46 C 273.04 168.42 274.15 168.34 274.70 168.30 C 274.81 168.65 275.02 169.36 275.12 169.72 C 276.52 170.45 277.07 168.26 276.95 167.26 C 276.39 167.52 275.26 168.04 274.70 168.30 C 275.93 165.44 277.23 162.62 278.38 159.73 C 277.68 160.13 276.28 160.94 275.57 161.34 C 275.50 160.01 275.37 158.70 275.29 157.38 Z" />
</g>
<g id="#597e34ff">
<path fill="#597e34" opacity="1.00" d=" M 209.54 164.97 C 212.32 163.03 213.69 159.78 216.09 157.45 C 216.51 161.21 212.78 164.69 215.54 168.14 C 215.67 167.21 215.92 165.34 216.05 164.40 C 218.37 167.96 219.19 172.60 217.83 176.67 L 216.58 177.39 L 215.95 177.73 C 215.76 176.22 215.59 174.71 215.44 173.21 C 214.59 173.96 213.76 174.74 212.92 175.51 C 212.63 174.80 212.05 173.39 211.76 172.69 C 210.91 170.99 209.55 169.63 208.09 168.45 L 209.83 169.20 C 209.72 167.79 209.62 166.38 209.54 164.97 Z" />
</g>
<g id="#dbc268ff">
<path fill="#dbc268" opacity="1.00" d=" M 261.69 161.80 C 261.33 160.37 260.62 158.88 261.52 157.49 C 261.75 158.13 262.22 159.42 262.46 160.07 C 262.74 157.49 266.81 157.26 267.54 159.61 C 267.97 158.93 268.41 158.25 268.85 157.58 C 268.98 158.49 269.24 160.31 269.37 161.21 C 266.80 161.35 264.24 161.51 261.69 161.80 Z" />
</g>
<g id="#a95760ff">
<path fill="#a95760" opacity="1.00" d=" M 301.33 158.32 C 303.08 156.44 303.42 160.84 301.44 159.13 L 301.33 158.32 Z" />
</g>
<g id="#d9c472ff">
<path fill="#d9c472" opacity="1.00" d=" M 239.24 159.92 C 240.08 159.84 241.76 159.67 242.61 159.59 C 242.99 160.59 243.39 161.59 243.78 162.60 C 242.23 163.53 240.69 164.47 239.15 165.41 C 239.22 163.92 239.33 162.44 239.32 160.96 L 239.24 159.92 Z" />
</g>
<g id="#6c8758ff">
<path fill="#6c8758" opacity="1.00" d=" M 302.16 164.66 C 301.64 163.63 301.59 161.17 302.98 160.98 C 303.55 161.99 303.52 164.45 302.16 164.66 Z" />
</g>
<g id="#b42844ff">
<path fill="#b42844" opacity="1.00" d=" M 304.27 162.09 C 304.90 162.67 304.90 162.67 304.27 162.09 Z" />
</g>
<g id="#729552ff">
<path fill="#729552" opacity="1.00" d=" M 293.18 168.84 C 293.51 167.00 294.10 165.09 295.52 163.81 C 295.69 164.86 295.75 165.91 295.71 166.97 C 294.04 170.97 294.64 175.34 294.89 179.53 C 291.91 176.73 292.70 172.46 293.18 168.84 Z" />
</g>
<g id="#dcc36aff">
<path fill="#dcc36a" opacity="1.00" d=" M 238.34 168.37 C 242.98 168.38 246.35 164.33 251.01 164.72 C 259.02 164.71 267.05 164.14 275.05 164.86 C 274.11 166.12 273.10 167.33 272.02 168.47 C 269.76 168.53 267.51 168.44 265.26 168.54 L 264.85 168.56 C 263.43 168.67 262.01 168.79 260.59 168.89 C 258.72 168.98 256.84 169.03 254.97 169.17 C 252.69 169.31 250.42 169.50 248.15 169.70 C 245.59 169.89 243.02 170.10 240.45 170.02 C 239.82 169.75 238.55 169.22 237.92 168.95 L 238.34 168.37 Z" />
</g>
<g id="#50762fff">
<path fill="#50762f" opacity="1.00" d=" M 203.10 165.71 C 204.77 166.60 206.45 167.49 208.09 168.45 C 209.55 169.63 210.91 170.99 211.76 172.69 C 211.91 173.32 212.20 174.60 212.35 175.23 C 209.45 175.34 207.60 173.14 205.48 171.57 C 203.26 170.44 200.87 169.65 198.74 168.35 C 200.39 168.17 202.06 168.02 203.72 167.90 C 203.57 167.36 203.25 166.26 203.10 165.71 Z" />
</g>
<g id="#d0dcc9ff">
<path fill="#d0dcc9" opacity="1.00" d=" M 274.70 168.30 C 275.26 168.04 276.39 167.52 276.95 167.26 C 277.07 168.26 276.52 170.45 275.12 169.72 C 275.02 169.36 274.81 168.65 274.70 168.30 Z" />
</g>
<g id="#b2b6baff">
<path fill="#b2b6ba" opacity="1.00" d=" M 237.18 168.61 L 238.34 168.37 L 237.92 168.95 C 236.94 170.21 235.93 171.45 234.92 172.69 C 235.43 173.05 236.44 173.76 236.94 174.12 C 234.85 176.86 232.87 179.74 230.18 181.94 C 229.85 181.35 229.18 180.16 228.85 179.57 C 228.51 179.64 227.84 179.79 227.51 179.86 C 228.42 177.73 229.08 175.37 230.62 173.58 C 232.72 171.82 234.86 170.07 237.18 168.61 Z" />
<path fill="#b2b6ba" opacity="1.00" d=" M 275.94 182.18 C 277.69 179.23 279.31 176.20 280.63 173.03 C 281.08 175.53 281.84 177.95 282.71 180.34 C 281.98 181.16 281.26 181.99 280.54 182.82 C 278.98 182.83 277.45 182.52 275.94 182.18 Z" />
</g>
<g id="#6c301eff">
<path fill="#6c301e" opacity="1.00" d=" M 265.26 168.54 C 267.51 168.44 269.76 168.53 272.02 168.47 C 272.14 168.47 272.37 168.46 272.49 168.46 C 273.68 170.07 274.81 171.71 275.95 173.36 C 275.32 173.55 274.07 173.93 273.45 174.11 C 271.36 171.41 269.35 167.60 265.26 168.54 Z" />
<path fill="#6c301e" opacity="1.00" d=" M 237.92 168.95 C 238.55 169.22 239.82 169.75 240.45 170.02 C 239.26 171.36 238.05 172.70 236.94 174.12 C 236.44 173.76 235.43 173.05 234.92 172.69 C 235.93 171.45 236.94 170.21 237.92 168.95 Z" />
<path fill="#6c301e" opacity="1.00" d=" M 227.51 179.86 C 227.84 179.79 228.51 179.64 228.85 179.57 C 229.18 180.16 229.85 181.35 230.18 181.94 C 226.11 184.78 231.18 191.44 225.94 193.23 C 226.09 193.59 226.39 194.31 226.54 194.67 C 224.95 194.85 223.37 195.03 221.79 195.23 C 219.48 195.46 217.19 195.75 214.89 196.03 L 214.53 194.26 C 216.55 191.52 218.67 188.86 220.47 185.96 C 220.72 185.76 221.22 185.35 221.48 185.15 C 223.17 183.94 224.82 182.67 226.24 181.14 C 226.55 180.82 227.19 180.18 227.51 179.86 Z" />
<path fill="#6c301e" opacity="1.00" d=" M 280.54 182.82 C 281.26 181.99 281.98 181.16 282.71 180.34 C 283.88 181.10 285.20 181.51 286.65 181.57 C 286.60 182.30 286.50 183.76 286.45 184.50 L 286.62 184.62 C 287.26 185.07 288.56 185.98 289.20 186.44 L 289.76 187.56 C 290.15 188.12 290.56 188.67 290.99 189.21 C 291.56 189.93 292.12 190.65 292.69 191.38 C 293.51 192.45 294.32 193.54 295.13 194.63 L 295.98 195.77 C 295.35 196.52 294.72 197.27 294.09 198.01 C 292.43 197.67 290.76 197.41 289.09 197.20 C 288.13 196.94 287.20 196.63 286.27 196.29 C 284.62 192.17 282.78 188.13 281.05 184.04 L 280.54 182.82 Z" />
</g>
<g id="#4d6f32ff">
<path fill="#4d6f32" opacity="1.00" d=" M 294.89 179.53 C 294.64 175.34 294.04 170.97 295.71 166.97 C 296.62 171.18 296.63 175.57 296.51 179.84 L 296.08 180.14 C 295.79 179.99 295.19 179.68 294.89 179.53 Z" />
</g>
<g id="#a6abb0ff">
<path fill="#a6abb0" opacity="1.00" d=" M 248.15 169.70 C 250.42 169.50 252.69 169.31 254.97 169.17 C 254.52 169.32 253.61 169.60 253.16 169.74 C 253.98 170.90 254.85 172.03 255.71 173.17 C 257.36 171.76 258.99 170.35 260.59 168.89 C 262.01 168.79 263.43 168.67 264.85 168.56 C 262.45 170.45 260.12 172.43 257.79 174.41 C 261.56 178.40 265.34 182.39 269.06 186.43 C 270.01 187.41 271.00 188.35 271.97 189.33 C 272.09 189.56 272.35 190.04 272.48 190.27 C 272.60 190.68 272.84 191.49 272.96 191.89 C 272.20 192.28 271.45 192.68 270.71 193.08 C 269.74 191.51 268.75 189.95 267.59 188.51 C 264.10 184.93 260.90 181.08 257.38 177.52 C 256.79 177.02 255.72 175.80 254.98 176.85 C 250.44 180.72 246.42 185.14 242.34 189.47 C 241.39 190.13 240.40 190.73 239.42 191.35 C 238.59 190.69 237.74 190.06 236.90 189.43 L 238.39 189.12 C 239.08 188.58 239.75 188.02 240.40 187.43 C 244.79 182.83 249.52 178.58 254.18 174.26 C 252.31 172.56 250.41 170.87 248.15 169.70 Z" />
</g>
<g id="#f3f4f4ff">
<path fill="#f3f4f4" opacity="1.00" d=" M 254.97 169.17 C 256.84 169.03 258.72 168.98 260.59 168.89 C 258.99 170.35 257.36 171.76 255.71 173.17 C 254.85 172.03 253.98 170.90 253.16 169.74 C 253.61 169.60 254.52 169.32 254.97 169.17 Z" />
</g>
<g id="#90a67cff">
<path fill="#90a67c" opacity="1.00" d=" M 300.44 171.07 C 303.30 170.28 301.31 175.41 299.25 174.53 C 298.81 173.33 299.55 171.89 300.44 171.07 Z" />
</g>
<g id="#527232ff">
<path fill="#527232" opacity="1.00" d=" M 219.03 171.08 C 221.96 174.62 220.31 179.89 223.68 183.23 C 223.46 181.30 223.18 179.39 222.98 177.46 C 224.09 178.66 225.17 179.90 226.24 181.14 C 224.82 182.67 223.17 183.94 221.48 185.15 C 220.81 184.13 219.94 183.35 218.85 182.83 C 218.26 178.93 218.50 174.97 219.03 171.08 Z" />
</g>
<g id="#5d813cff">
<path fill="#5d813c" opacity="1.00" d=" M 291.38 171.06 C 292.90 175.06 293.02 179.47 292.09 183.63 C 291.63 183.22 290.69 182.42 290.23 182.02 C 289.91 183.49 289.59 184.98 289.20 186.44 C 288.56 185.98 287.26 185.07 286.62 184.62 C 289.38 180.52 290.07 175.70 291.38 171.06 Z" />
</g>
<g id="#5a8234ff">
<path fill="#5a8234" opacity="1.00" d=" M 201.82 175.16 C 205.27 175.27 208.64 176.00 211.95 176.91 C 212.79 176.36 213.70 176.13 214.67 176.22 C 214.93 176.74 215.45 177.77 215.71 178.29 C 215.96 178.73 216.47 179.60 216.73 180.04 C 217.91 182.05 219.17 184.01 220.47 185.96 C 218.67 188.86 216.55 191.52 214.53 194.26 L 214.08 194.96 C 214.70 193.12 215.06 191.27 213.18 190.09 C 214.39 190.09 215.59 189.99 216.78 189.80 C 216.88 189.53 217.08 188.99 217.17 188.73 C 214.49 186.87 211.99 184.75 210.02 182.14 C 212.98 182.45 215.65 183.84 218.30 185.11 C 217.45 183.58 216.62 182.05 215.78 180.51 C 215.19 180.55 214.00 180.63 213.41 180.67 L 213.76 179.24 C 209.35 180.42 204.89 178.24 201.82 175.16 Z" />
</g>
<g id="#b7918eff">
<path fill="#b7918e" opacity="1.00" d=" M 215.95 177.73 L 216.58 177.39 C 218.21 177.24 218.44 180.16 216.73 180.04 C 216.47 179.60 215.96 178.73 215.71 178.29 L 215.95 177.73 Z" />
</g>
<g id="#466c29ff">
<path fill="#466c29" opacity="1.00" d=" M 296.91 181.32 C 300.02 176.94 306.31 177.42 311.09 176.83 C 307.35 180.38 302.07 182.54 296.91 181.32 Z" />
<path fill="#466c29" opacity="1.00" d=" M 230.13 184.08 C 232.00 184.53 231.87 187.24 232.71 188.68 C 231.67 189.62 230.63 190.56 229.59 191.49 C 229.04 189.07 227.94 186.06 230.13 184.08 Z" />
</g>
<g id="#bb485fff">
<path fill="#bb485f" opacity="1.00" d=" M 293.50 180.21 C 294.05 180.81 294.05 180.81 293.50 180.21 Z" />
</g>
<g id="#51772eff">
<path fill="#51772e" opacity="1.00" d=" M 272.48 190.27 C 273.77 188.76 275.15 187.34 276.55 185.93 C 276.40 186.78 276.11 188.47 275.96 189.32 C 276.89 188.65 278.74 187.30 279.66 186.63 C 279.01 189.62 277.92 192.49 276.18 195.03 C 275.05 193.47 275.94 191.76 276.32 190.16 C 275.20 190.74 274.08 191.31 272.96 191.89 C 272.84 191.49 272.60 190.68 272.48 190.27 Z" />
<path fill="#51772e" opacity="1.00" d=" M 289.09 197.20 C 290.76 197.41 292.43 197.67 294.09 198.01 L 295.17 198.23 C 293.78 199.23 292.41 200.25 291.01 201.24 C 288.26 200.97 285.50 200.98 282.75 201.03 C 284.47 202.35 286.15 203.73 287.59 205.38 C 285.75 205.21 283.94 204.88 282.15 204.47 C 283.10 205.80 284.01 207.14 284.90 208.53 C 280.21 207.27 275.58 205.31 272.11 201.82 C 273.79 200.94 275.52 200.12 277.25 199.32 C 278.09 199.69 278.94 200.05 279.80 200.40 C 280.07 199.59 280.61 197.98 280.88 197.18 C 283.62 197.14 286.35 197.07 289.09 197.20 Z" />
</g>
<g id="#918d47ff">
<path fill="#918d47" opacity="1.00" d=" M 233.87 188.14 L 234.51 187.67 C 234.86 187.94 235.57 188.47 235.92 188.74 C 235.50 188.77 234.66 188.84 234.24 188.87 L 233.87 188.14 Z" />
</g>
<g id="#9c872eff">
<path fill="#9c872e" opacity="1.00" d=" M 232.71 188.68 C 232.85 189.22 233.14 190.30 233.28 190.84 C 232.81 191.22 231.88 191.97 231.41 192.34 C 231.27 193.12 230.98 194.68 230.84 195.46 L 230.23 195.44 C 229.80 195.32 228.96 195.09 228.54 194.97 C 229.55 193.96 229.90 192.80 229.59 191.49 C 230.63 190.56 231.67 189.62 232.71 188.68 Z" />
</g>
<g id="#e8ac20ff">
<path fill="#e8ac20" opacity="1.00" d=" M 234.24 188.87 C 234.66 188.84 235.50 188.77 235.92 188.74 L 236.90 189.43 C 237.74 190.06 238.59 190.69 239.42 191.35 C 240.19 191.89 240.96 192.45 241.72 193.02 C 240.28 193.72 238.80 194.32 237.35 194.97 C 236.45 195.60 235.57 196.24 234.69 196.90 C 233.15 197.22 231.57 197.42 229.99 197.40 C 231.97 195.72 234.20 194.37 236.42 193.03 C 236.05 192.09 235.62 191.19 235.14 190.31 C 234.91 189.95 234.46 189.23 234.24 188.87 Z" />
</g>
<g id="#406325ff">
<path fill="#406325" opacity="1.00" d=" M 235.14 190.31 C 235.62 191.19 236.05 192.09 236.42 193.03 C 234.20 194.37 231.97 195.72 229.99 197.40 C 229.41 197.88 228.83 198.35 228.26 198.85 C 225.82 199.80 223.22 199.13 220.74 198.82 C 220.26 199.10 219.30 199.68 218.83 199.96 C 217.52 198.65 216.22 197.33 214.89 196.03 C 217.19 195.75 219.48 195.46 221.79 195.23 C 224.60 195.22 227.41 195.38 230.23 195.44 L 230.84 195.46 C 230.98 194.68 231.27 193.12 231.41 192.34 C 231.88 191.97 232.81 191.22 233.28 190.84 C 233.48 191.64 233.89 193.25 234.09 194.05 C 234.57 192.84 234.96 191.60 235.14 190.31 Z" />
</g>
<g id="#d8a527ff">
<path fill="#d8a527" opacity="1.00" d=" M 272.96 191.89 C 274.08 191.31 275.20 190.74 276.32 190.16 C 275.94 191.76 275.05 193.47 276.18 195.03 C 277.02 195.60 277.88 196.13 278.77 196.63 C 280.70 197.16 280.06 193.96 278.43 194.30 C 278.63 193.03 278.88 191.76 279.18 190.52 C 279.90 192.43 280.60 194.36 281.19 196.33 C 281.11 196.54 280.96 196.97 280.88 197.18 C 280.61 197.98 280.07 199.59 279.80 200.40 C 278.94 200.05 278.09 199.69 277.25 199.32 L 276.09 198.72 C 275.76 198.45 275.08 197.91 274.75 197.63 C 274.64 197.54 274.42 197.34 274.31 197.24 C 273.08 195.55 270.94 195.20 269.16 194.38 C 269.55 194.06 270.32 193.41 270.71 193.08 C 271.45 192.68 272.20 192.28 272.96 191.89 Z" />
</g>
<g id="#4d6e30ff">
<path fill="#4d6e30" opacity="1.00" d=" M 278.43 194.30 C 280.06 193.96 280.70 197.16 278.77 196.63 C 278.68 196.05 278.52 194.88 278.43 194.30 Z" />
</g>
<g id="#426426ff">
<path fill="#426426" opacity="1.00" d=" M 266.57 199.07 C 267.45 197.52 268.32 195.95 269.16 194.38 C 270.94 195.20 273.08 195.55 274.31 197.24 L 274.47 197.50 L 274.75 197.63 C 275.08 197.91 275.76 198.45 276.09 198.72 C 272.79 200.02 269.66 202.14 265.97 202.00 C 267.35 201.27 268.75 200.57 270.15 199.87 C 269.26 199.67 267.47 199.27 266.57 199.07 Z" />
</g>
<g id="#6b8b46ff">
<path fill="#6b8b46" opacity="1.00" d=" M 228.26 198.85 C 228.83 198.35 229.41 197.88 229.99 197.40 C 231.57 197.42 233.15 197.22 234.69 196.90 C 236.04 197.25 237.37 197.68 238.68 198.16 C 236.81 200.00 234.67 201.69 231.97 202.01 C 231.64 201.74 230.97 201.20 230.63 200.92 C 229.76 200.25 228.76 199.94 227.64 199.98 L 228.26 198.85 M 232.40 199.12 C 232.62 200.45 233.33 200.67 234.54 199.76 C 234.31 198.42 233.60 198.20 232.40 199.12 Z" />
</g>
<g id="#d5d5c4ff">
<path fill="#d5d5c4" opacity="1.00" d=" M 274.31 197.24 C 274.42 197.34 274.64 197.54 274.75 197.63 L 274.47 197.50 L 274.31 197.24 Z" />
</g>
<g id="#486c2aff">
<path fill="#486c2a" opacity="1.00" d=" M 232.40 199.12 C 233.60 198.20 234.31 198.42 234.54 199.76 C 233.33 200.67 232.62 200.45 232.40 199.12 Z" />
</g>
<g id="#4e722fff">
<path fill="#4e722f" opacity="1.00" d=" M 227.05 201.04 C 227.20 200.78 227.49 200.24 227.64 199.98 C 228.76 199.94 229.76 200.25 230.63 200.92 C 229.43 201.74 228.24 201.78 227.05 201.04 Z" />
</g>
<g id="#bb4d64ff">
<path fill="#bb4d64" opacity="1.00" d=" M 239.28 200.96 C 239.84 201.54 239.84 201.54 239.28 200.96 Z" />
</g>
<g id="#406425ff">
<path fill="#406425" opacity="1.00" d=" M 266.18 202.66 C 270.87 203.83 275.30 206.10 278.80 209.45 C 274.03 209.40 267.18 208.37 266.18 202.66 Z" />
</g>
</svg>
