<?xml version="1.0" encoding="UTF-8" ?>
<!DOCTYPE svg PUBLIC "-//W3C//DTD SVG 1.1//EN" "http://www.w3.org/Graphics/SVG/1.1/DTD/svg11.dtd">
<svg width="1000px" height="600px" viewBox="0 0 1000 600" version="1.1" xmlns="http://www.w3.org/2000/svg">
<g id="#df112dff">
<path fill="#df112d" opacity="1.00" d=" M 0.00 0.00 L 65.10 0.00 C 94.23 17.90 123.73 35.24 153.00 52.93 C 268.66 122.32 384.32 191.72 499.98 261.11 C 645.07 174.10 790.12 87.03 935.19 0.00 L 1000.00 0.00 L 1000.00 38.80 C 854.99 125.96 709.85 212.89 564.81 299.99 C 709.85 387.10 854.99 474.03 1000.00 561.19 L 1000.00 600.00 L 934.91 600.00 C 892.21 573.96 849.16 548.49 806.32 522.67 C 704.22 461.40 602.11 400.13 500.00 338.88 C 354.91 425.89 209.85 512.97 64.77 600.00 L 0.00 600.00 L 0.00 561.18 C 144.99 474.02 290.14 387.10 435.17 300.00 C 290.14 212.89 145.00 125.96 0.00 38.81 L 0.00 0.00 Z" />
<path fill="#df112d" opacity="1.00" d=" M 446.01 100.37 C 447.14 99.51 448.41 99.23 449.82 99.54 C 450.37 100.14 451.47 101.34 452.02 101.94 L 450.59 102.31 C 449.67 102.61 447.83 103.22 446.91 103.52 C 446.54 102.51 444.30 101.26 446.01 100.37 Z" />
</g>
<g id="#ffffffff">
<path fill="#ffffff" opacity="1.00" d=" M 65.10 0.00 L 935.19 0.00 C 790.12 87.03 645.07 174.10 499.98 261.11 C 384.32 191.72 268.66 122.32 153.00 52.93 C 123.73 35.24 94.23 17.90 65.10 0.00 M 498.46 13.12 L 498.93 13.74 C 498.75 13.90 498.38 14.23 498.20 14.39 C 492.98 19.25 492.66 27.61 495.08 33.96 C 488.64 31.59 481.33 37.35 480.80 43.86 C 483.15 43.37 485.64 42.94 487.94 43.93 C 496.07 46.38 496.73 59.89 488.99 63.24 C 485.25 65.15 481.00 63.59 477.51 61.89 C 477.28 61.74 476.81 61.44 476.58 61.30 C 477.12 60.09 476.90 59.04 475.93 58.14 L 476.87 57.83 L 476.88 57.74 C 480.07 54.98 478.38 49.78 474.73 48.41 C 470.55 46.68 465.72 51.55 467.41 55.71 C 468.22 57.77 470.20 58.86 472.06 59.83 C 471.18 63.25 469.09 66.65 465.53 67.71 C 460.30 69.93 453.54 66.61 452.59 60.91 C 451.59 56.82 454.37 53.13 457.40 50.74 C 453.86 45.98 445.37 46.54 442.43 51.70 C 441.15 49.35 439.91 46.83 437.68 45.22 C 434.63 42.86 430.64 42.51 426.94 42.31 C 427.20 43.48 427.84 44.49 428.54 45.45 L 428.85 45.84 C 436.12 57.29 441.86 69.80 445.04 83.01 C 445.60 83.98 444.66 86.23 445.81 86.66 C 446.38 89.57 447.08 92.55 446.24 95.50 C 442.20 113.30 440.85 131.82 442.89 149.98 C 444.93 168.73 450.47 187.39 460.72 203.32 C 465.47 211.31 471.51 218.46 478.09 225.00 C 478.96 225.77 479.73 226.79 480.90 227.14 C 480.61 228.72 481.28 229.36 482.90 229.04 C 487.77 234.29 494.14 238.02 500.03 242.07 C 505.97 238.17 512.17 234.34 517.11 229.22 L 517.98 229.43 L 518.75 228.68 L 518.62 227.76 C 525.10 222.97 530.13 216.33 535.08 209.98 C 537.23 206.88 539.53 203.83 541.06 200.35 C 542.47 198.75 543.35 196.75 544.07 194.76 C 546.35 191.89 547.29 188.27 548.82 185.00 C 559.22 158.77 560.28 129.59 555.36 102.04 C 554.75 97.90 553.28 93.86 553.43 89.63 C 556.04 76.30 560.81 63.38 567.65 51.63 C 569.40 48.54 571.73 45.78 573.08 42.48 C 567.92 42.26 561.99 43.64 559.33 48.53 C 558.66 49.29 558.72 51.61 557.30 50.65 C 553.44 46.91 546.01 46.06 542.55 50.73 C 546.95 53.67 549.18 60.05 545.77 64.55 C 543.16 68.35 538.01 68.88 533.95 67.50 C 530.64 66.25 528.80 62.95 527.90 59.72 C 530.18 58.95 532.04 57.27 532.97 55.04 C 533.88 50.53 527.88 45.69 524.05 49.11 C 521.22 50.86 520.94 54.61 522.40 57.35 C 522.88 57.56 523.85 57.96 524.33 58.16 C 523.25 58.97 522.96 59.98 523.45 61.22 C 523.18 61.44 522.63 61.87 522.36 62.09 C 519.01 63.62 515.15 65.28 511.51 63.62 C 503.45 60.74 503.42 47.48 511.10 44.12 C 513.62 42.88 516.46 43.19 519.13 43.67 C 518.28 37.26 510.93 31.37 504.55 34.33 C 507.49 27.92 506.84 19.53 501.78 14.38 C 501.60 14.21 501.26 13.87 501.09 13.71 L 501.52 13.07 C 500.46 11.71 499.43 11.72 498.46 13.12 Z" />
<path fill="#ffffff" opacity="1.00" d=" M 0.00 38.81 C 145.00 125.96 290.14 212.89 435.17 300.00 C 290.14 387.10 144.99 474.02 0.00 561.18 L 0.00 38.81 Z" />
<path fill="#ffffff" opacity="1.00" d=" M 564.81 299.99 C 709.85 212.89 854.99 125.96 1000.00 38.80 L 1000.00 561.19 C 854.99 474.03 709.85 387.10 564.81 299.99 Z" />
<path fill="#ffffff" opacity="1.00" d=" M 64.77 600.00 C 209.85 512.97 354.91 425.89 500.00 338.88 C 602.11 400.13 704.22 461.40 806.32 522.67 C 849.16 548.49 892.21 573.96 934.91 600.00 L 64.77 600.00 Z" />
</g>
<g id="#0051baff">
<path fill="#0051ba" opacity="1.00" d=" M 498.46 13.12 C 499.43 11.72 500.46 11.71 501.52 13.07 L 501.09 13.71 C 500.55 13.72 499.47 13.73 498.93 13.74 L 498.46 13.12 Z" />
<path fill="#0051ba" opacity="1.00" d=" M 559.33 48.53 C 561.99 43.64 567.92 42.26 573.08 42.48 C 571.73 45.78 569.40 48.54 567.65 51.63 C 560.81 63.38 556.04 76.30 553.43 89.63 L 553.43 88.55 C 556.12 72.15 563.34 56.74 572.59 43.04 C 570.37 43.20 568.15 43.18 565.99 43.67 C 561.64 45.15 557.94 49.23 558.25 54.05 C 557.02 51.82 555.94 49.08 553.14 48.50 C 549.68 47.91 545.40 47.58 542.98 50.67 C 544.58 52.33 546.67 53.80 547.42 56.09 C 548.06 59.35 548.04 63.28 545.35 65.68 C 542.54 68.95 537.64 69.24 533.80 67.93 C 530.12 66.54 528.38 62.78 527.22 59.29 C 528.19 59.00 529.16 58.71 530.13 58.43 C 531.28 56.80 533.23 55.24 532.50 53.00 C 531.98 49.24 526.86 46.78 523.98 49.62 C 521.35 51.32 522.23 54.76 522.40 57.35 C 520.94 54.61 521.22 50.86 524.05 49.11 C 527.88 45.69 533.88 50.53 532.97 55.04 C 532.04 57.27 530.18 58.95 527.90 59.72 C 528.80 62.95 530.64 66.25 533.95 67.50 C 538.01 68.88 543.16 68.35 545.77 64.55 C 549.18 60.05 546.95 53.67 542.55 50.73 C 546.01 46.06 553.44 46.91 557.30 50.65 C 558.72 51.61 558.66 49.29 559.33 48.53 Z" />
<path fill="#0051ba" opacity="1.00" d=" M 428.85 45.84 C 437.18 57.02 442.18 70.37 445.81 83.75 C 445.81 84.47 445.81 85.93 445.81 86.66 C 444.66 86.23 445.60 83.98 445.04 83.01 C 441.86 69.80 436.12 57.29 428.85 45.84 Z" />
<path fill="#0051ba" opacity="1.00" d=" M 476.58 61.30 C 475.22 61.04 474.22 58.54 475.93 58.14 C 476.90 59.04 477.12 60.09 476.58 61.30 Z" />
<path fill="#0051ba" opacity="1.00" d=" M 447.79 95.60 C 449.62 93.49 452.25 94.26 454.67 94.67 C 453.35 95.14 452.16 95.87 451.11 96.78 C 451.08 97.01 451.02 97.47 450.99 97.70 C 451.06 98.18 451.20 99.15 451.27 99.63 L 449.82 99.54 C 448.41 99.23 447.14 99.51 446.01 100.37 C 444.30 101.26 446.54 102.51 446.91 103.52 C 447.83 103.22 449.67 102.61 450.59 102.31 C 450.22 103.19 449.86 104.07 449.51 104.96 C 447.81 104.82 446.12 104.82 444.43 104.86 C 442.77 119.48 441.31 134.28 443.20 148.97 C 444.81 168.13 451.01 186.76 460.72 203.32 C 450.47 187.39 444.93 168.73 442.89 149.98 C 440.85 131.82 442.20 113.30 446.24 95.50 L 446.49 94.87 C 446.64 95.60 446.93 97.06 447.08 97.79 C 448.64 98.25 449.65 96.67 450.86 95.98 L 447.79 95.60 Z" />
<path fill="#0051ba" opacity="1.00" d=" M 472.74 111.58 C 473.61 110.26 474.72 110.19 476.06 111.37 C 476.05 112.07 476.03 113.47 476.02 114.17 C 475.93 115.72 475.80 117.27 475.56 118.81 L 474.66 119.84 C 474.15 119.21 473.13 117.95 472.62 117.31 C 472.79 115.41 472.74 113.49 472.74 111.58 Z" />
<path fill="#0051ba" opacity="1.00" d=" M 447.22 119.58 C 448.49 118.16 450.21 117.39 452.12 117.31 C 452.02 118.02 451.83 119.45 451.73 120.16 C 450.60 120.01 448.35 119.73 447.22 119.58 Z" />
<path fill="#0051ba" opacity="1.00" d=" M 447.77 124.50 C 448.54 122.61 449.92 121.18 451.72 120.23 C 451.69 120.69 451.61 121.61 451.58 122.07 L 451.42 123.62 C 452.02 123.65 453.23 123.73 453.84 123.76 C 454.07 124.19 454.53 125.03 454.76 125.45 C 453.27 125.90 451.80 126.33 450.32 126.79 C 452.75 124.94 449.56 122.52 447.77 124.50 Z" />
<path fill="#0051ba" opacity="1.00" d=" M 498.88 125.94 C 500.02 125.59 501.18 125.20 502.38 125.10 C 502.78 125.82 503.58 127.25 503.98 127.97 C 503.52 127.84 502.61 127.58 502.15 127.45 C 502.17 128.23 502.23 129.78 502.26 130.55 C 500.85 130.86 499.45 131.18 498.06 131.51 C 498.64 130.46 499.22 129.40 499.82 128.36 C 499.58 127.75 499.11 126.54 498.88 125.94 Z" />
<path fill="#0051ba" opacity="1.00" d=" M 532.41 128.40 C 533.63 126.32 535.84 125.18 538.13 126.26 L 539.18 126.70 C 538.61 126.58 537.48 126.33 536.92 126.21 C 536.73 126.83 536.36 128.08 536.17 128.70 C 536.44 128.95 536.99 129.45 537.26 129.70 L 536.44 131.17 C 537.30 131.86 538.01 132.68 538.56 133.64 C 537.34 134.25 536.13 134.86 534.92 135.47 C 535.15 134.44 535.61 132.39 535.84 131.36 C 535.12 131.69 533.69 132.34 532.98 132.66 C 533.75 131.22 534.51 129.77 535.31 128.34 C 534.59 128.35 533.13 128.38 532.41 128.40 Z" />
<path fill="#0051ba" opacity="1.00" d=" M 451.81 142.03 C 452.51 140.03 454.74 139.95 456.33 140.87 L 455.52 142.03 C 454.99 142.91 454.41 143.91 454.42 144.96 L 454.45 145.66 C 453.01 145.50 451.59 145.32 450.17 145.12 C 451.66 144.00 453.23 142.99 454.73 141.89 L 451.81 142.03 Z" />
<path fill="#0051ba" opacity="1.00" d=" M 473.94 155.96 C 474.65 155.82 476.08 155.55 476.79 155.41 C 476.81 156.39 476.83 157.37 476.85 158.35 C 476.85 160.28 476.72 162.28 475.51 163.88 C 474.11 161.90 474.17 159.42 473.95 157.11 L 473.94 155.96 Z" />
<path fill="#0051ba" opacity="1.00" d=" M 450.92 163.52 C 452.06 162.17 453.56 161.32 455.35 161.24 C 455.18 162.42 454.84 164.77 454.67 165.95 C 456.12 166.14 457.58 166.20 459.05 166.19 C 458.23 166.86 457.47 167.61 457.06 168.61 C 455.97 169.08 454.87 169.50 453.76 169.87 C 454.18 169.38 455.02 168.40 455.44 167.91 C 454.35 166.65 453.04 166.66 451.77 167.73 C 451.98 165.82 453.56 164.79 454.99 163.78 C 453.97 163.71 451.94 163.58 450.92 163.52 Z" />
<path fill="#0051ba" opacity="1.00" d=" M 497.01 170.33 C 497.88 169.22 498.95 168.33 500.27 167.80 L 500.70 168.78 L 501.11 169.74 C 498.41 171.41 500.90 173.76 503.12 173.94 L 502.28 174.81 C 501.48 175.74 500.22 176.02 499.17 176.55 C 499.69 175.40 500.22 174.27 500.76 173.14 C 499.74 173.32 497.70 173.68 496.68 173.86 C 497.40 172.77 498.14 171.69 498.90 170.62 L 497.01 170.33 Z" />
<path fill="#0051ba" opacity="1.00" d=" M 527.83 171.16 C 528.66 169.02 530.90 168.91 532.87 169.20 L 532.04 169.70 C 531.60 170.32 531.17 170.94 530.76 171.58 C 531.15 172.02 531.94 172.89 532.33 173.33 C 532.37 173.40 532.46 173.56 532.51 173.63 C 532.70 174.13 533.07 175.12 533.25 175.62 L 533.39 175.99 C 532.16 176.53 530.92 177.05 529.71 177.58 C 530.11 176.68 530.91 174.88 531.30 173.98 C 530.50 174.15 528.89 174.48 528.08 174.65 C 528.92 173.40 529.82 172.19 530.77 171.03 C 530.04 171.06 528.56 171.13 527.83 171.16 Z" />
<path fill="#0051ba" opacity="1.00" d=" M 462.99 185.90 C 463.56 184.51 464.55 184.25 465.95 185.12 C 465.87 185.57 465.70 186.49 465.62 186.95 C 464.34 187.50 463.46 187.15 462.99 185.90 Z" />
<path fill="#0051ba" opacity="1.00" d=" M 461.92 189.99 C 462.52 189.56 463.71 188.71 464.30 188.28 C 464.58 188.86 465.13 190.01 465.41 190.59 C 464.11 191.10 462.95 190.89 461.92 189.99 Z" />
<path fill="#0051ba" opacity="1.00" d=" M 480.60 195.19 C 481.27 195.22 482.59 195.28 483.26 195.31 C 482.75 197.45 482.34 199.60 482.03 201.78 C 481.51 201.07 481.01 200.36 480.53 199.64 C 480.51 198.85 480.48 197.26 480.47 196.47 C 480.50 196.15 480.57 195.51 480.60 195.19 Z" />
<path fill="#0051ba" opacity="1.00" d=" M 463.17 201.10 C 464.60 200.38 466.13 199.41 467.80 199.96 C 467.43 199.93 466.69 199.87 466.32 199.84 C 466.37 200.61 466.46 202.17 466.50 202.95 L 465.28 202.29 C 464.75 201.99 463.69 201.40 463.17 201.10 Z" />
<path fill="#0051ba" opacity="1.00" d=" M 520.68 207.31 C 521.36 206.87 522.04 206.42 522.75 206.01 L 523.00 207.01 C 523.36 208.64 523.81 210.26 524.33 211.85 C 523.83 212.22 522.85 212.98 522.36 213.36 C 521.79 211.34 521.53 209.23 520.68 207.31 Z" />
<path fill="#0051ba" opacity="1.00" d=" M 480.90 227.14 C 481.26 227.28 481.98 227.54 482.35 227.67 C 482.49 228.01 482.76 228.70 482.90 229.04 C 481.28 229.36 480.61 228.72 480.90 227.14 Z" />
<path fill="#0051ba" opacity="1.00" d=" M 517.11 229.22 C 517.49 228.86 518.24 228.12 518.62 227.76 L 518.75 228.68 L 517.98 229.43 L 517.11 229.22 Z" />
</g>
<g id="#f9dd16ff">
<path fill="#f9dd16" opacity="1.00" d=" M 498.20 14.39 C 498.38 14.23 498.75 13.90 498.93 13.74 C 499.47 13.73 500.55 13.72 501.09 13.71 C 501.26 13.87 501.60 14.21 501.78 14.38 C 503.16 18.15 505.37 21.81 505.14 25.97 C 505.36 29.77 503.77 33.30 502.65 36.83 C 504.66 35.92 506.61 34.22 508.97 34.65 C 513.01 35.00 516.11 38.14 517.68 41.70 C 513.89 42.17 509.66 42.81 507.16 46.04 C 502.75 51.08 503.64 59.95 509.43 63.58 C 513.29 66.06 519.44 66.02 522.36 62.09 C 522.63 61.87 523.18 61.44 523.45 61.22 C 524.70 60.88 526.27 58.70 524.33 58.16 C 523.85 57.96 522.88 57.56 522.40 57.35 C 522.23 54.76 521.35 51.32 523.98 49.62 C 526.86 46.78 531.98 49.24 532.50 53.00 C 533.23 55.24 531.28 56.80 530.13 58.43 C 529.16 58.71 528.19 59.00 527.22 59.29 C 528.38 62.78 530.12 66.54 533.80 67.93 C 537.64 69.24 542.54 68.95 545.35 65.68 C 548.04 63.28 548.06 59.35 547.42 56.09 C 546.67 53.80 544.58 52.33 542.98 50.67 C 545.40 47.58 549.68 47.91 553.14 48.50 C 555.94 49.08 557.02 51.82 558.25 54.05 C 557.94 49.23 561.64 45.15 565.99 43.67 C 568.15 43.18 570.37 43.20 572.59 43.04 C 563.34 56.74 556.12 72.15 553.43 88.55 C 553.10 89.23 552.43 90.60 552.10 91.28 C 539.52 84.32 525.33 80.65 511.08 79.31 C 494.31 77.91 477.16 79.60 461.26 85.28 C 456.45 86.69 452.18 89.36 447.55 91.21 C 447.08 88.69 446.55 86.19 445.81 83.75 C 442.18 70.37 437.18 57.02 428.85 45.84 L 428.54 45.45 C 428.90 45.00 429.63 44.10 429.99 43.65 C 433.15 43.83 436.46 44.92 438.61 47.35 C 440.34 49.24 440.76 51.85 441.45 54.22 C 443.30 52.11 444.96 49.27 448.02 48.88 C 450.82 48.15 453.61 49.17 456.25 50.04 C 454.15 52.98 450.97 55.86 451.41 59.82 C 451.81 66.21 458.81 70.91 464.91 68.92 C 469.45 67.85 472.16 63.59 473.23 59.33 C 471.17 58.02 468.19 56.90 468.07 54.05 C 467.92 50.26 472.94 47.47 475.82 50.24 C 478.16 52.08 477.29 55.27 476.88 57.74 L 476.87 57.83 L 475.93 58.14 C 474.22 58.54 475.22 61.04 476.58 61.30 C 476.81 61.44 477.28 61.74 477.51 61.89 C 480.65 66.50 487.94 66.07 491.85 62.69 C 496.92 58.15 496.83 49.00 491.48 44.70 C 488.96 42.45 485.43 42.26 482.28 41.66 C 483.82 38.44 486.45 35.47 490.11 34.75 C 492.76 33.78 495.07 35.69 497.30 36.81 C 496.00 33.00 494.44 29.09 494.87 24.97 C 494.91 21.18 496.93 17.85 498.20 14.39 Z" />
<path fill="#f9dd16" opacity="1.00" d=" M 503.20 93.04 L 503.32 93.00 C 511.74 91.55 520.04 93.69 528.33 94.99 L 527.65 95.06 C 522.42 95.03 517.21 94.89 512.00 94.52 C 507.93 94.31 503.42 94.84 500.69 98.24 C 501.96 99.71 503.27 101.37 505.34 101.64 C 512.88 103.16 520.62 102.13 528.11 100.83 C 532.32 100.22 537.73 100.24 540.34 104.21 C 541.92 107.37 538.81 110.30 536.14 111.48 C 533.77 112.74 531.05 112.31 528.50 112.12 C 529.60 113.18 530.77 114.31 532.34 114.62 C 538.08 116.01 544.02 114.98 549.84 114.92 C 549.99 116.50 550.17 118.09 550.30 119.68 C 550.98 120.74 551.65 121.82 552.33 122.90 C 551.67 122.76 550.35 122.48 549.69 122.34 C 550.28 123.56 550.88 124.78 551.50 126.01 C 550.85 127.33 550.22 128.66 549.61 130.00 C 549.19 129.88 548.34 129.64 547.92 129.52 C 547.04 130.06 546.17 130.60 545.30 131.13 C 543.07 128.93 540.70 131.19 538.63 132.34 C 538.28 131.68 537.60 130.36 537.26 129.70 C 536.99 129.45 536.44 128.95 536.17 128.70 C 536.36 128.08 536.73 126.83 536.92 126.21 C 537.48 126.33 538.61 126.58 539.18 126.70 C 541.08 127.34 543.66 127.96 545.17 126.16 C 546.65 122.90 543.46 119.20 540.06 119.57 C 533.92 119.13 526.89 122.62 521.51 118.41 C 520.54 117.77 519.56 117.17 518.57 116.58 C 519.77 117.80 521.04 118.98 522.32 120.13 C 522.57 121.97 522.62 123.93 523.72 125.52 C 524.43 126.34 525.15 127.16 525.88 127.97 C 525.37 128.84 524.86 129.69 524.34 130.55 C 520.95 130.49 517.56 130.52 514.18 130.26 C 513.60 130.55 512.44 131.12 511.86 131.41 C 511.36 130.94 510.35 129.99 509.85 129.52 C 509.14 129.94 507.71 130.78 507.00 131.20 C 506.42 131.53 505.86 131.86 505.29 132.20 C 505.03 131.43 504.51 129.91 504.25 129.14 C 503.75 129.49 502.75 130.20 502.26 130.55 C 502.23 129.78 502.17 128.23 502.15 127.45 C 502.61 127.58 503.52 127.84 503.98 127.97 C 503.58 127.25 502.78 125.82 502.38 125.10 C 503.04 125.33 504.36 125.81 505.02 126.04 C 509.23 127.70 515.48 129.16 518.82 125.22 L 517.65 124.89 C 513.68 123.71 509.31 122.98 506.85 119.24 C 499.83 120.16 492.84 121.38 485.98 123.09 C 486.19 120.95 486.44 118.81 486.58 116.67 C 483.89 120.09 486.55 124.84 483.89 128.37 C 483.72 128.53 483.39 128.86 483.22 129.02 L 481.46 129.44 C 481.37 128.89 481.20 127.79 481.11 127.24 C 479.28 128.80 477.23 130.08 475.08 131.14 C 474.86 130.56 474.42 129.39 474.20 128.81 C 469.71 131.96 463.94 130.56 459.81 127.53 C 458.31 126.22 456.48 125.45 454.56 125.01 C 455.69 124.35 456.75 122.54 454.84 122.18 C 454.02 122.15 452.39 122.10 451.58 122.07 C 451.61 121.61 451.69 120.69 451.72 120.23 L 451.73 120.16 C 451.83 119.45 452.02 118.02 452.12 117.31 C 454.68 117.61 456.61 119.32 458.41 121.02 C 462.55 125.41 469.27 124.60 474.65 123.63 C 474.49 122.54 474.33 121.46 474.24 120.37 C 474.34 120.24 474.56 119.97 474.66 119.84 L 475.56 118.81 C 475.80 117.27 475.93 115.72 476.02 114.17 C 478.04 111.71 479.48 108.84 481.45 106.33 C 481.92 106.77 482.86 107.66 483.32 108.10 C 487.72 112.61 494.40 110.75 499.98 111.02 C 505.84 111.39 511.34 109.02 517.13 108.63 C 522.64 108.08 528.27 110.03 533.68 108.25 L 534.16 108.16 C 535.86 108.19 538.80 106.43 537.35 104.58 C 537.13 104.40 536.69 104.03 536.48 103.84 C 534.47 102.07 531.62 102.72 529.19 102.70 C 521.79 103.38 514.38 104.66 506.92 103.95 C 503.85 103.66 499.39 102.82 499.03 99.06 C 498.53 96.15 501.37 94.66 503.20 93.04 M 506.95 117.76 C 509.57 117.92 512.21 118.14 514.81 118.65 C 514.88 118.21 515.02 117.32 515.09 116.87 C 515.90 116.92 517.51 117.01 518.32 117.06 C 515.67 113.23 509.92 115.37 506.95 117.76 Z" />
<path fill="#f9dd16" opacity="1.00" d=" M 451.11 96.78 C 452.16 95.87 453.35 95.14 454.67 94.67 C 455.95 97.26 456.99 99.96 457.87 102.71 C 457.96 104.00 458.60 104.90 459.80 105.43 C 463.12 108.98 466.37 113.06 471.42 114.07 L 471.68 112.76 L 472.09 112.29 L 472.74 111.58 C 472.74 113.49 472.79 115.41 472.62 117.31 L 472.31 118.39 C 472.50 119.41 472.73 120.42 473.00 121.42 C 469.75 119.52 466.35 117.98 462.61 117.39 C 460.73 115.67 458.98 113.79 456.60 112.73 C 456.21 112.46 455.44 111.92 455.06 111.65 C 455.75 111.60 457.14 111.52 457.84 111.47 C 455.49 108.66 452.79 106.16 450.31 103.47 C 451.66 103.96 453.03 104.45 454.39 104.94 C 453.47 103.10 452.45 101.31 451.27 99.63 C 451.20 99.15 451.06 98.18 450.99 97.70 C 451.87 98.46 452.79 99.72 454.10 99.54 C 454.72 97.88 452.40 96.91 451.11 96.78 Z" />
<path fill="#f9dd16" opacity="1.00" d=" M 464.94 97.53 C 469.55 97.96 474.00 95.73 478.63 96.96 C 480.58 99.31 480.95 102.26 480.90 105.22 C 479.26 105.67 477.61 106.10 475.97 106.51 C 476.02 105.76 476.13 104.24 476.18 103.48 C 477.03 102.55 477.87 101.60 478.71 100.65 C 477.12 100.79 475.57 101.13 474.05 101.59 C 472.60 101.21 471.15 100.84 469.69 100.52 C 470.84 102.23 472.03 103.99 472.27 106.10 C 471.44 106.13 469.78 106.19 468.96 106.22 C 468.60 105.79 467.89 104.93 467.53 104.51 C 466.63 102.19 465.77 99.87 464.94 97.53 Z" />
<path fill="#f9dd16" opacity="1.00" d=" M 501.09 140.30 C 506.64 138.07 512.70 139.46 518.35 140.51 C 517.38 140.70 516.41 140.89 515.45 141.08 C 510.55 141.09 504.93 139.61 500.60 142.60 C 498.84 143.60 499.63 146.19 501.44 146.54 C 509.24 149.63 517.63 147.16 525.61 146.33 C 528.73 146.17 532.77 146.40 534.53 149.41 C 535.92 151.89 533.78 154.55 531.65 155.69 C 529.28 157.16 526.41 156.74 523.77 156.84 C 529.28 160.91 536.47 159.42 542.80 158.98 C 543.08 159.62 543.64 160.90 543.91 161.54 C 544.44 163.28 544.96 165.02 545.85 166.63 C 545.16 166.49 543.77 166.22 543.08 166.08 C 545.94 168.22 544.49 171.38 542.93 173.84 C 542.60 173.47 541.94 172.71 541.61 172.34 C 540.73 173.05 539.83 173.77 538.96 174.49 C 538.46 174.04 537.47 173.14 536.98 172.69 C 535.70 173.63 534.46 174.60 533.25 175.62 C 533.07 175.12 532.70 174.13 532.51 173.63 L 532.44 173.45 L 532.33 173.33 C 531.94 172.89 531.15 172.02 530.76 171.58 C 531.17 170.94 531.60 170.32 532.04 169.70 C 533.99 169.89 536.00 170.53 537.98 170.08 C 540.20 168.96 539.14 166.23 538.29 164.56 C 532.59 160.88 525.55 165.90 519.53 163.41 C 516.93 161.63 514.38 159.18 510.97 159.47 C 507.75 159.17 505.53 161.75 502.95 163.14 C 498.82 164.19 494.54 164.49 490.37 165.28 L 489.39 165.86 C 488.33 166.74 486.89 166.64 485.62 166.77 C 485.57 167.37 485.48 168.59 485.44 169.19 L 485.08 169.51 C 483.98 170.48 482.89 171.45 481.81 172.42 C 481.72 171.86 481.53 170.74 481.44 170.17 C 479.60 171.53 477.07 174.66 474.88 172.08 C 470.31 174.15 464.41 172.97 461.14 169.20 C 460.50 169.11 459.21 168.91 458.57 168.82 C 458.19 168.77 457.44 168.66 457.06 168.61 C 457.47 167.61 458.23 166.86 459.05 166.19 C 457.58 166.20 456.12 166.14 454.67 165.95 C 454.84 164.77 455.18 162.42 455.35 161.24 C 457.86 161.65 459.63 163.48 461.45 165.08 C 465.27 168.48 470.91 167.95 475.55 166.94 L 475.86 166.89 C 475.73 165.89 475.62 164.89 475.51 163.88 C 476.72 162.28 476.85 160.28 476.85 158.35 C 478.55 156.16 479.99 153.79 481.24 151.33 C 481.54 151.57 482.14 152.04 482.44 152.27 C 487.41 157.36 494.72 154.99 500.95 155.28 C 504.76 155.36 508.35 153.87 512.09 153.44 C 517.56 152.76 523.07 154.19 528.53 153.30 C 530.21 153.00 532.65 152.31 532.39 150.10 C 531.52 148.11 528.90 147.98 527.03 147.94 C 518.47 148.34 509.79 150.75 501.28 148.61 C 499.14 148.21 498.12 146.16 496.83 144.66 L 497.00 144.43 C 498.21 142.94 499.11 140.92 501.09 140.30 Z" />
<path fill="#f9dd16" opacity="1.00" d=" M 456.33 140.87 C 460.20 142.31 459.09 147.61 461.78 150.19 C 464.29 152.59 466.52 155.42 469.48 157.28 C 470.11 157.58 471.38 158.18 472.01 158.48 C 472.55 160.55 473.06 162.64 473.47 164.75 C 470.96 162.74 467.81 162.18 464.83 161.28 C 463.00 159.67 461.19 158.03 459.06 156.83 C 459.31 156.46 459.82 155.71 460.07 155.34 C 457.97 153.38 455.88 151.41 453.82 149.41 L 453.84 148.70 C 454.46 148.69 455.71 148.69 456.33 148.68 C 455.67 147.69 455.00 146.71 454.45 145.66 L 454.42 144.96 C 455.04 144.97 456.28 144.99 456.91 145.00 C 456.91 143.82 456.44 142.83 455.52 142.03 L 456.33 140.87 Z" />
<path fill="#f9dd16" opacity="1.00" d=" M 469.50 145.16 C 471.65 142.30 475.54 142.77 478.66 143.26 C 481.63 144.73 481.44 148.64 480.35 151.27 C 479.45 151.15 477.64 150.90 476.73 150.77 C 477.54 149.18 478.37 147.60 479.21 146.03 C 476.48 146.56 473.69 146.53 470.98 145.94 C 471.86 147.53 472.63 149.18 473.34 150.85 C 472.46 150.86 470.72 150.88 469.84 150.89 C 469.37 149.29 469.07 147.64 468.69 146.03 C 468.30 145.76 467.52 145.22 467.12 144.94 C 466.95 144.71 466.60 144.23 466.43 143.99 C 467.20 144.28 468.74 144.87 469.50 145.16 Z" />
<path fill="#f9dd16" opacity="1.00" d=" M 511.22 162.35 C 511.73 161.64 512.26 160.94 512.81 160.25 C 514.64 161.29 516.89 161.93 518.17 163.71 C 518.76 165.22 519.15 166.81 519.75 168.32 L 519.95 168.74 C 520.59 170.01 522.00 172.03 520.02 172.87 C 516.23 173.26 512.34 172.24 508.66 173.63 C 508.32 173.32 507.65 172.70 507.31 172.39 C 505.89 172.85 504.48 173.33 503.12 173.94 C 502.77 172.56 502.21 171.24 501.35 170.10 L 501.11 169.74 L 500.70 168.78 C 505.23 170.27 512.15 173.02 515.53 168.21 C 512.86 167.36 509.94 167.15 507.48 165.78 C 506.51 164.84 504.28 163.92 505.37 162.31 C 507.25 161.52 509.28 162.13 511.22 162.35 Z" />
<path fill="#f9dd16" opacity="1.00" d=" M 467.17 182.61 C 469.30 184.63 469.56 187.67 470.87 190.17 C 472.99 193.13 475.51 196.00 478.91 197.52 C 479.15 198.47 479.40 199.43 479.65 200.39 C 479.94 199.09 480.21 197.78 480.47 196.47 C 480.48 197.26 480.51 198.85 480.53 199.64 C 481.01 200.36 481.51 201.07 482.03 201.78 C 482.34 199.60 482.75 197.45 483.26 195.31 C 483.17 194.80 482.98 193.79 482.89 193.28 C 483.29 193.50 484.08 193.95 484.48 194.18 C 484.85 193.59 485.60 192.42 485.97 191.83 C 487.80 193.11 489.51 195.03 491.96 194.87 C 497.48 194.88 503.23 195.25 508.44 193.05 C 513.35 192.52 518.68 194.95 523.26 192.32 C 524.71 191.73 524.03 189.60 522.82 189.11 C 519.53 188.48 516.17 189.07 512.88 189.40 C 512.92 188.99 512.98 188.18 513.01 187.77 C 516.86 187.72 520.75 186.40 524.49 187.95 C 524.67 188.10 525.04 188.40 525.23 188.55 C 525.79 190.31 526.57 192.42 524.87 193.83 C 523.20 196.29 520.06 196.01 517.48 196.27 C 521.65 199.32 527.10 198.07 531.88 197.90 C 532.09 199.47 532.31 201.04 532.53 202.61 C 532.69 205.09 532.61 207.57 531.96 209.98 C 531.63 209.76 530.98 209.32 530.65 209.10 C 529.55 210.06 528.30 209.31 527.15 209.12 C 526.66 209.61 525.69 210.58 525.21 211.07 C 524.99 211.27 524.55 211.65 524.33 211.85 C 523.81 210.26 523.36 208.64 523.00 207.01 C 525.03 207.10 527.07 207.11 529.11 207.13 C 529.32 204.67 528.92 201.65 525.93 201.30 C 521.72 201.62 517.51 202.47 513.29 201.68 C 513.73 204.23 515.36 206.65 515.05 209.28 C 513.25 209.52 511.43 209.58 509.63 209.69 C 508.64 209.71 507.64 209.86 506.68 210.00 C 506.26 209.75 505.41 209.23 504.99 208.98 C 504.19 209.58 503.40 210.20 502.60 210.80 C 502.17 209.74 501.40 209.07 500.29 208.81 C 500.51 207.69 500.60 206.54 500.59 205.41 C 503.55 207.50 508.69 209.08 511.26 205.67 C 508.18 204.98 504.85 204.38 503.11 201.41 C 502.81 201.50 502.21 201.69 501.91 201.78 C 497.67 202.04 493.53 202.96 489.47 204.14 C 489.45 202.62 489.40 201.11 489.32 199.60 C 488.39 202.92 489.47 206.72 486.46 209.22 C 486.25 208.68 485.84 207.61 485.63 207.07 C 484.57 208.15 483.48 209.21 482.37 210.23 C 482.21 209.75 481.90 208.78 481.74 208.30 C 479.90 209.43 477.83 209.95 475.68 209.93 C 475.26 209.54 474.43 208.76 474.01 208.37 C 472.54 208.01 471.15 207.46 470.44 206.03 C 469.82 206.04 468.59 206.06 467.98 206.07 C 468.17 205.53 468.56 204.44 468.75 203.90 C 468.19 203.66 467.07 203.18 466.50 202.95 C 466.46 202.17 466.37 200.61 466.32 199.84 C 466.69 199.87 467.43 199.93 467.80 199.96 C 468.47 200.51 469.12 201.09 469.76 201.71 C 472.26 205.65 477.13 205.12 481.17 205.07 C 481.58 204.38 482.39 203.00 482.80 202.31 C 479.57 202.01 476.57 200.80 473.59 199.65 C 472.54 198.65 471.50 197.67 470.47 196.67 C 470.15 193.79 467.56 192.08 465.76 190.10 C 466.33 190.09 467.46 190.06 468.03 190.04 C 467.76 189.55 467.23 188.55 466.96 188.06 C 467.89 186.56 467.86 184.97 467.08 183.41 L 467.17 182.61 Z" />
<path fill="#f9dd16" opacity="1.00" d=" M 475.02 185.29 C 478.49 185.38 481.83 183.39 485.25 185.04 L 485.43 185.10 L 487.14 185.14 C 486.61 186.94 486.15 188.75 485.74 190.57 C 485.62 190.76 485.37 191.14 485.24 191.32 C 484.63 191.26 483.42 191.15 482.81 191.09 C 483.23 189.73 483.67 188.38 484.12 187.03 C 482.13 187.48 480.10 187.52 478.13 186.98 C 478.92 188.40 479.65 189.84 480.37 191.31 C 479.45 191.21 477.61 191.01 476.69 190.91 C 477.42 189.26 477.89 185.45 475.06 185.92 L 475.02 185.29 Z" />
</g>
<g id="#b0a44eff">
<path fill="#b0a44e" opacity="1.00" d=" M 495.08 33.96 C 492.66 27.61 492.98 19.25 498.20 14.39 C 496.93 17.85 494.91 21.18 494.87 24.97 C 494.44 29.09 496.00 33.00 497.30 36.81 C 495.07 35.69 492.76 33.78 490.11 34.75 C 486.45 35.47 483.82 38.44 482.28 41.66 C 485.43 42.26 488.96 42.45 491.48 44.70 C 496.83 49.00 496.92 58.15 491.85 62.69 C 487.94 66.07 480.65 66.50 477.51 61.89 C 481.00 63.59 485.25 65.15 488.99 63.24 C 496.73 59.89 496.07 46.38 487.94 43.93 C 485.64 42.94 483.15 43.37 480.80 43.86 C 481.33 37.35 488.64 31.59 495.08 33.96 Z" />
</g>
<g id="#b28812ff">
<path fill="#b28812" opacity="1.00" d=" M 501.78 14.38 C 506.84 19.53 507.49 27.92 504.55 34.33 C 510.93 31.37 518.28 37.26 519.13 43.67 C 516.46 43.19 513.62 42.88 511.10 44.12 C 503.42 47.48 503.45 60.74 511.51 63.62 C 515.15 65.28 519.01 63.62 522.36 62.09 C 519.44 66.02 513.29 66.06 509.43 63.58 C 503.64 59.95 502.75 51.08 507.16 46.04 C 509.66 42.81 513.89 42.17 517.68 41.70 C 516.11 38.14 513.01 35.00 508.97 34.65 C 506.61 34.22 504.66 35.92 502.65 36.83 C 503.77 33.30 505.36 29.77 505.14 25.97 C 505.37 21.81 503.16 18.15 501.78 14.38 Z" />
<path fill="#b28812" opacity="1.00" d=" M 426.94 42.31 C 430.64 42.51 434.63 42.86 437.68 45.22 C 439.91 46.83 441.15 49.35 442.43 51.70 C 445.37 46.54 453.86 45.98 457.40 50.74 C 454.37 53.13 451.59 56.82 452.59 60.91 C 453.54 66.61 460.30 69.93 465.53 67.71 C 469.09 66.65 471.18 63.25 472.06 59.83 C 470.20 58.86 468.22 57.77 467.41 55.71 C 465.72 51.55 470.55 46.68 474.73 48.41 C 478.38 49.78 480.07 54.98 476.88 57.74 C 477.29 55.27 478.16 52.08 475.82 50.24 C 472.94 47.47 467.92 50.26 468.07 54.05 C 468.19 56.90 471.17 58.02 473.23 59.33 C 472.16 63.59 469.45 67.85 464.91 68.92 C 458.81 70.91 451.81 66.21 451.41 59.82 C 450.97 55.86 454.15 52.98 456.25 50.04 C 453.61 49.17 450.82 48.15 448.02 48.88 C 444.96 49.27 443.30 52.11 441.45 54.22 C 440.76 51.85 440.34 49.24 438.61 47.35 C 436.46 44.92 433.15 43.83 429.99 43.65 C 429.63 44.10 428.90 45.00 428.54 45.45 C 427.84 44.49 427.20 43.48 426.94 42.31 Z" />
<path fill="#b28812" opacity="1.00" d=" M 449.82 99.54 L 451.27 99.63 C 452.45 101.31 453.47 103.10 454.39 104.94 C 453.03 104.45 451.66 103.96 450.31 103.47 C 452.79 106.16 455.49 108.66 457.84 111.47 C 457.14 111.52 455.75 111.60 455.06 111.65 L 454.88 111.54 C 454.68 108.37 452.19 106.24 449.51 104.96 C 449.86 104.07 450.22 103.19 450.59 102.31 L 452.02 101.94 C 451.47 101.34 450.37 100.14 449.82 99.54 Z" />
<path fill="#b28812" opacity="1.00" d=" M 499.67 139.95 C 504.78 137.49 510.76 138.09 516.13 139.33 C 520.03 140.26 524.06 139.78 528.02 139.69 C 523.99 141.67 519.27 142.15 514.82 142.10 L 515.45 141.08 C 516.41 140.89 517.38 140.70 518.35 140.51 C 512.70 139.46 506.64 138.07 501.09 140.30 C 499.11 140.92 498.21 142.94 497.00 144.43 C 497.12 142.57 497.90 140.76 499.67 139.95 Z" />
<path fill="#b28812" opacity="1.00" d=" M 454.42 144.96 C 454.41 143.91 454.99 142.91 455.52 142.03 C 456.44 142.83 456.91 143.82 456.91 145.00 C 456.28 144.99 455.04 144.97 454.42 144.96 Z" />
<path fill="#b28812" opacity="1.00" d=" M 473.95 157.11 C 474.17 159.42 474.11 161.90 475.51 163.88 C 475.62 164.89 475.73 165.89 475.86 166.89 L 475.55 166.94 C 474.84 166.21 474.18 165.47 473.47 164.75 C 473.06 162.64 472.55 160.55 472.01 158.48 C 472.50 158.14 473.47 157.45 473.95 157.11 Z" />
<path fill="#b28812" opacity="1.00" d=" M 503.12 173.94 C 500.90 173.76 498.41 171.41 501.11 169.74 L 501.35 170.10 C 502.21 171.24 502.77 172.56 503.12 173.94 Z" />
</g>
<g id="#a2995cff">
<path fill="#a2995c" opacity="1.00" d=" M 524.33 58.16 C 526.27 58.70 524.70 60.88 523.45 61.22 C 522.96 59.98 523.25 58.97 524.33 58.16 Z" />
</g>
<g id="#a04e3cff">
<path fill="#a04e3c" opacity="1.00" d=" M 461.26 85.28 C 477.16 79.60 494.31 77.91 511.08 79.31 C 525.33 80.65 539.52 84.32 552.10 91.28 C 552.43 90.60 553.10 89.23 553.43 88.55 L 553.43 89.63 C 553.28 93.86 554.75 97.90 555.36 102.04 C 560.28 129.59 559.22 158.77 548.82 185.00 C 547.29 188.27 546.35 191.89 544.07 194.76 C 545.33 189.65 548.02 185.07 549.61 180.08 C 559.33 152.10 559.01 121.35 552.42 92.70 C 535.99 83.35 516.80 79.62 498.02 79.94 C 483.01 80.04 467.99 83.10 454.26 89.20 C 451.38 90.60 448.07 91.87 446.49 94.87 L 446.24 95.50 C 447.08 92.55 446.38 89.57 445.81 86.66 C 445.81 85.93 445.81 84.47 445.81 83.75 C 446.55 86.19 447.08 88.69 447.55 91.21 C 452.18 89.36 456.45 86.69 461.26 85.28 Z" />
</g>
<g id="#e8112dff">
<path fill="#e8112d" opacity="1.00" d=" M 454.26 89.20 C 467.99 83.10 483.01 80.04 498.02 79.94 C 516.80 79.62 535.99 83.35 552.42 92.70 C 559.01 121.35 559.33 152.10 549.61 180.08 C 548.02 185.07 545.33 189.65 544.07 194.76 C 543.35 196.75 542.47 198.75 541.06 200.35 C 538.47 202.76 536.93 206.03 534.34 208.43 C 534.74 204.67 534.10 200.84 532.50 197.41 C 529.62 196.52 526.25 197.55 523.21 197.28 C 525.20 195.01 528.97 191.08 525.23 188.55 C 525.04 188.40 524.67 188.10 524.49 187.95 C 521.33 184.85 516.79 186.54 513.05 187.28 C 508.93 188.40 504.64 187.77 500.54 186.97 C 500.26 186.77 499.70 186.36 499.43 186.16 C 505.40 180.15 515.51 187.61 521.46 181.24 C 519.25 181.43 517.07 181.79 514.91 182.22 L 513.73 182.04 C 509.16 179.66 503.39 179.13 498.90 181.96 C 496.04 183.77 496.26 189.16 499.85 189.94 C 507.50 193.46 515.84 187.82 523.47 190.81 C 519.06 194.84 513.18 190.50 508.44 193.05 C 503.23 195.25 497.48 194.88 491.96 194.87 C 489.51 195.03 487.80 193.11 485.97 191.83 L 485.24 191.32 C 485.37 191.14 485.62 190.76 485.74 190.57 C 487.36 188.68 488.01 186.31 488.06 183.86 C 487.40 184.17 486.09 184.79 485.43 185.10 L 485.25 185.04 C 482.52 182.11 478.31 184.05 474.92 184.17 L 475.02 185.29 L 475.06 185.92 C 474.93 187.74 475.78 189.39 476.69 190.91 L 477.21 191.88 C 477.51 193.21 477.79 194.55 478.05 195.90 C 475.29 193.66 472.25 191.31 470.97 187.86 C 469.91 185.66 469.89 182.23 466.75 182.10 C 464.35 180.97 462.94 184.84 466.21 184.10 L 465.95 185.12 C 464.55 184.25 463.56 184.51 462.99 185.90 C 463.46 187.15 464.34 187.50 465.62 186.95 L 465.35 187.68 C 465.09 187.83 464.56 188.13 464.30 188.28 C 463.71 188.71 462.52 189.56 461.92 189.99 C 462.95 190.89 464.11 191.10 465.41 190.59 C 467.65 193.88 469.03 198.04 472.57 200.21 C 475.16 201.51 477.91 202.48 480.39 204.00 C 476.66 204.52 472.86 203.91 469.76 201.71 C 469.12 201.09 468.47 200.51 467.80 199.96 C 466.13 199.41 464.60 200.38 463.17 201.10 C 463.69 201.40 464.75 201.99 465.28 202.29 C 463.33 203.78 464.59 205.21 465.94 206.42 L 465.03 206.58 C 468.14 206.53 470.81 208.17 472.69 210.56 C 477.13 210.54 481.73 211.32 486.04 209.91 C 488.37 209.43 489.07 206.88 490.26 205.16 C 494.08 203.80 498.28 203.72 501.91 201.78 C 502.21 201.69 502.81 201.50 503.11 201.41 C 504.85 204.38 508.18 204.98 511.26 205.67 C 508.69 209.08 503.55 207.50 500.59 205.41 C 497.26 204.38 496.35 210.59 499.71 210.68 L 498.56 212.63 C 500.08 212.51 501.40 211.71 502.60 210.80 C 503.40 210.20 504.19 209.58 504.99 208.98 C 505.41 209.23 506.26 209.75 506.68 210.00 C 507.64 209.86 508.64 209.71 509.63 209.69 C 511.79 210.04 513.98 210.30 516.18 210.26 C 515.97 207.84 515.50 205.44 514.70 203.14 C 518.46 203.24 522.16 202.44 525.90 202.20 C 527.90 202.51 527.97 204.69 528.36 206.25 C 526.48 206.14 524.61 206.02 522.75 206.01 C 522.04 206.42 521.36 206.87 520.68 207.31 C 521.53 209.23 521.79 211.34 522.36 213.36 C 522.85 212.98 523.83 212.22 524.33 211.85 C 524.55 211.65 524.99 211.27 525.21 211.07 C 528.70 212.13 531.76 209.65 535.08 209.98 C 530.13 216.33 525.10 222.97 518.62 227.76 C 518.24 228.12 517.49 228.86 517.11 229.22 C 512.17 234.34 505.97 238.17 500.03 242.07 C 494.14 238.02 487.77 234.29 482.90 229.04 C 482.76 228.70 482.49 228.01 482.35 227.67 C 481.98 227.54 481.26 227.28 480.90 227.14 C 479.73 226.79 478.96 225.77 478.09 225.00 C 471.51 218.46 465.47 211.31 460.72 203.32 C 451.01 186.76 444.81 168.13 443.20 148.97 C 441.31 134.28 442.77 119.48 444.43 104.86 C 446.12 104.82 447.81 104.82 449.51 104.96 C 452.19 106.24 454.68 108.37 454.88 111.54 L 455.06 111.65 C 455.44 111.92 456.21 112.46 456.60 112.73 C 459.42 119.54 467.82 119.50 473.40 122.86 C 468.34 124.01 463.09 123.16 458.41 121.02 C 456.61 119.32 454.68 117.61 452.12 117.31 C 450.21 117.39 448.49 118.16 447.22 119.58 C 448.35 119.73 450.60 120.01 451.73 120.16 L 451.72 120.23 C 449.92 121.18 448.54 122.61 447.77 124.50 C 449.56 122.52 452.75 124.94 450.32 126.79 C 451.80 126.33 453.27 125.90 454.76 125.45 C 455.41 126.50 456.15 127.50 456.90 128.49 C 458.12 128.75 459.36 129.01 460.59 129.28 C 460.75 129.88 461.07 131.10 461.23 131.70 C 465.55 131.44 469.89 131.27 474.21 131.76 C 476.84 131.57 479.37 130.62 481.98 130.19 C 482.29 129.90 482.91 129.31 483.22 129.02 C 483.39 128.86 483.72 128.53 483.89 128.37 C 485.05 127.30 485.96 126.01 486.81 124.68 C 488.86 123.59 491.03 122.59 493.39 122.44 C 497.64 122.08 501.76 120.50 506.07 120.68 C 509.16 122.96 512.44 125.13 516.43 125.26 C 512.83 126.88 508.82 126.08 505.02 126.04 C 504.36 125.81 503.04 125.33 502.38 125.10 C 501.18 125.20 500.02 125.59 498.88 125.94 C 499.11 126.54 499.58 127.75 499.82 128.36 C 499.22 129.40 498.64 130.46 498.06 131.51 C 499.45 131.18 500.85 130.86 502.26 130.55 C 501.72 131.76 501.22 132.98 500.76 134.21 C 502.30 133.62 503.85 133.03 505.29 132.20 C 505.86 131.86 506.42 131.53 507.00 131.20 C 512.27 133.70 518.14 131.12 523.71 131.40 L 524.34 130.55 C 524.86 129.69 525.37 128.84 525.88 127.97 C 525.15 127.16 524.43 126.34 523.72 125.52 C 523.72 124.51 523.72 122.48 523.71 121.47 C 529.18 121.76 534.59 120.82 540.03 120.51 C 542.71 120.31 545.76 123.43 544.09 126.04 C 542.13 126.44 540.11 126.33 538.13 126.26 C 535.84 125.18 533.63 126.32 532.41 128.40 C 533.13 128.38 534.59 128.35 535.31 128.34 C 534.51 129.77 533.75 131.22 532.98 132.66 C 533.69 132.34 535.12 131.69 535.84 131.36 C 535.61 132.39 535.15 134.44 534.92 135.47 C 536.13 134.86 537.34 134.25 538.56 133.64 C 541.45 132.04 544.84 132.56 547.96 131.90 C 549.99 131.07 551.70 129.65 553.53 128.45 C 553.15 127.59 552.78 126.73 552.42 125.87 C 552.77 125.32 553.13 124.77 553.50 124.22 C 552.30 120.82 551.97 116.92 549.91 113.93 C 544.45 113.72 538.95 115.00 533.53 113.72 C 537.00 112.29 541.44 110.33 541.78 106.03 C 541.46 101.33 536.15 99.35 532.08 99.49 C 523.24 99.77 514.33 102.99 505.53 100.49 C 504.04 100.04 500.85 99.01 503.28 97.30 C 510.86 92.92 519.81 98.36 527.65 95.06 L 528.33 94.99 C 530.26 94.93 532.17 94.46 533.55 93.00 C 528.91 93.09 524.22 93.51 519.64 92.48 C 514.31 91.59 508.32 90.21 503.32 93.00 L 503.20 93.04 C 499.03 93.10 496.36 98.12 498.75 101.56 C 501.35 104.90 506.08 105.06 509.95 105.25 C 518.85 105.73 527.58 103.04 536.48 103.84 C 536.69 104.03 537.13 104.40 537.35 104.58 C 535.96 105.42 534.67 106.56 534.16 108.16 L 533.68 108.25 C 525.80 107.79 517.72 106.62 509.97 108.72 C 504.42 110.29 498.61 109.73 492.92 110.06 C 489.60 110.24 486.41 109.17 483.32 108.10 C 482.86 107.66 481.92 106.77 481.45 106.33 L 481.25 106.06 C 482.17 103.07 483.22 100.12 483.82 97.04 C 482.08 97.06 480.35 97.03 478.63 96.96 C 474.00 95.73 469.55 97.96 464.94 97.53 C 465.77 99.87 466.63 102.19 467.53 104.51 C 467.62 105.14 467.79 106.41 467.88 107.05 C 467.83 108.36 468.69 109.39 469.61 110.22 C 470.13 110.86 471.16 112.13 471.68 112.76 L 471.42 114.07 C 466.37 113.06 463.12 108.98 459.80 105.43 C 460.03 103.85 459.38 102.94 457.87 102.71 C 456.99 99.96 455.95 97.26 454.67 94.67 C 452.25 94.26 449.62 93.49 447.79 95.60 L 450.86 95.98 C 449.65 96.67 448.64 98.25 447.08 97.79 C 446.93 97.06 446.64 95.60 446.49 94.87 C 448.07 91.87 451.38 90.60 454.26 89.20 M 499.67 139.95 C 497.90 140.76 497.12 142.57 497.00 144.43 L 496.83 144.66 C 496.55 148.53 500.86 149.92 503.94 150.26 C 508.97 150.63 514.07 150.58 519.06 149.76 C 523.13 149.16 527.38 148.51 531.39 149.85 C 530.73 151.23 529.60 152.26 528.53 153.30 C 523.07 154.19 517.56 152.76 512.09 153.44 C 508.35 153.87 504.76 155.36 500.95 155.28 C 494.72 154.99 487.41 157.36 482.44 152.27 C 481.26 149.02 483.70 146.32 484.10 143.20 C 481.03 143.03 478.08 142.17 475.05 141.86 C 472.26 142.21 469.54 142.95 466.72 143.10 L 466.43 143.99 C 466.60 144.23 466.95 144.71 467.12 144.94 C 467.40 149.07 469.75 152.60 471.55 156.20 C 471.03 156.47 470.00 157.01 469.48 157.28 C 466.52 155.42 464.29 152.59 461.78 150.19 C 459.09 147.61 460.20 142.31 456.33 140.87 C 454.74 139.95 452.51 140.03 451.81 142.03 L 454.73 141.89 C 453.23 142.99 451.66 144.00 450.17 145.12 C 451.59 145.32 453.01 145.50 454.45 145.66 C 455.00 146.71 455.67 147.69 456.33 148.68 C 455.71 148.69 454.46 148.69 453.84 148.70 C 453.36 146.86 450.42 147.87 450.01 149.27 C 450.52 149.49 451.54 149.93 452.06 150.15 C 454.04 151.34 456.69 152.34 457.17 154.90 C 457.83 157.49 460.23 159.03 462.01 160.82 C 465.08 163.57 470.19 163.22 472.68 166.51 C 468.85 167.01 465.12 166.04 461.45 165.08 C 459.63 163.48 457.86 161.65 455.35 161.24 C 453.56 161.32 452.06 162.17 450.92 163.52 C 451.94 163.58 453.97 163.71 454.99 163.78 C 453.56 164.79 451.98 165.82 451.77 167.73 C 453.04 166.66 454.35 166.65 455.44 167.91 C 455.02 168.40 454.18 169.38 453.76 169.87 C 454.87 169.50 455.97 169.08 457.06 168.61 C 457.44 168.66 458.19 168.77 458.57 168.82 C 458.79 169.47 459.22 170.78 459.44 171.44 C 460.89 171.66 462.34 171.88 463.81 172.11 C 463.60 172.62 463.18 173.65 462.97 174.16 C 467.19 174.08 471.44 173.87 475.60 174.53 C 478.81 173.12 484.36 174.05 485.08 169.51 L 485.44 169.19 C 485.48 168.59 485.57 167.37 485.62 166.77 C 486.89 166.64 488.33 166.74 489.39 165.86 C 494.37 166.57 499.04 164.16 503.98 164.26 C 505.55 164.92 506.47 166.55 507.99 167.32 C 509.59 167.74 511.20 168.08 512.85 168.35 L 512.27 169.56 C 508.15 170.46 504.17 168.88 500.27 167.80 C 498.95 168.33 497.88 169.22 497.01 170.33 L 498.90 170.62 C 498.14 171.69 497.40 172.77 496.68 173.86 C 497.70 173.68 499.74 173.32 500.76 173.14 C 500.22 174.27 499.69 175.40 499.17 176.55 C 500.22 176.02 501.48 175.74 502.28 174.81 C 508.71 175.13 515.07 174.08 521.48 173.67 C 522.18 171.83 522.61 169.06 519.95 168.74 L 519.75 168.32 C 519.76 167.50 519.77 165.86 519.78 165.04 C 525.98 165.58 532.10 163.55 538.29 164.56 C 538.19 166.03 538.10 167.49 538.05 168.97 C 536.31 168.99 534.58 169.00 532.87 169.20 C 530.90 168.91 528.66 169.02 527.83 171.16 C 528.56 171.13 530.04 171.06 530.77 171.03 C 529.82 172.19 528.92 173.40 528.08 174.65 C 528.89 174.48 530.50 174.15 531.30 173.98 C 530.91 174.88 530.11 176.68 529.71 177.58 C 530.92 177.05 532.16 176.53 533.39 175.99 L 533.25 175.62 C 534.46 174.60 535.70 173.63 536.98 172.69 C 537.47 173.14 538.46 174.04 538.96 174.49 C 539.83 173.77 540.73 173.05 541.61 172.34 C 541.94 172.71 542.60 173.47 542.93 173.84 C 544.49 171.38 545.94 168.22 543.08 166.08 C 543.77 166.22 545.16 166.49 545.85 166.63 C 544.96 165.02 544.44 163.28 543.91 161.54 C 543.93 160.67 543.97 158.92 543.99 158.04 C 539.39 158.07 534.80 158.98 530.21 158.29 C 532.20 155.95 536.09 154.59 536.09 151.02 C 535.82 146.09 529.90 145.04 525.97 145.22 C 518.07 146.11 509.85 148.30 502.04 145.72 C 500.86 145.28 500.61 144.50 501.31 143.37 C 505.39 140.98 510.33 141.94 514.82 142.10 C 519.27 142.15 523.99 141.67 528.02 139.69 C 524.06 139.78 520.03 140.26 516.13 139.33 C 510.76 138.09 504.78 137.49 499.67 139.95 Z" />
</g>
<g id="#9c3c18ff">
<path fill="#9c3c18" opacity="1.00" d=" M 503.32 93.00 C 508.32 90.21 514.31 91.59 519.64 92.48 C 524.22 93.51 528.91 93.09 533.55 93.00 C 532.17 94.46 530.26 94.93 528.33 94.99 C 520.04 93.69 511.74 91.55 503.32 93.00 Z" />
</g>
<g id="#a64d18ff">
<path fill="#a64d18" opacity="1.00" d=" M 498.75 101.56 C 496.36 98.12 499.03 93.10 503.20 93.04 C 501.37 94.66 498.53 96.15 499.03 99.06 C 499.39 102.82 503.85 103.66 506.92 103.95 C 514.38 104.66 521.79 103.38 529.19 102.70 C 531.62 102.72 534.47 102.07 536.48 103.84 C 527.58 103.04 518.85 105.73 509.95 105.25 C 506.08 105.06 501.35 104.90 498.75 101.56 Z" />
</g>
<g id="#a34f18ff">
<path fill="#a34f18" opacity="1.00" d=" M 500.69 98.24 C 503.42 94.84 507.93 94.31 512.00 94.52 C 517.21 94.89 522.42 95.03 527.65 95.06 C 519.81 98.36 510.86 92.92 503.28 97.30 C 500.85 99.01 504.04 100.04 505.53 100.49 C 514.33 102.99 523.24 99.77 532.08 99.49 C 536.15 99.35 541.46 101.33 541.78 106.03 C 541.44 110.33 537.00 112.29 533.53 113.72 C 538.95 115.00 544.45 113.72 549.91 113.93 C 551.97 116.92 552.30 120.82 553.50 124.22 C 553.13 124.77 552.77 125.32 552.42 125.87 C 552.78 126.73 553.15 127.59 553.53 128.45 C 551.70 129.65 549.99 131.07 547.96 131.90 C 544.84 132.56 541.45 132.04 538.56 133.64 C 538.01 132.68 537.30 131.86 536.44 131.17 L 537.26 129.70 C 537.60 130.36 538.28 131.68 538.63 132.34 C 540.70 131.19 543.07 128.93 545.30 131.13 C 546.17 130.60 547.04 130.06 547.92 129.52 C 548.34 129.64 549.19 129.88 549.61 130.00 C 550.22 128.66 550.85 127.33 551.50 126.01 C 550.88 124.78 550.28 123.56 549.69 122.34 C 550.35 122.48 551.67 122.76 552.33 122.90 C 551.65 121.82 550.98 120.74 550.30 119.68 C 550.17 118.09 549.99 116.50 549.84 114.92 C 544.02 114.98 538.08 116.01 532.34 114.62 C 530.77 114.31 529.60 113.18 528.50 112.12 C 531.05 112.31 533.77 112.74 536.14 111.48 C 538.81 110.30 541.92 107.37 540.34 104.21 C 537.73 100.24 532.32 100.22 528.11 100.83 C 520.62 102.13 512.88 103.16 505.34 101.64 C 503.27 101.37 501.96 99.71 500.69 98.24 Z" />
</g>
<g id="#8b4713ff">
<path fill="#8b4713" opacity="1.00" d=" M 450.99 97.70 C 451.02 97.47 451.08 97.01 451.11 96.78 C 452.40 96.91 454.72 97.88 454.10 99.54 C 452.79 99.72 451.87 98.46 450.99 97.70 Z" />
</g>
<g id="#9e7012ff">
<path fill="#9e7012" opacity="1.00" d=" M 478.63 96.96 C 480.35 97.03 482.08 97.06 483.82 97.04 C 483.22 100.12 482.17 103.07 481.25 106.06 C 481.16 105.85 480.99 105.43 480.90 105.22 C 480.95 102.26 480.58 99.31 478.63 96.96 Z" />
</g>
<g id="#a48b0fff">
<path fill="#a48b0f" opacity="1.00" d=" M 469.69 100.52 C 471.15 100.84 472.60 101.21 474.05 101.59 C 475.57 101.13 477.12 100.79 478.71 100.65 C 477.87 101.60 477.03 102.55 476.18 103.48 C 476.13 104.24 476.02 105.76 475.97 106.51 C 477.61 106.10 479.26 105.67 480.90 105.22 C 480.99 105.43 481.16 105.85 481.25 106.06 L 481.45 106.33 C 479.48 108.84 478.04 111.71 476.02 114.17 C 476.03 113.47 476.05 112.07 476.06 111.37 C 476.33 110.36 476.64 109.37 477.00 108.39 C 479.11 107.00 475.91 105.82 476.14 108.14 C 474.35 108.16 472.56 108.22 470.79 108.34 L 470.15 108.42 C 469.58 108.08 468.45 107.39 467.88 107.05 C 467.79 106.41 467.62 105.14 467.53 104.51 C 467.89 104.93 468.60 105.79 468.96 106.22 C 469.78 106.19 471.44 106.13 472.27 106.10 C 472.03 103.99 470.84 102.23 469.69 100.52 M 474.14 103.10 C 472.67 103.27 472.44 105.91 474.01 106.12 C 475.48 105.99 475.62 103.30 474.14 103.10 Z" />
</g>
<g id="#a5231dff">
<path fill="#a5231d" opacity="1.00" d=" M 457.87 102.71 C 459.38 102.94 460.03 103.85 459.80 105.43 C 458.60 104.90 457.96 104.00 457.87 102.71 Z" />
</g>
<g id="#e1c814ff">
<path fill="#e1c814" opacity="1.00" d=" M 474.14 103.10 C 475.62 103.30 475.48 105.99 474.01 106.12 C 472.44 105.91 472.67 103.27 474.14 103.10 Z" />
</g>
<g id="#a72d1cff">
<path fill="#a72d1c" opacity="1.00" d=" M 534.16 108.16 C 534.67 106.56 535.96 105.42 537.35 104.58 C 538.80 106.43 535.86 108.19 534.16 108.16 Z" />
</g>
<g id="#941c1aff">
<path fill="#941c1a" opacity="1.00" d=" M 467.88 107.05 C 468.45 107.39 469.58 108.08 470.15 108.42 C 470.01 108.87 469.74 109.77 469.61 110.22 C 468.69 109.39 467.83 108.36 467.88 107.05 Z" />
</g>
<g id="#765b0bff">
<path fill="#765b0b" opacity="1.00" d=" M 476.14 108.14 C 475.91 105.82 479.11 107.00 477.00 108.39 L 476.14 108.14 Z" />
</g>
<g id="#9f4e16ff">
<path fill="#9f4e16" opacity="1.00" d=" M 509.97 108.72 C 517.72 106.62 525.80 107.79 533.68 108.25 C 528.27 110.03 522.64 108.08 517.13 108.63 C 511.34 109.02 505.84 111.39 499.98 111.02 C 494.40 110.75 487.72 112.61 483.32 108.10 C 486.41 109.17 489.60 110.24 492.92 110.06 C 498.61 109.73 504.42 110.29 509.97 108.72 Z" />
</g>
<g id="#bb8312ff">
<path fill="#bb8312" opacity="1.00" d=" M 470.15 108.42 L 470.79 108.34 C 472.06 109.20 472.34 110.87 472.09 112.29 L 471.68 112.76 C 471.16 112.13 470.13 110.86 469.61 110.22 C 469.74 109.77 470.01 108.87 470.15 108.42 Z" />
</g>
<g id="#ff0016ff">
<path fill="#ff0016" opacity="1.00" d=" M 470.79 108.34 C 472.56 108.22 474.35 108.16 476.14 108.14 L 477.00 108.39 C 476.64 109.37 476.33 110.36 476.06 111.37 C 474.72 110.19 473.61 110.26 472.74 111.58 L 472.09 112.29 C 472.34 110.87 472.06 109.20 470.79 108.34 Z" />
</g>
<g id="#9a5517ff">
<path fill="#9a5517" opacity="1.00" d=" M 456.60 112.73 C 458.98 113.79 460.73 115.67 462.61 117.39 C 466.35 117.98 469.75 119.52 473.00 121.42 C 472.73 120.42 472.50 119.41 472.31 118.39 L 472.62 117.31 C 473.13 117.95 474.15 119.21 474.66 119.84 C 474.56 119.97 474.34 120.24 474.24 120.37 C 474.33 121.46 474.49 122.54 474.65 123.63 C 469.27 124.60 462.55 125.41 458.41 121.02 C 463.09 123.16 468.34 124.01 473.40 122.86 C 467.82 119.50 459.42 119.54 456.60 112.73 Z" />
</g>
<g id="#ac990fff">
<path fill="#ac990f" opacity="1.00" d=" M 506.95 117.76 C 509.92 115.37 515.67 113.23 518.32 117.06 C 517.51 117.01 515.90 116.92 515.09 116.87 C 515.02 117.32 514.88 118.21 514.81 118.65 C 512.21 118.14 509.57 117.92 506.95 117.76 Z" />
</g>
<g id="#a45c15ff">
<path fill="#a45c15" opacity="1.00" d=" M 483.89 128.37 C 486.55 124.84 483.89 120.09 486.58 116.67 C 486.44 118.81 486.19 120.95 485.98 123.09 C 492.84 121.38 499.83 120.16 506.85 119.24 C 509.31 122.98 513.68 123.71 517.65 124.89 L 516.43 125.26 C 512.44 125.13 509.16 122.96 506.07 120.68 C 501.76 120.50 497.64 122.08 493.39 122.44 C 491.03 122.59 488.86 123.59 486.81 124.68 C 485.96 126.01 485.05 127.30 483.89 128.37 Z" />
</g>
<g id="#ad5d17ff">
<path fill="#ad5d17" opacity="1.00" d=" M 518.57 116.58 C 519.56 117.17 520.54 117.77 521.51 118.41 C 526.89 122.62 533.92 119.13 540.06 119.57 C 543.46 119.20 546.65 122.90 545.17 126.16 C 543.66 127.96 541.08 127.34 539.18 126.70 L 538.13 126.26 C 540.11 126.33 542.13 126.44 544.09 126.04 C 545.76 123.43 542.71 120.31 540.03 120.51 C 534.59 120.82 529.18 121.76 523.71 121.47 C 523.72 122.48 523.72 124.51 523.72 125.52 C 522.62 123.93 522.57 121.97 522.32 120.13 C 521.04 118.98 519.77 117.80 518.57 116.58 Z" />
</g>
<g id="#9e5317ff">
<path fill="#9e5317" opacity="1.00" d=" M 451.58 122.07 C 452.39 122.10 454.02 122.15 454.84 122.18 C 456.75 122.54 455.69 124.35 454.56 125.01 C 456.48 125.45 458.31 126.22 459.81 127.53 C 463.94 130.56 469.71 131.96 474.20 128.81 C 474.42 129.39 474.86 130.56 475.08 131.14 C 477.23 130.08 479.28 128.80 481.11 127.24 C 481.20 127.79 481.37 128.89 481.46 129.44 L 483.22 129.02 C 482.91 129.31 482.29 129.90 481.98 130.19 C 479.37 130.62 476.84 131.57 474.21 131.76 C 469.89 131.27 465.55 131.44 461.23 131.70 C 461.07 131.10 460.75 129.88 460.59 129.28 C 459.36 129.01 458.12 128.75 456.90 128.49 C 456.15 127.50 455.41 126.50 454.76 125.45 C 454.53 125.03 454.07 124.19 453.84 123.76 C 453.23 123.73 452.02 123.65 451.42 123.62 L 451.58 122.07 Z" />
</g>
<g id="#ab1c1fff">
<path fill="#ab1c1f" opacity="1.00" d=" M 516.43 125.26 L 517.65 124.89 L 518.82 125.22 C 515.48 129.16 509.23 127.70 505.02 126.04 C 508.82 126.08 512.83 126.88 516.43 125.26 Z" />
</g>
<g id="#983218ff">
<path fill="#983218" opacity="1.00" d=" M 507.00 131.20 C 507.71 130.78 509.14 129.94 509.85 129.52 C 510.35 129.99 511.36 130.94 511.86 131.41 C 512.44 131.12 513.60 130.55 514.18 130.26 C 517.56 130.52 520.95 130.49 524.34 130.55 L 523.71 131.40 C 518.14 131.12 512.27 133.70 507.00 131.20 Z" />
</g>
<g id="#314891ff">
<path fill="#314891" opacity="1.00" d=" M 502.26 130.55 C 502.75 130.20 503.75 129.49 504.25 129.14 C 504.51 129.91 505.03 131.43 505.29 132.20 C 503.85 133.03 502.30 133.62 500.76 134.21 C 501.22 132.98 501.72 131.76 502.26 130.55 Z" />
</g>
<g id="#ab4c19ff">
<path fill="#ab4c19" opacity="1.00" d=" M 500.60 142.60 C 504.93 139.61 510.55 141.09 515.45 141.08 L 514.82 142.10 C 510.33 141.94 505.39 140.98 501.31 143.37 C 500.61 144.50 500.86 145.28 502.04 145.72 C 509.85 148.30 518.07 146.11 525.97 145.22 C 529.90 145.04 535.82 146.09 536.09 151.02 C 536.09 154.59 532.20 155.95 530.21 158.29 C 534.80 158.98 539.39 158.07 543.99 158.04 C 543.97 158.92 543.93 160.67 543.91 161.54 C 543.64 160.90 543.08 159.62 542.80 158.98 C 536.47 159.42 529.28 160.91 523.77 156.84 C 526.41 156.74 529.28 157.16 531.65 155.69 C 533.78 154.55 535.92 151.89 534.53 149.41 C 532.77 146.40 528.73 146.17 525.61 146.33 C 517.63 147.16 509.24 149.63 501.44 146.54 C 499.63 146.19 498.84 143.60 500.60 142.60 Z" />
</g>
<g id="#a06414ff">
<path fill="#a06414" opacity="1.00" d=" M 466.72 143.10 C 469.54 142.95 472.26 142.21 475.05 141.86 C 478.08 142.17 481.03 143.03 484.10 143.20 C 483.70 146.32 481.26 149.02 482.44 152.27 C 482.14 152.04 481.54 151.57 481.24 151.33 C 479.99 153.79 478.55 156.16 476.85 158.35 C 476.83 157.37 476.81 156.39 476.79 155.41 C 476.81 154.73 476.83 153.39 476.85 152.71 C 478.01 152.23 479.19 151.77 480.35 151.27 C 481.44 148.64 481.63 144.73 478.66 143.26 C 475.54 142.77 471.65 142.30 469.50 145.16 C 468.74 144.87 467.20 144.28 466.43 143.99 L 466.72 143.10 M 481.89 144.11 C 480.45 147.14 485.19 144.30 481.89 144.11 Z" />
</g>
<g id="#eacf15ff">
<path fill="#eacf15" opacity="1.00" d=" M 481.89 144.11 C 485.19 144.30 480.45 147.14 481.89 144.11 Z" />
</g>
<g id="#ac4c19ff">
<path fill="#ac4c19" opacity="1.00" d=" M 496.83 144.66 C 498.12 146.16 499.14 148.21 501.28 148.61 C 509.79 150.75 518.47 148.34 527.03 147.94 C 528.90 147.98 531.52 148.11 532.39 150.10 C 532.65 152.31 530.21 153.00 528.53 153.30 C 529.60 152.26 530.73 151.23 531.39 149.85 C 527.38 148.51 523.13 149.16 519.06 149.76 C 514.07 150.58 508.97 150.63 503.94 150.26 C 500.86 149.92 496.55 148.53 496.83 144.66 Z" />
</g>
<g id="#9d4b17ff">
<path fill="#9d4b17" opacity="1.00" d=" M 467.12 144.94 C 467.52 145.22 468.30 145.76 468.69 146.03 C 469.07 147.64 469.37 149.29 469.84 150.89 C 470.75 152.67 471.68 154.50 473.12 155.93 L 473.94 155.96 L 473.95 157.11 C 473.47 157.45 472.50 158.14 472.01 158.48 C 471.38 158.18 470.11 157.58 469.48 157.28 C 470.00 157.01 471.03 156.47 471.55 156.20 C 469.75 152.60 467.40 149.07 467.12 144.94 Z" />
</g>
<g id="#bca711ff">
<path fill="#bca711" opacity="1.00" d=" M 470.98 145.94 C 473.69 146.53 476.48 146.56 479.21 146.03 C 478.37 147.60 477.54 149.18 476.73 150.77 C 477.64 150.90 479.45 151.15 480.35 151.27 C 479.19 151.77 478.01 152.23 476.85 152.71 C 475.42 152.73 473.99 152.77 472.58 152.83 C 472.71 153.61 472.99 155.16 473.12 155.93 C 471.68 154.50 470.75 152.67 469.84 150.89 C 470.72 150.88 472.46 150.86 473.34 150.85 C 472.63 149.18 471.86 147.53 470.98 145.94 M 476.36 147.32 C 476.89 147.84 476.89 147.84 476.36 147.32 Z" />
</g>
<g id="#6b5f09ff">
<path fill="#6b5f09" opacity="1.00" d=" M 476.36 147.32 C 476.89 147.84 476.89 147.84 476.36 147.32 Z" />
</g>
<g id="#265997ff">
<path fill="#265997" opacity="1.00" d=" M 450.01 149.27 C 450.42 147.87 453.36 146.86 453.84 148.70 L 453.82 149.41 C 453.38 149.60 452.50 149.97 452.06 150.15 C 451.54 149.93 450.52 149.49 450.01 149.27 Z" />
</g>
<g id="#a74619ff">
<path fill="#a74619" opacity="1.00" d=" M 452.06 150.15 C 452.50 149.97 453.38 149.60 453.82 149.41 C 455.88 151.41 457.97 153.38 460.07 155.34 C 459.82 155.71 459.31 156.46 459.06 156.83 C 461.19 158.03 463.00 159.67 464.83 161.28 C 467.81 162.18 470.96 162.74 473.47 164.75 C 474.18 165.47 474.84 166.21 475.55 166.94 C 470.91 167.95 465.27 168.48 461.45 165.08 C 465.12 166.04 468.85 167.01 472.68 166.51 C 470.19 163.22 465.08 163.57 462.01 160.82 C 460.23 159.03 457.83 157.49 457.17 154.90 C 456.69 152.34 454.04 151.34 452.06 150.15 Z" />
</g>
<g id="#ec0115ff">
<path fill="#ec0115" opacity="1.00" d=" M 472.58 152.83 C 473.99 152.77 475.42 152.73 476.85 152.71 C 476.83 153.39 476.81 154.73 476.79 155.41 C 476.08 155.55 474.65 155.82 473.94 155.96 L 473.12 155.93 C 472.99 155.16 472.71 153.61 472.58 152.83 Z" />
</g>
<g id="#ac6516ff">
<path fill="#ac6516" opacity="1.00" d=" M 502.95 163.14 C 505.53 161.75 507.75 159.17 510.97 159.47 C 514.38 159.18 516.93 161.63 519.53 163.41 C 525.55 165.90 532.59 160.88 538.29 164.56 C 532.10 163.55 525.98 165.58 519.78 165.04 C 519.77 165.86 519.76 167.50 519.75 168.32 C 519.15 166.81 518.76 165.22 518.17 163.71 C 516.89 161.93 514.64 161.29 512.81 160.25 C 512.26 160.94 511.73 161.64 511.22 162.35 C 509.28 162.13 507.25 161.52 505.37 162.31 C 504.28 163.92 506.51 164.84 507.48 165.78 C 509.94 167.15 512.86 167.36 515.53 168.21 C 512.15 173.02 505.23 170.27 500.70 168.78 L 500.27 167.80 C 504.17 168.88 508.15 170.46 512.27 169.56 L 512.85 168.35 C 511.20 168.08 509.59 167.74 507.99 167.32 C 506.47 166.55 505.55 164.92 503.98 164.26 C 499.04 164.16 494.37 166.57 489.39 165.86 L 490.37 165.28 C 494.54 164.49 498.82 164.19 502.95 163.14 Z" />
</g>
<g id="#9f331aff">
<path fill="#9f331a" opacity="1.00" d=" M 538.29 164.56 C 539.14 166.23 540.20 168.96 537.98 170.08 C 536.00 170.53 533.99 169.89 532.04 169.70 L 532.87 169.20 C 534.58 169.00 536.31 168.99 538.05 168.97 C 538.10 167.49 538.19 166.03 538.29 164.56 Z" />
</g>
<g id="#9e5216ff">
<path fill="#9e5216" opacity="1.00" d=" M 458.57 168.82 C 459.21 168.91 460.50 169.11 461.14 169.20 C 464.41 172.97 470.31 174.15 474.88 172.08 C 477.07 174.66 479.60 171.53 481.44 170.17 C 481.53 170.74 481.72 171.86 481.81 172.42 C 482.89 171.45 483.98 170.48 485.08 169.51 C 484.36 174.05 478.81 173.12 475.60 174.53 C 471.44 173.87 467.19 174.08 462.97 174.16 C 463.18 173.65 463.60 172.62 463.81 172.11 C 462.34 171.88 460.89 171.66 459.44 171.44 C 459.22 170.78 458.79 169.47 458.57 168.82 Z" />
</g>
<g id="#a24f17ff">
<path fill="#a24f17" opacity="1.00" d=" M 519.95 168.74 C 522.61 169.06 522.18 171.83 521.48 173.67 C 515.07 174.08 508.71 175.13 502.28 174.81 L 503.12 173.94 C 504.48 173.33 505.89 172.85 507.31 172.39 C 507.65 172.70 508.32 173.32 508.66 173.63 C 512.34 172.24 516.23 173.26 520.02 172.87 C 522.00 172.03 520.59 170.01 519.95 168.74 Z" />
</g>
<g id="#6b570aff">
<path fill="#6b570a" opacity="1.00" d=" M 532.33 173.33 L 532.44 173.45 L 532.51 173.63 C 532.46 173.56 532.37 173.40 532.33 173.33 Z" />
</g>
<g id="#a73e1aff">
<path fill="#a73e1a" opacity="1.00" d=" M 498.90 181.96 C 503.39 179.13 509.16 179.66 513.73 182.04 C 508.35 181.16 502.08 179.70 497.76 184.12 C 498.16 185.62 497.70 187.74 499.36 188.60 C 503.26 190.92 508.02 189.71 512.32 190.02 C 511.80 189.53 511.29 189.06 510.77 188.59 C 507.32 188.88 503.51 189.10 500.54 186.97 C 504.64 187.77 508.93 188.40 513.05 187.28 C 516.79 186.54 521.33 184.85 524.49 187.95 C 520.75 186.40 516.86 187.72 513.01 187.77 C 512.98 188.18 512.92 188.99 512.88 189.40 C 516.17 189.07 519.53 188.48 522.82 189.11 C 524.03 189.60 524.71 191.73 523.26 192.32 C 518.68 194.95 513.35 192.52 508.44 193.05 C 513.18 190.50 519.06 194.84 523.47 190.81 C 515.84 187.82 507.50 193.46 499.85 189.94 C 496.26 189.16 496.04 183.77 498.90 181.96 Z" />
</g>
<g id="#ecd115ff">
<path fill="#ecd115" opacity="1.00" d=" M 497.76 184.12 C 502.08 179.70 508.35 181.16 513.73 182.04 L 514.91 182.22 C 509.90 184.50 503.22 180.58 499.19 185.23 C 499.25 185.47 499.37 185.93 499.43 186.16 C 499.70 186.36 500.26 186.77 500.54 186.97 C 503.51 189.10 507.32 188.88 510.77 188.59 C 511.29 189.06 511.80 189.53 512.32 190.02 C 508.02 189.71 503.26 190.92 499.36 188.60 C 497.70 187.74 498.16 185.62 497.76 184.12 Z" />
</g>
<g id="#993518ff">
<path fill="#993518" opacity="1.00" d=" M 514.91 182.22 C 517.07 181.79 519.25 181.43 521.46 181.24 C 515.51 187.61 505.40 180.15 499.43 186.16 C 499.37 185.93 499.25 185.47 499.19 185.23 C 503.22 180.58 509.90 184.50 514.91 182.22 Z" />
</g>
<g id="#374887ff">
<path fill="#374887" opacity="1.00" d=" M 466.21 184.10 C 462.94 184.84 464.35 180.97 466.75 182.10 L 467.17 182.61 L 467.08 183.41 L 466.21 184.10 Z" />
</g>
<g id="#a13d1eff">
<path fill="#a13d1e" opacity="1.00" d=" M 466.75 182.10 C 469.89 182.23 469.91 185.66 470.97 187.86 C 472.25 191.31 475.29 193.66 478.05 195.90 C 477.79 194.55 477.51 193.21 477.21 191.88 C 478.15 192.10 479.11 192.31 480.07 192.51 C 479.71 193.46 479.36 194.41 479.02 195.37 C 479.42 195.32 480.21 195.24 480.60 195.19 C 480.57 195.51 480.50 196.15 480.47 196.47 C 480.21 197.78 479.94 199.09 479.65 200.39 C 479.40 199.43 479.15 198.47 478.91 197.52 C 475.51 196.00 472.99 193.13 470.87 190.17 C 469.56 187.67 469.30 184.63 467.17 182.61 L 466.75 182.10 Z" />
</g>
<g id="#aa411aff">
<path fill="#aa411a" opacity="1.00" d=" M 474.92 184.17 C 478.31 184.05 482.52 182.11 485.25 185.04 C 481.83 183.39 478.49 185.38 475.02 185.29 L 474.92 184.17 Z" />
</g>
<g id="#985017ff">
<path fill="#985017" opacity="1.00" d=" M 466.21 184.10 L 467.08 183.41 C 467.86 184.97 467.89 186.56 466.96 188.06 C 467.23 188.55 467.76 189.55 468.03 190.04 C 467.46 190.06 466.33 190.09 465.76 190.10 C 467.56 192.08 470.15 193.79 470.47 196.67 C 471.50 197.67 472.54 198.65 473.59 199.65 C 476.57 200.80 479.57 202.01 482.80 202.31 C 482.39 203.00 481.58 204.38 481.17 205.07 C 477.13 205.12 472.26 205.65 469.76 201.71 C 472.86 203.91 476.66 204.52 480.39 204.00 C 477.91 202.48 475.16 201.51 472.57 200.21 C 469.03 198.04 467.65 193.88 465.41 190.59 C 465.13 190.01 464.58 188.86 464.30 188.28 C 464.56 188.13 465.09 187.83 465.35 187.68 L 465.62 186.95 C 465.70 186.49 465.87 185.57 465.95 185.12 L 466.21 184.10 Z" />
</g>
<g id="#943917ff">
<path fill="#943917" opacity="1.00" d=" M 485.43 185.10 C 486.09 184.79 487.40 184.17 488.06 183.86 C 488.01 186.31 487.36 188.68 485.74 190.57 C 486.15 188.75 486.61 186.94 487.14 185.14 L 485.43 185.10 Z" />
</g>
<g id="#8e5b11ff">
<path fill="#8e5b11" opacity="1.00" d=" M 475.06 185.92 C 477.89 185.45 477.42 189.26 476.69 190.91 C 475.78 189.39 474.93 187.74 475.06 185.92 Z" />
</g>
<g id="#a28b0eff">
<path fill="#a28b0e" opacity="1.00" d=" M 478.13 186.98 C 480.10 187.52 482.13 187.48 484.12 187.03 C 483.67 188.38 483.23 189.73 482.81 191.09 C 483.42 191.15 484.63 191.26 485.24 191.32 L 485.97 191.83 C 485.60 192.42 484.85 193.59 484.48 194.18 C 484.08 193.95 483.29 193.50 482.89 193.28 C 482.19 193.09 480.78 192.70 480.07 192.51 C 479.11 192.31 478.15 192.10 477.21 191.88 L 476.69 190.91 C 477.61 191.01 479.45 191.21 480.37 191.31 C 479.65 189.84 478.92 188.40 478.13 186.98 M 481.30 189.32 C 479.60 192.33 484.59 189.43 481.30 189.32 Z" />
</g>
<g id="#e4ca15ff">
<path fill="#e4ca15" opacity="1.00" d=" M 481.30 189.32 C 484.59 189.43 479.60 192.33 481.30 189.32 Z" />
</g>
<g id="#9e3822ff">
<path fill="#9e3822" opacity="1.00" d=" M 525.23 188.55 C 528.97 191.08 525.20 195.01 523.21 197.28 C 526.25 197.55 529.62 196.52 532.50 197.41 C 534.10 200.84 534.74 204.67 534.34 208.43 C 536.93 206.03 538.47 202.76 541.06 200.35 C 539.53 203.83 537.23 206.88 535.08 209.98 C 531.76 209.65 528.70 212.13 525.21 211.07 C 525.69 210.58 526.66 209.61 527.15 209.12 C 528.30 209.31 529.55 210.06 530.65 209.10 C 530.98 209.32 531.63 209.76 531.96 209.98 C 532.61 207.57 532.69 205.09 532.53 202.61 C 532.31 201.04 532.09 199.47 531.88 197.90 C 527.10 198.07 521.65 199.32 517.48 196.27 C 520.06 196.01 523.20 196.29 524.87 193.83 C 526.57 192.42 525.79 190.31 525.23 188.55 Z" />
</g>
<g id="#dc2a1aff">
<path fill="#dc2a1a" opacity="1.00" d=" M 479.02 195.37 C 479.36 194.41 479.71 193.46 480.07 192.51 C 480.78 192.70 482.19 193.09 482.89 193.28 C 482.98 193.79 483.17 194.80 483.26 195.31 C 482.59 195.28 481.27 195.22 480.60 195.19 C 480.21 195.24 479.42 195.32 479.02 195.37 Z" />
</g>
<g id="#a2451bff">
<path fill="#a2451b" opacity="1.00" d=" M 486.46 209.22 C 489.47 206.72 488.39 202.92 489.32 199.60 C 489.40 201.11 489.45 202.62 489.47 204.14 C 493.53 202.96 497.67 202.04 501.91 201.78 C 498.28 203.72 494.08 203.80 490.26 205.16 C 489.07 206.88 488.37 209.43 486.04 209.91 C 481.73 211.32 477.13 210.54 472.69 210.56 C 470.81 208.17 468.14 206.53 465.03 206.58 L 465.94 206.42 C 466.45 206.33 467.47 206.16 467.98 206.07 C 468.59 206.06 469.82 206.04 470.44 206.03 C 471.15 207.46 472.54 208.01 474.01 208.37 C 474.43 208.76 475.26 209.54 475.68 209.93 C 477.83 209.95 479.90 209.43 481.74 208.30 C 481.90 208.78 482.21 209.75 482.37 210.23 C 483.48 209.21 484.57 208.15 485.63 207.07 C 485.84 207.61 486.25 208.68 486.46 209.22 Z" />
</g>
<g id="#a44e18ff">
<path fill="#a44e18" opacity="1.00" d=" M 513.29 201.68 C 517.51 202.47 521.72 201.62 525.93 201.30 C 528.92 201.65 529.32 204.67 529.11 207.13 C 527.07 207.11 525.03 207.10 523.00 207.01 L 522.75 206.01 C 524.61 206.02 526.48 206.14 528.36 206.25 C 527.97 204.69 527.90 202.51 525.90 202.20 C 522.16 202.44 518.46 203.24 514.70 203.14 C 515.50 205.44 515.97 207.84 516.18 210.26 C 513.98 210.30 511.79 210.04 509.63 209.69 C 511.43 209.58 513.25 209.52 515.05 209.28 C 515.36 206.65 513.73 204.23 513.29 201.68 Z" />
</g>
<g id="#344287ff">
<path fill="#344287" opacity="1.00" d=" M 465.94 206.42 C 464.59 205.21 463.33 203.78 465.28 202.29 L 466.50 202.95 C 467.07 203.18 468.19 203.66 468.75 203.90 C 468.56 204.44 468.17 205.53 467.98 206.07 C 467.47 206.16 466.45 206.33 465.94 206.42 Z" />
</g>
<g id="#423c6eff">
<path fill="#423c6e" opacity="1.00" d=" M 499.71 210.68 C 496.35 210.59 497.26 204.38 500.59 205.41 C 500.60 206.54 500.51 207.69 500.29 208.81 C 501.40 209.07 502.17 209.74 502.60 210.80 C 501.40 211.71 500.08 212.51 498.56 212.63 L 499.71 210.68 Z" />
</g>
</svg>
