<?xml version="1.0" encoding="UTF-8" ?>
<!DOCTYPE svg PUBLIC "-//W3C//DTD SVG 1.1//EN" "http://www.w3.org/Graphics/SVG/1.1/DTD/svg11.dtd">
<svg width="1181px" height="827px" viewBox="0 0 1181 827" version="1.1" xmlns="http://www.w3.org/2000/svg">
<g id="#ffffffff">
<path fill="#ffffff" opacity="1.00" d=" M 0.00 0.00 L 1181.00 0.00 L 1181.00 827.00 L 0.00 827.00 L 0.00 0.00 M 570.39 165.48 C 553.00 166.05 535.67 168.44 518.78 172.63 C 473.13 183.87 430.97 208.59 398.68 242.75 C 360.64 282.66 336.55 335.58 331.73 390.52 C 327.25 438.47 337.03 487.69 359.86 530.12 C 388.23 583.52 436.80 625.80 493.68 646.37 C 536.58 662.09 583.85 665.44 628.59 656.30 C 689.53 644.08 745.05 607.67 780.90 556.94 C 802.83 526.19 817.56 490.34 823.53 453.04 C 830.32 410.85 826.16 366.90 811.19 326.84 C 789.76 268.74 745.60 219.52 690.25 191.79 C 653.36 173.11 611.71 164.06 570.39 165.48 Z" />
</g>
<g id="#ed1c24ff">
<path fill="#ed1c24" opacity="1.00" d=" M 570.39 165.48 C 611.71 164.06 653.36 173.11 690.25 191.79 C 745.60 219.52 789.76 268.74 811.19 326.84 C 826.16 366.90 830.32 410.85 823.53 453.04 C 817.56 490.34 802.83 526.19 780.90 556.94 C 745.05 607.67 689.53 644.08 628.59 656.30 C 583.85 665.44 536.58 662.09 493.68 646.37 C 436.80 625.80 388.23 583.52 359.86 530.12 C 337.03 487.69 327.25 438.47 331.73 390.52 C 336.55 335.58 360.64 282.66 398.68 242.75 C 430.97 208.59 473.13 183.87 518.78 172.63 C 535.67 168.44 553.00 166.05 570.39 165.48 Z" />
</g>
</svg>
