<?xml version="1.0" encoding="UTF-8" ?>
<!DOCTYPE svg PUBLIC "-//W3C//DTD SVG 1.1//EN" "http://www.w3.org/Graphics/SVG/1.1/DTD/svg11.dtd">
<svg width="1200px" height="800px" viewBox="0 0 1200 800" version="1.1" xmlns="http://www.w3.org/2000/svg">
<g id="#ffffffff">
<path fill="#ffffff" opacity="1.00" d=" M 0.00 0.00 L 1200.00 0.00 L 1200.00 800.00 L 0.00 800.00 L 0.00 0.00 M 183.74 242.92 C 193.06 249.16 202.42 255.33 211.72 261.61 C 248.84 206.07 285.84 150.45 322.91 94.88 C 313.61 88.59 304.22 82.42 294.90 76.16 C 257.84 131.74 220.77 187.31 183.74 242.92 M 877.09 94.88 C 894.10 120.39 911.08 145.90 928.11 171.39 C 937.49 165.21 946.82 158.95 956.17 152.71 C 939.11 127.22 922.14 101.67 905.10 76.16 C 895.78 82.42 886.39 88.59 877.09 94.88 M 336.46 103.92 C 299.44 159.48 262.42 215.04 225.35 270.56 C 234.60 276.95 244.05 283.07 253.38 289.34 C 290.40 233.76 327.42 178.16 364.54 122.64 C 355.21 116.35 345.85 110.11 336.46 103.92 M 835.46 122.63 C 872.58 178.15 909.56 233.76 946.63 289.31 C 955.98 283.06 965.43 276.96 974.65 270.53 C 937.55 215.04 900.56 159.47 863.55 103.92 C 854.15 110.10 844.81 116.36 835.46 122.63 M 378.09 131.64 C 341.03 187.23 303.90 242.78 266.94 298.44 C 276.32 304.57 285.60 310.86 294.95 317.06 C 332.02 261.48 369.09 205.91 406.10 150.30 C 396.76 144.09 387.43 137.85 378.09 131.64 M 793.90 150.31 C 810.87 175.85 827.91 201.36 844.93 226.88 C 854.26 220.64 863.63 214.45 872.94 208.18 C 855.95 182.65 838.93 157.15 821.92 131.63 C 812.57 137.85 803.24 144.09 793.90 150.31 M 937.19 185.03 C 954.25 210.55 971.15 236.17 988.33 261.60 C 997.58 255.28 1006.96 249.16 1016.26 242.92 C 999.26 217.38 982.26 191.85 965.21 166.35 C 955.87 172.58 946.53 178.81 937.19 185.03 M 572.53 201.76 C 532.49 207.20 494.23 225.13 464.53 252.56 C 452.87 263.08 442.94 275.34 433.78 288.04 C 425.26 301.64 417.49 315.80 412.08 330.96 C 396.39 373.28 395.80 420.96 410.26 463.70 C 422.16 499.73 444.74 532.13 474.35 555.84 C 504.69 580.32 542.27 595.78 581.13 599.28 C 619.78 602.96 659.44 595.10 693.74 576.90 C 725.42 560.23 752.41 534.78 770.92 504.14 C 771.75 502.63 772.61 501.14 773.46 499.64 C 773.48 499.60 773.52 499.53 773.54 499.49 L 773.85 498.73 C 782.22 485.19 788.03 470.15 792.53 454.92 C 808.03 401.33 799.61 341.42 769.96 294.16 C 749.55 261.13 719.13 234.50 683.90 218.24 C 649.39 202.17 610.21 196.46 572.53 201.76 M 854.00 240.47 C 870.99 266.01 888.02 291.54 905.05 317.06 C 914.40 310.87 923.67 304.57 933.06 298.45 C 916.16 272.84 899.04 247.37 882.05 221.83 C 872.67 228.00 863.38 234.30 854.00 240.47 M 266.94 501.55 C 303.89 557.22 341.04 612.76 378.09 668.37 C 387.43 662.14 396.76 655.91 406.11 649.69 C 369.09 594.10 332.02 538.54 294.98 482.96 C 285.59 489.09 276.35 495.45 266.94 501.55 M 854.01 559.56 C 863.40 565.69 872.67 572.00 882.04 578.18 C 899.04 552.63 916.17 527.16 933.05 501.54 C 923.66 495.43 914.39 489.13 905.05 482.94 C 888.03 508.47 870.96 533.98 854.01 559.56 M 225.35 529.46 C 242.45 554.88 259.28 580.49 276.42 605.89 C 285.75 599.66 295.09 593.45 304.41 587.22 C 287.38 561.71 270.35 536.20 253.38 510.66 C 244.05 516.94 234.58 523.04 225.35 529.46 M 895.58 587.20 C 904.87 593.46 914.24 599.61 923.53 605.89 C 940.75 580.53 957.52 554.87 974.65 529.46 C 965.42 523.04 955.96 516.95 946.64 510.67 C 929.61 536.18 912.65 561.73 895.58 587.20 M 183.73 557.08 C 220.77 612.68 257.83 668.26 294.90 723.84 C 304.22 717.57 313.61 711.41 322.91 705.11 C 285.81 649.55 248.87 593.88 211.67 538.39 C 202.42 544.71 193.04 550.85 183.73 557.08 M 988.22 538.40 C 971.25 563.96 954.14 589.42 937.21 615.01 C 946.57 621.18 955.88 627.43 965.21 633.65 C 982.26 608.15 999.26 582.61 1016.27 557.08 C 1006.91 550.86 997.58 544.60 988.22 538.40 M 793.90 649.69 C 803.25 655.89 812.55 662.19 821.94 668.34 C 838.95 642.84 855.94 617.34 872.94 591.83 C 863.64 585.54 854.26 579.36 844.93 573.12 C 827.91 598.64 810.87 624.14 793.90 649.69 M 285.48 619.48 C 302.35 645.09 319.52 670.50 336.44 696.08 C 345.85 689.96 355.10 683.59 364.51 677.47 C 347.62 651.88 330.44 626.47 313.55 600.87 C 304.13 606.97 294.88 613.33 285.48 619.48 M 886.46 600.86 C 869.53 626.41 852.52 651.90 835.47 677.36 C 844.79 683.65 854.15 689.90 863.55 696.08 C 880.47 670.50 897.67 645.09 914.51 619.46 C 905.11 613.33 895.86 606.97 886.46 600.86 M 928.11 628.61 C 911.08 654.09 894.10 679.61 877.09 705.11 C 886.38 711.42 895.78 717.57 905.10 723.84 C 922.12 698.30 939.18 672.79 956.15 647.22 C 946.76 641.08 937.49 634.76 928.11 628.61 Z" />
</g>
<g id="#000000ff">
<path fill="#000000" opacity="1.00" d=" M 183.74 242.92 C 220.77 187.31 257.84 131.74 294.90 76.16 C 304.22 82.42 313.61 88.59 322.91 94.88 C 285.84 150.45 248.84 206.07 211.72 261.61 C 202.42 255.33 193.06 249.16 183.74 242.92 Z" />
<path fill="#000000" opacity="1.00" d=" M 877.09 94.88 C 886.39 88.59 895.78 82.42 905.10 76.16 C 922.14 101.67 939.11 127.22 956.17 152.71 C 946.82 158.95 937.49 165.21 928.11 171.39 C 911.08 145.90 894.10 120.39 877.09 94.88 Z" />
<path fill="#000000" opacity="1.00" d=" M 336.46 103.92 C 345.85 110.11 355.21 116.35 364.54 122.64 C 327.42 178.16 290.40 233.76 253.38 289.34 C 244.05 283.07 234.60 276.95 225.35 270.56 C 262.42 215.04 299.44 159.48 336.46 103.92 Z" />
<path fill="#000000" opacity="1.00" d=" M 835.46 122.63 C 844.81 116.36 854.15 110.10 863.55 103.92 C 900.56 159.47 937.55 215.04 974.65 270.53 C 965.43 276.96 955.98 283.06 946.63 289.31 C 909.56 233.76 872.58 178.15 835.46 122.63 Z" />
<path fill="#000000" opacity="1.00" d=" M 378.09 131.64 C 387.43 137.85 396.76 144.09 406.10 150.30 C 369.09 205.91 332.02 261.48 294.95 317.06 C 285.60 310.86 276.32 304.57 266.94 298.44 C 303.90 242.78 341.03 187.23 378.09 131.64 Z" />
<path fill="#000000" opacity="1.00" d=" M 793.90 150.31 C 803.24 144.09 812.57 137.85 821.92 131.63 C 838.93 157.15 855.95 182.65 872.94 208.18 C 863.63 214.45 854.26 220.64 844.93 226.88 C 827.91 201.36 810.87 175.85 793.90 150.31 Z" />
<path fill="#000000" opacity="1.00" d=" M 937.19 185.03 C 946.53 178.81 955.87 172.58 965.21 166.35 C 982.26 191.85 999.26 217.38 1016.26 242.92 C 1006.96 249.16 997.58 255.28 988.33 261.60 C 971.15 236.17 954.25 210.55 937.19 185.03 Z" />
<path fill="#000000" opacity="1.00" d=" M 854.00 240.47 C 863.38 234.30 872.67 228.00 882.05 221.83 C 899.04 247.37 916.16 272.84 933.06 298.45 C 923.67 304.57 914.40 310.87 905.05 317.06 C 888.02 291.54 870.99 266.01 854.00 240.47 Z" />
<path fill="#000000" opacity="1.00" d=" M 266.94 501.55 C 276.35 495.45 285.59 489.09 294.98 482.96 C 332.02 538.54 369.09 594.10 406.11 649.69 C 396.76 655.91 387.43 662.14 378.09 668.37 C 341.04 612.76 303.89 557.22 266.94 501.55 Z" />
<path fill="#000000" opacity="1.00" d=" M 854.01 559.56 C 870.96 533.98 888.03 508.47 905.05 482.94 C 914.39 489.13 923.66 495.43 933.05 501.54 C 916.17 527.16 899.04 552.63 882.04 578.18 C 872.67 572.00 863.40 565.69 854.01 559.56 Z" />
<path fill="#000000" opacity="1.00" d=" M 225.35 529.46 C 234.58 523.04 244.05 516.94 253.38 510.66 C 270.35 536.20 287.38 561.71 304.41 587.22 C 295.09 593.45 285.75 599.66 276.42 605.89 C 259.28 580.49 242.45 554.88 225.35 529.46 Z" />
<path fill="#000000" opacity="1.00" d=" M 895.58 587.20 C 912.65 561.73 929.61 536.18 946.64 510.67 C 955.96 516.95 965.42 523.04 974.65 529.46 C 957.52 554.87 940.75 580.53 923.53 605.89 C 914.24 599.61 904.87 593.46 895.58 587.20 Z" />
<path fill="#000000" opacity="1.00" d=" M 183.73 557.08 C 193.04 550.85 202.42 544.71 211.67 538.39 C 248.87 593.88 285.81 649.55 322.91 705.11 C 313.61 711.41 304.22 717.57 294.90 723.84 C 257.83 668.26 220.77 612.68 183.73 557.08 Z" />
<path fill="#000000" opacity="1.00" d=" M 988.22 538.40 C 997.58 544.60 1006.91 550.86 1016.27 557.08 C 999.26 582.61 982.26 608.15 965.21 633.65 C 955.88 627.43 946.57 621.18 937.21 615.01 C 954.14 589.42 971.25 563.96 988.22 538.40 Z" />
<path fill="#000000" opacity="1.00" d=" M 793.90 649.69 C 810.87 624.14 827.91 598.64 844.93 573.12 C 854.26 579.36 863.64 585.54 872.94 591.83 C 855.94 617.34 838.95 642.84 821.94 668.34 C 812.55 662.19 803.25 655.89 793.90 649.69 Z" />
<path fill="#000000" opacity="1.00" d=" M 285.48 619.48 C 294.88 613.33 304.13 606.97 313.55 600.87 C 330.44 626.47 347.62 651.88 364.51 677.47 C 355.10 683.59 345.85 689.96 336.44 696.08 C 319.52 670.50 302.35 645.09 285.48 619.48 Z" />
<path fill="#000000" opacity="1.00" d=" M 886.46 600.86 C 895.86 606.97 905.11 613.33 914.51 619.46 C 897.67 645.09 880.47 670.50 863.55 696.08 C 854.15 689.90 844.79 683.65 835.47 677.36 C 852.52 651.90 869.53 626.41 886.46 600.86 Z" />
<path fill="#000000" opacity="1.00" d=" M 928.11 628.61 C 937.49 634.76 946.76 641.08 956.15 647.22 C 939.18 672.79 922.12 698.30 905.10 723.84 C 895.78 717.57 886.38 711.42 877.09 705.11 C 894.10 679.61 911.08 654.09 928.11 628.61 Z" />
</g>
<g id="#c60c30ff">
<path fill="#c60c30" opacity="1.00" d=" M 572.53 201.76 C 610.21 196.46 649.39 202.17 683.90 218.24 C 719.13 234.50 749.55 261.13 769.96 294.16 C 799.61 341.42 808.03 401.33 792.53 454.92 C 788.03 470.15 782.22 485.19 773.85 498.73 C 779.78 484.97 783.64 470.14 783.29 455.06 C 783.55 422.27 766.22 390.09 738.80 372.13 C 720.20 359.65 697.31 353.73 675.00 355.66 C 649.53 357.67 624.98 369.84 608.15 389.10 C 601.73 396.15 597.27 404.72 590.70 411.65 C 567.31 437.89 529.34 450.02 495.08 442.01 C 464.01 435.27 436.92 412.69 424.78 383.30 C 412.87 355.44 414.58 322.11 429.70 295.81 C 431.20 293.29 432.63 290.74 433.78 288.04 C 442.94 275.34 452.87 263.08 464.53 252.56 C 494.23 225.13 532.49 207.20 572.53 201.76 Z" />
<path fill="#c60c30" opacity="1.00" d=" M 773.50 499.57 L 773.54 499.49 C 773.52 499.53 773.48 499.60 773.46 499.64 L 773.50 499.57 Z" />
</g>
<g id="#003478ff">
<path fill="#003478" opacity="1.00" d=" M 412.08 330.96 C 417.49 315.80 425.26 301.64 433.78 288.04 C 432.63 290.74 431.20 293.29 429.70 295.81 C 414.58 322.11 412.87 355.44 424.78 383.30 C 436.92 412.69 464.01 435.27 495.08 442.01 C 529.34 450.02 567.31 437.89 590.70 411.65 C 597.27 404.72 601.73 396.15 608.15 389.10 C 624.98 369.84 649.53 357.67 675.00 355.66 C 697.31 353.73 720.20 359.65 738.80 372.13 C 766.22 390.09 783.55 422.27 783.29 455.06 C 783.64 470.14 779.78 484.97 773.85 498.73 L 773.54 499.49 L 773.50 499.57 L 773.46 499.64 C 772.61 501.14 771.75 502.63 770.92 504.14 C 752.41 534.78 725.42 560.23 693.74 576.90 C 659.44 595.10 619.78 602.96 581.13 599.28 C 542.27 595.78 504.69 580.32 474.35 555.84 C 444.74 532.13 422.16 499.73 410.26 463.70 C 395.80 420.96 396.39 373.28 412.08 330.96 Z" />
</g>
</svg>
