<?xml version="1.0" encoding="UTF-8" ?>
<!DOCTYPE svg PUBLIC "-//W3C//DTD SVG 1.1//EN" "http://www.w3.org/Graphics/SVG/1.1/DTD/svg11.dtd">
<svg width="1197px" height="599px" viewBox="0 0 1197 599" version="1.1" xmlns="http://www.w3.org/2000/svg">
<g id="#ffbe29ff">
<path fill="#ffbe29" opacity="1.00" d=" M 0.00 0.00 L 1197.00 0.00 L 1197.00 599.00 L 0.00 599.00 L 0.00 0.00 M 55.00 54.00 C 55.00 216.67 55.00 379.33 55.00 542.00 C 107.00 542.00 159.00 542.00 211.00 542.00 C 263.00 542.00 314.99 542.01 366.98 541.99 C 367.01 379.34 367.00 216.68 366.99 54.02 C 314.99 53.97 263.00 54.01 211.00 54.00 C 159.00 54.00 107.00 54.00 55.00 54.00 M 423.00 54.00 C 423.00 216.67 423.00 379.33 423.00 542.00 C 663.00 542.00 903.00 542.00 1143.00 542.00 C 1143.00 379.33 1143.00 216.67 1143.00 54.00 C 903.00 54.00 663.00 54.00 423.00 54.00 Z" />
<path fill="#ffbe29" opacity="1.00" d=" M 458.59 75.54 C 461.67 74.45 464.56 72.61 467.90 72.41 C 472.90 72.05 478.14 72.95 482.44 75.65 C 486.14 78.37 489.06 82.27 490.25 86.74 C 492.56 94.10 492.55 101.88 493.21 109.49 C 494.60 121.19 499.31 132.28 500.00 144.10 C 496.47 137.61 492.34 131.00 485.85 127.12 C 473.60 120.27 458.55 120.23 446.89 112.16 C 440.68 107.66 440.50 98.78 443.01 92.18 C 444.06 88.42 447.34 85.18 446.59 81.06 C 446.48 79.71 446.36 78.36 446.22 77.01 C 450.36 76.79 454.65 77.05 458.59 75.54 Z" />
<path fill="#ffbe29" opacity="1.00" d=" M 1087.55 73.71 C 1091.50 72.42 1095.78 71.92 1099.90 72.66 C 1103.05 73.43 1105.84 75.20 1108.98 76.04 C 1112.48 77.02 1116.16 76.80 1119.77 77.00 C 1119.69 79.92 1118.55 83.12 1120.13 85.82 C 1123.01 91.37 1125.47 97.68 1124.15 104.02 C 1123.45 107.94 1120.88 111.38 1117.42 113.29 C 1105.93 120.22 1091.84 120.62 1080.15 127.11 C 1073.48 130.96 1069.67 137.90 1066.02 144.39 C 1066.59 132.30 1071.51 120.96 1072.84 108.98 C 1073.43 101.74 1073.48 94.37 1075.57 87.36 C 1077.11 81.30 1081.52 75.74 1087.55 73.71 Z" />
<path fill="#ffbe29" opacity="1.00" d=" M 578.04 136.04 C 584.38 119.52 596.19 104.70 612.06 96.52 C 605.91 108.83 604.21 122.68 602.33 136.14 C 597.30 178.93 596.57 222.05 595.61 265.07 C 595.34 270.87 595.47 276.74 594.22 282.44 C 593.42 285.39 591.45 287.84 590.15 290.58 C 591.25 292.84 592.67 294.92 594.09 297.00 C 589.76 299.30 584.77 299.46 579.98 299.67 C 575.92 299.75 571.77 299.60 567.95 298.06 C 568.77 294.41 571.21 290.50 569.22 286.81 C 565.71 280.09 566.66 272.29 566.31 264.99 C 566.34 243.34 565.86 221.67 567.04 200.05 C 568.11 178.42 570.11 156.38 578.04 136.04 Z" />
<path fill="#ffbe29" opacity="1.00" d=" M 864.91 122.34 C 876.89 120.24 889.14 121.09 901.17 122.35 C 915.49 123.80 928.78 129.98 941.29 136.75 C 952.64 143.01 963.46 150.23 973.63 158.27 C 980.86 163.82 987.75 169.96 995.85 174.26 C 998.22 175.74 1001.02 176.03 1003.74 175.55 C 1003.63 172.81 1002.53 169.74 1004.18 167.24 C 1006.35 163.11 1011.79 160.75 1016.14 162.88 C 1021.82 165.64 1024.29 173.24 1022.03 179.01 C 1020.28 183.98 1015.48 187.34 1010.44 188.33 C 1002.54 189.78 994.23 187.78 987.55 183.42 C 975.90 175.79 966.78 164.57 954.25 158.25 C 954.85 165.62 957.58 172.95 962.58 178.48 C 951.48 176.18 940.88 169.59 935.95 159.08 C 934.13 163.57 932.81 168.67 929.06 172.00 C 925.08 175.04 920.19 176.99 915.16 177.15 C 918.61 171.64 922.30 165.80 922.51 159.09 C 920.81 149.24 911.97 142.00 902.42 140.20 C 903.66 144.19 906.17 147.80 906.47 152.07 C 906.90 157.62 906.00 163.85 901.77 167.85 C 897.11 172.85 890.37 174.98 883.82 176.09 C 887.97 169.92 891.78 162.67 890.16 154.98 C 889.42 148.80 884.45 144.43 879.44 141.38 C 875.46 139.03 870.97 136.51 866.18 137.32 C 865.95 137.53 865.48 137.93 865.24 138.14 C 865.79 144.03 866.16 151.08 860.93 155.12 C 859.00 152.40 857.68 148.43 853.94 147.82 C 845.11 146.13 834.36 152.39 833.96 161.96 C 833.49 169.17 839.09 174.62 844.36 178.64 C 847.03 175.58 849.04 171.74 852.76 169.80 C 859.22 165.93 868.28 165.80 873.98 171.13 C 869.03 173.90 862.36 175.56 860.27 181.49 C 858.88 187.35 862.16 193.16 866.16 197.22 C 869.32 192.61 873.25 187.84 878.77 186.10 C 881.91 188.97 880.51 194.27 883.92 197.02 C 889.77 201.96 897.66 202.83 905.04 202.56 C 914.76 202.58 924.48 201.95 934.10 200.59 C 946.94 198.52 959.98 197.55 972.99 198.00 C 981.55 198.00 989.64 201.80 996.50 206.66 C 1003.05 211.54 1007.97 218.87 1009.12 227.05 C 1010.48 235.13 1007.89 243.56 1002.94 250.00 C 999.15 255.06 993.94 258.73 989.11 262.72 C 996.59 272.05 1003.70 282.27 1006.42 294.11 C 1007.62 303.03 1007.22 312.09 1006.78 321.06 C 1005.32 337.51 997.66 352.45 992.92 368.06 C 989.42 379.62 986.57 392.02 989.34 404.04 C 990.91 410.38 993.49 417.08 998.95 421.05 C 1001.56 423.09 1005.04 422.79 1008.00 423.96 C 1010.13 425.65 1008.88 428.76 1007.77 430.71 C 1003.73 437.96 995.03 440.68 990.58 447.54 C 987.15 453.80 988.78 461.61 992.39 467.44 C 994.60 471.73 998.30 475.33 999.37 480.15 C 999.94 481.62 998.00 482.47 996.86 482.66 C 990.48 483.49 984.44 480.62 979.47 476.89 C 977.67 479.50 975.57 482.41 972.12 482.71 C 966.77 483.88 962.67 479.80 958.54 477.23 C 954.78 479.90 950.89 483.71 945.87 482.88 C 942.51 482.50 940.73 479.37 938.86 476.98 C 934.84 479.14 931.10 482.96 926.30 482.86 C 925.45 479.89 927.14 476.95 928.63 474.49 C 933.24 467.82 941.24 464.62 948.85 462.82 C 953.35 461.61 958.42 461.21 962.12 458.09 C 965.13 454.87 964.80 450.06 964.79 445.97 C 964.25 438.95 964.35 431.78 962.51 424.94 C 960.73 418.61 955.33 414.36 950.18 410.76 C 937.35 401.95 923.09 395.05 911.72 384.24 C 903.08 375.53 893.82 366.06 881.22 363.76 C 864.24 360.77 846.41 361.22 829.93 366.54 C 809.71 372.93 790.87 382.85 771.10 390.38 C 769.00 391.13 766.84 391.68 764.69 392.21 C 772.78 377.82 779.57 362.42 782.06 346.00 C 782.50 342.18 783.30 337.69 780.67 334.44 C 779.69 340.62 780.41 346.98 778.83 353.08 C 775.11 369.41 767.36 384.49 758.70 398.71 C 755.35 404.37 751.11 409.58 748.77 415.79 C 747.47 419.40 746.93 424.09 750.02 426.99 C 755.09 431.97 762.83 430.88 769.16 432.90 C 766.65 437.01 763.60 440.80 760.02 444.02 C 754.19 448.97 745.77 448.90 739.83 453.62 C 739.98 458.48 740.52 463.31 741.24 468.11 C 742.35 473.07 739.03 477.47 736.13 481.12 C 733.90 484.03 729.89 482.62 726.86 482.23 C 723.29 481.85 720.43 479.41 717.08 478.53 C 713.28 480.60 709.49 483.46 704.89 482.98 C 700.83 482.93 697.56 480.37 694.70 477.79 C 690.73 480.73 686.12 483.87 680.90 482.83 C 678.02 482.43 676.23 479.95 674.45 477.94 C 670.78 479.90 667.24 482.47 663.02 483.05 C 661.14 481.52 662.64 478.96 663.05 477.06 C 665.33 471.22 668.56 464.44 675.07 462.51 C 683.36 461.13 691.91 462.99 700.18 461.22 C 707.48 459.06 714.18 452.98 714.90 445.07 C 715.99 433.33 711.37 422.15 707.73 411.24 C 705.42 404.22 703.10 397.17 701.71 389.90 C 701.28 388.52 701.39 386.73 700.13 385.80 L 699.42 385.70 C 699.52 390.82 700.98 395.78 702.14 400.74 C 695.24 399.10 689.11 395.40 683.05 391.86 C 668.78 383.32 656.16 371.23 649.16 355.95 C 643.93 344.82 642.34 331.99 645.11 319.97 C 648.45 302.92 657.85 287.27 671.01 275.98 C 677.10 270.53 684.10 266.27 691.02 261.99 C 694.88 259.34 699.21 256.68 701.25 252.28 C 703.13 248.48 699.57 242.44 695.03 243.89 C 690.81 245.07 688.30 249.06 686.86 252.94 C 680.76 249.99 680.24 242.21 675.50 237.87 C 673.99 240.67 674.20 244.21 672.04 246.66 C 668.08 245.71 667.23 240.92 663.98 238.98 C 659.01 240.67 654.12 242.70 648.87 243.43 C 650.66 240.21 652.41 236.96 653.78 233.54 C 646.43 235.06 639.04 236.43 631.52 236.83 C 633.34 231.22 635.07 225.58 636.92 219.99 C 637.66 217.98 638.50 215.38 640.95 214.99 C 644.80 215.34 648.29 217.21 652.03 218.07 C 660.55 220.16 669.24 221.92 678.05 222.08 C 679.44 222.16 680.94 222.20 682.18 222.97 C 681.13 225.47 679.37 227.56 677.99 229.87 C 682.62 229.98 687.30 229.57 691.89 230.41 C 695.57 230.90 699.25 232.06 702.99 231.69 C 705.78 231.13 704.84 227.64 704.20 225.73 C 699.29 212.62 686.94 204.29 681.25 191.59 C 679.61 194.88 678.57 198.40 677.62 201.93 C 673.16 199.69 669.73 196.05 665.94 192.92 C 665.71 196.06 665.97 199.20 666.32 202.32 C 662.65 200.31 658.70 198.42 656.16 194.96 C 650.21 187.27 642.02 181.50 636.76 173.25 C 634.95 169.34 634.07 165.06 632.92 160.93 C 631.54 155.59 632.70 148.71 638.05 146.00 C 643.13 143.62 650.42 144.40 653.61 149.46 C 655.81 152.78 654.69 156.90 654.68 160.60 C 662.38 158.71 670.51 158.98 678.00 156.16 C 684.66 153.78 692.16 155.75 698.62 152.61 C 702.69 150.63 706.23 147.15 707.80 142.87 C 707.66 140.49 706.55 138.33 705.75 136.13 C 714.28 135.55 724.08 132.76 731.58 138.30 C 734.71 140.25 737.81 144.14 741.89 142.91 C 745.71 139.81 744.00 134.13 745.04 129.85 C 748.74 129.92 752.48 130.52 755.84 132.15 C 761.43 134.78 765.50 139.59 770.03 143.64 C 772.61 139.28 774.99 134.76 776.23 129.81 C 783.52 131.47 790.44 135.03 795.73 140.36 C 799.07 143.94 804.60 144.02 809.00 142.74 C 813.07 141.09 815.87 137.49 819.13 134.71 C 818.42 139.11 817.75 143.64 815.69 147.66 C 813.08 152.83 808.80 156.85 804.87 160.99 C 807.79 164.62 810.99 168.32 811.97 173.02 C 813.71 180.57 813.04 188.39 812.97 196.07 C 812.77 203.37 812.34 210.66 811.84 217.94 C 807.03 214.56 802.34 210.91 798.33 206.60 C 794.55 202.37 794.82 196.32 792.74 191.31 C 791.36 187.44 788.25 184.61 785.17 182.07 C 786.31 188.64 788.43 195.40 787.01 202.09 C 781.66 201.81 778.26 195.72 772.82 194.74 C 776.90 199.53 784.31 201.75 785.62 208.61 C 785.87 208.65 786.37 208.73 786.62 208.77 C 789.45 202.12 788.82 194.89 789.07 187.86 C 793.29 193.27 792.00 200.78 795.73 206.41 C 798.39 210.66 803.02 212.98 806.37 216.58 C 808.11 218.29 807.80 220.89 808.16 223.10 C 808.53 228.72 811.86 233.54 812.74 239.05 C 804.80 235.15 797.65 229.78 790.99 223.99 C 788.30 221.77 786.43 218.81 784.71 215.84 C 782.60 218.99 780.77 222.30 778.95 225.62 C 774.82 222.45 770.77 219.11 767.71 214.86 C 768.87 219.46 768.19 224.24 765.61 228.24 C 762.25 225.23 759.03 222.05 755.45 219.31 C 755.34 219.61 755.12 220.22 755.01 220.52 C 758.88 224.14 762.60 227.95 765.64 232.31 C 767.38 228.71 769.29 225.19 771.50 221.85 C 774.35 224.07 776.95 226.61 779.94 228.65 C 781.39 225.84 782.54 222.90 783.85 220.03 C 786.43 222.10 788.46 224.77 791.06 226.84 C 794.31 229.70 798.14 231.81 801.40 234.66 C 804.45 237.25 803.83 241.60 804.90 245.10 C 805.71 249.19 808.30 252.55 810.79 255.79 C 805.13 255.98 799.32 255.45 794.20 252.85 C 789.60 250.94 786.37 246.90 781.88 244.84 C 783.98 249.44 788.77 251.73 793.03 253.93 C 797.40 256.18 802.22 257.25 807.03 258.04 C 809.28 258.32 810.83 260.12 812.42 261.55 C 815.48 264.52 819.17 266.70 822.54 269.30 C 816.18 270.57 809.58 270.99 803.22 269.52 C 803.06 274.31 803.38 279.21 802.28 283.91 C 800.62 284.33 798.08 282.78 797.16 284.72 C 799.77 285.71 802.49 286.36 805.18 287.13 C 804.13 282.16 804.46 276.98 805.78 272.09 C 812.51 271.90 819.66 272.55 825.82 269.23 C 821.88 266.63 817.95 264.00 814.44 260.82 C 834.96 260.98 855.48 262.24 876.01 261.71 C 884.09 261.43 891.90 258.97 899.98 258.55 C 909.96 257.97 919.98 257.80 929.97 258.26 C 941.20 258.25 952.68 258.73 963.54 255.39 C 970.81 253.23 978.73 251.75 984.70 246.74 C 990.18 241.84 994.08 234.28 992.38 226.80 C 990.87 219.62 984.67 214.22 977.78 212.30 C 971.02 210.46 963.92 210.48 956.98 210.74 C 945.79 211.00 934.93 214.06 923.84 215.24 C 906.75 217.17 889.16 217.75 872.36 213.46 C 864.57 211.38 857.37 207.57 849.56 205.59 C 845.23 204.26 840.16 206.66 838.51 210.88 C 837.40 213.73 837.18 216.83 836.56 219.81 C 831.57 215.70 827.80 209.52 828.37 202.87 C 828.58 198.26 831.30 194.38 833.79 190.69 C 826.62 183.05 819.82 173.87 819.51 162.97 C 818.88 152.35 825.17 142.52 833.44 136.36 C 842.71 129.43 853.62 124.75 864.91 122.34 M 790.89 156.20 C 783.86 158.83 776.28 158.68 768.91 159.01 C 767.35 159.24 765.03 158.77 764.73 160.89 C 766.07 161.53 767.55 161.94 769.06 161.60 C 777.42 160.43 786.02 160.05 793.93 156.82 C 798.20 155.04 802.82 153.13 805.53 149.16 C 800.38 150.96 796.07 154.51 790.89 156.20 M 768.64 162.60 C 770.49 165.33 772.50 168.12 775.44 169.77 C 775.72 170.30 776.27 171.36 776.55 171.89 C 776.93 171.42 777.69 170.48 778.08 170.01 C 775.48 166.92 772.21 164.45 768.64 162.60 M 703.86 166.95 C 702.20 168.84 700.98 171.42 701.70 173.97 C 703.32 178.33 708.49 180.70 712.87 179.17 C 716.22 177.62 716.56 173.37 715.49 170.27 C 714.08 169.20 712.37 168.67 710.78 167.99 C 712.08 169.99 713.61 171.86 714.71 174.00 C 713.78 176.25 711.57 178.18 709.02 178.02 C 706.18 177.89 703.72 175.57 703.13 172.84 C 702.74 168.62 706.82 164.73 711.05 165.38 C 719.16 166.53 725.78 171.89 733.46 174.36 C 739.10 176.17 745.07 177.54 751.03 176.81 C 751.20 173.95 747.09 173.33 746.39 170.60 C 756.14 172.59 766.13 173.69 776.02 171.91 C 774.83 171.31 773.58 170.59 772.20 170.85 C 765.11 171.00 757.80 171.49 750.92 169.38 C 747.04 168.24 743.91 165.61 740.51 163.55 C 742.32 167.61 744.84 171.28 747.20 175.03 C 745.46 174.91 743.75 174.80 742.04 174.62 C 730.42 173.90 721.53 164.52 709.98 163.51 C 707.33 163.04 705.41 165.15 703.86 166.95 M 799.79 180.51 C 802.37 185.61 807.12 189.20 811.90 192.11 C 809.56 188.80 806.51 186.11 803.77 183.17 C 802.69 181.94 801.30 181.08 799.79 180.51 M 770.64 189.63 C 770.10 192.90 770.22 196.27 769.33 199.48 C 768.75 200.45 768.59 202.58 767.03 202.23 C 763.55 199.70 761.00 196.17 758.07 193.08 C 758.00 197.03 757.94 201.08 756.60 204.85 C 756.31 204.85 755.72 204.85 755.43 204.85 C 752.29 202.21 750.14 198.64 747.09 195.91 C 747.94 200.70 749.90 205.63 748.02 210.44 C 744.12 207.95 740.77 204.71 737.01 202.04 C 735.69 205.94 732.98 209.07 730.25 212.06 C 725.51 208.60 720.39 204.89 718.96 198.83 C 719.01 201.10 718.74 203.66 720.35 205.52 C 723.41 209.28 727.41 212.16 731.36 214.92 C 732.93 211.45 735.05 208.28 737.74 205.57 C 741.68 208.57 745.62 211.58 749.67 214.44 C 750.23 210.88 750.86 207.32 751.62 203.79 C 752.85 205.54 754.13 207.27 755.74 208.71 C 757.45 205.90 758.60 202.79 760.37 200.01 C 763.96 200.26 765.06 205.03 767.27 207.42 C 770.06 202.18 774.41 195.39 770.64 189.63 M 725.14 223.80 C 727.71 229.93 732.77 234.66 737.94 238.65 C 740.28 235.56 742.26 232.21 744.79 229.26 C 749.27 233.00 753.53 237.54 754.67 243.47 C 756.93 242.63 758.24 240.57 759.63 238.74 C 762.36 240.78 765.50 242.76 766.82 246.06 C 768.03 250.20 767.33 254.58 766.89 258.79 C 760.15 254.73 754.38 249.18 747.18 245.83 C 746.57 249.99 746.03 254.16 745.17 258.28 C 741.69 253.28 738.77 247.72 733.65 244.15 C 730.28 248.18 727.16 252.45 723.28 256.02 C 722.62 251.18 722.30 246.12 719.83 241.79 C 717.76 246.34 715.42 250.76 712.39 254.75 C 710.82 250.35 709.39 245.89 707.28 241.72 C 708.00 247.02 708.66 252.38 710.38 257.47 C 714.47 254.96 717.32 251.02 719.82 247.02 C 722.22 250.44 720.69 254.78 720.96 258.63 C 727.03 256.51 730.65 250.90 734.00 245.77 C 736.54 248.98 739.35 252.07 741.15 255.79 C 742.24 258.09 743.25 260.44 744.65 262.59 C 747.10 258.74 748.07 254.27 748.96 249.86 C 756.00 251.82 762.46 256.99 765.95 263.51 C 770.30 258.73 768.31 251.49 768.83 245.60 C 772.14 247.90 775.44 250.21 778.96 252.19 C 780.55 248.62 781.79 244.78 781.43 240.80 C 779.33 243.19 778.52 246.29 777.58 249.24 C 770.93 245.08 763.41 241.37 759.53 234.16 C 757.89 236.14 757.04 238.57 756.50 241.05 C 753.58 234.63 748.55 229.40 742.85 225.36 C 741.45 228.68 740.48 232.17 738.94 235.44 C 732.34 234.32 730.23 227.06 725.14 223.80 M 694.89 269.91 C 693.54 273.80 690.68 276.80 688.23 280.00 C 690.46 279.83 692.70 279.56 694.95 279.35 C 695.06 278.87 695.29 277.90 695.41 277.41 L 693.39 277.78 C 696.35 272.15 697.50 265.76 701.11 260.46 C 697.19 261.97 696.47 266.52 694.89 269.91 M 748.36 281.86 C 744.17 278.45 741.33 273.83 739.32 268.88 C 736.19 274.73 734.09 281.23 729.29 286.05 C 727.11 280.97 726.34 275.33 723.50 270.56 C 722.64 274.90 722.05 279.56 719.15 283.12 C 717.07 286.32 713.52 287.92 710.13 289.32 C 708.41 283.78 706.75 278.15 706.65 272.31 C 702.97 274.09 699.31 275.93 695.39 277.12 C 696.00 277.53 696.63 277.95 697.26 278.36 C 699.47 277.66 701.74 276.93 704.10 276.95 C 706.82 281.91 707.80 287.64 707.31 293.25 C 710.16 292.39 712.32 290.16 715.06 289.04 C 719.72 286.83 722.19 282.04 724.29 277.61 C 725.76 281.61 725.42 285.96 726.66 290.01 C 732.12 285.99 736.30 280.44 738.82 274.15 C 742.52 277.44 744.81 281.87 747.01 286.22 C 748.63 283.76 750.34 281.33 751.59 278.64 C 753.62 274.42 753.86 269.54 756.38 265.52 C 759.93 274.29 764.60 282.81 765.73 292.34 C 771.57 289.17 776.90 285.11 781.43 280.24 C 786.63 281.07 791.68 285.84 797.03 283.23 C 791.35 282.06 785.95 279.88 780.86 277.14 C 777.42 281.83 773.16 285.97 768.11 288.89 C 764.50 280.46 760.13 272.21 758.43 263.13 C 758.12 262.91 757.51 262.49 757.21 262.28 C 751.48 267.25 751.95 275.63 748.36 281.86 M 699.91 360.86 C 698.35 368.31 698.58 376.00 698.97 383.57 C 699.19 383.73 699.62 384.05 699.84 384.21 L 700.39 384.08 C 700.17 379.35 699.67 374.60 700.30 369.89 C 700.78 364.81 702.64 359.95 702.79 354.83 C 701.43 356.62 700.29 358.61 699.91 360.86 Z" />
<path fill="#ffbe29" opacity="1.00" d=" M 634.40 204.71 C 633.18 202.79 634.39 199.35 637.05 200.33 C 643.71 201.83 649.74 205.25 656.11 207.61 C 668.61 212.38 681.58 216.70 695.06 217.13 C 696.53 217.14 698.09 217.63 698.94 218.92 C 701.31 222.37 703.00 226.34 703.37 230.54 C 695.90 229.52 688.48 228.11 680.89 228.16 C 682.45 225.91 683.94 223.62 685.29 221.24 C 672.21 220.39 659.04 218.72 646.59 214.43 C 641.71 212.55 636.81 209.51 634.40 204.71 Z" />
<path fill="#ffbe29" opacity="1.00" d=" M 549.15 292.03 C 551.06 285.87 558.64 282.94 564.53 284.55 C 569.51 286.06 569.66 294.03 564.43 295.36 C 565.26 298.00 567.29 300.04 570.07 300.53 C 577.47 302.34 585.51 302.21 592.70 299.57 C 594.58 299.06 595.63 297.46 596.12 295.67 C 594.90 294.50 592.80 293.81 592.57 291.92 C 591.46 288.29 594.24 284.13 598.06 283.89 C 604.16 283.46 611.36 287.34 611.95 293.96 C 612.41 300.55 607.07 305.97 601.32 308.28 C 593.35 311.47 584.56 311.69 576.10 311.37 C 568.90 310.82 561.24 310.02 555.14 305.81 C 550.79 302.87 547.61 297.34 549.15 292.03 Z" />
<path fill="#ffbe29" opacity="1.00" d=" M 585.16 313.41 C 591.11 313.07 596.95 311.77 602.70 310.26 C 616.29 323.32 630.48 335.81 643.22 349.73 C 646.68 353.33 647.82 358.36 650.41 362.52 C 656.26 372.70 665.35 380.27 673.19 388.81 C 668.21 394.62 662.24 399.93 655.12 402.92 C 650.81 404.85 645.52 404.24 641.95 401.09 C 636.15 396.23 630.34 391.36 624.84 386.15 C 623.01 384.60 621.23 382.87 618.97 382.00 C 615.18 381.60 612.53 384.93 611.24 388.08 C 610.04 386.51 608.39 385.10 608.06 383.05 C 606.82 376.09 607.71 368.95 606.98 361.94 C 606.84 358.04 603.04 356.04 600.64 353.52 C 601.96 351.82 603.97 350.30 604.11 347.98 C 604.14 344.94 603.11 341.90 604.03 338.91 C 604.77 336.74 604.20 334.47 602.42 333.02 C 602.08 335.24 602.31 337.57 601.63 339.73 C 599.75 343.30 596.52 346.14 592.65 347.38 C 591.90 342.13 596.61 339.34 600.22 336.71 C 600.94 332.27 605.21 328.80 604.03 324.04 C 603.67 323.86 602.94 323.49 602.57 323.31 C 602.57 329.47 598.64 335.52 592.65 337.38 C 591.91 332.15 596.56 329.35 600.18 326.75 C 600.89 322.13 605.48 318.63 604.22 313.68 C 600.06 314.96 596.25 317.09 592.54 319.30 C 590.02 317.40 587.55 315.45 585.16 313.41 Z" />
<path fill="#ffbe29" opacity="1.00" d=" M 567.41 314.58 C 571.90 312.86 576.88 314.73 581.39 315.71 C 585.10 316.97 590.08 317.85 591.61 321.98 C 591.31 326.02 586.63 325.19 583.90 324.61 C 578.44 323.22 572.72 322.03 567.85 319.10 C 566.14 318.37 565.95 315.55 567.41 314.58 Z" />
<path fill="#ffbe29" opacity="1.00" d=" M 592.63 327.14 C 592.26 321.39 597.67 317.22 602.88 316.47 C 601.22 321.27 597.30 325.22 592.63 327.14 Z" />
<path fill="#ffbe29" opacity="1.00" d=" M 565.12 322.30 C 572.28 321.46 578.96 325.36 585.64 327.45 C 588.27 328.41 593.21 330.30 590.95 333.90 C 587.56 336.74 582.84 334.27 579.05 333.62 C 574.52 332.18 569.22 332.74 565.26 329.85 C 563.15 328.11 561.33 323.05 565.12 322.30 Z" />
<path fill="#ffbe29" opacity="1.00" d=" M 566.70 339.46 C 565.22 337.30 567.40 335.43 568.69 333.89 C 575.28 333.77 581.80 335.43 587.76 338.18 C 589.61 338.94 590.84 340.57 592.15 342.01 C 589.55 346.89 583.61 345.14 579.40 343.82 C 575.21 342.40 569.80 343.13 566.70 339.46 Z" />
<path fill="#ffbe29" opacity="1.00" d=" M 568.89 344.68 C 575.69 344.40 582.96 345.34 588.72 349.21 C 590.44 350.19 590.94 352.13 591.29 353.93 C 585.76 356.53 579.42 355.22 574.02 352.96 C 572.31 352.17 570.41 351.36 569.34 349.73 C 568.84 348.09 569.00 346.35 568.89 344.68 Z" />
<path fill="#ffbe29" opacity="1.00" d=" M 593.33 355.84 C 592.59 350.79 597.70 347.07 601.96 345.70 C 603.88 346.08 602.06 347.85 601.80 348.79 C 599.83 351.98 596.72 354.31 593.33 355.84 Z" />
<path fill="#ffbe29" opacity="1.00" d=" M 573.27 355.31 C 577.71 355.81 582.76 356.56 585.14 360.87 C 589.26 361.47 594.62 359.75 597.68 363.44 C 599.82 365.53 597.00 368.12 594.97 368.89 C 591.15 368.50 587.48 367.27 583.65 366.96 C 583.41 372.34 587.20 376.23 590.38 380.04 C 589.81 383.02 586.75 384.98 586.17 388.07 C 583.72 394.39 586.14 403.31 593.00 405.55 C 594.87 403.88 595.97 400.63 598.95 400.83 C 602.35 400.76 604.72 404.84 602.75 407.71 C 599.36 412.58 593.16 414.23 587.55 414.87 C 588.43 419.29 592.57 421.57 595.80 424.17 C 592.01 424.82 587.93 424.65 584.45 426.43 C 583.11 429.49 583.37 433.43 580.61 435.73 C 579.42 436.61 577.45 437.25 576.26 436.06 C 573.72 433.45 573.38 429.68 572.69 426.30 C 569.18 425.33 565.59 424.69 561.99 424.18 C 565.03 421.91 567.72 419.16 569.46 415.75 C 565.02 413.87 559.92 413.24 556.44 409.56 C 553.04 407.58 553.90 401.20 558.01 400.88 C 561.30 400.87 562.99 404.17 565.05 406.22 C 567.00 404.08 569.24 402.08 570.47 399.40 C 572.95 392.81 571.17 385.20 566.32 380.16 C 568.87 377.01 572.45 374.21 573.17 369.99 C 569.88 366.26 563.28 370.06 560.06 365.88 C 559.45 364.09 559.14 361.19 561.24 360.29 C 564.71 358.27 568.11 362.77 571.73 361.56 C 573.47 360.04 572.73 357.32 573.27 355.31 Z" />
<path fill="#ffbe29" opacity="1.00" d=" M 862.00 362.86 C 872.78 363.29 884.01 364.80 893.27 370.76 C 901.95 375.82 907.91 384.18 915.85 390.18 C 919.79 393.33 923.98 396.13 928.15 398.96 C 925.11 403.08 921.17 406.95 920.33 412.23 C 920.17 415.99 922.37 419.53 925.14 421.93 C 929.11 424.85 934.39 422.44 938.66 424.37 C 939.46 425.56 938.62 427.06 938.19 428.25 C 933.59 436.78 924.81 442.80 922.23 452.42 C 920.77 460.49 926.88 467.89 925.05 476.00 C 924.65 479.64 921.88 483.20 917.95 483.09 C 912.84 482.65 908.51 479.59 904.26 477.01 C 902.76 478.84 901.51 480.97 899.53 482.32 C 896.42 483.12 893.09 482.78 890.04 481.92 C 887.59 481.28 886.69 478.64 885.34 476.81 C 882.11 479.14 879.14 482.50 874.96 482.87 C 870.74 482.81 867.65 479.54 864.73 476.93 C 860.24 479.56 855.91 483.00 850.48 483.25 C 850.38 476.59 854.55 470.13 860.57 467.39 C 867.48 465.00 874.95 466.04 882.07 464.85 C 886.37 464.21 889.43 460.80 892.55 458.07 C 892.16 448.35 892.10 438.62 891.59 428.90 C 891.26 422.91 889.52 416.95 886.09 411.99 C 879.43 402.32 871.54 393.50 865.76 383.24 C 862.37 377.02 861.69 369.81 862.00 362.86 Z" />
<path fill="#ffbe29" opacity="1.00" d=" M 484.63 469.57 C 491.80 465.84 496.29 458.75 500.02 451.86 C 499.61 460.46 496.72 468.62 495.02 476.99 C 491.92 487.26 493.56 498.27 490.46 508.54 C 488.94 514.62 484.54 520.20 478.51 522.26 C 474.55 523.57 470.26 524.07 466.14 523.35 C 463.25 522.65 460.67 521.11 457.86 520.21 C 454.11 518.96 450.11 519.21 446.22 519.00 C 446.37 515.85 447.46 512.42 445.58 509.59 C 442.36 503.47 439.97 496.08 442.64 489.32 C 444.38 484.68 448.99 482.21 453.23 480.25 C 463.40 475.85 474.68 474.54 484.63 469.57 Z" />
<path fill="#ffbe29" opacity="1.00" d=" M 1066.03 451.78 C 1069.58 458.26 1073.81 464.81 1080.14 468.88 C 1090.50 474.58 1102.60 475.67 1113.32 480.50 C 1117.55 482.52 1122.07 485.32 1123.60 490.04 C 1125.87 496.64 1123.52 503.69 1120.41 509.60 C 1118.53 512.43 1119.62 515.86 1119.77 519.00 C 1114.57 519.08 1109.17 519.16 1104.46 521.67 C 1099.26 524.44 1093.01 524.07 1087.56 522.29 C 1080.62 519.96 1076.01 513.10 1075.02 506.03 C 1072.70 496.68 1073.80 486.88 1071.26 477.59 C 1069.33 469.02 1066.29 460.64 1066.03 451.78 Z" />
</g>
<g id="#00534eff">
<path fill="#00534e" opacity="1.00" d=" M 55.00 54.00 C 107.00 54.00 159.00 54.00 211.00 54.00 C 211.00 216.67 211.00 379.33 211.00 542.00 C 159.00 542.00 107.00 542.00 55.00 542.00 C 55.00 379.33 55.00 216.67 55.00 54.00 Z" />
<path fill="#00534e" opacity="1.00" d=" M 454.05 74.64 C 459.21 73.98 463.60 70.45 468.89 70.38 C 476.84 69.94 485.57 73.26 489.65 80.43 C 493.44 86.95 493.85 94.72 494.55 102.04 C 494.45 113.35 498.93 123.94 500.74 134.96 C 501.63 139.86 501.56 144.86 502.47 149.75 C 501.99 149.74 501.05 149.71 500.57 149.69 C 497.37 142.34 493.05 135.24 486.77 130.11 C 474.87 122.00 459.23 122.79 447.28 114.80 C 441.08 110.93 437.94 102.94 439.94 95.89 C 440.88 90.41 445.26 85.78 444.45 80.00 C 444.37 78.43 444.26 76.87 444.15 75.30 C 447.46 75.28 450.78 75.18 454.05 74.64 M 458.59 75.54 C 454.65 77.05 450.36 76.79 446.22 77.01 C 446.36 78.36 446.48 79.71 446.59 81.06 C 447.34 85.18 444.06 88.42 443.01 92.18 C 440.50 98.78 440.68 107.66 446.89 112.16 C 458.55 120.23 473.60 120.27 485.85 127.12 C 492.34 131.00 496.47 137.61 500.00 144.10 C 499.31 132.28 494.60 121.19 493.21 109.49 C 492.55 101.88 492.56 94.10 490.25 86.74 C 489.06 82.27 486.14 78.37 482.44 75.65 C 478.14 72.95 472.90 72.05 467.90 72.41 C 464.56 72.61 461.67 74.45 458.59 75.54 Z" />
<path fill="#00534e" opacity="1.00" d=" M 1076.79 79.72 C 1081.01 72.98 1089.41 70.00 1097.10 70.38 C 1101.62 70.42 1105.49 73.02 1109.74 74.20 C 1113.68 75.22 1117.79 75.29 1121.84 75.29 C 1121.67 79.26 1120.75 83.53 1122.81 87.19 C 1125.72 93.26 1128.35 100.64 1125.19 107.14 C 1122.57 113.67 1115.79 116.98 1109.60 119.32 C 1101.91 121.88 1093.87 123.26 1086.37 126.39 C 1075.89 129.91 1069.75 140.07 1065.45 149.61 C 1064.95 149.68 1063.96 149.82 1063.46 149.89 C 1064.49 144.98 1064.33 139.93 1065.26 135.00 C 1067.06 123.97 1071.53 113.36 1071.44 102.05 C 1072.13 94.46 1072.60 86.34 1076.79 79.72 M 1087.55 73.71 C 1081.52 75.74 1077.11 81.30 1075.57 87.36 C 1073.48 94.37 1073.43 101.74 1072.84 108.98 C 1071.51 120.96 1066.59 132.30 1066.02 144.39 C 1069.67 137.90 1073.48 130.96 1080.15 127.11 C 1091.84 120.62 1105.93 120.22 1117.42 113.29 C 1120.88 111.38 1123.45 107.94 1124.15 104.02 C 1125.47 97.68 1123.01 91.37 1120.13 85.82 C 1118.55 83.12 1119.69 79.92 1119.77 77.00 C 1116.16 76.80 1112.48 77.02 1108.98 76.04 C 1105.84 75.20 1103.05 73.43 1099.90 72.66 C 1095.78 71.92 1091.50 72.42 1087.55 73.71 Z" />
<path fill="#00534e" opacity="1.00" d=" M 606.47 96.60 C 608.59 95.23 611.04 94.53 613.51 94.04 C 616.00 98.55 611.65 102.41 610.58 106.62 C 605.98 121.95 604.85 137.99 603.20 153.83 C 601.29 169.48 601.25 185.27 600.09 200.98 C 599.24 211.96 599.94 223.01 598.78 233.97 C 598.63 249.69 598.88 265.44 597.36 281.10 C 602.87 281.11 608.83 282.94 612.24 287.52 C 615.47 291.88 615.17 298.03 612.49 302.57 C 610.92 305.43 608.14 307.27 605.67 309.26 C 617.89 320.96 630.31 332.45 642.21 344.47 C 637.63 318.38 649.26 291.12 669.11 274.15 C 676.22 267.71 684.66 263.08 692.55 257.69 C 695.56 255.73 697.82 252.90 699.77 249.92 C 698.90 248.70 698.06 247.47 697.10 246.33 C 691.67 246.50 690.60 252.84 687.24 255.97 C 681.62 254.33 679.34 248.72 676.50 244.21 C 675.65 245.74 674.82 247.28 673.97 248.81 C 672.36 248.77 670.77 248.74 669.17 248.72 C 667.17 246.62 665.30 244.40 663.58 242.07 C 657.20 244.43 650.57 246.01 643.85 246.96 C 645.58 243.77 647.30 240.56 649.00 237.34 C 641.99 238.55 634.91 239.14 627.84 239.85 C 629.51 233.69 631.64 227.67 633.54 221.58 C 634.47 218.46 636.02 215.58 637.80 212.87 C 634.98 209.77 630.65 206.72 631.26 201.97 C 631.24 199.81 633.42 198.71 634.66 197.26 C 642.62 198.29 649.66 202.29 657.07 205.07 C 668.90 209.80 681.28 214.00 694.13 214.44 C 689.98 209.09 685.71 203.85 681.45 198.60 C 680.72 200.74 680.75 204.27 677.72 204.38 C 674.43 203.45 671.66 201.31 668.71 199.68 C 669.10 202.16 669.48 204.64 669.84 207.13 C 664.36 204.14 658.12 201.83 654.19 196.74 C 648.61 189.70 641.34 184.21 635.95 177.00 C 632.80 172.95 632.04 167.73 630.65 162.93 C 629.25 158.21 629.21 152.89 631.72 148.52 C 636.73 139.55 652.05 139.99 656.64 149.15 C 657.92 151.65 657.54 154.58 657.73 157.30 C 661.92 156.46 666.21 156.32 670.42 155.55 C 674.99 154.71 679.23 152.30 683.96 152.33 C 689.12 152.17 694.58 151.91 699.11 149.13 C 701.84 147.55 703.67 144.90 705.45 142.38 C 704.10 139.58 702.97 136.69 702.03 133.74 C 710.51 133.44 719.25 130.85 727.60 133.38 C 732.64 135.01 736.18 139.33 741.22 141.00 C 742.14 136.62 740.93 130.99 744.41 127.65 C 748.78 126.85 753.28 128.08 757.27 129.85 C 762.09 132.01 765.51 136.22 769.89 139.07 C 771.40 135.74 772.43 132.22 773.99 128.93 C 775.04 126.89 777.60 127.39 779.42 127.86 C 784.81 129.48 790.07 131.88 794.36 135.57 C 796.46 137.24 798.38 139.32 800.98 140.21 C 804.19 141.00 808.00 141.07 810.64 138.76 C 814.95 135.31 818.57 131.07 822.95 127.68 C 822.11 133.70 821.40 139.82 819.39 145.60 C 817.22 151.62 812.93 156.51 808.50 160.99 C 812.33 165.90 815.35 171.68 815.54 178.02 C 816.08 191.21 815.60 204.44 814.31 217.57 C 814.45 219.78 811.81 219.94 810.41 220.89 C 810.76 226.22 813.66 230.86 814.69 236.01 C 814.70 237.85 815.45 241.04 812.92 241.45 C 810.56 241.43 808.52 239.86 806.37 239.09 C 807.12 242.60 807.62 246.32 809.61 249.41 C 811.54 252.49 813.91 255.27 816.06 258.21 C 825.03 258.46 834.01 258.40 842.98 258.79 C 851.97 259.71 861.01 259.09 870.03 259.31 C 880.47 259.61 890.58 256.22 901.01 256.21 C 914.62 254.90 928.31 255.64 941.97 255.47 C 953.34 255.94 964.43 252.69 975.09 249.07 C 981.84 246.83 987.51 241.44 989.61 234.59 C 991.21 230.06 989.58 225.06 986.91 221.29 C 982.88 216.18 976.22 214.00 969.93 213.57 C 963.27 213.16 956.57 213.29 949.93 213.88 C 938.61 215.34 927.46 218.13 916.03 218.62 C 910.35 218.77 904.71 219.64 899.03 219.37 C 888.36 218.76 877.50 218.23 867.32 214.67 C 860.48 212.26 853.76 209.48 846.80 207.41 C 844.61 208.55 841.80 209.43 841.01 212.06 C 839.62 215.18 840.33 219.21 837.80 221.76 C 834.52 222.53 832.32 219.71 830.54 217.47 C 826.88 212.93 824.79 206.90 825.96 201.07 C 826.41 197.40 828.65 194.36 829.88 190.95 C 827.67 187.00 824.20 183.92 822.04 179.92 C 815.95 170.08 814.87 156.88 820.78 146.71 C 825.23 139.13 832.12 133.15 839.81 129.00 C 850.33 123.29 861.93 119.27 873.95 118.61 C 882.30 118.21 890.70 118.48 899.01 119.43 C 918.26 120.97 935.88 130.03 952.00 140.08 C 964.20 147.24 975.19 156.20 986.35 164.84 C 990.66 168.09 995.09 171.31 1000.20 173.22 C 1000.50 169.56 1001.24 165.66 1004.04 163.02 C 1008.51 157.96 1017.30 158.34 1021.54 163.49 C 1024.63 167.38 1026.39 172.55 1025.37 177.50 C 1024.15 182.69 1020.36 187.20 1015.57 189.48 C 1007.15 192.94 997.34 191.59 989.38 187.53 C 977.71 181.26 969.21 170.62 957.99 163.72 C 959.17 168.51 961.02 173.33 964.89 176.60 C 964.71 177.84 964.58 179.09 964.31 180.32 C 959.32 181.70 954.53 178.80 950.12 176.84 C 944.60 174.40 940.38 169.99 936.36 165.63 C 934.75 168.74 933.33 172.20 930.40 174.33 C 925.67 177.72 919.89 180.17 913.96 179.49 C 913.45 178.52 912.95 177.54 912.45 176.58 C 915.58 171.12 919.70 165.63 919.63 159.04 C 918.52 152.59 913.41 147.47 907.59 144.86 C 910.12 153.07 910.35 163.29 903.72 169.67 C 897.29 177.02 887.07 178.04 878.09 179.88 C 882.07 173.34 887.74 166.99 887.66 158.89 C 887.85 154.51 886.27 149.99 882.86 147.13 C 878.50 143.48 873.40 140.57 867.79 139.37 C 868.77 144.69 868.31 150.60 864.92 155.01 C 863.56 157.11 860.63 157.09 858.52 156.41 C 856.87 154.61 856.23 151.81 854.03 150.62 C 846.50 148.81 837.30 153.85 836.57 161.98 C 835.97 167.45 840.26 171.50 843.92 174.87 C 848.06 167.99 856.02 163.95 864.01 164.37 C 870.10 164.44 875.02 168.49 880.11 171.31 C 875.92 173.33 871.57 175.01 867.55 177.36 C 865.14 178.74 862.99 181.03 862.66 183.89 C 862.43 187.16 864.28 190.03 865.65 192.86 C 869.40 189.30 872.91 184.81 878.17 183.53 C 882.09 183.41 883.22 187.92 883.94 190.96 C 884.54 195.50 889.20 197.54 893.04 198.81 C 900.23 200.45 907.67 200.38 914.96 199.59 C 929.77 199.53 944.24 195.45 959.05 195.45 C 966.38 195.39 973.87 194.66 981.06 196.40 C 992.44 199.42 1003.46 206.29 1008.82 217.10 C 1013.71 226.45 1013.03 238.06 1007.96 247.18 C 1004.53 253.91 998.37 258.44 992.91 263.40 C 1001.93 274.63 1010.34 288.08 1009.73 303.03 C 1009.77 313.18 1010.03 323.49 1007.41 333.38 C 1002.07 353.31 992.02 372.11 990.77 393.01 C 991.09 401.36 992.90 410.12 998.12 416.87 C 1000.98 420.61 1006.13 420.46 1010.27 421.69 C 1013.73 427.37 1010.05 433.77 1005.64 437.63 C 1001.17 442.18 994.10 444.64 992.04 451.17 C 989.90 458.90 994.77 466.08 998.70 472.31 C 1000.92 475.39 1002.91 479.43 1001.29 483.22 C 999.29 485.70 995.80 485.69 992.93 485.43 C 988.41 485.11 984.25 483.16 980.34 481.01 C 977.78 483.39 974.69 485.52 971.06 485.55 C 966.40 486.00 962.27 483.36 958.83 480.54 C 955.27 482.95 951.52 485.93 946.95 485.59 C 943.23 485.86 940.28 483.30 937.96 480.73 C 933.69 483.27 928.87 487.18 923.72 484.51 C 917.28 487.60 910.44 484.49 905.09 480.72 C 900.46 487.52 889.87 486.75 884.60 481.17 C 881.42 483.33 878.03 486.01 873.93 485.51 C 869.99 485.53 867.49 481.97 864.10 480.65 C 860.40 482.25 857.17 485.24 853.02 485.57 C 851.20 485.77 849.63 484.71 848.07 484.01 C 847.37 475.74 852.75 467.57 860.41 464.62 C 867.07 462.66 874.15 463.52 880.95 462.28 C 884.51 462.02 887.11 459.33 889.72 457.20 C 889.20 445.80 890.02 434.27 887.88 423.00 C 886.71 416.90 882.77 411.90 879.19 407.01 C 872.32 397.90 864.32 389.14 860.77 378.07 C 859.26 373.75 859.40 369.14 859.43 364.64 C 843.98 364.31 829.05 369.05 814.91 374.85 C 801.20 380.29 787.88 386.68 774.18 392.14 C 770.93 393.45 767.52 394.25 764.12 394.97 C 760.24 401.79 755.42 408.06 751.98 415.13 C 750.54 418.33 749.25 422.99 752.48 425.54 C 757.11 429.31 763.58 428.22 768.88 430.32 C 770.12 430.77 771.02 431.80 771.70 432.92 C 770.18 437.52 766.70 441.09 763.45 444.54 C 757.91 450.35 749.53 451.37 742.52 454.57 C 742.57 461.24 744.71 467.95 743.32 474.60 C 741.46 478.57 739.18 483.10 735.04 485.06 C 728.90 486.31 722.59 484.29 717.17 481.45 C 710.82 486.73 700.86 487.24 694.69 481.38 C 690.76 483.57 686.59 485.93 681.92 485.57 C 678.63 485.82 676.10 483.50 673.82 481.50 C 670.18 483.08 666.60 485.96 662.43 485.41 C 658.19 484.37 659.30 479.17 660.43 476.16 C 663.17 469.20 667.51 461.28 675.53 459.73 C 682.34 458.78 689.25 459.60 696.10 459.21 C 701.73 458.94 706.77 455.40 709.90 450.86 C 712.67 446.81 712.62 441.65 712.08 436.98 C 710.41 425.41 705.68 414.61 702.47 403.44 C 692.64 401.26 683.95 395.70 675.69 390.16 C 669.85 397.01 662.77 403.37 654.02 406.09 C 649.19 407.64 643.90 406.08 640.01 403.03 C 632.31 397.26 625.93 389.91 618.13 384.24 C 617.21 384.86 616.30 385.49 615.40 386.13 C 614.46 387.91 613.85 391.21 611.12 390.52 C 608.08 389.27 605.78 386.32 605.35 383.05 C 604.09 375.66 604.87 368.14 604.43 360.69 C 602.70 359.16 601.11 357.38 599.02 356.35 C 596.97 356.83 595.03 357.65 593.05 358.31 C 595.68 359.24 598.85 359.90 600.37 362.51 C 601.46 365.20 600.68 368.63 598.05 370.14 C 594.67 372.67 590.37 370.57 586.66 370.24 C 588.26 373.44 590.80 376.01 592.66 379.03 C 593.53 383.15 589.38 385.87 588.39 389.58 C 586.55 394.03 588.65 398.83 591.71 402.15 C 593.50 400.51 595.12 397.94 597.91 398.24 C 603.00 397.38 608.28 402.95 605.71 407.90 C 603.04 413.30 596.95 415.64 591.49 417.16 C 594.94 420.21 598.63 422.96 602.26 425.80 C 597.07 426.79 591.80 427.24 586.62 428.24 C 585.80 432.72 584.31 438.53 579.03 439.44 C 573.20 439.70 570.98 433.14 570.21 428.44 C 565.14 427.12 559.93 426.64 554.77 425.87 C 558.44 423.02 562.29 420.40 565.78 417.32 C 560.55 416.08 555.18 413.49 552.39 408.68 C 550.06 404.69 552.91 397.85 557.99 398.21 C 561.08 397.77 563.28 400.26 565.48 401.99 C 567.54 399.29 569.07 396.08 568.76 392.61 C 568.93 387.67 565.55 383.82 562.98 379.96 C 565.70 377.21 568.22 374.25 570.24 370.95 C 566.17 370.62 561.16 371.35 558.27 367.77 C 555.40 364.76 556.60 359.22 560.38 357.59 C 563.81 356.40 567.30 357.94 570.40 359.33 C 570.45 357.83 570.44 356.34 570.37 354.85 C 569.24 353.25 567.76 351.91 566.71 350.26 C 566.03 347.96 566.48 345.52 566.47 343.17 C 565.44 341.78 564.08 340.55 563.49 338.90 C 562.95 336.81 564.23 334.95 565.10 333.18 C 562.68 331.06 560.12 328.48 560.26 325.01 C 559.67 322.20 562.41 320.80 564.19 319.30 C 563.73 317.05 563.98 314.79 564.54 312.59 C 557.53 310.75 549.71 307.35 547.00 300.06 C 545.69 295.74 545.73 290.44 548.97 286.94 C 552.74 282.50 558.88 281.17 564.46 281.32 C 562.83 263.58 563.61 245.75 563.57 227.97 C 563.41 221.29 564.52 214.65 564.29 207.97 C 564.11 198.30 564.85 188.65 565.82 179.03 C 567.38 161.65 570.99 144.21 578.50 128.38 C 584.77 115.60 594.14 103.97 606.47 96.60 M 578.04 136.04 C 570.11 156.38 568.11 178.42 567.04 200.05 C 565.86 221.67 566.34 243.34 566.31 264.99 C 566.66 272.29 565.71 280.09 569.22 286.81 C 571.21 290.50 568.77 294.41 567.95 298.06 C 571.77 299.60 575.92 299.75 579.98 299.67 C 584.77 299.46 589.76 299.30 594.09 297.00 C 592.67 294.92 591.25 292.84 590.15 290.58 C 591.45 287.84 593.42 285.39 594.22 282.44 C 595.47 276.74 595.34 270.87 595.61 265.07 C 596.57 222.05 597.30 178.93 602.33 136.14 C 604.21 122.68 605.91 108.83 612.06 96.52 C 596.19 104.70 584.38 119.52 578.04 136.04 M 864.91 122.34 C 853.62 124.75 842.71 129.43 833.44 136.36 C 825.17 142.52 818.88 152.35 819.51 162.97 C 819.82 173.87 826.62 183.05 833.79 190.69 C 831.30 194.38 828.58 198.26 828.37 202.87 C 827.80 209.52 831.57 215.70 836.56 219.81 C 837.18 216.83 837.40 213.73 838.51 210.88 C 840.16 206.66 845.23 204.26 849.56 205.59 C 857.37 207.57 864.57 211.38 872.36 213.46 C 889.16 217.75 906.75 217.17 923.84 215.24 C 934.93 214.06 945.79 211.00 956.98 210.74 C 963.92 210.48 971.02 210.46 977.78 212.30 C 984.67 214.22 990.87 219.62 992.38 226.80 C 994.08 234.28 990.18 241.84 984.70 246.74 C 978.73 251.75 970.81 253.23 963.54 255.39 C 952.68 258.73 941.20 258.25 929.97 258.26 C 919.98 257.80 909.96 257.97 899.98 258.55 C 891.90 258.97 884.09 261.43 876.01 261.71 C 855.48 262.24 834.96 260.98 814.44 260.82 C 817.95 264.00 821.88 266.63 825.82 269.23 C 819.66 272.55 812.51 271.90 805.78 272.09 C 804.46 276.98 804.13 282.16 805.18 287.13 C 802.49 286.36 799.77 285.71 797.16 284.72 C 798.08 282.78 800.62 284.33 802.28 283.91 C 803.38 279.21 803.06 274.31 803.22 269.52 C 809.58 270.99 816.18 270.57 822.54 269.30 C 819.17 266.70 815.48 264.52 812.42 261.55 C 810.83 260.12 809.28 258.32 807.03 258.04 C 802.22 257.25 797.40 256.18 793.03 253.93 C 788.77 251.73 783.98 249.44 781.88 244.84 C 786.37 246.90 789.60 250.94 794.20 252.85 C 799.32 255.45 805.13 255.98 810.79 255.79 C 808.30 252.55 805.71 249.19 804.90 245.10 C 803.83 241.60 804.45 237.25 801.40 234.66 C 798.14 231.81 794.31 229.70 791.06 226.84 C 788.46 224.77 786.43 222.10 783.85 220.03 C 782.54 222.90 781.39 225.84 779.94 228.65 C 776.95 226.61 774.35 224.07 771.50 221.85 C 769.29 225.19 767.38 228.71 765.64 232.31 C 762.60 227.95 758.88 224.14 755.01 220.52 C 755.12 220.22 755.34 219.61 755.45 219.31 C 759.03 222.05 762.25 225.23 765.61 228.24 C 768.19 224.24 768.87 219.46 767.71 214.86 C 770.77 219.11 774.82 222.45 778.95 225.62 C 780.77 222.30 782.60 218.99 784.71 215.84 C 786.43 218.81 788.30 221.77 790.99 223.99 C 797.65 229.78 804.80 235.15 812.74 239.05 C 811.86 233.54 808.53 228.72 808.16 223.10 C 807.80 220.89 808.11 218.29 806.37 216.58 C 803.02 212.98 798.39 210.66 795.73 206.41 C 792.00 200.78 793.29 193.27 789.07 187.86 C 788.82 194.89 789.45 202.12 786.62 208.77 C 786.37 208.73 785.87 208.65 785.62 208.61 C 784.31 201.75 776.90 199.53 772.82 194.74 C 778.26 195.72 781.66 201.81 787.01 202.09 C 788.43 195.40 786.31 188.64 785.17 182.07 C 788.25 184.61 791.36 187.44 792.74 191.31 C 794.82 196.32 794.55 202.37 798.33 206.60 C 802.34 210.91 807.03 214.56 811.84 217.94 C 812.34 210.66 812.77 203.37 812.97 196.07 C 813.04 188.39 813.71 180.57 811.97 173.02 C 810.99 168.32 807.79 164.62 804.87 160.99 C 808.80 156.85 813.08 152.83 815.69 147.66 C 817.75 143.64 818.42 139.11 819.13 134.71 C 815.87 137.49 813.07 141.09 809.00 142.74 C 804.60 144.02 799.07 143.94 795.73 140.36 C 790.44 135.03 783.52 131.47 776.23 129.81 C 774.99 134.76 772.61 139.28 770.03 143.64 C 765.50 139.59 761.43 134.78 755.84 132.15 C 752.48 130.52 748.74 129.92 745.04 129.85 C 744.00 134.13 745.71 139.81 741.89 142.91 C 737.81 144.14 734.71 140.25 731.58 138.30 C 724.08 132.76 714.28 135.55 705.75 136.13 C 706.55 138.33 707.66 140.49 707.80 142.87 C 706.23 147.15 702.69 150.63 698.62 152.61 C 692.16 155.75 684.66 153.78 678.00 156.16 C 670.51 158.98 662.38 158.71 654.68 160.60 C 654.69 156.90 655.81 152.78 653.61 149.46 C 650.42 144.40 643.13 143.62 638.05 146.00 C 632.70 148.71 631.54 155.59 632.92 160.93 C 634.07 165.06 634.95 169.34 636.76 173.25 C 642.02 181.50 650.21 187.27 656.16 194.96 C 658.70 198.42 662.65 200.31 666.32 202.32 C 665.97 199.20 665.71 196.06 665.94 192.92 C 669.73 196.05 673.16 199.69 677.62 201.93 C 678.57 198.40 679.61 194.88 681.25 191.59 C 686.94 204.29 699.29 212.62 704.20 225.73 C 704.84 227.64 705.78 231.13 702.99 231.69 C 699.25 232.06 695.57 230.90 691.89 230.41 C 687.30 229.57 682.62 229.98 677.99 229.87 C 679.37 227.56 681.13 225.47 682.18 222.97 C 680.94 222.20 679.44 222.16 678.05 222.08 C 669.24 221.92 660.55 220.16 652.03 218.07 C 648.29 217.21 644.80 215.34 640.95 214.99 C 638.50 215.38 637.66 217.98 636.92 219.99 C 635.07 225.58 633.34 231.22 631.52 236.83 C 639.04 236.43 646.43 235.06 653.78 233.54 C 652.41 236.96 650.66 240.21 648.87 243.43 C 654.12 242.70 659.01 240.67 663.98 238.98 C 667.23 240.92 668.08 245.71 672.04 246.66 C 674.20 244.21 673.99 240.67 675.50 237.87 C 680.24 242.21 680.76 249.99 686.86 252.94 C 688.30 249.06 690.81 245.07 695.03 243.89 C 699.57 242.44 703.13 248.48 701.25 252.28 C 699.21 256.68 694.88 259.34 691.02 261.99 C 684.10 266.27 677.10 270.53 671.01 275.98 C 657.85 287.27 648.45 302.92 645.11 319.97 C 642.34 331.99 643.93 344.82 649.16 355.95 C 656.16 371.23 668.78 383.32 683.05 391.86 C 689.11 395.40 695.24 399.10 702.14 400.74 C 700.98 395.78 699.52 390.82 699.42 385.70 L 700.13 385.80 C 701.39 386.73 701.28 388.52 701.71 389.90 C 703.10 397.17 705.42 404.22 707.73 411.24 C 711.37 422.15 715.99 433.33 714.90 445.07 C 714.18 452.98 707.48 459.06 700.18 461.22 C 691.91 462.99 683.36 461.13 675.07 462.51 C 668.56 464.44 665.33 471.22 663.05 477.06 C 662.64 478.96 661.14 481.52 663.02 483.05 C 667.24 482.47 670.78 479.90 674.45 477.94 C 676.23 479.95 678.02 482.43 680.90 482.83 C 686.12 483.87 690.73 480.73 694.70 477.79 C 697.56 480.37 700.83 482.93 704.89 482.98 C 709.49 483.46 713.28 480.60 717.08 478.53 C 720.43 479.41 723.29 481.85 726.86 482.23 C 729.89 482.62 733.90 484.03 736.13 481.12 C 739.03 477.47 742.35 473.07 741.24 468.11 C 740.52 463.31 739.98 458.48 739.83 453.62 C 745.77 448.90 754.19 448.97 760.02 444.02 C 763.60 440.80 766.65 437.01 769.16 432.90 C 762.83 430.88 755.09 431.97 750.02 426.99 C 746.93 424.09 747.47 419.40 748.77 415.79 C 751.11 409.58 755.35 404.37 758.70 398.71 C 767.36 384.49 775.11 369.41 778.83 353.08 C 780.41 346.98 779.69 340.62 780.67 334.44 C 783.30 337.69 782.50 342.18 782.06 346.00 C 779.57 362.42 772.78 377.82 764.69 392.21 C 766.84 391.68 769.00 391.13 771.10 390.38 C 790.87 382.85 809.71 372.93 829.93 366.54 C 846.41 361.22 864.24 360.77 881.22 363.76 C 893.82 366.06 903.08 375.53 911.72 384.24 C 923.09 395.05 937.35 401.95 950.18 410.76 C 955.33 414.36 960.73 418.61 962.51 424.94 C 964.35 431.78 964.25 438.95 964.79 445.97 C 964.80 450.06 965.13 454.87 962.12 458.09 C 958.42 461.21 953.35 461.61 948.85 462.82 C 941.24 464.62 933.24 467.82 928.63 474.49 C 927.14 476.95 925.45 479.89 926.30 482.86 C 931.10 482.96 934.84 479.14 938.86 476.98 C 940.73 479.37 942.51 482.50 945.87 482.88 C 950.89 483.71 954.78 479.90 958.54 477.23 C 962.67 479.80 966.77 483.88 972.12 482.71 C 975.57 482.41 977.67 479.50 979.47 476.89 C 984.44 480.62 990.48 483.49 996.86 482.66 C 998.00 482.47 999.94 481.62 999.37 480.15 C 998.30 475.33 994.60 471.73 992.39 467.44 C 988.78 461.61 987.15 453.80 990.58 447.54 C 995.03 440.68 1003.73 437.96 1007.77 430.71 C 1008.88 428.76 1010.13 425.65 1008.00 423.96 C 1005.04 422.79 1001.56 423.09 998.95 421.05 C 993.49 417.08 990.91 410.38 989.34 404.04 C 986.57 392.02 989.42 379.62 992.92 368.06 C 997.66 352.45 1005.32 337.51 1006.78 321.06 C 1007.22 312.09 1007.62 303.03 1006.42 294.11 C 1003.70 282.27 996.59 272.05 989.11 262.72 C 993.94 258.73 999.15 255.06 1002.94 250.00 C 1007.89 243.56 1010.48 235.13 1009.12 227.05 C 1007.97 218.87 1003.05 211.54 996.50 206.66 C 989.64 201.80 981.55 198.00 972.99 198.00 C 959.98 197.55 946.94 198.52 934.10 200.59 C 924.48 201.95 914.76 202.58 905.04 202.56 C 897.66 202.83 889.77 201.96 883.92 197.02 C 880.51 194.27 881.91 188.97 878.77 186.10 C 873.25 187.84 869.32 192.61 866.16 197.22 C 862.16 193.16 858.88 187.35 860.27 181.49 C 862.36 175.56 869.03 173.90 873.98 171.13 C 868.28 165.80 859.22 165.93 852.76 169.80 C 849.04 171.74 847.03 175.58 844.36 178.64 C 839.09 174.62 833.49 169.17 833.96 161.96 C 834.36 152.39 845.11 146.13 853.94 147.82 C 857.68 148.43 859.00 152.40 860.93 155.12 C 866.16 151.08 865.79 144.03 865.24 138.14 C 865.48 137.93 865.95 137.53 866.18 137.32 C 870.97 136.51 875.46 139.03 879.44 141.38 C 884.45 144.43 889.42 148.80 890.16 154.98 C 891.78 162.67 887.97 169.92 883.82 176.09 C 890.37 174.98 897.11 172.85 901.77 167.85 C 906.00 163.85 906.90 157.62 906.47 152.07 C 906.17 147.80 903.66 144.19 902.42 140.20 C 911.97 142.00 920.81 149.24 922.51 159.09 C 922.30 165.80 918.61 171.64 915.16 177.15 C 920.19 176.99 925.08 175.04 929.06 172.00 C 932.81 168.67 934.13 163.57 935.95 159.08 C 940.88 169.59 951.48 176.18 962.58 178.48 C 957.58 172.95 954.85 165.62 954.25 158.25 C 966.78 164.57 975.90 175.79 987.55 183.42 C 994.23 187.78 1002.54 189.78 1010.44 188.33 C 1015.48 187.34 1020.28 183.98 1022.03 179.01 C 1024.29 173.24 1021.82 165.64 1016.14 162.88 C 1011.79 160.75 1006.35 163.11 1004.18 167.24 C 1002.53 169.74 1003.63 172.81 1003.74 175.55 C 1001.02 176.03 998.22 175.74 995.85 174.26 C 987.75 169.96 980.86 163.82 973.63 158.27 C 963.46 150.23 952.64 143.01 941.29 136.75 C 928.78 129.98 915.49 123.80 901.17 122.35 C 889.14 121.09 876.89 120.24 864.91 122.34 M 634.40 204.71 C 636.81 209.51 641.71 212.55 646.59 214.43 C 659.04 218.72 672.21 220.39 685.29 221.24 C 683.94 223.62 682.45 225.91 680.89 228.16 C 688.48 228.11 695.90 229.52 703.37 230.54 C 703.00 226.34 701.31 222.37 698.94 218.92 C 698.09 217.63 696.53 217.14 695.06 217.13 C 681.58 216.70 668.61 212.38 656.11 207.61 C 649.74 205.25 643.71 201.83 637.05 200.33 C 634.39 199.35 633.18 202.79 634.40 204.71 M 549.15 292.03 C 547.61 297.34 550.79 302.87 555.14 305.81 C 561.24 310.02 568.90 310.82 576.10 311.37 C 584.56 311.69 593.35 311.47 601.32 308.28 C 607.07 305.97 612.41 300.55 611.95 293.96 C 611.36 287.34 604.16 283.46 598.06 283.89 C 594.24 284.13 591.46 288.29 592.57 291.92 C 592.80 293.81 594.90 294.50 596.12 295.67 C 595.63 297.46 594.58 299.06 592.70 299.57 C 585.51 302.21 577.47 302.34 570.07 300.53 C 567.29 300.04 565.26 298.00 564.43 295.36 C 569.66 294.03 569.51 286.06 564.53 284.55 C 558.64 282.94 551.06 285.87 549.15 292.03 M 585.16 313.41 C 587.55 315.45 590.02 317.40 592.54 319.30 C 596.25 317.09 600.06 314.96 604.22 313.68 C 605.48 318.63 600.89 322.13 600.18 326.75 C 596.56 329.35 591.91 332.15 592.65 337.38 C 598.64 335.52 602.57 329.47 602.57 323.31 C 602.94 323.49 603.67 323.86 604.03 324.04 C 605.21 328.80 600.94 332.27 600.22 336.71 C 596.61 339.34 591.90 342.13 592.65 347.38 C 596.52 346.14 599.75 343.30 601.63 339.73 C 602.31 337.57 602.08 335.24 602.42 333.02 C 604.20 334.47 604.77 336.74 604.03 338.91 C 603.11 341.90 604.14 344.94 604.11 347.98 C 603.97 350.30 601.96 351.82 600.64 353.52 C 603.04 356.04 606.84 358.04 606.98 361.94 C 607.71 368.95 606.82 376.09 608.06 383.05 C 608.39 385.10 610.04 386.51 611.24 388.08 C 612.53 384.93 615.18 381.60 618.97 382.00 C 621.23 382.87 623.01 384.60 624.84 386.15 C 630.34 391.36 636.15 396.23 641.95 401.09 C 645.52 404.24 650.81 404.85 655.12 402.92 C 662.24 399.93 668.21 394.62 673.19 388.81 C 665.35 380.27 656.26 372.70 650.41 362.52 C 647.82 358.36 646.68 353.33 643.22 349.73 C 630.48 335.81 616.29 323.32 602.70 310.26 C 596.95 311.77 591.11 313.07 585.16 313.41 M 567.41 314.58 C 565.95 315.55 566.14 318.37 567.85 319.10 C 572.72 322.03 578.44 323.22 583.90 324.61 C 586.63 325.19 591.31 326.02 591.61 321.98 C 590.08 317.85 585.10 316.97 581.39 315.71 C 576.88 314.73 571.90 312.86 567.41 314.58 M 592.63 327.14 C 597.30 325.22 601.22 321.27 602.88 316.47 C 597.67 317.22 592.26 321.39 592.63 327.14 M 565.12 322.30 C 561.33 323.05 563.15 328.11 565.26 329.85 C 569.22 332.74 574.52 332.18 579.05 333.62 C 582.84 334.27 587.56 336.74 590.95 333.90 C 593.21 330.30 588.27 328.41 585.64 327.45 C 578.96 325.36 572.28 321.46 565.12 322.30 M 566.70 339.46 C 569.80 343.13 575.21 342.40 579.40 343.82 C 583.61 345.14 589.55 346.89 592.15 342.01 C 590.84 340.57 589.61 338.94 587.76 338.18 C 581.80 335.43 575.28 333.77 568.69 333.89 C 567.40 335.43 565.22 337.30 566.70 339.46 M 568.89 344.68 C 569.00 346.35 568.84 348.09 569.34 349.73 C 570.41 351.36 572.31 352.17 574.02 352.96 C 579.42 355.22 585.76 356.53 591.29 353.93 C 590.94 352.13 590.44 350.19 588.72 349.21 C 582.96 345.34 575.69 344.40 568.89 344.68 M 593.33 355.84 C 596.72 354.31 599.83 351.98 601.80 348.79 C 602.06 347.85 603.88 346.08 601.96 345.70 C 597.70 347.07 592.59 350.79 593.33 355.84 M 573.27 355.31 C 572.73 357.32 573.47 360.04 571.73 361.56 C 568.11 362.77 564.71 358.27 561.24 360.29 C 559.14 361.19 559.45 364.09 560.06 365.88 C 563.28 370.06 569.88 366.26 573.17 369.99 C 572.45 374.21 568.87 377.01 566.32 380.16 C 571.17 385.20 572.95 392.81 570.47 399.40 C 569.24 402.08 567.00 404.08 565.05 406.22 C 562.99 404.17 561.30 400.87 558.01 400.88 C 553.90 401.20 553.04 407.58 556.44 409.56 C 559.92 413.24 565.02 413.87 569.46 415.75 C 567.72 419.16 565.03 421.91 561.99 424.18 C 565.59 424.69 569.18 425.33 572.69 426.30 C 573.38 429.68 573.72 433.45 576.26 436.06 C 577.45 437.25 579.42 436.61 580.61 435.73 C 583.37 433.43 583.11 429.49 584.45 426.43 C 587.93 424.65 592.01 424.82 595.80 424.17 C 592.57 421.57 588.43 419.29 587.55 414.87 C 593.16 414.23 599.36 412.58 602.75 407.71 C 604.72 404.84 602.35 400.76 598.95 400.83 C 595.97 400.63 594.87 403.88 593.00 405.55 C 586.14 403.31 583.72 394.39 586.17 388.07 C 586.75 384.98 589.81 383.02 590.38 380.04 C 587.20 376.23 583.41 372.34 583.65 366.96 C 587.48 367.27 591.15 368.50 594.97 368.89 C 597.00 368.12 599.82 365.53 597.68 363.44 C 594.62 359.75 589.26 361.47 585.14 360.87 C 582.76 356.56 577.71 355.81 573.27 355.31 M 590.35 357.09 C 590.38 360.45 593.35 355.63 590.35 357.09 M 862.00 362.86 C 861.69 369.81 862.37 377.02 865.76 383.24 C 871.54 393.50 879.43 402.32 886.09 411.99 C 889.52 416.95 891.26 422.91 891.59 428.90 C 892.10 438.62 892.16 448.35 892.55 458.07 C 889.43 460.80 886.37 464.21 882.07 464.85 C 874.95 466.04 867.48 465.00 860.57 467.39 C 854.55 470.13 850.38 476.59 850.48 483.25 C 855.91 483.00 860.24 479.56 864.73 476.93 C 867.65 479.54 870.74 482.81 874.96 482.87 C 879.14 482.50 882.11 479.14 885.34 476.81 C 886.69 478.64 887.59 481.28 890.04 481.92 C 893.09 482.78 896.42 483.12 899.53 482.32 C 901.51 480.97 902.76 478.84 904.26 477.01 C 908.51 479.59 912.84 482.65 917.95 483.09 C 921.88 483.20 924.65 479.64 925.05 476.00 C 926.88 467.89 920.77 460.49 922.23 452.42 C 924.81 442.80 933.59 436.78 938.19 428.25 C 938.62 427.06 939.46 425.56 938.66 424.37 C 934.39 422.44 929.11 424.85 925.14 421.93 C 922.37 419.53 920.17 415.99 920.33 412.23 C 921.17 406.95 925.11 403.08 928.15 398.96 C 923.98 396.13 919.79 393.33 915.85 390.18 C 907.91 384.18 901.95 375.82 893.27 370.76 C 884.01 364.80 872.78 363.29 862.00 362.86 M 923.30 412.07 C 922.77 415.67 925.17 419.03 928.26 420.61 C 931.87 421.87 935.81 420.83 939.51 421.64 C 942.13 423.01 942.15 426.59 940.97 428.95 C 936.53 437.55 927.79 443.47 924.87 452.93 C 924.10 458.92 927.20 464.50 928.05 470.34 C 933.77 464.83 941.28 461.68 948.96 460.05 C 952.89 458.90 957.48 458.58 960.54 455.59 C 962.73 451.45 962.36 446.52 961.89 442.02 C 961.21 435.96 961.62 429.62 959.18 423.90 C 957.78 420.49 955.03 417.88 952.14 415.71 C 945.03 410.37 937.42 405.75 929.87 401.08 C 927.32 404.47 923.85 407.66 923.30 412.07 Z" />
<path fill="#00534e" opacity="1.00" d=" M 790.89 156.20 C 796.07 154.51 800.38 150.96 805.53 149.16 C 802.82 153.13 798.20 155.04 793.93 156.82 C 786.02 160.05 777.42 160.43 769.06 161.60 C 767.55 161.94 766.07 161.53 764.73 160.89 C 765.03 158.77 767.35 159.24 768.91 159.01 C 776.28 158.68 783.86 158.83 790.89 156.20 Z" />
<path fill="#00534e" opacity="1.00" d=" M 768.64 162.60 C 772.21 164.45 775.48 166.92 778.08 170.01 C 777.69 170.48 776.93 171.42 776.55 171.89 C 776.27 171.36 775.72 170.30 775.44 169.77 C 772.50 168.12 770.49 165.33 768.64 162.60 Z" />
<path fill="#00534e" opacity="1.00" d=" M 703.86 166.95 C 705.41 165.15 707.33 163.04 709.98 163.51 C 721.53 164.52 730.42 173.90 742.04 174.62 C 743.75 174.80 745.46 174.91 747.20 175.03 C 744.84 171.28 742.32 167.61 740.51 163.55 C 743.91 165.61 747.04 168.24 750.92 169.38 C 757.80 171.49 765.11 171.00 772.20 170.85 C 773.58 170.59 774.83 171.31 776.02 171.91 C 766.13 173.69 756.14 172.59 746.39 170.60 C 747.09 173.33 751.20 173.95 751.03 176.81 C 745.07 177.54 739.10 176.17 733.46 174.36 C 725.78 171.89 719.16 166.53 711.05 165.38 C 706.82 164.73 702.74 168.62 703.13 172.84 C 703.72 175.57 706.18 177.89 709.02 178.02 C 711.57 178.18 713.78 176.25 714.71 174.00 C 713.61 171.86 712.08 169.99 710.78 167.99 C 712.37 168.67 714.08 169.20 715.49 170.27 C 716.56 173.37 716.22 177.62 712.87 179.17 C 708.49 180.70 703.32 178.33 701.70 173.97 C 700.98 171.42 702.20 168.84 703.86 166.95 Z" />
<path fill="#00534e" opacity="1.00" d=" M 799.79 180.51 C 801.30 181.08 802.69 181.94 803.77 183.17 C 806.51 186.11 809.56 188.80 811.90 192.11 C 807.12 189.20 802.37 185.61 799.79 180.51 Z" />
<path fill="#00534e" opacity="1.00" d=" M 770.64 189.63 C 774.41 195.39 770.06 202.18 767.27 207.42 C 765.06 205.03 763.96 200.26 760.37 200.01 C 758.60 202.79 757.45 205.90 755.74 208.71 C 754.13 207.27 752.85 205.54 751.62 203.79 C 750.86 207.32 750.23 210.88 749.67 214.44 C 745.62 211.58 741.68 208.57 737.74 205.57 C 735.05 208.28 732.93 211.45 731.36 214.92 C 727.41 212.16 723.41 209.28 720.35 205.52 C 718.74 203.66 719.01 201.10 718.96 198.83 C 720.39 204.89 725.51 208.60 730.25 212.06 C 732.98 209.07 735.69 205.94 737.01 202.04 C 740.77 204.71 744.12 207.95 748.02 210.44 C 749.90 205.63 747.94 200.70 747.09 195.91 C 750.14 198.64 752.29 202.21 755.43 204.85 C 755.72 204.85 756.31 204.85 756.60 204.85 C 757.94 201.08 758.00 197.03 758.07 193.08 C 761.00 196.17 763.55 199.70 767.03 202.23 C 768.59 202.58 768.75 200.45 769.33 199.48 C 770.22 196.27 770.10 192.90 770.64 189.63 Z" />
<path fill="#00534e" opacity="1.00" d=" M 725.14 223.80 C 730.23 227.06 732.34 234.32 738.94 235.44 C 740.48 232.17 741.45 228.68 742.85 225.36 C 748.55 229.40 753.58 234.63 756.50 241.05 C 757.04 238.57 757.89 236.14 759.53 234.16 C 763.41 241.37 770.93 245.08 777.58 249.24 C 778.52 246.29 779.33 243.19 781.43 240.80 C 781.79 244.78 780.55 248.62 778.96 252.19 C 775.44 250.21 772.14 247.90 768.83 245.60 C 768.31 251.49 770.30 258.73 765.95 263.51 C 762.46 256.99 756.00 251.82 748.96 249.86 C 748.07 254.27 747.10 258.74 744.65 262.59 C 743.25 260.44 742.24 258.09 741.15 255.79 C 739.35 252.07 736.54 248.98 734.00 245.77 C 730.65 250.90 727.03 256.51 720.96 258.63 C 720.69 254.78 722.22 250.44 719.82 247.02 C 717.32 251.02 714.47 254.96 710.38 257.47 C 708.66 252.38 708.00 247.02 707.28 241.72 C 709.39 245.89 710.82 250.35 712.39 254.75 C 715.42 250.76 717.76 246.34 719.83 241.79 C 722.30 246.12 722.62 251.18 723.28 256.02 C 727.16 252.45 730.28 248.18 733.65 244.15 C 738.77 247.72 741.69 253.28 745.17 258.28 C 746.03 254.16 746.57 249.99 747.18 245.83 C 754.38 249.18 760.15 254.73 766.89 258.79 C 767.33 254.58 768.03 250.20 766.82 246.06 C 765.50 242.76 762.36 240.78 759.63 238.74 C 758.24 240.57 756.93 242.63 754.67 243.47 C 753.53 237.54 749.27 233.00 744.79 229.26 C 742.26 232.21 740.28 235.56 737.94 238.65 C 732.77 234.66 727.71 229.93 725.14 223.80 Z" />
<path fill="#00534e" opacity="1.00" d=" M 694.89 269.91 C 696.47 266.52 697.19 261.97 701.11 260.46 C 697.50 265.76 696.35 272.15 693.39 277.78 L 695.41 277.41 C 695.29 277.90 695.06 278.87 694.95 279.35 C 692.70 279.56 690.46 279.83 688.23 280.00 C 690.68 276.80 693.54 273.80 694.89 269.91 Z" />
<path fill="#00534e" opacity="1.00" d=" M 748.36 281.86 C 751.95 275.63 751.48 267.25 757.21 262.28 C 757.51 262.49 758.12 262.91 758.43 263.13 C 760.13 272.21 764.50 280.46 768.11 288.89 C 773.16 285.97 777.42 281.83 780.86 277.14 C 785.95 279.88 791.35 282.06 797.03 283.23 C 791.68 285.84 786.63 281.07 781.43 280.24 C 776.90 285.11 771.57 289.17 765.73 292.34 C 764.60 282.81 759.93 274.29 756.38 265.52 C 753.86 269.54 753.62 274.42 751.59 278.64 C 750.34 281.33 748.63 283.76 747.01 286.22 C 744.81 281.87 742.52 277.44 738.82 274.15 C 736.30 280.44 732.12 285.99 726.66 290.01 C 725.42 285.96 725.76 281.61 724.29 277.61 C 722.19 282.04 719.72 286.83 715.06 289.04 C 712.32 290.16 710.16 292.39 707.31 293.25 C 707.80 287.64 706.82 281.91 704.10 276.95 C 701.74 276.93 699.47 277.66 697.26 278.36 C 696.63 277.95 696.00 277.53 695.39 277.12 C 699.31 275.93 702.97 274.09 706.65 272.31 C 706.75 278.15 708.41 283.78 710.13 289.32 C 713.52 287.92 717.07 286.32 719.15 283.12 C 722.05 279.56 722.64 274.90 723.50 270.56 C 726.34 275.33 727.11 280.97 729.29 286.05 C 734.09 281.23 736.19 274.73 739.32 268.88 C 741.33 273.83 744.17 278.45 748.36 281.86 Z" />
<path fill="#00534e" opacity="1.00" d=" M 699.91 360.86 C 700.29 358.61 701.43 356.62 702.79 354.83 C 702.64 359.95 700.78 364.81 700.30 369.89 C 699.67 374.60 700.17 379.35 700.39 384.08 L 699.84 384.21 C 699.62 384.05 699.19 383.73 698.97 383.57 C 698.58 376.00 698.35 368.31 699.91 360.86 Z" />
<path fill="#00534e" opacity="1.00" d=" M 500.51 446.41 C 501.02 446.33 502.02 446.18 502.52 446.10 C 501.94 449.26 501.64 452.47 501.43 455.68 C 500.56 466.35 496.52 476.42 494.99 486.97 C 494.26 495.97 494.35 505.37 490.63 513.78 C 485.68 524.66 470.96 528.58 460.62 523.38 C 455.50 520.92 449.72 520.73 444.15 520.70 C 444.32 516.74 445.23 512.48 443.20 508.83 C 440.41 502.94 437.80 495.93 440.51 489.55 C 441.95 485.63 444.90 482.47 448.49 480.41 C 458.01 474.59 469.50 473.97 479.63 469.61 C 490.09 466.10 496.25 455.95 500.51 446.41 M 484.63 469.57 C 474.68 474.54 463.40 475.85 453.23 480.25 C 448.99 482.21 444.38 484.68 442.64 489.32 C 439.97 496.08 442.36 503.47 445.58 509.59 C 447.46 512.42 446.37 515.85 446.22 519.00 C 450.11 519.21 454.11 518.96 457.86 520.21 C 460.67 521.11 463.25 522.65 466.14 523.35 C 470.26 524.07 474.55 523.57 478.51 522.26 C 484.54 520.20 488.94 514.62 490.46 508.54 C 493.56 498.27 491.92 487.26 495.02 476.99 C 496.72 468.62 499.61 460.46 500.02 451.86 C 496.29 458.75 491.80 465.84 484.63 469.57 Z" />
<path fill="#00534e" opacity="1.00" d=" M 1063.53 446.26 C 1064.00 446.31 1064.93 446.40 1065.40 446.44 C 1068.74 453.38 1072.81 460.16 1078.48 465.45 C 1083.79 469.69 1090.62 471.15 1096.98 473.14 C 1104.80 475.61 1113.34 476.91 1119.97 482.11 C 1124.75 485.74 1127.44 492.07 1126.44 498.03 C 1125.90 503.00 1123.13 507.29 1121.65 511.97 C 1121.28 514.87 1121.68 517.80 1121.84 520.71 C 1116.25 520.67 1110.47 520.94 1105.34 523.40 C 1097.41 527.37 1087.34 525.95 1080.51 520.42 C 1077.21 517.83 1075.45 513.86 1074.03 510.04 C 1071.63 502.59 1071.58 494.68 1071.03 486.95 C 1069.50 475.18 1064.72 463.98 1064.28 452.05 C 1064.11 450.10 1063.83 448.18 1063.53 446.26 M 1066.03 451.78 C 1066.29 460.64 1069.33 469.02 1071.26 477.59 C 1073.80 486.88 1072.70 496.68 1075.02 506.03 C 1076.01 513.10 1080.62 519.96 1087.56 522.29 C 1093.01 524.07 1099.26 524.44 1104.46 521.67 C 1109.17 519.16 1114.57 519.08 1119.77 519.00 C 1119.62 515.86 1118.53 512.43 1120.41 509.60 C 1123.52 503.69 1125.87 496.64 1123.60 490.04 C 1122.07 485.32 1117.55 482.52 1113.32 480.50 C 1102.60 475.67 1090.50 474.58 1080.14 468.88 C 1073.81 464.81 1069.58 458.26 1066.03 451.78 Z" />
</g>
<g id="#eb7400ff">
<path fill="#eb7400" opacity="1.00" d=" M 211.00 54.00 C 263.00 54.01 314.99 53.97 366.99 54.02 C 367.00 216.68 367.01 379.34 366.98 541.99 C 314.99 542.01 263.00 542.00 211.00 542.00 C 211.00 379.33 211.00 216.67 211.00 54.00 Z" />
</g>
<g id="#8d153aff">
<path fill="#8d153a" opacity="1.00" d=" M 423.00 54.00 C 663.00 54.00 903.00 54.00 1143.00 54.00 C 1143.00 216.67 1143.00 379.33 1143.00 542.00 C 903.00 542.00 663.00 542.00 423.00 542.00 C 423.00 379.33 423.00 216.67 423.00 54.00 M 454.05 74.64 C 450.78 75.18 447.46 75.28 444.15 75.30 C 444.26 76.87 444.37 78.43 444.45 80.00 C 445.26 85.78 440.88 90.41 439.94 95.89 C 437.94 102.94 441.08 110.93 447.28 114.80 C 459.23 122.79 474.87 122.00 486.77 130.11 C 493.05 135.24 497.37 142.34 500.57 149.69 C 501.05 149.71 501.99 149.74 502.47 149.75 C 501.56 144.86 501.63 139.86 500.74 134.96 C 498.93 123.94 494.45 113.35 494.55 102.04 C 493.85 94.72 493.44 86.95 489.65 80.43 C 485.57 73.26 476.84 69.94 468.89 70.38 C 463.60 70.45 459.21 73.98 454.05 74.64 M 1076.79 79.72 C 1072.60 86.34 1072.13 94.46 1071.44 102.05 C 1071.53 113.36 1067.06 123.97 1065.26 135.00 C 1064.33 139.93 1064.49 144.98 1063.46 149.89 C 1063.96 149.82 1064.95 149.68 1065.45 149.61 C 1069.75 140.07 1075.89 129.91 1086.37 126.39 C 1093.87 123.26 1101.91 121.88 1109.60 119.32 C 1115.79 116.98 1122.57 113.67 1125.19 107.14 C 1128.35 100.64 1125.72 93.26 1122.81 87.19 C 1120.75 83.53 1121.67 79.26 1121.84 75.29 C 1117.79 75.29 1113.68 75.22 1109.74 74.20 C 1105.49 73.02 1101.62 70.42 1097.10 70.38 C 1089.41 70.00 1081.01 72.98 1076.79 79.72 M 606.47 96.60 C 594.14 103.97 584.77 115.60 578.50 128.38 C 570.99 144.21 567.38 161.65 565.82 179.03 C 564.85 188.65 564.11 198.30 564.29 207.97 C 564.52 214.65 563.41 221.29 563.57 227.97 C 563.61 245.75 562.83 263.58 564.46 281.32 C 558.88 281.17 552.74 282.50 548.97 286.94 C 545.73 290.44 545.69 295.74 547.00 300.06 C 549.71 307.35 557.53 310.75 564.54 312.59 C 563.98 314.79 563.73 317.05 564.19 319.30 C 562.41 320.80 559.67 322.20 560.26 325.01 C 560.12 328.48 562.68 331.06 565.10 333.18 C 564.23 334.95 562.95 336.81 563.49 338.90 C 564.08 340.55 565.44 341.78 566.47 343.17 C 566.48 345.52 566.03 347.96 566.71 350.26 C 567.76 351.91 569.24 353.25 570.37 354.85 C 570.44 356.34 570.45 357.83 570.40 359.33 C 567.30 357.94 563.81 356.40 560.38 357.59 C 556.60 359.22 555.40 364.76 558.27 367.77 C 561.16 371.35 566.17 370.62 570.24 370.95 C 568.22 374.25 565.70 377.21 562.98 379.96 C 565.55 383.82 568.93 387.67 568.76 392.61 C 569.07 396.08 567.54 399.29 565.48 401.99 C 563.28 400.26 561.08 397.77 557.99 398.21 C 552.91 397.85 550.06 404.69 552.39 408.68 C 555.18 413.49 560.55 416.08 565.78 417.32 C 562.29 420.40 558.44 423.02 554.77 425.87 C 559.93 426.64 565.14 427.12 570.21 428.44 C 570.98 433.14 573.20 439.70 579.03 439.44 C 584.31 438.53 585.80 432.72 586.62 428.24 C 591.80 427.24 597.07 426.79 602.26 425.80 C 598.63 422.96 594.94 420.21 591.49 417.16 C 596.95 415.64 603.04 413.30 605.71 407.90 C 608.28 402.95 603.00 397.38 597.91 398.24 C 595.12 397.94 593.50 400.51 591.71 402.15 C 588.65 398.83 586.55 394.03 588.39 389.58 C 589.38 385.87 593.53 383.15 592.66 379.03 C 590.80 376.01 588.26 373.44 586.66 370.24 C 590.37 370.57 594.67 372.67 598.05 370.14 C 600.68 368.63 601.46 365.20 600.37 362.51 C 598.85 359.90 595.68 359.24 593.05 358.31 C 595.03 357.65 596.97 356.83 599.02 356.35 C 601.11 357.38 602.70 359.16 604.43 360.69 C 604.87 368.14 604.09 375.66 605.35 383.05 C 605.78 386.32 608.08 389.27 611.12 390.52 C 613.85 391.21 614.46 387.91 615.40 386.13 C 616.30 385.49 617.21 384.86 618.13 384.24 C 625.93 389.91 632.31 397.26 640.01 403.03 C 643.90 406.08 649.19 407.64 654.02 406.09 C 662.77 403.37 669.85 397.01 675.69 390.16 C 683.95 395.70 692.64 401.26 702.47 403.44 C 705.68 414.61 710.41 425.41 712.08 436.98 C 712.62 441.65 712.67 446.81 709.90 450.86 C 706.77 455.40 701.73 458.94 696.10 459.21 C 689.25 459.60 682.34 458.78 675.53 459.73 C 667.51 461.28 663.17 469.20 660.43 476.16 C 659.30 479.17 658.19 484.37 662.43 485.41 C 666.60 485.96 670.18 483.08 673.82 481.50 C 676.10 483.50 678.63 485.82 681.92 485.57 C 686.59 485.93 690.76 483.57 694.69 481.38 C 700.86 487.24 710.82 486.73 717.17 481.45 C 722.59 484.29 728.90 486.31 735.04 485.06 C 739.18 483.10 741.46 478.57 743.32 474.60 C 744.71 467.95 742.57 461.24 742.52 454.57 C 749.53 451.37 757.91 450.35 763.45 444.54 C 766.70 441.09 770.18 437.52 771.70 432.92 C 771.02 431.80 770.12 430.77 768.88 430.32 C 763.58 428.22 757.11 429.31 752.48 425.54 C 749.25 422.99 750.54 418.33 751.98 415.13 C 755.42 408.06 760.24 401.79 764.12 394.97 C 767.52 394.25 770.93 393.45 774.18 392.14 C 787.88 386.68 801.20 380.29 814.91 374.85 C 829.05 369.05 843.98 364.31 859.43 364.64 C 859.40 369.14 859.26 373.75 860.77 378.07 C 864.32 389.14 872.32 397.90 879.19 407.01 C 882.77 411.90 886.71 416.90 887.88 423.00 C 890.02 434.27 889.20 445.80 889.72 457.20 C 887.11 459.33 884.51 462.02 880.95 462.28 C 874.15 463.52 867.07 462.66 860.41 464.62 C 852.75 467.57 847.37 475.74 848.07 484.01 C 849.63 484.71 851.20 485.77 853.02 485.57 C 857.17 485.24 860.40 482.25 864.10 480.65 C 867.49 481.97 869.99 485.53 873.93 485.51 C 878.03 486.01 881.42 483.33 884.60 481.17 C 889.87 486.75 900.46 487.52 905.09 480.72 C 910.44 484.49 917.28 487.60 923.72 484.51 C 928.87 487.18 933.69 483.27 937.96 480.73 C 940.28 483.30 943.23 485.86 946.95 485.59 C 951.52 485.93 955.27 482.95 958.83 480.54 C 962.27 483.36 966.40 486.00 971.06 485.55 C 974.69 485.52 977.78 483.39 980.34 481.01 C 984.25 483.16 988.41 485.11 992.93 485.43 C 995.80 485.69 999.29 485.70 1001.29 483.22 C 1002.91 479.43 1000.92 475.39 998.70 472.31 C 994.77 466.08 989.90 458.90 992.04 451.17 C 994.10 444.64 1001.17 442.18 1005.64 437.63 C 1010.05 433.77 1013.73 427.37 1010.27 421.69 C 1006.13 420.46 1000.98 420.61 998.12 416.87 C 992.90 410.12 991.09 401.36 990.77 393.01 C 992.02 372.11 1002.07 353.31 1007.41 333.38 C 1010.03 323.49 1009.77 313.18 1009.73 303.03 C 1010.34 288.08 1001.93 274.63 992.91 263.40 C 998.37 258.44 1004.53 253.91 1007.96 247.18 C 1013.03 238.06 1013.71 226.45 1008.82 217.10 C 1003.46 206.29 992.44 199.42 981.06 196.40 C 973.87 194.66 966.38 195.39 959.05 195.45 C 944.24 195.45 929.77 199.53 914.96 199.59 C 907.67 200.38 900.23 200.45 893.04 198.81 C 889.20 197.54 884.54 195.50 883.94 190.96 C 883.22 187.92 882.09 183.41 878.17 183.53 C 872.91 184.81 869.40 189.30 865.65 192.86 C 864.28 190.03 862.43 187.16 862.66 183.89 C 862.99 181.03 865.14 178.74 867.55 177.36 C 871.57 175.01 875.92 173.33 880.11 171.31 C 875.02 168.49 870.10 164.44 864.01 164.37 C 856.02 163.95 848.06 167.99 843.92 174.87 C 840.26 171.50 835.97 167.45 836.57 161.98 C 837.30 153.85 846.50 148.81 854.03 150.62 C 856.23 151.81 856.87 154.61 858.52 156.41 C 860.63 157.09 863.56 157.11 864.92 155.01 C 868.31 150.60 868.77 144.69 867.79 139.37 C 873.40 140.57 878.50 143.48 882.86 147.13 C 886.27 149.99 887.85 154.51 887.66 158.89 C 887.74 166.99 882.07 173.34 878.09 179.88 C 887.07 178.04 897.29 177.02 903.72 169.67 C 910.35 163.29 910.12 153.07 907.59 144.86 C 913.41 147.47 918.52 152.59 919.63 159.04 C 919.70 165.63 915.58 171.12 912.45 176.58 C 912.95 177.54 913.45 178.52 913.96 179.49 C 919.89 180.17 925.67 177.72 930.40 174.33 C 933.33 172.20 934.75 168.74 936.36 165.63 C 940.38 169.99 944.60 174.40 950.12 176.84 C 954.53 178.80 959.32 181.70 964.31 180.32 C 964.58 179.09 964.71 177.84 964.89 176.60 C 961.02 173.33 959.17 168.51 957.99 163.72 C 969.21 170.62 977.71 181.26 989.38 187.53 C 997.34 191.59 1007.15 192.94 1015.57 189.48 C 1020.36 187.20 1024.15 182.69 1025.37 177.50 C 1026.39 172.55 1024.63 167.38 1021.54 163.49 C 1017.30 158.34 1008.51 157.96 1004.04 163.02 C 1001.24 165.66 1000.50 169.56 1000.20 173.22 C 995.09 171.31 990.66 168.09 986.35 164.84 C 975.19 156.20 964.20 147.24 952.00 140.08 C 935.88 130.03 918.26 120.97 899.01 119.43 C 890.70 118.48 882.30 118.21 873.95 118.61 C 861.93 119.27 850.33 123.29 839.81 129.00 C 832.12 133.15 825.23 139.13 820.78 146.71 C 814.87 156.88 815.95 170.08 822.04 179.92 C 824.20 183.92 827.67 187.00 829.88 190.95 C 828.65 194.36 826.41 197.40 825.96 201.07 C 824.79 206.90 826.88 212.93 830.54 217.47 C 832.32 219.71 834.52 222.53 837.80 221.76 C 840.33 219.21 839.62 215.18 841.01 212.06 C 841.80 209.43 844.61 208.55 846.80 207.41 C 853.76 209.48 860.48 212.26 867.32 214.67 C 877.50 218.23 888.36 218.76 899.03 219.37 C 904.71 219.64 910.35 218.77 916.03 218.62 C 927.46 218.13 938.61 215.34 949.93 213.88 C 956.57 213.29 963.27 213.16 969.93 213.57 C 976.22 214.00 982.88 216.18 986.91 221.29 C 989.58 225.06 991.21 230.06 989.61 234.59 C 987.51 241.44 981.84 246.83 975.09 249.07 C 964.43 252.69 953.34 255.94 941.97 255.47 C 928.31 255.64 914.62 254.90 901.01 256.21 C 890.58 256.22 880.47 259.61 870.03 259.31 C 861.01 259.09 851.97 259.71 842.98 258.79 C 834.01 258.40 825.03 258.46 816.06 258.21 C 813.91 255.27 811.54 252.49 809.61 249.41 C 807.62 246.32 807.12 242.60 806.37 239.09 C 808.52 239.86 810.56 241.43 812.92 241.45 C 815.45 241.04 814.70 237.85 814.69 236.01 C 813.66 230.86 810.76 226.22 810.41 220.89 C 811.81 219.94 814.45 219.78 814.31 217.57 C 815.60 204.44 816.08 191.21 815.54 178.02 C 815.35 171.68 812.33 165.90 808.50 160.99 C 812.93 156.51 817.22 151.62 819.39 145.60 C 821.40 139.82 822.11 133.70 822.95 127.68 C 818.57 131.07 814.95 135.31 810.64 138.76 C 808.00 141.07 804.19 141.00 800.98 140.21 C 798.38 139.32 796.46 137.24 794.36 135.57 C 790.07 131.88 784.81 129.48 779.42 127.86 C 777.60 127.39 775.04 126.89 773.99 128.93 C 772.43 132.22 771.40 135.74 769.89 139.07 C 765.51 136.22 762.09 132.01 757.27 129.85 C 753.28 128.08 748.78 126.85 744.41 127.65 C 740.93 130.99 742.14 136.62 741.22 141.00 C 736.18 139.33 732.64 135.01 727.60 133.38 C 719.25 130.85 710.51 133.44 702.03 133.74 C 702.97 136.69 704.10 139.58 705.45 142.38 C 703.67 144.90 701.84 147.55 699.11 149.13 C 694.58 151.91 689.12 152.17 683.96 152.33 C 679.23 152.30 674.99 154.71 670.42 155.55 C 666.21 156.32 661.92 156.46 657.73 157.30 C 657.54 154.58 657.92 151.65 656.64 149.15 C 652.05 139.99 636.73 139.55 631.72 148.52 C 629.21 152.89 629.25 158.21 630.65 162.93 C 632.04 167.73 632.80 172.95 635.95 177.00 C 641.34 184.21 648.61 189.70 654.19 196.74 C 658.12 201.83 664.36 204.14 669.84 207.13 C 669.48 204.64 669.10 202.16 668.71 199.68 C 671.66 201.31 674.43 203.45 677.72 204.38 C 680.75 204.27 680.72 200.74 681.45 198.60 C 685.71 203.85 689.98 209.09 694.13 214.44 C 681.28 214.00 668.90 209.80 657.07 205.07 C 649.66 202.29 642.62 198.29 634.66 197.26 C 633.42 198.71 631.24 199.81 631.26 201.97 C 630.65 206.72 634.98 209.77 637.80 212.87 C 636.02 215.58 634.47 218.46 633.54 221.58 C 631.64 227.67 629.51 233.69 627.84 239.85 C 634.91 239.14 641.99 238.55 649.00 237.34 C 647.30 240.56 645.58 243.77 643.85 246.96 C 650.57 246.01 657.20 244.43 663.58 242.07 C 665.30 244.40 667.17 246.62 669.17 248.72 C 670.77 248.74 672.36 248.77 673.97 248.81 C 674.82 247.28 675.65 245.74 676.50 244.21 C 679.34 248.72 681.62 254.33 687.24 255.97 C 690.60 252.84 691.67 246.50 697.10 246.33 C 698.06 247.47 698.90 248.70 699.77 249.92 C 697.82 252.90 695.56 255.73 692.55 257.69 C 684.66 263.08 676.22 267.71 669.11 274.15 C 649.26 291.12 637.63 318.38 642.21 344.47 C 630.31 332.45 617.89 320.96 605.67 309.26 C 608.14 307.27 610.92 305.43 612.49 302.57 C 615.17 298.03 615.47 291.88 612.24 287.52 C 608.83 282.94 602.87 281.11 597.36 281.10 C 598.88 265.44 598.63 249.69 598.78 233.97 C 599.94 223.01 599.24 211.96 600.09 200.98 C 601.25 185.27 601.29 169.48 603.20 153.83 C 604.85 137.99 605.98 121.95 610.58 106.62 C 611.65 102.41 616.00 98.55 613.51 94.04 C 611.04 94.53 608.59 95.23 606.47 96.60 M 500.51 446.41 C 496.25 455.95 490.09 466.10 479.63 469.61 C 469.50 473.97 458.01 474.59 448.49 480.41 C 444.90 482.47 441.95 485.63 440.51 489.55 C 437.80 495.93 440.41 502.94 443.20 508.83 C 445.23 512.48 444.32 516.74 444.15 520.70 C 449.72 520.73 455.50 520.92 460.62 523.38 C 470.96 528.58 485.68 524.66 490.63 513.78 C 494.35 505.37 494.26 495.97 494.99 486.97 C 496.52 476.42 500.56 466.35 501.43 455.68 C 501.64 452.47 501.94 449.26 502.52 446.10 C 502.02 446.18 501.02 446.33 500.51 446.41 M 1063.53 446.26 C 1063.83 448.18 1064.11 450.10 1064.28 452.05 C 1064.72 463.98 1069.50 475.18 1071.03 486.95 C 1071.58 494.68 1071.63 502.59 1074.03 510.04 C 1075.45 513.86 1077.21 517.83 1080.51 520.42 C 1087.34 525.95 1097.41 527.37 1105.34 523.40 C 1110.47 520.94 1116.25 520.67 1121.84 520.71 C 1121.68 517.80 1121.28 514.87 1121.65 511.97 C 1123.13 507.29 1125.90 503.00 1126.44 498.03 C 1127.44 492.07 1124.75 485.74 1119.97 482.11 C 1113.34 476.91 1104.80 475.61 1096.98 473.14 C 1090.62 471.15 1083.79 469.69 1078.48 465.45 C 1072.81 460.16 1068.74 453.38 1065.40 446.44 C 1064.93 446.40 1064.00 446.31 1063.53 446.26 Z" />
<path fill="#8d153a" opacity="1.00" d=" M 590.35 357.09 C 593.35 355.63 590.38 360.45 590.35 357.09 Z" />
<path fill="#8d153a" opacity="1.00" d=" M 923.30 412.07 C 923.85 407.66 927.32 404.47 929.87 401.08 C 937.42 405.75 945.03 410.37 952.14 415.71 C 955.03 417.88 957.78 420.49 959.18 423.90 C 961.62 429.62 961.21 435.96 961.89 442.02 C 962.36 446.52 962.73 451.45 960.54 455.59 C 957.48 458.58 952.89 458.90 948.96 460.05 C 941.28 461.68 933.77 464.83 928.05 470.34 C 927.20 464.50 924.10 458.92 924.87 452.93 C 927.79 443.47 936.53 437.55 940.97 428.95 C 942.15 426.59 942.13 423.01 939.51 421.64 C 935.81 420.83 931.87 421.87 928.26 420.61 C 925.17 419.03 922.77 415.67 923.30 412.07 Z" />
</g>
</svg>
