<?xml version="1.0" encoding="UTF-8" ?>
<!DOCTYPE svg PUBLIC "-//W3C//DTD SVG 1.1//EN" "http://www.w3.org/Graphics/SVG/1.1/DTD/svg11.dtd">
<svg width="1000px" height="667px" viewBox="0 0 1000 667" version="1.1" xmlns="http://www.w3.org/2000/svg">
<g id="#ffffffff">
<path fill="#ffffff" opacity="1.00" d=" M 0.00 0.00 L 500.00 0.00 C 500.00 180.00 500.00 360.00 500.00 540.00 C 499.90 582.14 500.20 624.28 499.85 666.41 C 498.58 666.18 497.31 666.04 496.03 666.00 C 330.69 666.01 165.34 666.00 0.00 666.00 L 0.00 0.00 M 92.03 24.72 C 91.96 41.48 92.09 58.25 91.96 75.01 C 83.20 75.82 75.82 83.19 75.01 91.96 C 58.25 92.09 41.48 91.96 24.72 92.03 C 24.76 108.88 24.47 125.74 24.86 142.59 C 41.58 142.51 58.30 142.47 75.01 142.60 C 75.84 151.32 83.15 158.81 91.95 159.47 C 92.12 176.28 91.94 193.08 92.03 209.88 C 108.88 209.85 125.73 209.94 142.57 209.84 C 142.44 193.14 142.64 176.43 142.47 159.73 C 146.48 158.84 150.59 157.56 153.57 154.57 C 157.13 151.50 158.80 146.96 159.72 142.47 C 176.43 142.64 193.13 142.44 209.84 142.57 C 209.93 125.73 209.85 108.88 209.88 92.03 C 193.08 91.94 176.28 92.12 159.47 91.95 C 158.80 83.15 151.32 75.84 142.60 75.01 C 142.47 58.30 142.50 41.58 142.59 24.87 C 125.74 24.47 108.88 24.76 92.03 24.72 Z" />
</g>
<g id="#cf142bff">
<path fill="#cf142b" opacity="1.00" d=" M 500.00 0.00 L 1000.00 0.00 L 1000.00 666.00 C 843.67 666.00 687.33 666.00 531.00 666.00 C 520.62 666.24 510.20 665.49 499.85 666.41 C 500.20 624.28 499.90 582.14 500.00 540.00 C 500.00 360.00 500.00 180.00 500.00 0.00 Z" />
</g>
<g id="#e60d2eff">
<path fill="#e60d2e" opacity="1.00" d=" M 92.03 24.72 C 108.88 24.76 125.74 24.47 142.59 24.87 C 142.50 41.58 142.47 58.30 142.60 75.01 C 151.32 75.84 158.80 83.15 159.47 91.95 C 176.28 92.12 193.08 91.94 209.88 92.03 C 209.85 108.88 209.93 125.73 209.84 142.57 C 193.13 142.44 176.43 142.64 159.72 142.47 C 158.80 146.96 157.13 151.50 153.57 154.57 C 150.59 157.56 146.48 158.84 142.47 159.73 C 142.64 176.43 142.44 193.14 142.57 209.84 C 125.73 209.94 108.88 209.85 92.03 209.88 C 91.94 193.08 92.12 176.28 91.95 159.47 C 83.15 158.81 75.84 151.32 75.01 142.60 C 58.30 142.47 41.58 142.51 24.86 142.59 C 24.47 125.74 24.76 108.88 24.72 92.03 C 41.48 91.96 58.25 92.09 75.01 91.96 C 75.82 83.19 83.20 75.82 91.96 75.01 C 92.09 58.25 91.96 41.48 92.03 24.72 M 95.32 28.18 C 95.23 45.03 95.73 61.90 95.09 78.74 C 90.41 77.84 84.86 77.37 81.47 81.48 C 77.37 84.86 77.85 90.41 78.74 95.09 C 61.90 95.74 45.03 95.23 28.18 95.32 C 27.92 109.90 28.10 124.48 28.08 139.06 C 44.98 139.45 61.88 138.94 78.78 139.30 C 77.83 144.13 77.34 149.93 81.66 153.35 C 85.10 157.30 90.57 156.71 95.21 155.99 C 95.61 172.85 95.24 189.73 95.38 206.60 C 109.88 206.55 124.39 206.51 138.90 206.62 C 139.61 189.77 138.95 172.88 139.22 156.02 C 143.99 156.73 149.64 157.23 153.11 153.11 C 157.22 149.63 156.73 143.99 156.02 139.22 C 172.88 138.95 189.77 139.61 206.62 138.90 C 206.50 124.39 206.53 109.88 206.59 95.38 C 189.73 95.24 172.85 95.61 155.99 95.21 C 156.72 90.57 157.30 85.10 153.34 81.66 C 149.93 77.34 144.12 77.83 139.30 78.78 C 138.94 61.89 139.45 44.98 139.06 28.09 C 124.48 28.09 109.90 27.93 95.32 28.18 Z" />
</g>
<g id="#96877dff">
<path fill="#96877d" opacity="1.00" d=" M 95.32 28.18 C 109.90 27.93 124.48 28.09 139.06 28.09 C 139.45 44.98 138.94 61.89 139.30 78.78 C 144.12 77.83 149.93 77.34 153.34 81.66 C 157.30 85.10 156.72 90.57 155.99 95.21 C 172.85 95.61 189.73 95.24 206.59 95.38 C 206.53 109.88 206.50 124.39 206.62 138.90 C 189.77 139.61 172.88 138.95 156.02 139.22 C 156.73 143.99 157.22 149.63 153.11 153.11 C 149.64 157.23 143.99 156.73 139.22 156.02 C 138.95 172.88 139.61 189.77 138.90 206.62 C 124.39 206.51 109.88 206.55 95.38 206.60 C 95.24 189.73 95.61 172.85 95.21 155.99 C 90.57 156.71 85.10 157.30 81.66 153.35 C 77.34 149.93 77.83 144.13 78.78 139.30 C 61.88 138.94 44.98 139.45 28.08 139.06 C 28.10 124.48 27.92 109.90 28.18 95.32 C 45.03 95.23 61.90 95.74 78.74 95.09 C 77.85 90.41 77.37 84.86 81.47 81.48 C 84.86 77.37 90.41 77.84 95.09 78.74 C 95.73 61.90 95.23 45.03 95.32 28.18 M 97.10 29.92 C 96.96 44.62 97.07 59.32 97.09 74.02 C 96.94 78.20 95.59 82.21 95.22 86.37 C 94.75 90.89 90.90 94.76 86.37 95.22 C 82.22 95.59 78.21 96.94 74.03 97.09 C 59.33 97.07 44.62 96.95 29.92 97.10 C 29.55 110.46 29.60 123.84 29.89 137.20 C 44.94 137.69 60.02 137.26 75.08 137.38 C 79.05 137.67 82.88 138.91 86.83 139.47 C 91.06 139.93 94.68 143.45 95.14 147.71 C 95.66 152.15 97.06 156.48 97.11 160.98 C 97.06 175.60 96.93 190.22 97.14 204.84 C 110.48 204.93 123.83 204.93 137.18 204.85 C 137.73 189.22 137.22 173.56 137.39 157.93 C 137.85 154.93 139.42 152.16 139.22 149.03 C 139.11 143.82 143.99 139.31 149.09 139.28 C 152.18 139.33 154.95 137.85 157.93 137.39 C 173.57 137.22 189.22 137.73 204.85 137.18 C 204.93 123.83 204.94 110.48 204.84 97.14 C 190.22 96.93 175.60 97.06 160.98 97.10 C 156.17 97.09 151.58 95.41 146.81 95.01 C 149.47 92.39 152.24 89.81 154.20 86.58 C 150.32 88.21 147.84 91.73 144.91 94.57 C 142.62 92.76 140.02 90.78 139.62 87.66 C 138.98 83.44 137.76 79.32 137.38 75.07 C 137.25 60.01 137.70 44.94 137.20 29.89 C 123.84 29.61 110.46 29.55 97.10 29.92 M 86.20 80.20 C 87.50 84.02 90.72 86.75 94.33 88.34 C 92.71 84.75 89.97 81.59 86.20 80.20 M 141.73 88.07 C 144.94 87.04 148.14 85.70 150.55 83.25 C 149.06 83.38 147.57 83.55 146.09 83.73 C 146.29 82.27 146.47 80.82 146.63 79.37 C 144.13 81.70 142.80 84.89 141.73 88.07 M 83.11 83.69 C 83.33 85.35 83.58 87.01 83.86 88.67 C 82.27 88.24 80.67 87.85 79.05 87.53 C 81.02 90.74 84.98 91.56 88.19 93.01 C 87.02 89.64 85.47 86.39 83.11 83.69 M 80.58 148.17 C 83.84 146.46 86.53 143.83 88.19 140.54 C 84.75 142.00 82.02 144.71 80.58 148.17 M 146.67 141.87 C 147.70 145.10 148.82 148.55 151.77 150.56 C 151.29 148.86 150.75 147.18 150.17 145.51 C 151.89 146.05 153.63 146.53 155.38 146.96 C 153.30 144.09 149.88 142.95 146.67 141.87 M 83.74 151.65 C 85.45 151.27 87.15 150.83 88.84 150.35 C 88.55 152.01 88.27 153.67 88.04 155.35 C 90.29 152.66 91.80 149.49 93.05 146.25 C 89.72 147.62 86.31 149.04 83.74 151.65 M 139.76 146.60 C 141.95 149.76 144.65 152.71 148.27 154.25 C 146.53 150.95 144.03 146.44 139.76 146.60 Z" />
</g>
<g id="#ccccccff">
<path fill="#cccccc" opacity="1.00" d=" M 97.10 29.92 C 110.46 29.55 123.84 29.61 137.20 29.89 C 137.70 44.94 137.25 60.01 137.38 75.07 C 137.76 79.32 138.98 83.44 139.62 87.66 C 140.02 90.78 142.62 92.76 144.91 94.57 C 147.84 91.73 150.32 88.21 154.20 86.58 C 152.24 89.81 149.47 92.39 146.81 95.01 C 151.58 95.41 156.17 97.09 160.98 97.10 C 175.60 97.06 190.22 96.93 204.84 97.14 C 204.94 110.48 204.93 123.83 204.85 137.18 C 189.22 137.73 173.57 137.22 157.93 137.39 C 154.95 137.85 152.18 139.33 149.09 139.28 C 143.99 139.31 139.11 143.82 139.22 149.03 C 139.42 152.16 137.85 154.93 137.39 157.93 C 137.22 173.56 137.73 189.22 137.18 204.85 C 123.83 204.93 110.48 204.93 97.14 204.84 C 96.93 190.22 97.06 175.60 97.11 160.98 C 97.06 156.48 95.66 152.15 95.14 147.71 C 94.68 143.45 91.06 139.93 86.83 139.47 C 82.88 138.91 79.05 137.67 75.08 137.38 C 60.02 137.26 44.94 137.69 29.89 137.20 C 29.60 123.84 29.55 110.46 29.92 97.10 C 44.62 96.95 59.33 97.07 74.03 97.09 C 78.21 96.94 82.22 95.59 86.37 95.22 C 90.90 94.76 94.75 90.89 95.22 86.37 C 95.59 82.21 96.94 78.20 97.09 74.02 C 97.07 59.32 96.96 44.62 97.10 29.92 M 116.08 90.32 C 117.42 90.28 118.77 90.24 120.11 90.20 C 117.90 88.16 117.99 85.20 117.77 82.45 C 114.92 83.86 116.50 87.77 116.08 90.32 M 108.35 84.06 C 107.93 86.44 107.44 88.80 106.94 91.17 C 107.66 90.40 108.37 89.64 109.08 88.87 C 110.45 89.34 111.81 89.80 113.19 90.22 C 111.69 88.08 110.05 86.04 108.35 84.06 M 124.10 90.73 C 124.67 90.91 125.81 91.27 126.37 91.45 C 126.44 88.84 126.78 86.24 126.90 83.64 C 125.43 85.76 124.63 88.22 124.10 90.73 M 96.75 90.12 C 96.59 92.46 98.31 94.06 100.30 94.90 C 99.53 93.21 98.67 91.57 97.83 89.92 C 99.10 89.41 100.37 88.90 101.64 88.39 C 101.21 87.71 100.79 87.04 100.37 86.36 C 98.86 87.27 96.00 87.71 96.75 90.12 M 130.93 92.77 C 132.13 92.82 133.33 92.88 134.52 92.94 C 134.76 93.85 135.25 95.67 135.49 96.58 C 136.31 94.17 136.91 91.69 137.31 89.17 C 135.16 90.34 133.04 91.54 130.93 92.77 M 101.60 90.12 C 101.15 91.50 101.63 92.04 103.02 91.73 C 103.48 90.33 103.01 89.80 101.60 90.12 M 107.88 96.84 C 105.30 97.57 102.23 97.13 100.12 99.09 C 96.97 101.62 93.95 105.38 94.31 109.65 C 95.35 112.99 98.65 111.98 101.24 112.06 C 102.87 113.21 106.13 114.33 105.67 116.72 C 104.03 120.30 99.84 118.40 96.92 118.02 C 97.03 122.86 93.99 127.98 97.09 132.39 C 100.50 129.60 101.86 124.65 99.61 120.71 C 103.25 122.16 107.61 123.54 109.31 127.44 C 110.16 129.34 111.37 131.04 112.93 132.44 C 108.72 134.18 104.16 134.22 99.69 134.19 C 101.24 135.65 102.63 137.88 105.04 137.79 C 111.02 138.16 117.01 137.77 122.99 137.95 C 127.05 137.90 131.49 138.63 135.02 136.12 C 133.98 135.16 132.94 134.21 131.89 133.27 C 133.92 133.67 135.99 133.82 138.02 133.32 C 137.55 132.37 137.08 131.43 136.61 130.50 C 138.02 127.42 139.84 124.07 139.15 120.58 C 137.83 117.09 134.09 115.52 131.13 113.69 C 131.79 112.64 132.45 111.60 133.11 110.55 C 135.87 111.34 138.60 112.24 141.39 112.92 C 140.24 110.95 138.64 109.19 136.38 108.52 C 133.69 107.04 131.00 109.06 128.33 109.53 C 126.91 108.06 126.49 105.98 125.81 104.13 C 127.13 102.98 128.46 101.82 129.77 100.65 C 129.67 100.18 129.49 99.22 129.39 98.74 C 126.37 97.94 123.07 97.47 120.60 95.38 C 119.43 94.60 118.42 93.46 117.03 93.08 C 113.93 94.22 111.16 96.20 107.88 96.84 M 140.85 103.05 C 142.84 101.65 144.76 100.15 146.54 98.50 C 145.35 98.97 144.17 99.47 143.00 99.97 C 143.23 98.16 143.45 96.35 143.59 94.53 C 141.17 96.69 141.35 100.11 140.85 103.05 M 138.35 98.19 C 138.56 101.53 141.29 96.58 138.35 98.19 M 85.81 103.85 C 86.31 104.83 86.80 105.80 87.31 106.78 C 86.73 106.68 85.57 106.48 84.99 106.38 C 84.75 106.66 84.26 107.23 84.01 107.51 C 85.97 108.17 87.92 108.87 89.85 109.61 C 90.11 109.34 90.62 108.80 90.88 108.53 C 89.94 108.16 89.00 107.79 88.06 107.43 C 89.49 106.83 90.92 106.23 92.35 105.61 C 90.08 105.40 87.90 104.74 85.81 103.85 M 143.05 107.35 C 143.29 107.66 143.76 108.28 144.00 108.59 C 146.13 107.90 148.41 107.27 150.49 108.52 C 150.30 107.80 149.92 106.36 149.74 105.64 C 147.48 106.12 145.27 106.73 143.05 107.35 M 83.16 113.09 C 83.48 114.89 82.37 117.67 84.43 118.66 C 86.23 119.83 88.02 118.25 89.53 117.38 C 87.63 117.22 85.73 117.10 83.82 116.96 C 83.85 116.23 83.91 114.77 83.94 114.05 C 85.87 114.21 87.79 114.41 89.72 114.54 C 87.96 112.71 85.49 112.73 83.16 113.09 M 144.42 114.12 C 145.52 114.59 146.64 115.04 147.76 115.46 C 146.68 116.42 145.61 117.40 144.56 118.40 C 146.81 117.83 149.10 117.49 151.41 117.31 C 150.66 116.78 149.90 116.26 149.14 115.75 C 149.97 115.06 150.80 114.36 151.62 113.66 C 149.22 113.73 146.81 113.87 144.42 114.12 M 83.27 128.29 C 85.69 127.15 88.19 126.20 90.62 125.10 C 89.25 124.66 87.89 124.24 86.53 123.77 C 85.86 124.30 85.18 124.83 84.50 125.36 C 83.74 123.62 83.00 121.87 82.27 120.12 C 82.54 122.85 82.88 125.57 83.27 128.29 M 143.57 124.31 C 145.79 125.85 148.01 127.40 150.23 128.95 C 149.62 127.86 148.99 126.79 148.36 125.72 C 149.53 125.04 150.68 124.32 151.81 123.57 C 149.06 123.75 146.31 124.03 143.57 124.31 M 103.16 143.84 C 102.60 144.80 102.08 145.77 101.60 146.77 C 102.23 147.08 103.48 147.69 104.11 147.99 C 104.80 147.29 105.48 146.60 106.17 145.90 C 105.29 145.06 104.46 144.03 103.16 143.84 M 128.91 146.85 C 129.99 147.27 131.09 147.64 132.22 147.95 C 132.25 146.70 132.19 145.46 132.04 144.23 C 130.26 143.41 128.50 145.00 128.91 146.85 M 111.91 148.70 C 114.54 149.05 116.29 150.67 117.12 153.14 C 118.08 150.84 119.84 149.18 122.29 148.59 C 120.40 147.47 118.68 146.10 117.15 144.52 C 115.98 146.57 114.05 147.84 111.91 148.70 Z" />
<path fill="#cccccc" opacity="1.00" d=" M 104.70 109.26 C 106.04 108.46 107.38 107.67 108.73 106.88 C 109.78 109.32 110.79 111.77 111.75 114.24 C 110.32 114.06 108.87 113.94 107.47 113.57 C 105.62 112.96 105.39 110.79 104.70 109.26 Z" />
<path fill="#cccccc" opacity="1.00" d=" M 83.74 151.65 C 86.31 149.04 89.72 147.62 93.05 146.25 C 91.80 149.49 90.29 152.66 88.04 155.35 C 88.27 153.67 88.55 152.01 88.84 150.35 C 87.15 150.83 85.45 151.27 83.74 151.65 Z" />
</g>
<g id="#c3c0bdff">
<path fill="#c3c0bd" opacity="1.00" d=" M 86.20 80.20 C 89.97 81.59 92.71 84.75 94.33 88.34 C 90.72 86.75 87.50 84.02 86.20 80.20 Z" />
</g>
<g id="#c6c3c1ff">
<path fill="#c6c3c1" opacity="1.00" d=" M 141.73 88.07 C 142.80 84.89 144.13 81.70 146.63 79.37 C 146.47 80.82 146.29 82.27 146.09 83.73 C 147.57 83.55 149.06 83.38 150.55 83.25 C 148.14 85.70 144.94 87.04 141.73 88.07 Z" />
</g>
<g id="#757575ff">
<path fill="#757575" opacity="1.00" d=" M 116.08 90.32 C 116.50 87.77 114.92 83.86 117.77 82.45 C 117.99 85.20 117.90 88.16 120.11 90.20 C 118.77 90.24 117.42 90.28 116.08 90.32 Z" />
</g>
<g id="#c5c3c1ff">
<path fill="#c5c3c1" opacity="1.00" d=" M 83.11 83.69 C 85.47 86.39 87.02 89.64 88.19 93.01 C 84.98 91.56 81.02 90.74 79.05 87.53 C 80.67 87.85 82.27 88.24 83.86 88.67 C 83.58 87.01 83.33 85.35 83.11 83.69 Z" />
</g>
<g id="#636363ff">
<path fill="#636363" opacity="1.00" d=" M 108.35 84.06 C 110.05 86.04 111.69 88.08 113.19 90.22 C 111.81 89.80 110.45 89.34 109.08 88.87 C 108.37 89.64 107.66 90.40 106.94 91.17 C 107.44 88.80 107.93 86.44 108.35 84.06 Z" />
</g>
<g id="#5f5f5fff">
<path fill="#5f5f5f" opacity="1.00" d=" M 124.10 90.73 C 124.63 88.22 125.43 85.76 126.90 83.64 C 126.78 86.24 126.44 88.84 126.37 91.45 C 125.81 91.27 124.67 90.91 124.10 90.73 Z" />
</g>
<g id="#695e58ff">
<path fill="#695e58" opacity="1.00" d=" M 96.75 90.12 C 96.00 87.71 98.86 87.27 100.37 86.36 C 100.79 87.04 101.21 87.71 101.64 88.39 C 100.37 88.90 99.10 89.41 97.83 89.92 C 98.67 91.57 99.53 93.21 100.30 94.90 C 98.31 94.06 96.59 92.46 96.75 90.12 Z" />
<path fill="#695e58" opacity="1.00" d=" M 130.93 92.77 C 133.04 91.54 135.16 90.34 137.31 89.17 C 136.91 91.69 136.31 94.17 135.49 96.58 C 135.25 95.67 134.76 93.85 134.52 92.94 C 133.33 92.88 132.13 92.82 130.93 92.77 Z" />
<path fill="#695e58" opacity="1.00" d=" M 140.85 103.05 C 141.35 100.11 141.17 96.69 143.59 94.53 C 143.45 96.35 143.23 98.16 143.00 99.97 C 144.17 99.47 145.35 98.97 146.54 98.50 C 144.76 100.15 142.84 101.65 140.85 103.05 Z" />
<path fill="#695e58" opacity="1.00" d=" M 138.35 98.19 C 141.29 96.58 138.56 101.53 138.35 98.19 Z" />
<path fill="#695e58" opacity="1.00" d=" M 115.34 100.62 C 117.60 101.91 118.87 104.12 119.58 106.56 C 121.09 106.05 122.59 105.53 124.10 105.01 C 121.38 106.80 119.05 109.11 117.70 112.11 C 116.20 108.46 115.60 104.54 115.34 100.62 Z" />
<path fill="#695e58" opacity="1.00" d=" M 83.16 113.09 C 85.49 112.73 87.96 112.71 89.72 114.54 C 87.79 114.41 85.87 114.21 83.94 114.05 C 83.91 114.77 83.85 116.23 83.82 116.96 C 85.73 117.10 87.63 117.22 89.53 117.38 C 88.02 118.25 86.23 119.83 84.43 118.66 C 82.37 117.67 83.48 114.89 83.16 113.09 Z" />
<path fill="#695e58" opacity="1.00" d=" M 83.27 128.29 C 82.88 125.57 82.54 122.85 82.27 120.12 C 83.00 121.87 83.74 123.62 84.50 125.36 C 85.18 124.83 85.86 124.30 86.53 123.77 C 87.89 124.24 89.25 124.66 90.62 125.10 C 88.19 126.20 85.69 127.15 83.27 128.29 Z" />
<path fill="#695e58" opacity="1.00" d=" M 143.57 124.31 C 146.31 124.03 149.06 123.75 151.81 123.57 C 150.68 124.32 149.53 125.04 148.36 125.72 C 148.99 126.79 149.62 127.86 150.23 128.95 C 148.01 127.40 145.79 125.85 143.57 124.31 Z" />
</g>
<g id="#484848ff">
<path fill="#484848" opacity="1.00" d=" M 101.60 90.12 C 103.01 89.80 103.48 90.33 103.02 91.73 C 101.63 92.04 101.15 91.50 101.60 90.12 Z" />
</g>
<g id="#92847bff">
<path fill="#92847b" opacity="1.00" d=" M 107.88 96.84 C 111.16 96.20 113.93 94.22 117.03 93.08 C 118.42 93.46 119.43 94.60 120.60 95.38 C 123.07 97.47 126.37 97.94 129.39 98.74 C 129.49 99.22 129.67 100.18 129.77 100.65 C 128.46 101.82 127.13 102.98 125.81 104.13 C 126.49 105.98 126.91 108.06 128.33 109.53 C 131.00 109.06 133.69 107.04 136.38 108.52 C 138.64 109.19 140.24 110.95 141.39 112.92 C 138.60 112.24 135.87 111.34 133.11 110.55 C 132.45 111.60 131.79 112.64 131.13 113.69 C 134.09 115.52 137.83 117.09 139.15 120.58 C 139.84 124.07 138.02 127.42 136.61 130.50 C 137.08 131.43 137.55 132.37 138.02 133.32 C 135.99 133.82 133.92 133.67 131.89 133.27 C 132.94 134.21 133.98 135.16 135.02 136.12 C 131.49 138.63 127.05 137.90 122.99 137.95 C 117.01 137.77 111.02 138.16 105.04 137.79 C 102.63 137.88 101.24 135.65 99.69 134.19 C 104.16 134.22 108.72 134.18 112.93 132.44 C 111.37 131.04 110.16 129.34 109.31 127.44 C 107.61 123.54 103.25 122.16 99.61 120.71 C 101.86 124.65 100.50 129.60 97.09 132.39 C 93.99 127.98 97.03 122.86 96.92 118.02 C 99.84 118.40 104.03 120.30 105.67 116.72 C 106.13 114.33 102.87 113.21 101.24 112.06 C 98.65 111.98 95.35 112.99 94.31 109.65 C 93.95 105.38 96.97 101.62 100.12 99.09 C 102.23 97.13 105.30 97.57 107.88 96.84 M 115.34 100.62 C 115.60 104.54 116.20 108.46 117.70 112.11 C 119.05 109.11 121.38 106.80 124.10 105.01 C 122.59 105.53 121.09 106.05 119.58 106.56 C 118.87 104.12 117.60 101.91 115.34 100.62 M 104.70 109.26 C 105.39 110.79 105.62 112.96 107.47 113.57 C 108.87 113.94 110.32 114.06 111.75 114.24 C 110.79 111.77 109.78 109.32 108.73 106.88 C 107.38 107.67 106.04 108.46 104.70 109.26 M 124.00 118.41 C 125.01 119.58 126.02 120.74 127.03 121.91 C 129.52 120.48 131.96 118.98 134.18 117.17 C 130.75 117.22 127.36 117.78 124.00 118.41 M 117.61 122.53 C 119.72 122.60 121.84 122.61 123.95 122.61 C 123.25 121.68 122.55 120.75 121.85 119.83 C 120.42 120.70 119.00 121.60 117.61 122.53 M 118.42 123.71 C 118.05 124.30 117.31 125.48 116.95 126.07 C 119.04 125.97 121.13 125.86 123.22 125.72 C 121.63 125.03 120.03 124.36 118.42 123.71 M 132.56 126.35 C 131.49 127.87 134.10 129.69 135.29 128.37 C 136.45 126.84 133.73 125.16 132.56 126.35 Z" />
</g>
<g id="#595959ff">
<path fill="#595959" opacity="1.00" d=" M 85.81 103.85 C 87.90 104.74 90.08 105.40 92.35 105.61 C 90.92 106.23 89.49 106.83 88.06 107.43 C 89.00 107.79 89.94 108.16 90.88 108.53 C 90.62 108.80 90.11 109.34 89.85 109.61 C 87.92 108.87 85.97 108.17 84.01 107.51 C 84.26 107.23 84.75 106.66 84.99 106.38 C 85.57 106.48 86.73 106.68 87.31 106.78 C 86.80 105.80 86.31 104.83 85.81 103.85 Z" />
</g>
<g id="#5d5d5dff">
<path fill="#5d5d5d" opacity="1.00" d=" M 143.05 107.35 C 145.27 106.73 147.48 106.12 149.74 105.64 C 149.92 106.36 150.30 107.80 150.49 108.52 C 148.41 107.27 146.13 107.90 144.00 108.59 C 143.76 108.28 143.29 107.66 143.05 107.35 Z" />
</g>
<g id="#505050ff">
<path fill="#505050" opacity="1.00" d=" M 144.42 114.12 C 146.81 113.87 149.22 113.73 151.62 113.66 C 150.80 114.36 149.97 115.06 149.14 115.75 C 149.90 116.26 150.66 116.78 151.41 117.31 C 149.10 117.49 146.81 117.83 144.56 118.40 C 145.61 117.40 146.68 116.42 147.76 115.46 C 146.64 115.04 145.52 114.59 144.42 114.12 Z" />
</g>
<g id="#c4c4c4ff">
<path fill="#c4c4c4" opacity="1.00" d=" M 124.00 118.41 C 127.36 117.78 130.75 117.22 134.18 117.17 C 131.96 118.98 129.52 120.48 127.03 121.91 C 126.02 120.74 125.01 119.58 124.00 118.41 Z" />
</g>
<g id="#bebebdff">
<path fill="#bebebd" opacity="1.00" d=" M 117.61 122.53 C 119.00 121.60 120.42 120.70 121.85 119.83 C 122.55 120.75 123.25 121.68 123.95 122.61 C 121.84 122.61 119.72 122.60 117.61 122.53 Z" />
<path fill="#bebebd" opacity="1.00" d=" M 132.56 126.35 C 133.73 125.16 136.45 126.84 135.29 128.37 C 134.10 129.69 131.49 127.87 132.56 126.35 Z" />
</g>
<g id="#bdbdbcff">
<path fill="#bdbdbc" opacity="1.00" d=" M 118.42 123.71 C 120.03 124.36 121.63 125.03 123.22 125.72 C 121.13 125.86 119.04 125.97 116.95 126.07 C 117.31 125.48 118.05 124.30 118.42 123.71 Z" />
</g>
<g id="#cdcdccff">
<path fill="#cdcdcc" opacity="1.00" d=" M 80.58 148.17 C 82.02 144.71 84.75 142.00 88.19 140.54 C 86.53 143.83 83.84 146.46 80.58 148.17 Z" />
</g>
<g id="#c7c5c3ff">
<path fill="#c7c5c3" opacity="1.00" d=" M 146.67 141.87 C 149.88 142.95 153.30 144.09 155.38 146.96 C 153.63 146.53 151.89 146.05 150.17 145.51 C 150.75 147.18 151.29 148.86 151.77 150.56 C 148.82 148.55 147.70 145.10 146.67 141.87 Z" />
</g>
<g id="#3a3a3aff">
<path fill="#3a3a3a" opacity="1.00" d=" M 103.16 143.84 C 104.46 144.03 105.29 145.06 106.17 145.90 C 105.48 146.60 104.80 147.29 104.11 147.99 C 103.48 147.69 102.23 147.08 101.60 146.77 C 102.08 145.77 102.60 144.80 103.16 143.84 Z" />
</g>
<g id="#2b2b2bff">
<path fill="#2b2b2b" opacity="1.00" d=" M 128.91 146.85 C 128.50 145.00 130.26 143.41 132.04 144.23 C 132.19 145.46 132.25 146.70 132.22 147.95 C 131.09 147.64 129.99 147.27 128.91 146.85 Z" />
</g>
<g id="#282727ff">
<path fill="#282727" opacity="1.00" d=" M 111.91 148.70 C 114.05 147.84 115.98 146.57 117.15 144.52 C 118.68 146.10 120.40 147.47 122.29 148.59 C 119.84 149.18 118.08 150.84 117.12 153.14 C 116.29 150.67 114.54 149.05 111.91 148.70 Z" />
</g>
<g id="#c3bfbdff">
<path fill="#c3bfbd" opacity="1.00" d=" M 139.76 146.60 C 144.03 146.44 146.53 150.95 148.27 154.25 C 144.65 152.71 141.95 149.76 139.76 146.60 Z" />
</g>
<g id="#d8adb3e3">
<path fill="#d8adb3" opacity="0.89" d=" M 0.00 666.00 C 165.34 666.00 330.69 666.01 496.03 666.00 C 497.31 666.04 498.58 666.18 499.85 666.41 L 501.01 667.00 L 0.00 667.00 L 0.00 666.00 Z" />
</g>
<g id="#8a0d1daa">
<path fill="#8a0d1d" opacity="0.67" d=" M 499.85 666.41 C 510.20 665.49 520.62 666.24 531.00 666.00 C 687.33 666.00 843.67 666.00 1000.00 666.00 L 1000.00 667.00 L 501.01 667.00 L 499.85 666.41 Z" />
</g>
</svg>
