<?xml version="1.0" encoding="UTF-8" ?>
<!DOCTYPE svg PUBLIC "-//W3C//DTD SVG 1.1//EN" "http://www.w3.org/Graphics/SVG/1.1/DTD/svg11.dtd">
<svg width="1000px" height="500px" viewBox="0 0 1000 500" version="1.1" xmlns="http://www.w3.org/2000/svg">
<g id="#cf142bff">
<path fill="#cf142b" opacity="1.00" d=" M 0.00 0.00 L 0.27 0.00 C 54.50 27.44 109.00 54.37 163.29 81.68 C 163.99 82.06 165.38 82.84 166.08 83.23 C 154.72 83.45 143.36 83.30 132.00 83.33 C 128.68 83.44 125.84 81.54 122.98 80.14 C 82.01 59.58 40.94 39.20 0.00 18.58 L 0.00 0.00 Z" />
<path fill="#cf142b" opacity="1.00" d=" M 225.00 0.00 L 274.99 0.00 C 275.00 33.33 274.99 66.67 275.00 100.00 C 350.00 100.00 425.00 100.00 500.00 100.00 C 500.00 116.67 500.00 133.33 500.00 150.00 C 425.00 150.00 350.00 149.99 275.00 150.00 C 274.99 183.33 275.00 216.67 275.00 250.00 C 258.33 250.00 241.67 250.00 225.00 250.00 C 225.00 216.67 225.00 183.33 225.00 150.00 C 150.00 149.99 75.00 150.00 0.00 150.00 L 0.00 100.00 C 75.00 100.00 150.00 100.00 225.00 100.00 C 225.00 66.67 225.00 33.33 225.00 0.00 Z" />
<path fill="#cf142b" opacity="1.00" d=" M 462.66 0.00 L 499.74 0.00 C 445.71 27.35 391.41 54.15 337.32 81.38 C 335.37 82.37 333.31 83.36 331.07 83.33 C 319.37 83.40 307.66 83.22 295.96 83.41 C 351.49 55.53 407.11 27.84 462.66 0.00 Z" />
<path fill="#cf142b" opacity="1.00" d=" M 163.99 167.98 C 165.52 167.21 167.19 166.66 168.93 166.67 C 180.63 166.59 192.33 166.78 204.03 166.59 C 148.52 194.43 92.92 222.11 37.40 249.96 C 25.06 250.01 12.72 250.08 0.38 249.90 C 54.84 222.44 109.48 195.35 163.99 167.98 Z" />
<path fill="#cf142b" opacity="1.00" d=" M 334.02 166.78 C 344.01 166.51 354.01 166.76 364.00 166.64 C 367.04 166.67 370.28 166.35 373.05 167.86 C 415.35 189.05 457.68 210.20 500.00 231.34 C 500.00 237.55 499.99 243.77 500.01 249.98 L 499.80 249.94 C 464.56 232.23 429.25 214.65 393.98 196.99 C 374.03 186.86 353.81 177.22 334.02 166.78 Z" />
</g>
<g id="#ffffffff">
<path fill="#ffffff" opacity="1.00" d=" M 0.27 0.00 L 55.94 0.00 C 106.73 25.43 157.54 50.79 208.33 76.22 C 208.33 50.81 208.34 25.41 208.33 0.00 L 225.00 0.00 C 225.00 33.33 225.00 66.67 225.00 100.00 C 150.00 100.00 75.00 100.00 0.00 100.00 L 0.00 83.33 C 36.70 83.26 73.40 83.47 110.09 83.23 C 106.20 80.86 102.03 79.01 97.98 76.95 C 65.33 60.57 32.61 44.35 0.00 27.89 L 0.00 18.58 C 40.94 39.20 82.01 59.58 122.98 80.14 C 125.84 81.54 128.68 83.44 132.00 83.33 C 143.36 83.30 154.72 83.45 166.08 83.23 C 165.38 82.84 163.99 82.06 163.29 81.68 C 109.00 54.37 54.50 27.44 0.27 0.00 Z" />
<path fill="#ffffff" opacity="1.00" d=" M 274.99 0.00 L 291.66 0.00 C 291.66 25.40 291.66 50.81 291.66 76.21 C 342.36 50.76 393.20 25.61 443.81 0.00 L 462.66 0.00 C 407.11 27.84 351.49 55.53 295.96 83.41 C 307.66 83.22 319.37 83.40 331.07 83.33 C 333.31 83.36 335.37 82.37 337.32 81.38 C 391.41 54.15 445.71 27.35 499.74 0.00 L 499.93 0.00 C 500.07 9.31 499.97 18.63 500.00 27.94 C 463.29 46.42 426.37 64.51 389.79 83.23 C 426.51 83.45 463.24 83.30 499.97 83.31 C 500.03 88.87 499.99 94.44 500.00 100.00 C 425.00 100.00 350.00 100.00 275.00 100.00 C 274.99 66.67 275.00 33.33 274.99 0.00 Z" />
<path fill="#ffffff" opacity="1.00" d=" M 659.23 142.45 C 719.74 142.52 780.25 142.48 840.76 142.47 C 840.79 166.30 840.80 190.13 840.76 213.97 C 840.67 237.27 836.89 260.84 827.33 282.22 C 818.47 302.49 804.41 320.36 787.18 334.20 C 775.87 343.56 763.12 351.03 749.98 357.51 C 733.26 349.30 717.26 339.28 703.81 326.30 C 687.64 311.07 675.27 291.85 668.16 270.81 C 661.59 251.97 659.19 231.91 659.19 212.03 C 659.21 188.84 659.12 165.64 659.23 142.45 M 665.25 149.84 C 665.35 162.58 665.27 175.31 665.29 188.05 C 665.44 209.73 664.24 231.69 669.09 253.00 C 673.79 275.08 683.88 296.15 699.01 312.98 C 713.02 328.97 730.97 341.02 749.99 350.27 C 768.80 341.12 786.56 329.24 800.51 313.50 C 815.39 297.08 825.53 276.62 830.43 255.05 C 836.06 231.78 834.43 207.71 834.67 184.00 C 834.56 172.55 834.90 161.08 834.50 149.64 C 778.09 149.90 721.66 149.50 665.25 149.84 Z" />
<path fill="#ffffff" opacity="1.00" d=" M 0.00 150.00 C 75.00 150.00 150.00 149.99 225.00 150.00 C 225.00 183.33 225.00 216.67 225.00 250.00 C 219.44 249.99 213.87 250.02 208.31 249.97 C 208.36 224.57 208.32 199.17 208.33 173.77 C 159.57 198.18 110.79 222.53 62.03 246.94 C 59.46 248.09 57.03 250.00 54.09 249.99 C 48.53 250.08 42.97 249.96 37.40 249.96 C 92.92 222.11 148.52 194.43 204.03 166.59 C 192.33 166.78 180.63 166.59 168.93 166.67 C 167.19 166.66 165.52 167.21 163.99 167.98 C 109.48 195.35 54.84 222.44 0.38 249.90 L 0.00 250.10 L 0.00 222.10 C 36.65 203.50 73.61 185.51 110.18 166.76 C 73.46 166.54 36.73 166.72 0.00 166.67 L 0.00 150.00 Z" />
<path fill="#ffffff" opacity="1.00" d=" M 275.00 150.00 C 350.00 149.99 425.00 150.00 500.00 150.00 C 499.99 155.56 500.03 161.13 499.96 166.69 C 463.25 166.69 426.55 166.54 389.85 166.77 C 426.40 185.50 463.31 203.56 499.99 222.04 C 500.00 225.14 500.00 228.24 500.00 231.34 C 457.68 210.20 415.35 189.05 373.05 167.86 C 370.28 166.35 367.04 166.67 364.00 166.64 C 354.01 166.76 344.01 166.51 334.02 166.78 C 353.81 177.22 374.03 186.86 393.98 196.99 C 429.25 214.65 464.56 232.23 499.80 249.94 C 481.22 249.93 462.61 250.25 444.05 249.80 C 429.22 242.82 414.69 235.16 399.97 227.94 C 363.87 209.88 327.76 191.84 291.66 173.77 C 291.68 199.17 291.63 224.57 291.68 249.97 C 286.12 250.02 280.56 249.99 275.00 250.00 C 275.00 216.67 274.99 183.33 275.00 150.00 Z" />
</g>
<g id="#00247dff">
<path fill="#00247d" opacity="1.00" d=" M 55.94 0.00 L 208.33 0.00 C 208.34 25.41 208.33 50.81 208.33 76.22 C 157.54 50.79 106.73 25.43 55.94 0.00 Z" />
<path fill="#00247d" opacity="1.00" d=" M 291.66 0.00 L 443.81 0.00 C 393.20 25.61 342.36 50.76 291.66 76.21 C 291.66 50.81 291.66 25.40 291.66 0.00 Z" />
<path fill="#00247d" opacity="1.00" d=" M 499.93 0.00 L 1000.00 0.00 L 1000.00 500.00 L 0.00 500.00 L 0.00 250.10 L 0.38 249.90 C 12.72 250.08 25.06 250.01 37.40 249.96 C 42.97 249.96 48.53 250.08 54.09 249.99 C 57.03 250.00 59.46 248.09 62.03 246.94 C 110.79 222.53 159.57 198.18 208.33 173.77 C 208.32 199.17 208.36 224.57 208.31 249.97 C 213.87 250.02 219.44 249.99 225.00 250.00 C 241.67 250.00 258.33 250.00 275.00 250.00 C 280.56 249.99 286.12 250.02 291.68 249.97 C 291.63 224.57 291.68 199.17 291.66 173.77 C 327.76 191.84 363.87 209.88 399.97 227.94 C 414.69 235.16 429.22 242.82 444.05 249.80 C 462.61 250.25 481.22 249.93 499.80 249.94 L 500.01 249.98 C 499.99 243.77 500.00 237.55 500.00 231.34 C 500.00 228.24 500.00 225.14 499.99 222.04 C 463.31 203.56 426.40 185.50 389.85 166.77 C 426.55 166.54 463.25 166.69 499.96 166.69 C 500.03 161.13 499.99 155.56 500.00 150.00 C 500.00 133.33 500.00 116.67 500.00 100.00 C 499.99 94.44 500.03 88.87 499.97 83.31 C 463.24 83.30 426.51 83.45 389.79 83.23 C 426.37 64.51 463.29 46.42 500.00 27.94 C 499.97 18.63 500.07 9.31 499.93 0.00 M 659.23 142.45 C 659.12 165.64 659.21 188.84 659.19 212.03 C 659.19 231.91 661.59 251.97 668.16 270.81 C 675.27 291.85 687.64 311.07 703.81 326.30 C 717.26 339.28 733.26 349.30 749.98 357.51 C 763.12 351.03 775.87 343.56 787.18 334.20 C 804.41 320.36 818.47 302.49 827.33 282.22 C 836.89 260.84 840.67 237.27 840.76 213.97 C 840.80 190.13 840.79 166.30 840.76 142.47 C 780.25 142.48 719.74 142.52 659.23 142.45 Z" />
<path fill="#00247d" opacity="1.00" d=" M 0.00 27.89 C 32.61 44.35 65.33 60.57 97.98 76.95 C 102.03 79.01 106.20 80.86 110.09 83.23 C 73.40 83.47 36.70 83.26 0.00 83.33 L 0.00 27.89 Z" />
<path fill="#00247d" opacity="1.00" d=" M 0.00 166.67 C 36.73 166.72 73.46 166.54 110.18 166.76 C 73.61 185.51 36.65 203.50 0.00 222.10 L 0.00 166.67 Z" />
</g>
<g id="#fdc300ff">
<path fill="#fdc300" opacity="1.00" d=" M 665.25 149.84 C 721.66 149.50 778.09 149.90 834.50 149.64 C 834.90 161.08 834.56 172.55 834.67 184.00 C 834.43 207.71 836.06 231.78 830.43 255.05 C 825.53 276.62 815.39 297.08 800.51 313.50 C 786.56 329.24 768.80 341.12 749.99 350.27 C 730.97 341.02 713.02 328.97 699.01 312.98 C 683.88 296.15 673.79 275.08 669.09 253.00 C 664.24 231.69 665.44 209.73 665.29 188.05 C 665.27 175.31 665.35 162.58 665.25 149.84 M 784.94 154.64 C 785.07 155.49 785.34 157.18 785.47 158.03 C 783.14 160.76 780.51 163.70 780.39 167.50 C 784.51 167.22 783.55 161.72 786.65 159.79 C 787.95 163.26 788.68 166.91 789.19 170.57 C 789.30 170.73 789.51 171.06 789.62 171.22 C 785.81 166.28 778.68 167.21 774.22 170.68 C 770.30 168.24 766.44 165.67 762.28 163.67 C 761.25 163.06 760.08 163.28 758.98 163.37 C 762.79 167.29 767.41 170.25 771.95 173.25 C 771.31 174.61 770.67 175.96 770.05 177.32 C 764.13 175.97 757.58 174.65 751.74 176.78 C 757.32 178.85 763.47 178.63 769.21 180.24 C 768.57 185.07 769.07 189.91 769.31 194.75 C 763.39 195.45 756.69 196.94 752.92 201.97 C 758.56 201.10 763.83 198.70 769.44 197.64 C 769.74 208.11 770.47 218.57 770.79 229.04 C 771.07 234.76 769.41 240.32 769.29 246.02 C 773.17 236.83 772.33 226.65 771.79 216.94 C 771.49 206.28 771.05 195.62 771.27 184.95 C 771.31 181.41 772.19 177.83 774.29 174.94 C 777.15 177.41 780.41 179.39 783.15 182.01 C 779.29 181.93 776.36 178.95 772.64 178.27 C 772.60 178.98 772.50 180.41 772.45 181.13 C 774.78 183.47 778.39 184.19 781.18 186.01 C 780.87 187.30 780.55 188.59 780.15 189.85 C 777.45 188.75 774.67 187.85 771.82 187.30 C 771.84 188.19 771.88 189.96 771.90 190.85 C 774.52 191.57 777.13 192.31 779.71 193.20 L 780.16 193.99 C 779.97 194.45 779.60 195.36 779.41 195.82 C 776.85 195.77 774.33 195.24 771.81 194.90 C 771.81 195.66 771.82 197.18 771.82 197.93 C 774.51 198.52 777.17 199.27 779.81 200.12 C 780.78 203.37 781.11 206.77 782.11 210.02 C 783.63 215.84 783.54 222.49 786.89 227.62 L 787.34 227.73 C 783.85 230.51 779.89 233.62 778.46 238.00 C 777.86 240.74 780.78 241.30 782.68 240.37 C 783.10 241.58 783.54 242.81 784.00 244.02 C 784.72 243.98 786.16 243.89 786.88 243.85 C 788.55 245.70 790.50 244.93 792.19 243.55 C 793.09 244.17 794.00 244.78 794.91 245.41 C 795.46 245.01 796.56 244.21 797.11 243.81 C 797.85 243.87 799.32 243.98 800.05 244.04 C 800.55 242.84 801.00 241.62 801.42 240.38 C 803.28 241.26 806.21 240.77 805.77 238.12 C 804.40 233.52 800.05 230.72 796.79 227.50 L 797.05 227.33 C 799.61 225.88 799.06 222.35 800.10 219.92 C 801.39 213.32 802.76 206.75 804.26 200.19 C 806.84 199.30 809.47 198.54 812.15 197.97 C 812.17 197.20 812.20 195.64 812.21 194.86 C 809.67 195.24 807.14 195.66 804.62 196.08 C 803.38 191.57 809.39 192.18 812.14 190.91 C 812.18 190.02 812.25 188.26 812.28 187.37 C 809.41 187.81 806.67 188.77 803.99 189.85 C 803.49 188.44 802.20 186.08 804.23 185.36 C 806.90 183.21 813.04 183.15 811.56 178.36 C 808.09 178.98 805.21 181.18 801.87 182.14 L 801.23 182.23 C 803.20 178.76 808.10 177.98 809.64 174.11 C 811.60 177.42 812.97 181.15 812.79 185.06 C 812.89 200.05 812.57 215.05 811.88 230.03 C 812.00 235.17 812.57 240.48 814.80 245.19 C 814.46 239.10 812.94 233.09 813.43 226.95 C 813.94 217.27 814.22 207.57 814.78 197.89 C 820.42 198.49 825.54 201.22 831.14 201.98 C 827.47 197.01 820.73 195.13 814.79 195.07 C 815.44 187.75 816.00 179.86 812.19 173.22 C 816.70 170.12 821.80 167.47 825.11 162.97 C 819.34 163.78 814.86 168.01 809.87 170.69 C 805.67 167.43 799.38 166.44 795.21 170.29 C 795.40 166.70 796.28 163.21 797.47 159.84 C 799.62 161.68 800.49 164.43 801.34 167.04 C 802.07 167.06 803.53 167.11 804.26 167.13 C 803.09 163.74 801.18 160.68 798.81 158.00 C 798.87 157.16 799.00 155.46 799.06 154.62 C 794.15 158.91 791.75 165.84 793.12 172.25 L 793.79 171.61 C 793.33 173.28 792.04 175.37 792.85 177.00 L 792.05 176.57 C 791.49 175.12 790.95 173.64 790.27 172.25 C 793.19 166.28 789.72 158.69 784.94 154.64 M 686.95 159.83 C 686.73 160.34 686.31 161.36 686.09 161.87 C 684.99 165.26 684.38 168.77 683.39 172.19 C 685.09 172.62 685.44 174.02 685.42 175.60 L 685.47 175.57 C 685.99 176.03 687.02 176.93 687.54 177.39 C 687.16 178.49 686.76 179.58 686.35 180.67 C 685.73 181.07 684.50 181.86 683.88 182.25 C 682.97 181.25 680.01 181.45 680.30 183.16 L 678.90 182.95 L 678.80 183.96 C 678.20 184.94 677.60 185.93 677.02 186.92 C 680.56 186.03 684.36 185.31 687.49 187.76 C 685.56 188.83 684.01 190.91 684.18 193.20 L 683.31 193.35 L 682.89 194.36 L 683.38 195.18 C 681.39 197.25 678.29 198.40 677.05 201.06 C 677.41 205.73 682.29 208.05 686.00 209.89 C 690.35 211.63 693.87 214.76 697.72 217.35 C 700.26 218.92 701.24 221.94 703.40 223.91 C 702.11 224.94 703.54 227.71 705.12 226.81 C 705.52 228.78 707.03 230.25 708.16 231.84 L 709.31 231.83 C 709.32 233.70 713.59 233.90 713.71 231.99 C 714.50 231.62 716.07 230.89 716.86 230.52 C 718.01 227.84 721.20 227.77 723.69 227.43 L 724.78 227.23 L 725.47 226.02 C 725.99 223.73 726.28 221.40 726.65 219.09 C 726.99 218.70 727.68 217.91 728.02 217.52 C 729.63 218.51 733.11 217.03 732.57 214.94 C 734.04 214.17 734.67 212.46 735.27 211.01 C 737.27 211.88 738.21 207.33 736.06 207.37 L 735.76 206.49 C 735.39 203.01 737.25 198.81 734.94 195.82 C 734.63 195.30 734.01 194.27 733.70 193.76 C 734.16 191.91 735.00 188.18 732.90 187.33 C 732.71 185.62 730.87 184.91 729.86 183.75 C 730.78 182.81 730.48 179.98 728.85 180.20 L 728.94 179.24 C 727.45 177.89 726.03 176.47 724.70 174.97 C 725.69 173.49 725.41 172.57 723.86 172.21 L 724.05 170.77 C 725.15 169.61 723.47 167.16 722.05 168.16 C 720.91 165.47 718.13 164.06 715.94 162.33 C 714.15 164.15 712.36 165.97 710.85 168.02 C 708.95 170.94 709.76 174.52 709.67 177.78 C 706.54 178.06 706.04 175.14 705.29 172.87 C 703.70 170.58 700.71 170.10 698.73 168.31 C 697.75 166.91 697.08 165.34 696.08 163.98 C 693.62 162.48 690.84 161.39 688.95 159.11 C 689.08 157.10 685.78 158.34 686.95 159.83 M 814.47 177.08 C 814.67 177.71 815.07 178.98 815.27 179.61 C 817.75 180.23 820.37 178.89 822.91 178.71 C 826.03 177.94 829.82 178.71 832.28 176.23 C 826.35 175.32 820.29 175.74 814.47 177.08 M 752.21 187.29 C 752.04 187.65 751.70 188.37 751.53 188.73 C 757.17 189.31 762.87 189.14 768.47 190.19 C 768.41 189.28 768.29 187.45 768.23 186.53 C 762.91 185.75 757.43 185.99 752.21 187.29 M 816.05 186.31 C 815.93 187.58 815.82 188.85 815.73 190.13 C 821.45 188.89 827.48 189.92 833.09 188.15 C 827.93 185.40 821.70 186.13 816.05 186.31 M 739.91 227.90 C 735.37 234.04 735.61 242.14 735.14 249.41 C 734.68 249.89 733.75 250.86 733.29 251.34 L 733.17 250.93 C 733.30 251.72 733.58 253.31 733.72 254.11 C 732.96 254.84 732.20 255.58 731.45 256.31 C 731.14 257.38 730.84 258.45 730.55 259.52 C 729.82 260.10 729.10 260.69 728.39 261.28 C 728.17 262.46 727.95 263.64 727.75 264.82 C 727.32 265.15 726.45 265.81 726.02 266.14 C 725.89 268.55 725.05 270.75 722.89 272.00 C 722.86 273.59 722.86 275.18 722.86 276.77 C 722.51 277.19 721.79 278.03 721.44 278.45 C 721.76 280.89 721.27 283.18 719.39 284.89 C 719.42 286.31 720.13 287.91 719.20 289.20 C 717.41 291.61 718.80 295.07 716.35 297.15 C 716.79 299.53 717.01 302.03 715.45 304.08 C 715.70 306.74 715.36 309.40 715.23 312.06 C 715.43 315.61 718.30 318.58 721.82 318.97 C 725.24 322.49 730.02 323.77 734.73 324.38 C 739.50 326.50 745.30 327.63 749.91 324.47 C 754.28 327.48 759.86 326.65 764.44 324.58 C 768.53 323.60 773.06 323.33 776.30 320.27 C 778.22 318.25 781.64 318.57 783.09 316.00 C 785.76 312.45 783.82 308.02 784.25 304.02 C 782.02 301.23 784.69 297.33 781.84 294.90 C 781.66 293.26 781.96 291.47 781.03 290.02 C 779.31 287.70 781.39 284.21 778.42 282.60 C 778.40 281.32 778.40 280.05 778.42 278.78 C 777.83 277.92 777.26 277.07 776.69 276.22 C 776.75 274.81 776.81 273.41 776.87 272.02 C 775.92 271.10 774.54 270.43 774.37 269.00 C 773.95 266.19 771.44 264.31 771.35 261.41 C 769.67 260.12 768.65 258.31 768.16 256.28 C 767.23 255.33 766.39 254.31 765.81 253.12 C 765.84 252.27 765.91 250.56 765.94 249.70 L 764.50 249.58 C 764.41 247.44 764.32 245.30 764.16 243.16 C 763.58 236.33 762.46 227.26 754.94 224.64 C 749.84 223.91 743.43 223.27 739.91 227.90 Z" />
<path fill="#fdc300" opacity="1.00" d=" M 776.86 172.39 C 780.50 168.25 788.21 170.34 788.99 175.93 C 785.67 174.90 784.42 170.32 780.62 170.77 C 781.78 173.43 783.66 175.67 785.25 178.09 C 782.47 176.16 779.77 174.12 776.86 172.39 Z" />
<path fill="#fdc300" opacity="1.00" d=" M 795.10 176.86 C 795.22 173.31 798.28 169.97 801.97 170.28 C 804.19 170.03 806.11 171.23 807.88 172.39 C 804.49 173.73 801.82 176.24 798.86 178.26 C 800.48 175.80 802.47 173.52 803.45 170.69 C 799.61 170.75 797.86 174.79 795.10 176.86 Z" />
<path fill="#fdc300" opacity="1.00" d=" M 733.42 275.69 C 735.41 270.87 734.83 265.20 737.62 260.75 C 737.70 266.23 735.85 271.42 734.74 276.72 C 733.83 283.36 730.31 289.27 729.55 295.98 C 727.95 299.75 726.95 303.78 727.16 307.90 C 726.21 309.23 725.34 310.62 724.69 312.12 C 724.50 311.67 724.13 310.76 723.94 310.31 C 724.62 308.94 725.08 307.49 725.14 305.96 C 725.02 303.41 727.29 301.56 727.09 299.01 C 726.91 296.87 728.38 295.16 728.63 293.11 C 728.62 289.92 730.99 287.39 730.76 284.16 C 732.56 281.64 731.97 278.36 733.42 275.69 Z" />
<path fill="#fdc300" opacity="1.00" d=" M 742.37 263.84 C 744.63 266.09 743.04 269.34 742.72 272.01 C 742.59 276.34 741.76 280.62 740.96 284.87 C 740.96 290.97 740.35 297.21 738.48 303.06 C 738.34 308.51 737.80 314.21 735.47 319.20 C 734.97 317.01 735.23 314.83 736.18 312.80 C 737.97 296.43 740.33 280.12 742.37 263.84 Z" />
<path fill="#fdc300" opacity="1.00" d=" M 750.23 264.73 C 752.90 269.43 751.28 275.37 751.28 280.58 C 750.44 283.78 752.19 286.87 751.71 290.06 C 751.12 296.02 752.53 302.00 752.07 307.94 C 751.00 311.59 753.44 316.10 749.97 318.94 C 750.38 315.93 751.03 312.84 749.48 310.01 C 751.13 307.13 750.22 303.97 749.83 300.93 C 750.42 296.55 748.97 292.17 750.38 287.88 C 749.29 283.25 750.50 278.61 750.22 273.93 C 750.21 270.85 749.14 267.75 750.23 264.73 Z" />
</g>
<g id="#ac6313ff">
<path fill="#ac6313" opacity="1.00" d=" M 784.94 154.64 C 789.72 158.69 793.19 166.28 790.27 172.25 C 790.11 171.99 789.78 171.48 789.62 171.22 C 789.51 171.06 789.30 170.73 789.19 170.57 C 788.68 166.91 787.95 163.26 786.65 159.79 C 783.55 161.72 784.51 167.22 780.39 167.50 C 780.51 163.70 783.14 160.76 785.47 158.03 C 785.34 157.18 785.07 155.49 784.94 154.64 Z" />
</g>
<g id="#ad6712ff">
<path fill="#ad6712" opacity="1.00" d=" M 793.12 172.25 C 791.75 165.84 794.15 158.91 799.06 154.62 C 799.00 155.46 798.87 157.16 798.81 158.00 C 801.18 160.68 803.09 163.74 804.26 167.13 C 803.53 167.11 802.07 167.06 801.34 167.04 C 800.49 164.43 799.62 161.68 797.47 159.84 C 796.28 163.21 795.40 166.70 795.21 170.29 C 794.86 170.62 794.15 171.28 793.79 171.61 L 793.12 172.25 Z" />
</g>
<g id="#db9d14ff">
<path fill="#db9d14" opacity="1.00" d=" M 686.95 159.83 C 685.78 158.34 689.08 157.10 688.95 159.11 C 688.45 159.29 687.45 159.65 686.95 159.83 Z" />
</g>
<g id="#ff9e3dff">
<path fill="#ff9e3d" opacity="1.00" d=" M 686.95 159.83 C 687.45 159.65 688.45 159.29 688.95 159.11 C 690.84 161.39 693.62 162.48 696.08 163.98 C 697.08 165.34 697.75 166.91 698.73 168.31 C 700.71 170.10 703.70 170.58 705.29 172.87 C 705.83 174.98 705.65 177.05 703.17 177.62 C 705.35 177.69 707.53 177.94 709.71 178.23 C 709.66 181.29 709.56 184.36 709.26 187.41 C 707.81 191.11 703.75 192.75 701.56 195.94 C 701.32 196.18 700.84 196.67 700.60 196.92 C 700.64 197.71 700.70 199.29 700.74 200.08 C 701.78 206.01 707.91 208.53 710.09 213.83 C 709.46 215.25 709.79 216.33 711.10 217.07 L 710.90 218.01 C 710.34 219.45 710.95 220.96 711.90 222.09 C 712.72 224.38 713.64 226.69 715.39 228.47 C 715.87 229.15 716.36 229.83 716.86 230.52 C 716.07 230.89 714.50 231.62 713.71 231.99 C 712.23 231.89 710.77 231.78 709.31 231.83 L 708.16 231.84 C 707.03 230.25 705.52 228.78 705.12 226.81 C 704.96 225.63 704.32 224.62 703.40 223.91 C 701.24 221.94 700.26 218.92 697.72 217.35 C 693.87 214.76 690.35 211.63 686.00 209.89 C 682.29 208.05 677.41 205.73 677.05 201.06 C 678.29 198.40 681.39 197.25 683.38 195.18 C 683.58 194.68 683.98 193.69 684.18 193.20 C 684.01 190.91 685.56 188.83 687.49 187.76 C 689.45 186.53 691.51 185.44 693.55 184.34 C 693.60 184.08 693.70 183.57 693.74 183.31 C 691.90 184.43 690.12 185.70 688.08 186.43 C 684.95 185.90 681.78 185.17 678.61 185.89 C 678.66 185.41 678.75 184.44 678.80 183.96 L 678.90 182.95 L 680.30 183.16 C 681.55 183.51 682.89 183.08 683.88 182.25 C 684.50 181.86 685.73 181.07 686.35 180.67 C 688.80 180.02 691.41 180.78 693.75 179.53 C 691.97 179.28 690.06 179.53 688.40 178.80 C 688.47 177.68 690.14 177.37 690.80 176.57 C 689.72 176.87 688.62 177.14 687.54 177.39 C 687.02 176.93 685.99 176.03 685.47 175.57 C 686.89 174.82 688.34 174.10 689.81 173.42 C 687.59 173.42 684.94 173.51 683.89 171.09 C 685.35 169.98 687.22 169.84 688.94 169.39 C 687.48 169.34 686.00 169.26 684.56 169.18 C 684.64 166.54 686.50 165.50 688.90 165.24 C 687.96 164.98 687.02 164.73 686.10 164.46 C 686.10 163.81 686.09 162.52 686.09 161.87 C 686.31 161.36 686.73 160.34 686.95 159.83 M 694.70 167.47 C 695.04 169.47 696.12 171.18 697.10 172.92 C 697.94 174.44 697.65 176.54 699.18 177.67 C 699.90 173.64 697.66 169.97 694.70 167.47 M 695.17 197.24 C 694.05 198.26 692.93 200.10 693.37 201.65 C 695.09 202.02 696.81 197.95 695.17 197.24 M 687.79 205.20 C 688.99 205.23 689.97 204.78 690.74 203.86 C 690.51 202.05 685.83 203.82 687.79 205.20 Z" />
</g>
<g id="#b7591eff">
<path fill="#b7591e" opacity="1.00" d=" M 683.39 172.19 C 684.38 168.77 684.99 165.26 686.09 161.87 C 686.09 162.52 686.10 163.81 686.10 164.46 C 687.02 164.73 687.96 164.98 688.90 165.24 C 686.50 165.50 684.64 166.54 684.56 169.18 C 686.00 169.26 687.48 169.34 688.94 169.39 C 687.22 169.84 685.35 169.98 683.89 171.09 C 684.94 173.51 687.59 173.42 689.81 173.42 C 688.34 174.10 686.89 174.82 685.47 175.57 L 685.42 175.60 C 685.44 174.02 685.09 172.62 683.39 172.19 Z" />
<path fill="#b7591e" opacity="1.00" d=" M 709.67 177.78 C 709.76 174.52 708.95 170.94 710.85 168.02 C 709.28 174.40 711.69 181.18 709.26 187.41 C 709.56 184.36 709.66 181.29 709.71 178.23 C 707.53 177.94 705.35 177.69 703.17 177.62 C 705.65 177.05 705.83 174.98 705.29 172.87 C 706.04 175.14 706.54 178.06 709.67 177.78 Z" />
<path fill="#b7591e" opacity="1.00" d=" M 693.74 183.31 C 693.70 183.57 693.60 184.08 693.55 184.34 C 691.51 185.44 689.45 186.53 687.49 187.76 C 684.36 185.31 680.56 186.03 677.02 186.92 C 677.60 185.93 678.20 184.94 678.80 183.96 C 678.75 184.44 678.66 185.41 678.61 185.89 C 681.78 185.17 684.95 185.90 688.08 186.43 C 690.12 185.70 691.90 184.43 693.74 183.31 Z" />
<path fill="#b7591e" opacity="1.00" d=" M 816.05 186.31 C 821.70 186.13 827.93 185.40 833.09 188.15 C 827.48 189.92 821.45 188.89 815.73 190.13 C 815.82 188.85 815.93 187.58 816.05 186.31 Z" />
</g>
<g id="#ff927fff">
<path fill="#ff927f" opacity="1.00" d=" M 710.85 168.02 C 712.36 165.97 714.15 164.15 715.94 162.33 C 718.13 164.06 720.91 165.47 722.05 168.16 C 722.41 169.19 722.79 170.52 724.05 170.77 L 723.86 172.21 C 723.58 173.29 723.86 174.21 724.70 174.97 C 726.03 176.47 727.45 177.89 728.94 179.24 L 728.85 180.20 C 728.65 181.43 728.74 182.96 729.86 183.75 C 730.87 184.91 732.71 185.62 732.90 187.33 C 732.76 189.48 732.33 191.88 733.70 193.76 C 734.01 194.27 734.63 195.30 734.94 195.82 C 735.09 199.38 734.40 203.09 735.76 206.49 L 736.06 207.37 C 735.72 208.57 735.50 209.79 735.27 211.01 C 734.67 212.46 734.04 214.17 732.57 214.94 C 730.85 215.39 729.08 216.00 728.02 217.52 C 727.68 217.91 726.99 218.70 726.65 219.09 C 725.97 221.34 725.78 223.70 725.47 226.02 L 724.78 227.23 L 723.69 227.43 C 722.36 227.57 721.10 227.38 719.91 226.88 C 720.52 225.69 721.25 224.55 721.86 223.36 C 724.13 219.47 723.54 214.60 721.82 210.62 C 721.37 209.16 720.94 207.68 720.62 206.19 C 719.45 201.82 719.72 197.28 720.58 192.89 C 720.81 191.26 720.93 189.61 721.13 187.98 C 721.41 186.69 721.01 185.65 719.94 184.86 C 719.50 183.74 719.06 182.62 718.71 181.47 C 719.00 178.02 720.63 174.58 719.93 171.11 L 718.97 170.55 C 718.87 170.82 718.67 171.36 718.56 171.63 C 717.97 173.31 717.33 175.04 716.02 176.30 C 713.96 177.73 714.38 180.34 716.02 181.90 C 716.47 183.27 716.91 184.65 717.34 186.04 C 716.60 188.29 716.29 190.78 717.50 192.95 C 716.73 195.06 715.87 197.14 714.91 199.16 C 713.04 201.05 712.94 203.92 714.87 205.81 C 715.86 208.05 716.66 210.38 717.23 212.78 C 716.46 214.26 716.81 215.34 718.26 216.01 L 718.32 216.85 C 718.44 219.94 718.68 223.05 718.27 226.13 C 718.29 227.74 716.69 228.32 715.39 228.47 C 713.64 226.69 712.72 224.38 711.90 222.09 C 712.34 220.72 712.63 218.58 710.90 218.01 L 711.10 217.07 C 711.47 215.79 711.13 214.71 710.09 213.83 C 707.91 208.53 701.78 206.01 700.74 200.08 C 702.18 199.24 701.68 197.29 701.56 195.94 C 703.75 192.75 707.81 191.11 709.26 187.41 C 711.69 181.18 709.28 174.40 710.85 168.02 Z" />
</g>
<g id="#b95a1eff">
<path fill="#b95a1e" opacity="1.00" d=" M 758.98 163.37 C 760.08 163.28 761.25 163.06 762.28 163.67 C 766.44 165.67 770.30 168.24 774.22 170.68 C 778.68 167.21 785.81 166.28 789.62 171.22 C 789.78 171.48 790.11 171.99 790.27 172.25 C 790.95 173.64 791.49 175.12 792.05 176.57 C 792.57 182.66 791.37 188.76 792.05 194.86 C 791.05 195.10 790.07 195.34 789.09 195.58 C 789.92 195.51 791.58 195.36 792.41 195.28 C 792.35 196.97 792.29 198.66 792.25 200.35 C 790.50 200.38 788.77 200.42 787.04 200.47 C 788.80 200.55 790.56 200.62 792.34 200.70 C 792.32 202.23 792.32 203.76 792.33 205.30 C 790.24 205.36 788.16 205.42 786.09 205.50 C 788.23 205.57 790.37 205.61 792.52 205.66 C 792.52 207.09 792.27 208.46 791.76 209.78 C 790.12 210.80 788.13 210.31 786.33 210.51 C 788.08 210.70 789.84 210.61 791.62 210.56 C 791.87 211.68 791.97 212.81 791.94 213.95 C 790.63 215.47 787.82 214.04 785.95 214.35 C 787.89 214.61 789.97 214.41 791.81 215.22 C 792.08 216.67 792.27 218.14 792.37 219.62 C 790.57 219.55 788.80 219.47 787.03 219.35 C 788.59 219.55 790.18 219.68 791.72 220.12 C 791.81 222.53 792.55 225.37 791.42 227.57 C 789.96 228.17 788.37 227.90 786.89 227.62 C 783.54 222.49 783.63 215.84 782.11 210.02 C 781.11 206.77 780.78 203.37 779.81 200.12 C 777.17 199.27 774.51 198.52 771.82 197.93 C 771.82 197.18 771.81 195.66 771.81 194.90 C 774.33 195.24 776.85 195.77 779.41 195.82 C 779.60 195.36 779.97 194.45 780.16 193.99 C 782.34 194.84 781.78 191.95 780.68 191.15 C 780.44 191.66 779.95 192.69 779.71 193.20 C 777.13 192.31 774.52 191.57 771.90 190.85 C 771.88 189.96 771.84 188.19 771.82 187.30 C 774.67 187.85 777.45 188.75 780.15 189.85 C 780.55 188.59 780.87 187.30 781.18 186.01 C 778.39 184.19 774.78 183.47 772.45 181.13 C 772.50 180.41 772.60 178.98 772.64 178.27 C 776.36 178.95 779.29 181.93 783.15 182.01 C 780.41 179.39 777.15 177.41 774.29 174.94 C 772.19 177.83 771.31 181.41 771.27 184.95 C 771.05 195.62 771.49 206.28 771.79 216.94 C 772.33 226.65 773.17 236.83 769.29 246.02 C 769.41 240.32 771.07 234.76 770.79 229.04 C 770.47 218.57 769.74 208.11 769.44 197.64 C 763.83 198.70 758.56 201.10 752.92 201.97 C 756.69 196.94 763.39 195.45 769.31 194.75 C 769.07 189.91 768.57 185.07 769.21 180.24 C 763.47 178.63 757.32 178.85 751.74 176.78 C 757.58 174.65 764.13 175.97 770.05 177.32 C 770.67 175.96 771.31 174.61 771.95 173.25 C 767.41 170.25 762.79 167.29 758.98 163.37 M 776.86 172.39 C 779.77 174.12 782.47 176.16 785.25 178.09 C 783.66 175.67 781.78 173.43 780.62 170.77 C 784.42 170.32 785.67 174.90 788.99 175.93 C 788.21 170.34 780.50 168.25 776.86 172.39 Z" />
<path fill="#b95a1e" opacity="1.00" d=" M 809.87 170.69 C 814.86 168.01 819.34 163.78 825.11 162.97 C 821.80 167.47 816.70 170.12 812.19 173.22 C 816.00 179.86 815.44 187.75 814.79 195.07 C 820.73 195.13 827.47 197.01 831.14 201.98 C 825.54 201.22 820.42 198.49 814.78 197.89 C 814.22 207.57 813.94 217.27 813.43 226.95 C 812.94 233.09 814.46 239.10 814.80 245.19 C 812.57 240.48 812.00 235.17 811.88 230.03 C 812.57 215.05 812.89 200.05 812.79 185.06 C 812.97 181.15 811.60 177.42 809.64 174.11 C 808.10 177.98 803.20 178.76 801.23 182.23 C 800.32 183.20 801.50 185.40 802.82 184.77 C 803.12 183.74 802.81 182.86 801.87 182.14 C 805.21 181.18 808.09 178.98 811.56 178.36 C 813.04 183.15 806.90 183.21 804.23 185.36 C 802.20 186.08 803.49 188.44 803.99 189.85 C 806.67 188.77 809.41 187.81 812.28 187.37 C 812.25 188.26 812.18 190.02 812.14 190.91 C 809.39 192.18 803.38 191.57 804.62 196.08 C 807.14 195.66 809.67 195.24 812.21 194.86 C 812.20 195.64 812.17 197.20 812.15 197.97 C 809.47 198.54 806.84 199.30 804.26 200.19 C 802.76 206.75 801.39 213.32 800.10 219.92 C 799.06 222.35 799.61 225.88 797.05 227.33 C 795.78 227.95 794.40 228.48 792.99 228.04 L 792.29 227.55 C 792.34 223.23 792.54 218.91 792.46 214.59 C 794.31 214.57 796.19 214.55 798.06 214.53 C 796.37 214.44 794.55 214.74 793.07 213.77 C 793.08 213.15 793.12 211.91 793.14 211.29 C 794.85 210.09 797.04 210.61 799.01 210.43 C 796.89 210.39 794.76 210.38 792.66 210.37 C 792.63 208.78 792.62 207.20 792.61 205.62 C 794.39 205.61 796.19 205.60 797.99 205.58 C 796.22 205.48 794.46 205.39 792.71 205.31 C 792.65 203.75 792.59 202.19 792.54 200.63 C 793.97 200.59 795.45 200.55 796.92 200.50 C 795.48 200.45 794.05 200.40 792.64 200.36 C 792.62 198.79 792.62 197.22 792.62 195.66 C 793.18 195.62 794.31 195.52 794.88 195.48 C 794.27 195.44 793.07 195.38 792.47 195.34 C 792.38 192.10 792.35 188.86 792.35 185.62 C 794.90 185.59 797.46 185.56 800.02 185.46 C 797.47 185.41 794.92 185.43 792.38 185.46 C 792.42 182.86 792.34 180.17 793.48 177.75 C 793.32 177.56 793.01 177.19 792.85 177.00 C 792.04 175.37 793.33 173.28 793.79 171.61 C 794.15 171.28 794.86 170.62 795.21 170.29 C 799.38 166.44 805.67 167.43 809.87 170.69 M 795.10 176.86 C 797.86 174.79 799.61 170.75 803.45 170.69 C 802.47 173.52 800.48 175.80 798.86 178.26 C 801.82 176.24 804.49 173.73 807.88 172.39 C 806.11 171.23 804.19 170.03 801.97 170.28 C 798.28 169.97 795.22 173.31 795.10 176.86 Z" />
<path fill="#b95a1e" opacity="1.00" d=" M 814.47 177.08 C 820.29 175.74 826.35 175.32 832.28 176.23 C 829.82 178.71 826.03 177.94 822.91 178.71 C 820.37 178.89 817.75 180.23 815.27 179.61 C 815.07 178.98 814.67 177.71 814.47 177.08 Z" />
<path fill="#b95a1e" opacity="1.00" d=" M 778.46 238.00 C 779.89 233.62 783.85 230.51 787.34 227.73 C 787.73 227.82 788.51 228.01 788.89 228.11 C 789.05 229.27 789.19 230.45 789.37 231.62 C 789.88 230.68 790.16 228.75 791.68 229.14 C 793.17 232.87 792.04 237.11 792.50 241.05 C 793.04 237.11 791.82 232.91 793.19 229.16 L 793.77 229.09 C 793.97 229.57 794.36 230.53 794.55 231.02 C 794.58 230.49 794.63 229.44 794.66 228.92 C 795.19 228.56 796.26 227.86 796.79 227.50 C 800.05 230.72 804.40 233.52 805.77 238.12 C 806.21 240.77 803.28 241.26 801.42 240.38 C 801.00 241.62 800.55 242.84 800.05 244.04 C 799.32 243.98 797.85 243.87 797.11 243.81 C 796.56 244.21 795.46 245.01 794.91 245.41 C 794.00 244.78 793.09 244.17 792.19 243.55 C 790.50 244.93 788.55 245.70 786.88 243.85 C 786.16 243.89 784.72 243.98 784.00 244.02 C 783.54 242.81 783.10 241.58 782.68 240.37 C 780.78 241.30 777.86 240.74 778.46 238.00 Z" />
</g>
<g id="#d98634ff">
<path fill="#d98634" opacity="1.00" d=" M 694.70 167.47 C 697.66 169.97 699.90 173.64 699.18 177.67 C 697.65 176.54 697.94 174.44 697.10 172.92 C 696.12 171.18 695.04 169.47 694.70 167.47 Z" />
</g>
<g id="#db9a26ff">
<path fill="#db9a26" opacity="1.00" d=" M 722.05 168.16 C 723.47 167.16 725.15 169.61 724.05 170.77 C 722.79 170.52 722.41 169.19 722.05 168.16 Z" />
</g>
<g id="#d7819fff">
<path fill="#d7819f" opacity="1.00" d=" M 718.56 171.63 C 718.67 171.36 718.87 170.82 718.97 170.55 L 719.93 171.11 C 720.63 174.58 719.00 178.02 718.71 181.47 C 717.41 178.29 718.95 174.93 718.56 171.63 Z" />
</g>
<g id="#ff9ee1ff">
<path fill="#ff9ee1" opacity="1.00" d=" M 718.56 171.63 C 718.95 174.93 717.41 178.29 718.71 181.47 C 719.06 182.62 719.50 183.74 719.94 184.86 C 719.38 186.38 719.78 187.42 721.13 187.98 C 720.93 189.61 720.81 191.26 720.58 192.89 C 719.05 197.26 719.24 201.81 720.62 206.19 C 720.94 207.68 721.37 209.16 721.82 210.62 C 722.09 214.86 722.18 219.12 721.86 223.36 C 721.25 224.55 720.52 225.69 719.91 226.88 C 717.40 224.37 719.19 220.07 718.32 216.85 L 718.26 216.01 C 718.45 214.77 718.11 213.69 717.23 212.78 C 716.66 210.38 715.86 208.05 714.87 205.81 C 715.09 203.60 715.11 201.37 714.91 199.16 C 715.87 197.14 716.73 195.06 717.50 192.95 C 718.64 190.74 718.39 188.22 717.34 186.04 C 716.91 184.65 716.47 183.27 716.02 181.90 C 716.23 180.04 716.38 178.15 716.02 176.30 C 717.33 175.04 717.97 173.31 718.56 171.63 Z" />
</g>
<g id="#d09029ff">
<path fill="#d09029" opacity="1.00" d=" M 723.86 172.21 C 725.41 172.57 725.69 173.49 724.70 174.97 C 723.86 174.21 723.58 173.29 723.86 172.21 Z" />
</g>
<g id="#000000ff">
<path fill="#000000" opacity="1.00" d=" M 687.54 177.39 C 688.62 177.14 689.72 176.87 690.80 176.57 C 690.14 177.37 688.47 177.68 688.40 178.80 C 690.06 179.53 691.97 179.28 693.75 179.53 C 691.41 180.78 688.80 180.02 686.35 180.67 C 686.76 179.58 687.16 178.49 687.54 177.39 Z" />
<path fill="#000000" opacity="1.00" d=" M 792.05 194.86 C 791.37 188.76 792.57 182.66 792.05 176.57 L 792.85 177.00 C 793.01 177.19 793.32 177.56 793.48 177.75 C 792.34 180.17 792.42 182.86 792.38 185.46 C 794.92 185.43 797.47 185.41 800.02 185.46 C 797.46 185.56 794.90 185.59 792.35 185.62 C 792.35 188.86 792.38 192.10 792.47 195.34 C 793.07 195.38 794.27 195.44 794.88 195.48 C 794.31 195.52 793.18 195.62 792.62 195.66 C 792.62 197.22 792.62 198.79 792.64 200.36 C 794.05 200.40 795.48 200.45 796.92 200.50 C 795.45 200.55 793.97 200.59 792.54 200.63 C 792.59 202.19 792.65 203.75 792.71 205.31 C 794.46 205.39 796.22 205.48 797.99 205.58 C 796.19 205.60 794.39 205.61 792.61 205.62 C 792.62 207.20 792.63 208.78 792.66 210.37 C 794.76 210.38 796.89 210.39 799.01 210.43 C 797.04 210.61 794.85 210.09 793.14 211.29 C 793.12 211.91 793.08 213.15 793.07 213.77 C 794.55 214.74 796.37 214.44 798.06 214.53 C 796.19 214.55 794.31 214.57 792.46 214.59 C 792.54 218.91 792.34 223.23 792.29 227.55 L 792.99 228.04 C 794.40 228.48 795.78 227.95 797.05 227.33 L 796.79 227.50 C 796.26 227.86 795.19 228.56 794.66 228.92 C 794.63 229.44 794.58 230.49 794.55 231.02 C 794.36 230.53 793.97 229.57 793.77 229.09 L 793.19 229.16 C 791.82 232.91 793.04 237.11 792.50 241.05 C 792.04 237.11 793.17 232.87 791.68 229.14 C 790.16 228.75 789.88 230.68 789.37 231.62 C 789.19 230.45 789.05 229.27 788.89 228.11 C 788.51 228.01 787.73 227.82 787.34 227.73 L 786.89 227.62 C 788.37 227.90 789.96 228.17 791.42 227.57 C 792.55 225.37 791.81 222.53 791.72 220.12 C 790.18 219.68 788.59 219.55 787.03 219.35 C 788.80 219.47 790.57 219.55 792.37 219.62 C 792.27 218.14 792.08 216.67 791.81 215.22 C 789.97 214.41 787.89 214.61 785.95 214.35 C 787.82 214.04 790.63 215.47 791.94 213.95 C 791.97 212.81 791.87 211.68 791.62 210.56 C 789.84 210.61 788.08 210.70 786.33 210.51 C 788.13 210.31 790.12 210.80 791.76 209.78 C 792.27 208.46 792.52 207.09 792.52 205.66 C 790.37 205.61 788.23 205.57 786.09 205.50 C 788.16 205.42 790.24 205.36 792.33 205.30 C 792.32 203.76 792.32 202.23 792.34 200.70 C 790.56 200.62 788.80 200.55 787.04 200.47 C 788.77 200.42 790.50 200.38 792.25 200.35 C 792.29 198.66 792.35 196.97 792.41 195.28 C 791.58 195.36 789.92 195.51 789.09 195.58 C 790.07 195.34 791.05 195.10 792.05 194.86 Z" />
<path fill="#000000" opacity="1.00" d=" M 720.62 206.19 C 719.24 201.81 719.05 197.26 720.58 192.89 C 719.72 197.28 719.45 201.82 720.62 206.19 Z" />
<path fill="#000000" opacity="1.00" d=" M 700.60 196.92 C 700.84 196.67 701.32 196.18 701.56 195.94 C 701.68 197.29 702.18 199.24 700.74 200.08 C 700.70 199.29 700.64 197.71 700.60 196.92 Z" />
<path fill="#000000" opacity="1.00" d=" M 695.17 197.24 C 696.81 197.95 695.09 202.02 693.37 201.65 C 692.93 200.10 694.05 198.26 695.17 197.24 Z" />
<path fill="#000000" opacity="1.00" d=" M 687.79 205.20 C 685.83 203.82 690.51 202.05 690.74 203.86 C 689.97 204.78 688.99 205.23 687.79 205.20 Z" />
<path fill="#000000" opacity="1.00" d=" M 718.32 216.85 C 719.19 220.07 717.40 224.37 719.91 226.88 C 721.10 227.38 722.36 227.57 723.69 227.43 C 721.20 227.77 718.01 227.84 716.86 230.52 C 716.36 229.83 715.87 229.15 715.39 228.47 C 716.69 228.32 718.29 227.74 718.27 226.13 C 718.68 223.05 718.44 219.94 718.32 216.85 Z" />
<path fill="#000000" opacity="1.00" d=" M 725.47 226.02 C 725.78 223.70 725.97 221.34 726.65 219.09 C 726.28 221.40 725.99 223.73 725.47 226.02 Z" />
<path fill="#000000" opacity="1.00" d=" M 739.91 227.90 C 743.43 223.27 749.84 223.91 754.94 224.64 C 751.38 224.45 747.32 223.89 744.27 226.17 C 742.13 227.64 741.14 230.15 739.99 232.36 L 742.14 232.39 C 741.32 234.29 740.50 236.18 739.69 238.08 C 740.30 238.21 741.50 238.46 742.11 238.58 C 741.53 240.74 740.58 242.78 739.69 244.82 C 740.17 245.28 741.12 246.18 741.60 246.64 C 740.90 248.17 740.07 250.25 742.17 251.11 C 746.49 251.79 750.89 251.39 755.26 251.35 C 755.27 246.58 754.73 241.75 752.58 237.42 C 753.58 237.89 754.58 238.35 755.60 238.82 C 754.39 235.87 753.13 232.94 752.07 229.93 C 753.09 230.49 754.12 231.08 755.15 231.67 C 754.72 230.24 754.30 228.81 753.92 227.39 C 756.49 228.50 759.19 230.04 760.06 232.92 C 762.13 238.34 761.88 244.25 762.36 249.95 C 765.57 249.29 763.81 245.42 764.16 243.16 C 764.32 245.30 764.41 247.44 764.50 249.58 C 754.97 252.37 744.60 252.60 735.14 249.41 C 735.61 242.14 735.37 234.04 739.91 227.90 Z" />
</g>
<g id="#d47d89ff">
<path fill="#d47d89" opacity="1.00" d=" M 716.02 181.90 C 714.38 180.34 713.96 177.73 716.02 176.30 C 716.38 178.15 716.23 180.04 716.02 181.90 Z" />
</g>
<g id="#d18e2fff">
<path fill="#d18e2f" opacity="1.00" d=" M 728.85 180.20 C 730.48 179.98 730.78 182.81 729.86 183.75 C 728.74 182.96 728.65 181.43 728.85 180.20 Z" />
</g>
<g id="#d29219ff">
<path fill="#d29219" opacity="1.00" d=" M 680.30 183.16 C 680.01 181.45 682.97 181.25 683.88 182.25 C 682.89 183.08 681.55 183.51 680.30 183.16 Z" />
</g>
<g id="#8f4a15ff">
<path fill="#8f4a15" opacity="1.00" d=" M 801.23 182.23 L 801.87 182.14 C 802.81 182.86 803.12 183.74 802.82 184.77 C 801.50 185.40 800.32 183.20 801.23 182.23 Z" />
</g>
<g id="#d27f9dff">
<path fill="#d27f9d" opacity="1.00" d=" M 719.94 184.86 C 721.01 185.65 721.41 186.69 721.13 187.98 C 719.78 187.42 719.38 186.38 719.94 184.86 Z" />
</g>
<g id="#d07d94ff">
<path fill="#d07d94" opacity="1.00" d=" M 717.34 186.04 C 718.39 188.22 718.64 190.74 717.50 192.95 C 716.29 190.78 716.60 188.29 717.34 186.04 Z" />
</g>
<g id="#b8591eff">
<path fill="#b8591e" opacity="1.00" d=" M 752.21 187.29 C 757.43 185.99 762.91 185.75 768.23 186.53 C 768.29 187.45 768.41 189.28 768.47 190.19 C 762.87 189.14 757.17 189.31 751.53 188.73 C 751.70 188.37 752.04 187.65 752.21 187.29 Z" />
</g>
<g id="#daa112ff">
<path fill="#daa112" opacity="1.00" d=" M 732.90 187.33 C 735.00 188.18 734.16 191.91 733.70 193.76 C 732.33 191.88 732.76 189.48 732.90 187.33 Z" />
</g>
<g id="#8a4515ff">
<path fill="#8a4515" opacity="1.00" d=" M 779.71 193.20 C 779.95 192.69 780.44 191.66 780.68 191.15 C 781.78 191.95 782.34 194.84 780.16 193.99 L 779.71 193.20 Z" />
</g>
<g id="#d0990bff">
<path fill="#d0990b" opacity="1.00" d=" M 683.31 193.35 L 684.18 193.20 C 683.98 193.69 683.58 194.68 683.38 195.18 L 682.89 194.36 L 683.31 193.35 Z" />
</g>
<g id="#d09224ff">
<path fill="#d09224" opacity="1.00" d=" M 734.94 195.82 C 737.25 198.81 735.39 203.01 735.76 206.49 C 734.40 203.09 735.09 199.38 734.94 195.82 Z" />
</g>
<g id="#d581a1ff">
<path fill="#d581a1" opacity="1.00" d=" M 714.87 205.81 C 712.94 203.92 713.04 201.05 714.91 199.16 C 715.11 201.37 715.09 203.60 714.87 205.81 Z" />
</g>
<g id="#dea315ff">
<path fill="#dea315" opacity="1.00" d=" M 736.06 207.37 C 738.21 207.33 737.27 211.88 735.27 211.01 C 735.50 209.79 735.72 208.57 736.06 207.37 Z" />
</g>
<g id="#d17c8dff">
<path fill="#d17c8d" opacity="1.00" d=" M 721.82 210.62 C 723.54 214.60 724.13 219.47 721.86 223.36 C 722.18 219.12 722.09 214.86 721.82 210.62 Z" />
</g>
<g id="#d17d8fff">
<path fill="#d17d8f" opacity="1.00" d=" M 717.23 212.78 C 718.11 213.69 718.45 214.77 718.26 216.01 C 716.81 215.34 716.46 214.26 717.23 212.78 Z" />
</g>
<g id="#d47e51ff">
<path fill="#d47e51" opacity="1.00" d=" M 710.09 213.83 C 711.13 214.71 711.47 215.79 711.10 217.07 C 709.79 216.33 709.46 215.25 710.09 213.83 Z" />
</g>
<g id="#dc8c4bff">
<path fill="#dc8c4b" opacity="1.00" d=" M 728.02 217.52 C 729.08 216.00 730.85 215.39 732.57 214.94 C 733.11 217.03 729.63 218.51 728.02 217.52 Z" />
</g>
<g id="#d37e4eff">
<path fill="#d37e4e" opacity="1.00" d=" M 710.90 218.01 C 712.63 218.58 712.34 220.72 711.90 222.09 C 710.95 220.96 710.34 219.45 710.90 218.01 Z" />
</g>
<g id="#d99819ff">
<path fill="#d99819" opacity="1.00" d=" M 703.40 223.91 C 704.32 224.62 704.96 225.63 705.12 226.81 C 703.54 227.71 702.11 224.94 703.40 223.91 Z" />
</g>
<g id="#ef072dff">
<path fill="#ef072d" opacity="1.00" d=" M 744.27 226.17 C 747.32 223.89 751.38 224.45 754.94 224.64 C 762.46 227.26 763.58 236.33 764.16 243.16 C 763.81 245.42 765.57 249.29 762.36 249.95 C 761.88 244.25 762.13 238.34 760.06 232.92 C 759.19 230.04 756.49 228.50 753.92 227.39 C 754.30 228.81 754.72 230.24 755.15 231.67 C 754.12 231.08 753.09 230.49 752.07 229.93 C 753.13 232.94 754.39 235.87 755.60 238.82 C 754.58 238.35 753.58 237.89 752.58 237.42 C 754.73 241.75 755.27 246.58 755.26 251.35 C 750.89 251.39 746.49 251.79 742.17 251.11 C 740.07 250.25 740.90 248.17 741.60 246.64 C 741.12 246.18 740.17 245.28 739.69 244.82 C 740.58 242.78 741.53 240.74 742.11 238.58 C 741.50 238.46 740.30 238.21 739.69 238.08 C 740.50 236.18 741.32 234.29 742.14 232.39 L 739.99 232.36 C 741.14 230.15 742.13 227.64 744.27 226.17 Z" />
<path fill="#ef072d" opacity="1.00" d=" M 733.29 251.34 C 733.75 250.86 734.68 249.89 735.14 249.41 C 744.60 252.60 754.97 252.37 764.50 249.58 L 765.94 249.70 C 765.91 250.56 765.84 252.27 765.81 253.12 C 763.18 254.59 760.30 255.58 757.36 256.16 C 752.47 256.28 747.59 256.33 742.71 256.21 C 739.58 255.66 736.53 254.62 733.80 253.00 C 733.67 252.59 733.42 251.76 733.29 251.34 Z" />
</g>
<g id="#daa20bff">
<path fill="#daa20b" opacity="1.00" d=" M 709.31 231.83 C 710.77 231.78 712.23 231.89 713.71 231.99 C 713.59 233.90 709.32 233.70 709.31 231.83 Z" />
</g>
<g id="#00a728ff">
<path fill="#00a728" opacity="1.00" d=" M 733.17 250.93 L 733.29 251.34 C 733.42 251.76 733.67 252.59 733.80 253.00 C 736.53 254.62 739.58 255.66 742.71 256.21 C 747.52 257.34 752.55 257.37 757.36 256.16 C 760.30 255.58 763.18 254.59 765.81 253.12 C 766.39 254.31 767.23 255.33 768.16 256.28 C 768.65 258.31 769.67 260.12 771.35 261.41 C 771.44 264.31 773.95 266.19 774.37 269.00 C 774.54 270.43 775.92 271.10 776.87 272.02 C 776.81 273.41 776.75 274.81 776.69 276.22 C 777.26 277.07 777.83 277.92 778.42 278.78 C 778.40 280.05 778.40 281.32 778.42 282.60 C 781.39 284.21 779.31 287.70 781.03 290.02 C 781.96 291.47 781.66 293.26 781.84 294.90 C 784.69 297.33 782.02 301.23 784.25 304.02 C 783.82 308.02 785.76 312.45 783.09 316.00 C 781.64 318.57 778.22 318.25 776.30 320.27 C 773.06 323.33 768.53 323.60 764.44 324.58 C 759.86 326.65 754.28 327.48 749.91 324.47 C 745.30 327.63 739.50 326.50 734.73 324.38 C 730.02 323.77 725.24 322.49 721.82 318.97 C 718.30 318.58 715.43 315.61 715.23 312.06 C 715.36 309.40 715.70 306.74 715.45 304.08 C 717.01 302.03 716.79 299.53 716.35 297.15 C 718.80 295.07 717.41 291.61 719.20 289.20 C 720.13 287.91 719.42 286.31 719.39 284.89 C 721.27 283.18 721.76 280.89 721.44 278.45 C 721.79 278.03 722.51 277.19 722.86 276.77 C 722.86 275.18 722.86 273.59 722.89 272.00 C 725.05 270.75 725.89 268.55 726.02 266.14 C 726.45 265.81 727.32 265.15 727.75 264.82 C 727.95 263.64 728.17 262.46 728.39 261.28 C 729.10 260.69 729.82 260.10 730.55 259.52 C 730.84 258.45 731.14 257.38 731.45 256.31 C 732.20 255.58 732.96 254.84 733.72 254.11 C 733.58 253.31 733.30 251.72 733.17 250.93 M 733.42 275.69 C 731.97 278.36 732.56 281.64 730.76 284.16 C 730.99 287.39 728.62 289.92 728.63 293.11 C 728.38 295.16 726.91 296.87 727.09 299.01 C 727.29 301.56 725.02 303.41 725.14 305.96 C 725.08 307.49 724.62 308.94 723.94 310.31 C 720.84 310.81 724.32 316.26 724.69 312.12 C 725.34 310.62 726.21 309.23 727.16 307.90 C 726.95 303.78 727.95 299.75 729.55 295.98 C 730.31 289.27 733.83 283.36 734.74 276.72 C 735.85 271.42 737.70 266.23 737.62 260.75 C 734.83 265.20 735.41 270.87 733.42 275.69 M 742.37 263.84 C 740.33 280.12 737.97 296.43 736.18 312.80 C 735.23 314.83 734.97 317.01 735.47 319.20 C 737.80 314.21 738.34 308.51 738.48 303.06 C 740.35 297.21 740.96 290.97 740.96 284.87 C 741.76 280.62 742.59 276.34 742.72 272.01 C 743.04 269.34 744.63 266.09 742.37 263.84 M 750.23 264.73 C 749.14 267.75 750.21 270.85 750.22 273.93 C 750.50 278.61 749.29 283.25 750.38 287.88 C 748.97 292.17 750.42 296.55 749.83 300.93 C 750.22 303.97 751.13 307.13 749.48 310.01 C 751.03 312.84 750.38 315.93 749.97 318.94 C 753.44 316.10 751.00 311.59 752.07 307.94 C 752.53 302.00 751.12 296.02 751.71 290.06 C 752.19 286.87 750.44 283.78 751.28 280.58 C 751.28 275.37 752.90 269.43 750.23 264.73 Z" />
</g>
<g id="#723922ff">
<path fill="#723922" opacity="1.00" d=" M 742.71 256.21 C 747.59 256.33 752.47 256.28 757.36 256.16 C 752.55 257.37 747.52 257.34 742.71 256.21 Z" />
</g>
<g id="#67870dff">
<path fill="#67870d" opacity="1.00" d=" M 724.69 312.12 C 724.32 316.26 720.84 310.81 723.94 310.31 C 724.13 310.76 724.50 311.67 724.69 312.12 Z" />
</g>
</svg>
