<?xml version="1.0" encoding="UTF-8" ?>
<!DOCTYPE svg PUBLIC "-//W3C//DTD SVG 1.1//EN" "http://www.w3.org/Graphics/SVG/1.1/DTD/svg11.dtd">
<svg width="1000px" height="667px" viewBox="0 0 1000 667" version="1.1" xmlns="http://www.w3.org/2000/svg">
<g id="#000000ff">
<path fill="#000000" opacity="1.00" d=" M 0.00 0.00 L 1000.00 0.00 L 1000.00 111.11 C 666.67 111.11 333.33 111.11 0.00 111.11 L 0.00 0.00 Z" />
<path fill="#000000" opacity="1.00" d=" M 474.21 241.15 C 480.38 235.71 489.35 235.38 497.04 236.93 C 507.76 238.76 516.52 248.21 518.16 258.84 C 514.65 259.73 511.13 260.60 507.60 261.39 C 507.51 265.29 506.54 269.19 504.36 272.46 C 502.03 276.59 497.49 279.02 495.67 283.50 C 492.41 291.26 492.78 299.99 494.09 308.15 C 495.96 308.34 497.88 308.57 499.61 309.42 C 511.74 315.13 523.63 321.40 536.01 326.59 C 538.88 327.27 540.78 329.71 543.52 330.67 C 552.89 334.49 561.92 341.16 565.41 351.01 C 568.80 360.29 566.42 370.62 561.79 379.02 C 557.38 386.76 551.00 394.32 542.06 396.69 C 541.92 396.36 541.64 395.68 541.50 395.35 C 542.29 394.51 542.99 393.57 543.91 392.87 C 543.83 393.46 543.66 394.63 543.58 395.21 C 553.50 391.07 560.21 381.63 563.81 371.81 C 567.07 363.10 566.70 352.68 561.11 344.99 C 554.56 335.76 543.57 331.27 533.08 328.19 C 536.77 332.05 540.94 335.63 543.61 340.33 C 538.88 338.44 534.40 336.00 529.73 333.96 C 531.22 336.22 532.72 338.50 534.15 340.81 C 530.63 339.82 527.09 338.87 523.53 338.09 C 524.58 339.57 525.65 341.04 526.73 342.51 C 524.39 342.30 522.04 342.07 519.71 341.89 C 526.90 347.36 534.56 352.90 538.97 361.02 C 540.81 364.22 540.80 368.00 540.88 371.58 C 544.33 367.67 544.10 362.42 544.18 357.56 C 546.88 362.41 546.64 368.34 545.38 373.58 C 543.99 378.84 539.84 382.61 535.60 385.69 C 536.23 385.79 537.50 385.99 538.13 386.08 C 537.76 386.78 537.03 388.18 536.66 388.87 C 539.54 387.56 542.47 386.37 545.49 385.39 C 544.20 387.06 542.91 388.74 541.71 390.48 C 544.78 389.12 547.35 386.89 550.43 385.54 C 548.93 387.58 547.33 389.55 546.13 391.79 C 545.90 391.80 545.43 391.83 545.20 391.84 C 543.77 391.22 542.19 391.09 540.69 390.86 C 540.94 390.11 541.45 388.62 541.71 387.87 C 539.17 389.11 536.48 390.44 533.58 390.19 C 534.37 389.09 535.20 388.02 536.07 386.96 C 535.42 386.60 534.12 385.86 533.47 385.49 C 540.28 381.85 545.74 374.92 545.08 366.85 C 543.55 369.61 541.83 372.29 539.37 374.32 C 538.99 374.26 538.21 374.14 537.83 374.08 C 538.74 372.43 539.64 370.70 539.68 368.77 C 538.52 367.42 537.45 365.98 536.45 364.53 C 537.54 364.02 538.49 364.72 539.38 365.31 C 539.12 364.70 538.59 363.49 538.33 362.88 C 537.91 361.91 537.36 361.05 536.68 360.28 C 536.26 359.32 535.80 358.37 535.31 357.45 L 534.71 357.54 C 532.48 353.76 528.99 350.85 525.55 348.22 C 523.12 346.32 520.79 344.18 517.89 343.04 C 517.53 341.77 517.36 340.23 515.67 340.35 C 515.54 339.05 514.81 338.41 513.48 338.42 L 513.65 337.33 L 512.30 337.59 L 512.53 336.26 C 512.06 336.35 511.12 336.53 510.66 336.62 C 510.79 334.98 510.03 334.22 508.37 334.37 L 508.47 333.18 C 507.97 333.31 506.95 333.57 506.45 333.70 L 506.36 332.15 C 505.86 332.30 504.85 332.62 504.34 332.77 L 504.74 331.30 L 503.77 331.53 C 503.16 331.26 501.94 330.72 501.33 330.46 L 501.69 329.59 L 500.50 329.52 L 500.41 328.32 L 499.20 328.59 C 499.35 328.10 499.66 327.11 499.82 326.62 L 498.55 326.70 C 498.57 324.89 498.57 323.09 498.55 321.29 L 499.79 321.39 C 499.67 320.86 499.43 319.82 499.31 319.29 C 499.87 319.44 500.98 319.74 501.53 319.89 L 501.27 318.53 C 503.41 318.64 505.57 318.64 507.74 318.54 L 507.47 319.94 C 507.99 319.77 509.02 319.42 509.54 319.25 L 509.59 320.73 C 510.07 320.63 511.04 320.43 511.53 320.32 L 511.64 321.35 C 513.30 321.89 514.93 322.54 516.70 322.67 L 516.47 323.91 C 517.00 323.75 518.05 323.45 518.58 323.29 L 518.60 324.86 C 519.08 324.71 520.06 324.39 520.55 324.24 L 520.48 325.56 C 521.28 325.54 522.89 325.50 523.69 325.48 L 523.46 326.57 C 524.88 326.55 526.30 326.53 527.73 326.49 L 527.29 327.53 C 529.01 327.66 530.62 328.32 532.20 328.98 C 531.15 328.27 529.04 326.84 527.98 326.13 C 529.37 326.26 532.14 326.51 533.53 326.64 C 531.87 326.00 530.15 325.51 528.38 325.38 L 528.37 324.21 C 527.89 324.33 526.93 324.58 526.45 324.70 L 526.36 323.29 C 525.89 323.39 524.95 323.59 524.48 323.70 L 524.38 322.67 C 522.71 322.10 521.07 321.41 519.29 321.34 L 519.58 320.05 C 519.03 320.22 517.93 320.55 517.38 320.72 L 517.54 319.09 C 517.00 319.24 515.92 319.55 515.38 319.71 L 515.51 318.10 C 514.98 318.25 513.92 318.55 513.38 318.70 L 513.49 317.12 C 512.97 317.26 511.91 317.56 511.39 317.70 L 511.48 316.14 C 510.96 316.28 509.92 316.55 509.40 316.69 L 509.45 315.16 C 508.94 315.29 507.92 315.56 507.41 315.69 L 507.43 314.17 C 506.93 314.30 505.92 314.56 505.42 314.69 L 505.41 313.20 C 504.91 313.32 503.92 313.56 503.42 313.68 L 503.39 312.20 C 502.90 312.32 501.93 312.57 501.44 312.70 L 501.37 311.23 C 500.89 311.35 499.92 311.59 499.43 311.71 L 499.48 310.47 C 497.39 310.40 495.32 310.36 493.24 310.30 L 493.58 311.19 C 490.38 314.39 491.68 319.34 491.66 323.37 L 492.54 323.38 C 492.47 324.22 492.35 325.88 492.28 326.71 L 493.54 326.24 C 493.50 327.06 493.41 328.70 493.36 329.52 L 494.44 329.37 C 494.63 329.98 495.01 331.20 495.19 331.81 C 496.71 334.25 498.90 336.17 501.20 337.85 C 501.80 338.03 503.01 338.38 503.61 338.55 L 503.54 339.59 C 504.34 339.56 505.95 339.50 506.75 339.46 L 506.30 340.70 C 507.16 340.64 508.89 340.52 509.76 340.45 L 509.32 341.60 C 510.17 341.57 511.86 341.53 512.71 341.50 L 512.51 342.53 C 513.32 342.53 514.94 342.52 515.75 342.51 L 515.43 343.81 C 515.85 343.72 516.70 343.56 517.12 343.47 L 517.87 344.48 C 518.31 344.48 519.21 344.49 519.65 344.50 L 519.40 345.34 C 522.27 345.92 523.94 348.60 526.54 349.73 L 526.55 350.17 C 531.12 353.06 533.74 357.89 537.22 361.82 C 536.92 362.47 536.63 363.12 536.34 363.78 C 532.40 361.34 527.46 361.50 523.00 360.91 C 521.26 361.06 517.81 360.16 517.81 362.81 C 518.55 368.19 522.12 372.57 524.77 377.14 C 526.24 379.74 524.72 383.69 521.95 384.66 C 516.75 384.67 511.17 382.90 506.19 384.84 C 505.17 394.42 506.39 404.16 507.93 413.62 C 513.86 413.66 520.83 414.67 524.23 420.20 C 511.22 418.57 497.01 421.10 487.09 430.19 C 486.26 430.64 485.63 432.29 484.55 431.54 C 482.80 427.11 486.94 423.43 489.46 420.29 C 484.73 419.69 479.96 419.84 475.21 419.98 C 476.24 417.03 479.39 416.00 482.09 415.15 C 488.15 413.44 494.55 412.98 500.81 413.66 C 500.79 404.41 499.51 395.23 498.60 386.05 C 498.67 384.08 496.19 384.74 495.01 384.58 C 489.64 384.82 484.31 383.45 478.97 383.98 C 473.64 385.69 473.52 392.21 470.69 396.18 C 468.60 393.89 468.22 390.71 467.56 387.81 C 466.22 391.56 465.82 395.53 465.89 399.50 C 463.29 397.47 462.77 394.16 462.36 391.11 C 461.13 394.23 459.91 397.38 458.25 400.31 C 457.66 394.86 456.74 388.73 459.83 383.83 C 462.61 379.38 468.23 378.52 473.01 377.89 C 481.67 377.30 490.38 377.76 499.04 378.33 C 499.36 373.01 499.32 367.61 498.42 362.36 C 495.09 358.76 491.84 354.51 486.99 352.92 C 481.26 350.33 476.62 345.87 472.57 341.15 C 472.26 341.40 471.64 341.92 471.32 342.17 C 464.51 335.31 459.94 325.66 461.26 315.84 C 462.67 303.24 470.31 292.48 478.85 283.57 C 477.60 282.56 475.86 281.65 475.70 279.86 C 475.64 277.17 477.48 274.97 478.98 272.91 C 474.75 273.66 470.47 274.17 466.17 274.19 L 466.12 273.31 C 470.78 272.22 475.51 271.51 480.20 270.54 C 474.52 269.12 468.79 272.31 463.10 272.76 C 467.25 268.56 473.34 267.51 478.72 265.65 C 477.06 261.53 478.26 257.04 480.97 253.68 C 478.74 249.48 476.44 245.33 474.21 241.15 M 475.74 241.10 C 477.35 245.16 479.76 248.82 481.71 252.71 C 483.62 251.66 485.55 250.63 487.49 249.62 C 487.92 245.53 488.16 241.42 488.10 237.30 C 483.70 237.44 479.41 238.62 475.74 241.10 M 488.93 249.60 C 494.25 248.69 499.50 250.74 503.55 254.12 C 505.51 250.95 507.63 247.88 509.64 244.74 C 504.53 239.38 496.98 237.40 489.79 237.21 C 489.28 241.32 489.06 245.46 488.93 249.60 M 510.27 245.82 C 508.44 248.95 506.40 251.96 504.46 255.01 C 505.45 256.74 506.42 258.50 507.34 260.28 C 510.62 259.53 513.97 258.97 517.09 257.65 C 515.82 253.21 513.68 249.00 510.27 245.82 M 497.38 255.40 C 497.42 258.16 497.40 260.93 497.51 263.70 L 496.57 263.56 C 496.55 264.29 496.51 265.75 496.49 266.48 C 495.04 266.40 494.32 267.14 494.33 268.70 C 493.89 268.58 493.02 268.33 492.58 268.20 L 492.67 269.39 C 489.86 268.88 490.43 271.91 490.30 273.62 C 492.84 273.64 495.52 273.86 497.76 272.40 L 497.18 271.30 L 498.82 271.80 L 498.26 270.28 L 499.35 270.62 C 500.05 269.26 500.78 267.85 500.52 266.25 L 501.56 266.75 C 501.59 264.57 501.62 262.40 501.66 260.23 L 500.55 260.74 C 501.24 258.22 498.85 256.90 497.38 255.40 M 486.45 262.43 C 483.69 262.57 484.39 267.08 487.02 266.42 C 489.52 266.10 488.92 262.08 486.45 262.43 M 480.30 272.89 C 479.02 275.12 476.63 277.20 476.99 279.99 C 478.37 284.45 485.74 280.86 485.07 276.97 C 483.84 275.23 482.02 274.06 480.30 272.89 M 488.95 278.66 C 488.78 281.29 485.56 282.04 485.40 284.64 L 484.76 284.51 C 483.96 286.30 482.62 287.76 481.34 289.21 L 481.85 290.55 L 480.39 290.46 C 480.42 290.91 480.49 291.82 480.52 292.28 L 479.40 292.73 C 479.44 293.21 479.53 294.19 479.57 294.67 L 478.05 294.15 L 478.62 295.30 C 476.72 297.08 475.50 300.00 475.52 302.64 L 474.42 302.48 C 474.45 303.29 474.52 304.92 474.56 305.73 L 473.50 305.44 C 473.46 307.20 473.44 308.95 473.49 310.72 L 472.44 310.33 C 472.38 314.08 472.33 317.83 472.51 321.58 L 473.47 321.29 C 473.25 323.78 473.81 326.43 475.50 328.35 C 475.59 325.67 475.68 323.00 475.76 320.32 C 475.56 322.90 476.57 324.51 478.79 325.18 C 478.60 323.61 478.41 322.04 478.20 320.48 C 478.86 320.55 480.17 320.69 480.83 320.76 C 480.88 320.42 480.98 319.75 481.03 319.42 L 479.60 319.88 L 479.46 317.47 C 481.10 317.56 482.76 317.62 484.42 317.63 C 482.92 316.71 482.01 315.35 482.43 313.47 C 484.09 313.57 485.75 313.63 487.41 313.66 C 486.89 313.31 485.85 312.60 485.33 312.25 C 485.46 311.82 485.73 310.94 485.86 310.51 L 484.49 310.77 C 484.51 309.93 484.53 308.26 484.54 307.42 L 483.47 307.71 C 483.70 304.05 483.51 300.38 483.66 296.71 C 484.56 295.39 484.73 293.83 484.52 292.28 L 485.56 292.56 C 485.53 291.74 485.47 290.10 485.44 289.28 L 486.54 289.54 C 486.52 288.72 486.48 287.09 486.46 286.27 L 487.54 286.53 C 487.52 285.72 487.49 284.10 487.47 283.29 L 488.31 283.48 C 488.57 281.88 489.79 280.28 488.95 278.66 M 501.24 327.70 C 504.17 330.68 508.48 331.62 511.67 334.26 C 514.21 336.33 516.52 338.67 519.03 340.78 C 520.82 340.83 522.61 340.91 524.42 340.96 C 522.78 339.58 521.02 338.39 519.22 337.27 C 519.41 336.98 519.79 336.39 519.98 336.10 C 523.97 336.93 527.92 337.95 531.87 338.95 C 529.98 336.17 527.49 333.92 525.18 331.52 C 530.46 332.41 534.93 335.55 539.94 337.24 C 538.03 335.08 536.39 332.49 533.92 330.96 C 528.01 328.76 521.73 327.54 516.07 324.66 C 511.83 322.95 507.78 320.06 503.04 320.22 C 499.27 320.55 499.41 325.41 501.24 327.70 M 495.24 337.97 C 495.28 338.52 495.34 339.62 495.37 340.17 C 493.73 343.41 494.53 347.23 494.99 350.68 C 496.16 350.62 497.35 350.57 498.54 350.52 L 498.28 349.48 C 500.73 349.90 503.90 348.60 505.77 350.77 C 506.16 350.52 506.56 350.27 506.95 350.02 C 504.85 349.09 503.61 346.77 501.27 346.36 L 501.79 345.30 L 500.28 345.69 L 500.67 344.18 L 499.64 344.73 C 498.90 342.06 496.29 340.51 495.24 337.97 M 505.08 364.99 C 505.19 369.86 505.17 374.74 505.59 379.60 C 508.09 380.35 514.51 381.46 514.06 377.02 C 513.38 371.78 509.47 367.59 505.08 364.99 Z" />
<path fill="#000000" opacity="1.00" d=" M 0.00 333.33 C 132.04 333.32 264.08 333.35 396.12 333.32 C 395.92 361.70 408.25 389.78 429.02 409.08 C 443.60 422.77 462.18 432.21 481.90 435.64 C 503.38 439.40 526.11 436.40 545.63 426.59 C 563.68 417.79 579.06 403.60 589.28 386.31 C 598.85 370.41 603.93 351.88 603.88 333.32 C 735.92 333.35 867.96 333.32 1000.00 333.33 L 1000.00 444.45 C 666.67 444.45 333.33 444.45 0.00 444.45 L 0.00 333.33 Z" />
</g>
<g id="#fcdc04ff">
<path fill="#fcdc04" opacity="1.00" d=" M 0.00 111.11 C 333.33 111.11 666.67 111.11 1000.00 111.11 L 1000.00 222.00 C 673.02 222.05 346.04 222.01 19.05 222.02 C 12.70 222.20 6.33 221.63 0.00 222.32 L 0.00 111.11 Z" />
<path fill="#fcdc04" opacity="1.00" d=" M 488.93 249.60 C 489.06 245.46 489.28 241.32 489.79 237.21 C 496.98 237.40 504.53 239.38 509.64 244.74 C 507.63 247.88 505.51 250.95 503.55 254.12 C 499.50 250.74 494.25 248.69 488.93 249.60 Z" />
<path fill="#fcdc04" opacity="1.00" d=" M 0.00 444.45 C 333.33 444.45 666.67 444.45 1000.00 444.45 L 1000.00 555.12 C 923.36 555.47 846.70 555.17 770.05 555.27 C 518.36 555.27 266.66 555.27 14.97 555.27 C 9.98 555.53 4.92 554.67 0.00 555.72 L 0.00 444.45 Z" />
</g>
<g id="#d90000ff">
<path fill="#d90000" opacity="1.00" d=" M 0.00 222.32 C 6.33 221.63 12.70 222.20 19.05 222.02 C 346.04 222.01 673.02 222.05 1000.00 222.00 L 1000.00 333.33 C 867.96 333.32 735.92 333.35 603.88 333.32 C 604.23 298.06 584.85 263.58 554.84 245.18 C 535.42 232.90 511.82 227.55 488.99 230.04 C 466.60 232.29 445.19 242.33 428.85 257.74 C 408.20 277.03 395.93 305.02 396.12 333.32 C 264.08 333.35 132.04 333.32 0.00 333.33 L 0.00 222.32 Z" />
<path fill="#d90000" opacity="1.00" d=" M 475.74 241.10 C 479.41 238.62 483.70 237.44 488.10 237.30 C 488.16 241.42 487.92 245.53 487.49 249.62 C 485.55 250.63 483.62 251.66 481.71 252.71 C 479.76 248.82 477.35 245.16 475.74 241.10 Z" />
<path fill="#d90000" opacity="1.00" d=" M 510.27 245.82 C 513.68 249.00 515.82 253.21 517.09 257.65 C 513.97 258.97 510.62 259.53 507.34 260.28 C 506.42 258.50 505.45 256.74 504.46 255.01 C 506.40 251.96 508.44 248.95 510.27 245.82 Z" />
<path fill="#d90000" opacity="1.00" d=" M 480.30 272.89 C 482.02 274.06 483.84 275.23 485.07 276.97 C 485.74 280.86 478.37 284.45 476.99 279.99 C 476.63 277.20 479.02 275.12 480.30 272.89 Z" />
<path fill="#d90000" opacity="1.00" d=" M 533.08 328.19 C 543.57 331.27 554.56 335.76 561.11 344.99 C 566.70 352.68 567.07 363.10 563.81 371.81 C 560.21 381.63 553.50 391.07 543.58 395.21 C 543.66 394.63 543.83 393.46 543.91 392.87 C 544.24 392.61 544.88 392.10 545.20 391.84 C 545.43 391.83 545.90 391.80 546.13 391.79 C 547.33 389.55 548.93 387.58 550.43 385.54 C 547.35 386.89 544.78 389.12 541.71 390.48 C 542.91 388.74 544.20 387.06 545.49 385.39 C 542.47 386.37 539.54 387.56 536.66 388.87 C 537.03 388.18 537.76 386.78 538.13 386.08 C 537.50 385.99 536.23 385.79 535.60 385.69 C 539.84 382.61 543.99 378.84 545.38 373.58 C 546.64 368.34 546.88 362.41 544.18 357.56 C 544.10 362.42 544.33 367.67 540.88 371.58 C 540.80 368.00 540.81 364.22 538.97 361.02 C 534.56 352.90 526.90 347.36 519.71 341.89 C 522.04 342.07 524.39 342.30 526.73 342.51 C 525.65 341.04 524.58 339.57 523.53 338.09 C 527.09 338.87 530.63 339.82 534.15 340.81 C 532.72 338.50 531.22 336.22 529.73 333.96 C 534.40 336.00 538.88 338.44 543.61 340.33 C 540.94 335.63 536.77 332.05 533.08 328.19 Z" />
<path fill="#d90000" opacity="1.00" d=" M 0.00 555.72 C 4.92 554.67 9.98 555.53 14.97 555.27 C 266.66 555.27 518.36 555.27 770.05 555.27 C 846.70 555.17 923.36 555.47 1000.00 555.12 L 1000.00 667.00 L 0.00 667.00 L 0.00 555.72 Z" />
</g>
<g id="#fefffeff">
<path fill="#fefffe" opacity="1.00" d=" M 428.85 257.74 C 445.19 242.33 466.60 232.29 488.99 230.04 C 511.82 227.55 535.42 232.90 554.84 245.18 C 584.85 263.58 604.23 298.06 603.88 333.32 C 603.93 351.88 598.85 370.41 589.28 386.31 C 579.06 403.60 563.68 417.79 545.63 426.59 C 526.11 436.40 503.38 439.40 481.90 435.64 C 462.18 432.21 443.60 422.77 429.02 409.08 C 408.25 389.78 395.92 361.70 396.12 333.32 C 395.93 305.02 408.20 277.03 428.85 257.74 M 474.21 241.15 C 476.44 245.33 478.74 249.48 480.97 253.68 C 478.26 257.04 477.06 261.53 478.72 265.65 C 473.34 267.51 467.25 268.56 463.10 272.76 C 468.79 272.31 474.52 269.12 480.20 270.54 C 475.51 271.51 470.78 272.22 466.12 273.31 L 466.17 274.19 C 470.47 274.17 474.75 273.66 478.98 272.91 C 477.48 274.97 475.64 277.17 475.70 279.86 C 475.86 281.65 477.60 282.56 478.85 283.57 C 470.31 292.48 462.67 303.24 461.26 315.84 C 459.94 325.66 464.51 335.31 471.32 342.17 C 471.64 341.92 472.26 341.40 472.57 341.15 C 476.62 345.87 481.26 350.33 486.99 352.92 C 491.84 354.51 495.09 358.76 498.42 362.36 C 499.32 367.61 499.36 373.01 499.04 378.33 C 490.38 377.76 481.67 377.30 473.01 377.89 C 468.23 378.52 462.61 379.38 459.83 383.83 C 456.74 388.73 457.66 394.86 458.25 400.31 C 459.91 397.38 461.13 394.23 462.36 391.11 C 462.77 394.16 463.29 397.47 465.89 399.50 C 465.82 395.53 466.22 391.56 467.56 387.81 C 468.22 390.71 468.60 393.89 470.69 396.18 C 473.52 392.21 473.64 385.69 478.97 383.98 C 484.31 383.45 489.64 384.82 495.01 384.58 C 496.19 384.74 498.67 384.08 498.60 386.05 C 499.51 395.23 500.79 404.41 500.81 413.66 C 494.55 412.98 488.15 413.44 482.09 415.15 C 479.39 416.00 476.24 417.03 475.21 419.98 C 479.96 419.84 484.73 419.69 489.46 420.29 C 486.94 423.43 482.80 427.11 484.55 431.54 C 485.63 432.29 486.26 430.64 487.09 430.19 C 497.01 421.10 511.22 418.57 524.23 420.20 C 520.83 414.67 513.86 413.66 507.93 413.62 C 506.39 404.16 505.17 394.42 506.19 384.84 C 511.17 382.90 516.75 384.67 521.95 384.66 C 524.72 383.69 526.24 379.74 524.77 377.14 C 522.12 372.57 518.55 368.19 517.81 362.81 C 517.81 360.16 521.26 361.06 523.00 360.91 C 527.46 361.50 532.40 361.34 536.34 363.78 C 536.63 363.12 536.92 362.47 537.22 361.82 C 533.74 357.89 531.12 353.06 526.55 350.17 L 526.54 349.73 C 523.94 348.60 522.27 345.92 519.40 345.34 L 519.65 344.50 C 519.21 344.49 518.31 344.48 517.87 344.48 L 517.12 343.47 C 516.70 343.56 515.85 343.72 515.43 343.81 L 515.75 342.51 C 514.94 342.52 513.32 342.53 512.51 342.53 L 512.71 341.50 C 511.86 341.53 510.17 341.57 509.32 341.60 L 509.76 340.45 C 508.89 340.52 507.16 340.64 506.30 340.70 L 506.75 339.46 C 505.95 339.50 504.34 339.56 503.54 339.59 L 503.61 338.55 C 503.01 338.38 501.80 338.03 501.20 337.85 C 498.90 336.17 496.71 334.25 495.19 331.81 C 495.01 331.20 494.63 329.98 494.44 329.37 L 493.36 329.52 C 493.41 328.70 493.50 327.06 493.54 326.24 L 492.28 326.71 C 492.35 325.88 492.47 324.22 492.54 323.38 L 491.66 323.37 C 491.68 319.34 490.38 314.39 493.58 311.19 L 493.24 310.30 C 495.32 310.36 497.39 310.40 499.48 310.47 L 499.43 311.71 C 499.92 311.59 500.89 311.35 501.37 311.23 L 501.44 312.70 C 501.93 312.57 502.90 312.32 503.39 312.20 L 503.42 313.68 C 503.92 313.56 504.91 313.32 505.41 313.20 L 505.42 314.69 C 505.92 314.56 506.93 314.30 507.43 314.17 L 507.41 315.69 C 507.92 315.56 508.94 315.29 509.45 315.16 L 509.40 316.69 C 509.92 316.55 510.96 316.28 511.48 316.14 L 511.39 317.70 C 511.91 317.56 512.97 317.26 513.49 317.12 L 513.38 318.70 C 513.92 318.55 514.98 318.25 515.51 318.10 L 515.38 319.71 C 515.92 319.55 517.00 319.24 517.54 319.09 L 517.38 320.72 C 517.93 320.55 519.03 320.22 519.58 320.05 L 519.29 321.34 C 521.07 321.41 522.71 322.10 524.38 322.67 L 524.48 323.70 C 524.95 323.59 525.89 323.39 526.36 323.29 L 526.45 324.70 C 526.93 324.58 527.89 324.33 528.37 324.21 L 528.38 325.38 C 530.15 325.51 531.87 326.00 533.53 326.64 C 532.14 326.51 529.37 326.26 527.98 326.13 C 529.04 326.84 531.15 328.27 532.20 328.98 C 530.62 328.32 529.01 327.66 527.29 327.53 L 527.73 326.49 C 526.30 326.53 524.88 326.55 523.46 326.57 L 523.69 325.48 C 522.89 325.50 521.28 325.54 520.48 325.56 L 520.55 324.24 C 520.06 324.39 519.08 324.71 518.60 324.86 L 518.58 323.29 C 518.05 323.45 517.00 323.75 516.47 323.91 L 516.70 322.67 C 514.93 322.54 513.30 321.89 511.64 321.35 L 511.53 320.32 C 511.04 320.43 510.07 320.63 509.59 320.73 L 509.54 319.25 C 509.02 319.42 507.99 319.77 507.47 319.94 L 507.74 318.54 C 505.57 318.64 503.41 318.64 501.27 318.53 L 501.53 319.89 C 500.98 319.74 499.87 319.44 499.31 319.29 C 499.43 319.82 499.67 320.86 499.79 321.39 L 498.55 321.29 C 498.57 323.09 498.57 324.89 498.55 326.70 L 499.82 326.62 C 499.66 327.11 499.35 328.10 499.20 328.59 L 500.41 328.32 L 500.50 329.52 L 501.69 329.59 L 501.33 330.46 C 501.94 330.72 503.16 331.26 503.77 331.53 L 504.74 331.30 L 504.34 332.77 C 504.85 332.62 505.86 332.30 506.36 332.15 L 506.45 333.70 C 506.95 333.57 507.97 333.31 508.47 333.18 L 508.37 334.37 C 510.03 334.22 510.79 334.98 510.66 336.62 C 511.12 336.53 512.06 336.35 512.53 336.26 L 512.30 337.59 L 513.65 337.33 L 513.48 338.42 C 514.81 338.41 515.54 339.05 515.67 340.35 C 517.36 340.23 517.53 341.77 517.89 343.04 C 520.79 344.18 523.12 346.32 525.55 348.22 C 528.99 350.85 532.48 353.76 534.71 357.54 L 535.31 357.45 C 535.80 358.37 536.26 359.32 536.68 360.28 C 537.36 361.05 537.91 361.91 538.33 362.88 C 538.59 363.49 539.12 364.70 539.38 365.31 C 538.49 364.72 537.54 364.02 536.45 364.53 C 537.45 365.98 538.52 367.42 539.68 368.77 C 539.64 370.70 538.74 372.43 537.83 374.08 C 538.21 374.14 538.99 374.26 539.37 374.32 C 541.83 372.29 543.55 369.61 545.08 366.85 C 545.74 374.92 540.28 381.85 533.47 385.49 C 534.12 385.86 535.42 386.60 536.07 386.96 C 535.20 388.02 534.37 389.09 533.58 390.19 C 536.48 390.44 539.17 389.11 541.71 387.87 C 541.45 388.62 540.94 390.11 540.69 390.86 C 542.19 391.09 543.77 391.22 545.20 391.84 C 544.88 392.10 544.24 392.61 543.91 392.87 C 542.99 393.57 542.29 394.51 541.50 395.35 C 541.64 395.68 541.92 396.36 542.06 396.69 C 551.00 394.32 557.38 386.76 561.79 379.02 C 566.42 370.62 568.80 360.29 565.41 351.01 C 561.92 341.16 552.89 334.49 543.52 330.67 C 540.78 329.71 538.88 327.27 536.01 326.59 C 523.63 321.40 511.74 315.13 499.61 309.42 C 497.88 308.57 495.96 308.34 494.09 308.15 C 492.78 299.99 492.41 291.26 495.67 283.50 C 497.49 279.02 502.03 276.59 504.36 272.46 C 506.54 269.19 507.51 265.29 507.60 261.39 C 511.13 260.60 514.65 259.73 518.16 258.84 C 516.52 248.21 507.76 238.76 497.04 236.93 C 489.35 235.38 480.38 235.71 474.21 241.15 Z" />
<path fill="#fefffe" opacity="1.00" d=" M 497.38 255.40 C 498.85 256.90 501.24 258.22 500.55 260.74 L 501.66 260.23 C 501.62 262.40 501.59 264.57 501.56 266.75 L 500.52 266.25 C 500.78 267.85 500.05 269.26 499.35 270.62 L 498.26 270.28 L 498.82 271.80 L 497.18 271.30 L 497.76 272.40 C 495.52 273.86 492.84 273.64 490.30 273.62 C 490.43 271.91 489.86 268.88 492.67 269.39 L 492.58 268.20 C 493.02 268.33 493.89 268.58 494.33 268.70 C 494.32 267.14 495.04 266.40 496.49 266.48 C 496.51 265.75 496.55 264.29 496.57 263.56 L 497.51 263.70 C 497.40 260.93 497.42 258.16 497.38 255.40 Z" />
<path fill="#fefffe" opacity="1.00" d=" M 486.45 262.43 C 488.92 262.08 489.52 266.10 487.02 266.42 C 484.39 267.08 483.69 262.57 486.45 262.43 Z" />
<path fill="#fefffe" opacity="1.00" d=" M 488.95 278.66 C 489.79 280.28 488.57 281.88 488.31 283.48 L 487.47 283.29 C 487.49 284.10 487.52 285.72 487.54 286.53 L 486.46 286.27 C 486.48 287.09 486.52 288.72 486.54 289.54 L 485.44 289.28 C 485.47 290.10 485.53 291.74 485.56 292.56 L 484.52 292.28 C 484.73 293.83 484.56 295.39 483.66 296.71 C 483.51 300.38 483.70 304.05 483.47 307.71 L 484.54 307.42 C 484.53 308.26 484.51 309.93 484.49 310.77 L 485.86 310.51 C 485.73 310.94 485.46 311.82 485.33 312.25 C 485.85 312.60 486.89 313.31 487.41 313.66 C 485.75 313.63 484.09 313.57 482.43 313.47 C 482.01 315.35 482.92 316.71 484.42 317.63 C 482.76 317.62 481.10 317.56 479.46 317.47 L 479.60 319.88 L 481.03 319.42 C 480.98 319.75 480.88 320.42 480.83 320.76 C 480.17 320.69 478.86 320.55 478.20 320.48 C 478.41 322.04 478.60 323.61 478.79 325.18 C 476.57 324.51 475.56 322.90 475.76 320.32 C 475.68 323.00 475.59 325.67 475.50 328.35 C 473.81 326.43 473.25 323.78 473.47 321.29 L 472.51 321.58 C 472.33 317.83 472.38 314.08 472.44 310.33 L 473.49 310.72 C 473.44 308.95 473.46 307.20 473.50 305.44 L 474.56 305.73 C 474.52 304.92 474.45 303.29 474.42 302.48 L 475.52 302.64 C 475.50 300.00 476.72 297.08 478.62 295.30 L 478.05 294.15 L 479.57 294.67 C 479.53 294.19 479.44 293.21 479.40 292.73 L 480.52 292.28 C 480.49 291.82 480.42 290.91 480.39 290.46 L 481.85 290.55 L 481.34 289.21 C 482.62 287.76 483.96 286.30 484.76 284.51 L 485.40 284.64 C 485.56 282.04 488.78 281.29 488.95 278.66 Z" />
<path fill="#fefffe" opacity="1.00" d=" M 501.24 327.70 C 499.41 325.41 499.27 320.55 503.04 320.22 C 507.78 320.06 511.83 322.95 516.07 324.66 C 521.73 327.54 528.01 328.76 533.92 330.96 C 536.39 332.49 538.03 335.08 539.94 337.24 C 534.93 335.55 530.46 332.41 525.18 331.52 C 527.49 333.92 529.98 336.17 531.87 338.95 C 527.92 337.95 523.97 336.93 519.98 336.10 C 519.79 336.39 519.41 336.98 519.22 337.27 C 521.02 338.39 522.78 339.58 524.42 340.96 C 522.61 340.91 520.82 340.83 519.03 340.78 C 516.52 338.67 514.21 336.33 511.67 334.26 C 508.48 331.62 504.17 330.68 501.24 327.70 Z" />
<path fill="#fefffe" opacity="1.00" d=" M 495.24 337.97 C 496.29 340.51 498.90 342.06 499.64 344.73 L 500.67 344.18 L 500.28 345.69 L 501.79 345.30 L 501.27 346.36 C 503.61 346.77 504.85 349.09 506.95 350.02 C 506.56 350.27 506.16 350.52 505.77 350.77 C 503.90 348.60 500.73 349.90 498.28 349.48 L 498.54 350.52 C 497.35 350.57 496.16 350.62 494.99 350.68 C 494.53 347.23 493.73 343.41 495.37 340.17 C 495.34 339.62 495.28 338.52 495.24 337.97 Z" />
<path fill="#fefffe" opacity="1.00" d=" M 505.08 364.99 C 509.47 367.59 513.38 371.78 514.06 377.02 C 514.51 381.46 508.09 380.35 505.59 379.60 C 505.17 374.74 505.19 369.86 505.08 364.99 Z" />
</g>
</svg>
