<?xml version="1.0" encoding="UTF-8" ?>
<!DOCTYPE svg PUBLIC "-//W3C//DTD SVG 1.1//EN" "http://www.w3.org/Graphics/SVG/1.1/DTD/svg11.dtd">
<svg width="895px" height="601px" viewBox="0 0 895 601" version="1.1" xmlns="http://www.w3.org/2000/svg">
<g id="#198a00ff">
<path fill="#198a00" opacity="1.00" d=" M 0.00 0.00 L 895.00 0.00 L 895.00 214.25 C 859.95 214.24 824.90 214.26 789.86 214.25 C 754.15 214.25 718.45 214.23 682.75 214.26 C 646.98 214.23 611.21 214.29 575.44 214.22 C 575.57 342.81 575.47 471.40 575.49 599.99 C 383.66 600.02 191.83 599.99 0.00 600.00 L 0.00 0.00 M 609.29 53.91 C 610.69 58.86 615.36 61.83 617.71 66.27 C 612.09 64.63 606.95 61.51 603.02 57.18 C 601.81 55.59 599.93 55.11 598.04 54.98 C 598.45 58.70 599.88 62.16 601.65 65.43 C 599.59 64.23 597.30 63.54 595.02 62.94 C 595.26 65.53 596.52 67.79 598.03 69.85 C 597.01 69.71 594.99 69.44 593.98 69.30 C 594.62 73.51 597.49 76.90 600.95 79.19 C 607.50 83.67 615.03 86.70 622.81 88.20 C 621.58 88.91 620.38 89.62 619.17 90.33 C 622.73 94.09 627.95 94.67 632.83 94.98 C 630.97 95.96 628.86 96.17 626.82 96.49 C 629.90 101.40 636.68 101.30 641.84 101.78 C 641.74 102.32 641.52 103.38 641.41 103.91 C 646.60 107.34 653.03 107.19 658.98 106.74 C 658.75 107.36 658.29 108.61 658.06 109.23 C 661.67 112.30 666.48 112.92 671.05 112.48 C 672.84 116.62 678.16 115.22 681.71 115.15 C 681.90 115.74 682.28 116.92 682.47 117.51 C 685.72 117.94 689.01 117.63 692.16 116.72 C 692.54 117.98 692.60 119.59 694.01 120.22 C 697.67 120.39 701.24 119.26 704.77 118.42 C 704.65 120.01 704.84 121.77 706.34 122.68 C 710.56 125.75 716.15 125.07 721.00 124.29 C 720.67 125.49 720.34 126.68 720.03 127.88 C 720.67 127.55 721.93 126.88 722.56 126.55 C 721.36 131.07 721.09 135.81 719.47 140.23 C 721.23 139.27 722.99 138.30 724.51 136.96 C 724.48 137.83 724.44 139.58 724.41 140.45 C 725.04 141.56 726.27 142.84 725.00 144.03 C 722.88 148.30 717.44 146.14 714.02 148.17 C 711.47 150.44 710.53 154.07 710.95 157.38 C 711.95 156.57 712.97 155.75 713.97 154.92 C 715.79 154.72 717.62 154.54 719.47 154.37 C 719.82 157.69 719.93 161.94 723.69 163.23 C 723.70 162.46 723.71 160.92 723.72 160.15 C 725.27 159.20 726.80 158.24 728.34 157.26 C 730.34 159.70 731.59 163.09 735.01 163.86 C 734.57 162.50 734.13 161.15 733.71 159.79 C 734.44 158.81 735.18 157.84 735.92 156.85 C 736.70 157.07 737.49 157.28 738.28 157.50 C 738.39 156.79 738.60 155.37 738.71 154.66 C 739.81 154.47 740.91 154.28 742.03 154.09 C 743.16 157.12 742.73 161.89 746.94 162.35 C 746.84 161.49 746.64 159.76 746.54 158.90 C 750.23 157.35 749.94 153.32 749.85 149.98 C 751.07 152.44 752.57 154.65 755.59 154.74 C 755.46 155.53 755.19 157.12 755.05 157.92 C 757.02 157.06 759.35 156.10 759.48 153.59 C 760.48 150.71 758.72 148.22 756.97 146.13 C 759.92 146.40 761.31 148.97 762.88 151.09 C 762.69 148.38 762.16 143.02 758.15 144.40 C 758.02 144.40 757.78 144.39 757.66 144.38 C 755.85 143.87 754.35 142.67 753.64 140.92 C 756.16 141.56 758.66 142.29 761.18 142.96 C 760.11 138.81 756.66 135.87 755.15 131.90 C 757.77 133.21 760.22 135.17 763.32 135.04 C 762.56 133.85 761.80 132.67 761.02 131.50 C 762.60 131.79 764.20 132.50 765.86 132.41 C 767.24 132.07 768.65 130.80 770.04 131.87 C 773.21 133.43 777.61 135.13 780.59 132.27 C 780.03 131.00 779.50 129.71 778.98 128.43 C 783.19 129.60 787.61 130.93 791.97 129.69 C 791.91 127.05 789.63 125.53 787.93 123.87 C 791.12 123.75 794.26 123.12 797.32 122.22 C 797.46 121.59 797.74 120.33 797.87 119.69 C 799.99 119.41 802.09 119.04 804.20 118.61 C 804.19 117.84 804.19 116.29 804.19 115.51 C 814.63 115.01 822.97 107.80 833.14 106.18 C 846.21 102.95 860.72 97.88 867.75 85.48 C 867.18 85.31 866.03 84.97 865.45 84.80 C 869.07 81.70 872.77 78.58 875.55 74.67 C 874.67 72.03 870.99 74.46 869.18 74.51 C 873.16 70.60 877.55 66.63 879.01 61.01 C 873.65 62.98 869.32 66.92 863.93 68.84 C 867.04 64.57 872.33 61.11 871.77 55.12 C 864.70 56.50 859.15 61.38 852.63 64.07 C 854.66 60.54 858.76 58.50 859.82 54.37 C 847.21 59.76 834.69 65.46 821.77 70.12 C 822.24 68.05 825.84 65.28 823.09 63.47 C 811.42 69.24 798.41 71.27 785.79 73.88 C 777.91 75.78 770.33 80.31 762.00 79.01 C 753.16 78.35 744.18 78.37 735.56 80.72 C 734.92 78.40 733.52 75.93 734.46 73.50 C 735.84 71.41 738.39 70.69 740.53 69.63 L 741.66 69.86 C 742.62 70.05 743.60 70.18 744.60 70.24 C 744.79 70.96 745.18 72.39 745.37 73.10 C 747.44 71.67 750.12 69.14 748.39 66.44 C 745.52 63.13 740.55 64.17 737.07 61.97 C 730.47 57.95 721.37 58.73 715.48 63.70 C 710.98 67.15 708.85 72.64 707.52 77.97 C 698.48 75.63 689.20 74.56 680.02 73.01 C 671.22 71.03 663.10 66.93 654.88 63.34 C 650.95 61.72 647.29 59.04 642.88 59.04 C 643.48 63.24 647.72 65.40 649.86 68.76 C 641.79 65.49 634.09 61.30 625.91 58.28 C 620.40 56.35 615.27 53.53 610.44 50.29 C 609.65 51.34 608.75 52.50 609.29 53.91 M 763.24 152.28 C 763.70 152.77 763.70 152.77 763.24 152.28 Z" />
<path fill="#198a00" opacity="1.00" d=" M 601.65 65.43 C 601.61 65.51 601.55 65.68 601.51 65.76 L 601.65 65.43 Z" />
<path fill="#198a00" opacity="1.00" d=" M 737.43 120.82 C 740.11 122.65 740.85 126.06 742.26 128.82 C 744.12 132.51 743.97 136.70 743.38 140.68 C 744.00 140.79 745.23 140.99 745.84 141.10 C 745.84 142.36 745.85 143.63 745.88 144.89 C 742.09 144.94 737.90 146.79 734.41 144.58 C 733.16 142.71 733.96 140.21 733.68 138.11 C 734.96 138.92 736.37 139.52 737.80 140.06 C 736.50 133.69 737.13 127.25 737.43 120.82 Z" />
<path fill="#198a00" opacity="1.00" d=" M 778.98 128.43 C 777.07 125.70 776.49 130.55 778.98 128.43 Z" />
<path fill="#198a00" opacity="1.00" d=" M 760.27 131.37 C 760.74 131.83 760.74 131.83 760.27 131.37 Z" />
</g>
<g id="#000000ff">
<path fill="#000000" opacity="1.00" d=" M 609.29 53.91 C 608.75 52.50 609.65 51.34 610.44 50.29 C 615.27 53.53 620.40 56.35 625.91 58.28 C 634.09 61.30 641.79 65.49 649.86 68.76 C 647.72 65.40 643.48 63.24 642.88 59.04 C 647.29 59.04 650.95 61.72 654.88 63.34 C 663.10 66.93 671.22 71.03 680.02 73.01 C 689.20 74.56 698.48 75.63 707.52 77.97 C 708.85 72.64 710.98 67.15 715.48 63.70 C 721.37 58.73 730.47 57.95 737.07 61.97 C 740.55 64.17 745.52 63.13 748.39 66.44 C 750.12 69.14 747.44 71.67 745.37 73.10 C 745.18 72.39 744.79 70.96 744.60 70.24 C 743.60 70.18 742.62 70.05 741.66 69.86 C 739.87 69.26 738.31 68.18 736.92 66.94 C 740.42 67.48 744.45 67.90 746.59 71.14 C 747.13 69.93 748.22 68.78 747.87 67.36 C 744.90 64.07 739.89 64.95 736.31 62.69 C 730.17 59.15 721.87 59.75 716.37 64.26 C 712.14 67.40 710.11 72.41 708.59 77.27 C 709.26 78.24 709.94 79.22 710.63 80.20 C 701.33 76.82 691.42 75.90 681.72 74.38 C 668.17 71.80 656.37 64.16 643.48 59.70 C 646.40 63.67 649.95 67.13 653.59 70.43 C 659.03 74.63 666.16 75.38 672.16 78.47 C 667.85 77.91 663.77 76.38 659.73 74.87 C 656.74 76.35 653.51 77.23 650.28 78.02 C 654.10 79.46 658.12 78.73 661.91 77.64 C 662.09 77.87 662.46 78.34 662.65 78.57 C 660.07 80.61 657.48 82.64 654.91 84.68 C 658.49 84.62 662.43 85.49 665.81 83.90 C 668.87 81.52 671.26 77.86 675.51 77.56 C 674.54 78.64 673.58 79.72 672.61 80.79 C 676.21 81.64 679.91 81.76 683.57 81.22 C 682.61 82.35 681.65 83.47 680.71 84.60 C 684.57 85.12 688.41 84.48 692.05 83.18 C 691.22 84.39 690.37 85.60 689.53 86.81 C 690.91 87.14 692.29 87.50 693.66 87.90 C 691.68 87.96 689.71 87.92 687.75 87.85 C 688.17 87.16 689.02 85.78 689.44 85.09 C 686.08 85.91 682.63 85.56 679.24 85.81 C 674.67 88.12 670.52 91.18 666.17 93.86 C 673.79 93.83 680.92 91.02 687.73 87.88 C 683.65 92.33 677.77 94.54 672.86 97.93 C 680.72 99.97 688.67 97.18 695.65 93.66 C 700.98 90.83 704.84 86.07 708.73 81.59 C 707.79 84.67 706.67 87.81 706.81 91.07 C 707.15 93.98 709.30 96.17 710.97 98.43 C 709.49 100.41 706.28 101.84 706.59 104.70 C 705.67 105.67 704.68 106.58 703.70 107.48 C 706.05 107.12 708.56 107.01 710.63 105.69 C 712.17 105.06 713.76 103.44 715.52 104.37 C 717.52 106.20 718.87 108.60 720.42 110.80 C 720.70 109.78 721.28 107.75 721.56 106.74 C 725.48 108.93 729.69 110.50 733.74 112.41 C 736.12 113.35 736.96 115.91 738.02 118.00 C 740.00 122.33 742.65 126.36 744.06 130.94 C 745.06 134.06 744.64 137.39 744.72 140.61 C 746.50 137.82 747.55 134.66 748.09 131.40 C 750.08 136.60 754.45 140.63 759.94 141.85 C 758.02 138.03 753.98 134.81 754.48 130.16 C 755.87 130.88 757.26 131.61 758.64 132.37 C 755.81 128.78 754.65 124.32 752.87 120.19 C 751.13 115.93 747.18 113.27 744.58 109.62 C 747.68 110.50 749.44 113.34 751.81 115.30 C 755.51 118.34 760.09 120.30 764.87 120.78 C 761.72 115.21 755.55 112.18 752.67 106.42 C 756.50 108.43 758.79 112.34 762.48 114.57 C 767.22 117.66 772.79 121.05 778.69 119.36 C 773.76 123.21 767.65 118.40 763.10 116.19 C 763.68 117.14 764.85 119.03 765.44 119.98 C 765.60 121.84 763.46 121.68 762.29 121.44 C 758.72 120.76 755.55 118.88 752.43 117.12 C 754.02 120.10 755.05 123.36 756.67 126.32 C 759.14 129.51 763.01 131.34 766.99 131.72 C 765.15 129.80 763.21 127.97 761.64 125.83 C 766.01 127.61 769.33 131.43 774.06 132.44 C 775.76 132.87 778.66 133.48 779.40 131.32 C 775.07 128.50 770.13 126.07 767.49 121.38 C 774.99 124.86 782.73 130.74 791.46 128.62 C 786.47 124.47 781.56 119.46 775.03 117.99 C 773.97 117.41 773.05 116.62 772.15 115.85 C 764.56 108.56 755.33 103.23 748.02 95.61 C 748.52 99.62 749.99 103.64 749.24 107.72 C 747.78 103.00 747.79 97.94 746.09 93.30 C 743.58 88.57 739.40 85.01 735.10 81.96 C 732.98 80.56 731.88 78.23 730.77 76.06 C 731.49 76.75 732.94 78.15 733.67 78.85 C 731.44 74.16 735.49 68.79 740.53 69.63 C 738.39 70.69 735.84 71.41 734.46 73.50 C 733.52 75.93 734.92 78.40 735.56 80.72 C 744.18 78.37 753.16 78.35 762.00 79.01 C 770.33 80.31 777.91 75.78 785.79 73.88 C 798.41 71.27 811.42 69.24 823.09 63.47 C 825.84 65.28 822.24 68.05 821.77 70.12 C 834.69 65.46 847.21 59.76 859.82 54.37 C 858.76 58.50 854.66 60.54 852.63 64.07 C 859.15 61.38 864.70 56.50 871.77 55.12 C 872.33 61.11 867.04 64.57 863.93 68.84 C 869.32 66.92 873.65 62.98 879.01 61.01 C 877.55 66.63 873.16 70.60 869.18 74.51 C 870.99 74.46 874.67 72.03 875.55 74.67 C 872.77 78.58 869.07 81.70 865.45 84.80 C 866.03 84.97 867.18 85.31 867.75 85.48 C 860.72 97.88 846.21 102.95 833.14 106.18 C 822.97 107.80 814.63 115.01 804.19 115.51 C 804.19 116.29 804.19 117.84 804.20 118.61 C 802.09 119.04 799.99 119.41 797.87 119.69 C 797.74 120.33 797.46 121.59 797.32 122.22 C 794.26 123.12 791.12 123.75 787.93 123.87 C 789.63 125.53 791.91 127.05 791.97 129.69 C 787.61 130.93 783.19 129.60 778.98 128.43 C 777.07 125.70 776.49 130.55 778.98 128.43 C 779.50 129.71 780.03 131.00 780.59 132.27 C 777.61 135.13 773.21 133.43 770.04 131.87 C 768.65 130.80 767.24 132.07 765.86 132.41 C 764.20 132.50 762.60 131.79 761.02 131.50 C 761.80 132.67 762.56 133.85 763.32 135.04 C 760.22 135.17 757.77 133.21 755.15 131.90 C 756.66 135.87 760.11 138.81 761.18 142.96 C 758.66 142.29 756.16 141.56 753.64 140.92 C 754.35 142.67 755.85 143.87 757.66 144.38 C 756.72 144.39 754.85 144.40 753.91 144.40 C 753.53 140.44 750.92 137.38 748.21 134.70 C 747.08 138.23 746.68 141.92 746.75 145.62 C 743.37 146.11 739.57 145.80 736.64 147.78 C 735.70 150.23 736.60 152.89 736.68 155.42 C 738.01 152.25 742.52 153.53 744.29 150.48 C 742.28 154.22 744.06 157.93 745.40 161.50 C 745.47 160.70 745.60 159.10 745.67 158.30 C 746.73 157.19 748.31 156.38 748.83 154.85 C 748.94 153.11 748.68 151.37 748.57 149.64 C 749.15 149.49 750.30 149.18 750.87 149.03 C 751.52 150.37 752.18 151.72 752.86 153.06 C 755.38 152.98 757.37 153.71 757.06 156.81 C 757.73 154.91 758.95 153.05 758.75 150.95 C 758.08 148.82 756.13 147.45 754.74 145.81 C 756.98 145.27 759.22 145.58 761.41 146.26 C 760.59 145.80 758.96 144.87 758.15 144.40 C 762.16 143.02 762.69 148.38 762.88 151.09 C 761.31 148.97 759.92 146.40 756.97 146.13 C 758.72 148.22 760.48 150.71 759.48 153.59 C 759.35 156.10 757.02 157.06 755.05 157.92 C 755.19 157.12 755.46 155.53 755.59 154.74 C 752.57 154.65 751.07 152.44 749.85 149.98 C 749.94 153.32 750.23 157.35 746.54 158.90 C 746.64 159.76 746.84 161.49 746.94 162.35 C 742.73 161.89 743.16 157.12 742.03 154.09 C 740.91 154.28 739.81 154.47 738.71 154.66 C 738.60 155.37 738.39 156.79 738.28 157.50 C 737.49 157.28 736.70 157.07 735.92 156.85 C 735.18 157.84 734.44 158.81 733.71 159.79 C 734.13 161.15 734.57 162.50 735.01 163.86 C 731.59 163.09 730.34 159.70 728.34 157.26 C 726.80 158.24 725.27 159.20 723.72 160.15 C 723.71 160.92 723.70 162.46 723.69 163.23 C 719.93 161.94 719.82 157.69 719.47 154.37 C 717.62 154.54 715.79 154.72 713.97 154.92 C 712.97 155.75 711.95 156.57 710.95 157.38 C 710.53 154.07 711.47 150.44 714.02 148.17 C 717.44 146.14 722.88 148.30 725.00 144.03 C 726.27 142.84 725.04 141.56 724.41 140.45 C 724.44 139.58 724.48 137.83 724.51 136.96 C 722.99 138.30 721.23 139.27 719.47 140.23 C 721.09 135.81 721.36 131.07 722.56 126.55 C 721.93 126.88 720.67 127.55 720.03 127.88 C 720.34 126.68 720.67 125.49 721.00 124.29 C 716.15 125.07 710.56 125.75 706.34 122.68 C 704.84 121.77 704.65 120.01 704.77 118.42 C 701.24 119.26 697.67 120.39 694.01 120.22 C 692.60 119.59 692.54 117.98 692.16 116.72 C 689.01 117.63 685.72 117.94 682.47 117.51 C 682.28 116.92 681.90 115.74 681.71 115.15 C 678.16 115.22 672.84 116.62 671.05 112.48 C 666.48 112.92 661.67 112.30 658.06 109.23 C 658.29 108.61 658.75 107.36 658.98 106.74 C 653.03 107.19 646.60 107.34 641.41 103.91 C 641.52 103.38 641.74 102.32 641.84 101.78 C 636.68 101.30 629.90 101.40 626.82 96.49 C 628.86 96.17 630.97 95.96 632.83 94.98 C 627.95 94.67 622.73 94.09 619.17 90.33 C 620.38 89.62 621.58 88.91 622.81 88.20 C 615.03 86.70 607.50 83.67 600.95 79.19 C 597.49 76.90 594.62 73.51 593.98 69.30 C 594.99 69.44 597.01 69.71 598.03 69.85 C 596.52 67.79 595.26 65.53 595.02 62.94 C 597.30 63.54 599.59 64.23 601.65 65.43 L 601.51 65.76 C 601.55 65.68 601.61 65.51 601.65 65.43 C 599.88 62.16 598.45 58.70 598.04 54.98 C 599.93 55.11 601.81 55.59 603.02 57.18 C 606.95 61.51 612.09 64.63 617.71 66.27 C 615.36 61.83 610.69 58.86 609.29 53.91 M 609.89 51.70 C 610.87 58.26 616.53 62.61 621.06 66.89 C 628.34 71.74 637.35 73.47 644.59 78.37 C 641.06 78.25 638.04 76.27 634.84 75.03 C 626.54 71.41 618.02 68.24 609.98 64.07 C 605.68 61.97 602.97 57.78 598.79 55.55 C 600.25 62.75 605.13 69.24 612.03 72.00 C 622.21 76.22 632.60 79.94 643.04 83.48 C 642.70 83.77 642.00 84.37 641.66 84.67 C 631.13 80.76 620.51 77.08 610.14 72.77 C 605.42 70.91 601.60 67.55 597.65 64.49 L 596.64 64.67 C 597.11 68.12 600.26 70.97 602.97 73.08 C 611.50 77.19 620.42 80.51 629.34 83.67 C 630.50 83.90 631.15 84.59 631.29 85.74 C 621.94 82.66 612.84 78.87 603.60 75.49 C 600.14 74.33 597.38 71.88 594.57 69.68 C 595.92 73.23 598.41 76.21 601.50 78.39 C 608.36 83.13 616.38 85.88 624.44 87.81 C 628.98 88.92 633.47 87.06 637.89 86.25 C 637.93 86.61 638.01 87.32 638.05 87.68 C 632.30 89.17 626.41 89.82 620.50 90.13 C 624.05 93.62 629.31 93.78 633.98 93.76 C 639.98 93.97 645.49 91.27 651.29 90.18 C 651.13 90.50 650.81 91.16 650.65 91.49 C 643.44 94.22 635.92 96.54 628.20 97.20 C 638.57 103.96 651.27 99.38 662.16 96.52 C 662.25 98.26 660.30 98.39 659.10 98.90 C 653.59 100.46 648.28 102.96 642.48 103.22 C 651.65 108.82 662.75 104.88 672.41 102.88 C 669.57 106.92 664.07 107.06 659.77 108.52 C 660.99 110.80 663.78 111.20 666.12 111.50 C 673.39 112.20 680.25 108.66 685.77 104.24 C 684.87 104.01 683.05 103.57 682.14 103.35 C 684.89 100.82 688.34 99.26 691.27 96.96 C 684.77 99.07 676.81 101.46 670.58 97.52 C 673.56 96.15 676.67 94.91 679.16 92.68 C 674.17 93.99 669.07 95.15 663.89 94.50 C 664.98 93.37 666.14 92.32 667.32 91.27 C 664.28 91.51 661.23 91.51 658.20 91.40 C 660.46 89.55 662.61 87.56 664.69 85.51 C 660.62 85.74 656.45 86.04 652.50 84.80 C 654.53 82.77 657.54 82.05 659.22 79.60 C 656.64 79.68 653.94 80.26 651.45 79.34 C 650.49 78.76 649.09 77.93 650.08 76.70 C 652.90 76.30 655.79 75.95 658.17 74.23 C 656.55 73.42 654.95 72.61 653.37 71.75 C 643.00 66.98 632.79 61.82 622.08 57.82 C 617.69 56.41 614.24 53.11 609.89 51.70 M 844.22 62.18 C 828.62 68.38 813.35 75.79 796.89 79.43 C 801.52 81.28 806.61 81.43 811.52 82.00 C 812.04 81.05 812.81 80.48 813.84 80.28 C 824.75 77.92 835.23 73.63 844.74 67.78 C 849.82 64.50 854.74 60.77 858.34 55.84 C 853.76 58.23 848.96 60.15 844.22 62.18 M 854.56 64.46 C 841.80 71.27 828.97 78.47 814.68 81.51 C 816.94 82.75 819.65 81.95 822.11 82.09 C 820.09 84.16 817.82 85.94 815.33 87.39 C 814.66 86.94 814.01 86.49 813.38 86.04 C 815.96 86.26 817.95 84.55 819.93 83.22 C 812.22 83.35 804.52 82.49 796.98 80.92 C 793.57 79.85 790.16 81.31 786.76 81.61 C 786.67 83.02 786.80 84.74 785.03 85.03 C 782.12 86.30 778.86 86.18 775.77 86.18 C 776.38 87.36 776.98 88.54 777.58 89.74 C 780.30 91.50 783.52 92.22 786.76 92.07 C 785.35 92.86 783.85 93.44 782.38 94.04 C 780.43 92.86 778.36 91.88 776.45 90.65 L 776.60 89.16 C 773.52 89.94 770.36 89.49 767.25 89.42 C 766.60 90.06 765.30 91.34 764.65 91.98 C 767.80 93.75 770.97 95.48 774.27 96.96 C 773.19 97.30 772.12 97.64 771.07 97.99 C 768.05 95.94 765.05 93.86 762.26 91.52 C 760.99 91.55 759.72 91.59 758.47 91.64 C 757.45 93.42 755.21 92.97 753.56 93.43 C 765.10 100.90 777.22 108.10 790.65 111.52 C 794.45 112.17 799.94 113.40 802.26 109.34 C 793.39 107.30 784.69 104.63 776.21 101.33 C 776.05 100.86 775.74 99.92 775.58 99.46 C 784.02 103.95 793.45 106.27 802.73 108.35 C 813.47 107.43 824.44 107.74 834.90 104.77 C 842.95 102.55 851.11 99.91 857.89 94.87 C 861.22 92.35 864.54 89.54 866.37 85.68 C 857.20 90.67 848.20 96.26 838.03 99.04 C 822.54 103.98 805.77 104.31 789.97 100.69 C 789.99 100.33 790.05 99.62 790.07 99.27 C 815.17 105.67 842.90 100.03 863.75 84.76 C 867.72 81.50 872.10 78.43 874.57 73.78 C 860.41 79.23 847.53 87.95 832.59 91.30 C 833.15 89.86 834.72 89.52 836.01 89.06 C 842.35 87.12 848.35 84.28 854.38 81.57 C 863.51 77.36 873.12 71.91 877.59 62.44 C 866.58 69.19 854.93 74.84 843.23 80.27 C 832.32 85.08 820.84 88.42 809.33 91.46 C 808.05 91.66 806.48 92.46 805.47 91.16 C 804.12 91.12 802.78 91.09 801.44 91.08 C 802.23 92.19 803.04 93.29 803.85 94.40 C 797.99 95.44 792.18 93.88 786.33 93.99 C 786.99 93.54 787.66 93.09 788.34 92.66 C 793.03 93.61 797.83 93.85 802.61 93.98 C 799.72 90.72 794.86 91.20 791.03 89.85 C 789.56 89.23 786.91 89.44 786.95 87.31 C 791.25 88.43 795.54 89.75 800.00 90.13 C 803.31 90.51 806.59 89.28 809.90 89.90 C 822.11 86.78 834.22 83.03 845.67 77.73 C 853.76 73.99 862.07 69.89 867.85 62.88 C 869.58 61.03 870.25 58.54 871.08 56.21 C 865.12 57.97 859.95 61.50 854.56 64.46 M 596.64 64.67 C 596.18 64.17 596.18 64.17 596.64 64.67 M 787.11 74.63 C 780.31 76.18 773.89 79.31 766.96 80.27 C 757.03 79.69 746.97 79.09 737.16 81.16 C 739.67 84.16 742.96 86.40 745.21 89.64 C 747.58 93.40 752.86 92.79 756.51 91.58 C 754.95 91.27 753.38 90.99 751.83 90.74 C 752.16 90.44 752.83 89.85 753.16 89.55 C 757.01 90.77 761.05 90.68 765.03 90.45 L 765.04 89.27 C 763.19 88.60 759.89 88.91 759.79 86.23 C 764.65 88.60 770.09 88.67 775.38 88.45 L 775.43 86.77 C 773.53 86.61 771.33 86.11 770.61 84.10 C 775.37 85.16 780.63 86.06 785.23 83.91 C 787.32 81.63 782.80 81.97 781.60 81.72 C 781.81 81.47 782.22 80.98 782.43 80.74 C 791.30 80.92 799.73 77.73 808.15 75.33 C 814.05 73.37 821.59 71.34 823.40 64.48 C 812.01 70.02 799.40 72.08 787.11 74.63 M 671.07 81.11 C 668.23 84.42 663.87 86.46 662.02 90.55 C 665.21 90.28 668.81 90.71 671.56 88.72 C 674.84 86.58 678.28 84.70 681.60 82.61 C 678.00 82.81 674.44 82.36 671.07 81.11 M 684.01 102.67 C 692.36 105.40 700.90 100.17 706.71 94.48 C 705.86 92.08 705.62 89.54 706.05 87.02 C 699.67 93.45 691.78 98.12 684.01 102.67 M 747.23 93.06 C 752.03 98.86 758.17 103.32 764.16 107.80 C 767.21 110.18 770.91 111.51 773.94 113.93 C 778.02 114.43 782.10 115.42 786.24 114.99 C 778.22 110.32 770.13 105.77 762.35 100.71 C 758.88 98.35 755.00 96.53 752.02 93.54 C 750.83 93.42 748.43 93.18 747.23 93.06 M 686.97 104.59 C 683.35 109.15 677.19 110.44 672.73 113.97 C 683.23 116.22 692.16 109.53 700.89 104.91 C 704.24 103.29 707.29 101.11 709.75 98.30 C 708.94 97.31 708.15 96.33 707.36 95.34 C 701.83 100.54 694.78 104.68 686.97 104.59 M 703.06 107.68 C 703.40 106.87 704.09 105.24 704.43 104.43 C 697.32 108.72 689.75 112.18 682.69 116.54 C 691.08 117.88 698.07 112.48 705.27 109.19 C 703.16 114.13 695.29 113.88 693.32 119.17 C 701.39 119.44 708.81 115.82 716.17 113.02 C 716.04 113.36 715.77 114.05 715.64 114.40 C 712.18 116.28 708.47 117.74 705.37 120.23 C 709.40 125.18 717.03 124.75 722.41 122.44 C 722.94 115.58 718.79 109.68 714.74 104.59 C 711.20 106.48 707.26 109.48 703.06 107.68 M 722.01 107.85 C 721.70 109.75 721.44 111.66 721.30 113.58 C 723.74 116.52 723.42 120.53 723.37 124.09 C 723.80 123.49 724.66 122.29 725.09 121.68 C 725.04 124.95 723.23 127.78 722.65 130.93 C 722.15 133.45 721.68 135.98 720.97 138.45 C 725.37 135.45 726.29 129.98 726.04 125.03 L 727.06 124.96 C 727.58 130.34 726.04 135.53 724.87 140.70 C 728.94 139.58 729.69 134.73 731.02 131.33 C 732.72 133.72 734.16 136.31 736.21 138.43 C 735.53 131.32 736.34 124.19 736.66 117.08 C 733.95 111.30 726.50 111.63 722.01 107.85 M 777.66 108.26 C 778.14 108.78 778.14 108.78 777.66 108.26 M 803.85 109.80 C 801.05 113.20 796.57 113.24 792.55 113.45 C 802.25 116.02 812.89 114.13 821.27 108.68 C 815.45 108.90 809.64 109.31 803.85 109.80 M 778.35 108.67 C 781.00 111.33 784.49 112.86 787.95 114.15 C 786.85 109.85 781.51 110.33 778.35 108.67 M 771.28 113.27 C 771.81 113.77 771.81 113.77 771.28 113.27 M 788.40 113.55 C 787.90 115.81 785.34 115.78 783.63 116.47 C 790.17 118.67 797.18 119.53 803.95 117.79 C 799.13 115.26 793.45 115.46 788.40 113.55 M 776.03 115.12 C 779.62 118.68 784.14 121.63 789.12 122.72 C 791.67 123.38 793.91 120.81 796.42 122.04 C 796.21 121.60 795.78 120.73 795.56 120.29 C 788.71 120.00 782.38 117.41 776.03 115.12 M 737.43 120.82 C 737.13 127.25 736.50 133.69 737.80 140.06 C 736.37 139.52 734.96 138.92 733.68 138.11 C 733.96 140.21 733.16 142.71 734.41 144.58 C 737.90 146.79 742.09 144.94 745.88 144.89 C 745.85 143.63 745.84 142.36 745.84 141.10 C 745.23 140.99 744.00 140.79 743.38 140.68 C 743.97 136.70 744.12 132.51 742.26 128.82 C 740.85 126.06 740.11 122.65 737.43 120.82 M 760.27 131.37 C 760.74 131.83 760.74 131.83 760.27 131.37 M 731.49 133.91 C 729.51 137.77 727.29 141.50 725.31 145.36 C 723.31 148.40 719.32 147.66 716.25 148.37 C 713.61 148.89 712.97 151.78 711.93 153.84 C 716.06 154.42 720.02 153.25 723.36 150.81 C 721.36 153.80 719.53 157.41 721.82 160.87 C 723.15 159.06 725.35 158.34 726.96 156.86 C 727.26 155.61 727.43 154.34 727.49 153.05 C 727.78 153.03 728.38 152.99 728.68 152.96 C 728.26 156.73 731.50 158.96 732.61 162.21 C 732.69 159.60 734.20 157.45 735.18 155.13 C 734.87 153.82 734.43 152.55 734.02 151.28 C 734.79 149.73 735.48 148.15 736.08 146.53 C 734.95 145.77 733.47 145.41 732.69 144.27 C 732.21 140.80 734.12 136.82 731.49 133.91 Z" />
<path fill="#000000" opacity="1.00" d=" M 722.52 64.77 C 724.28 63.08 726.54 61.68 729.05 61.57 C 729.51 61.94 730.44 62.67 730.91 63.04 C 729.16 62.74 727.40 62.92 725.67 63.08 C 726.69 64.96 728.97 64.71 730.76 65.26 C 728.52 66.50 725.12 65.14 722.52 64.77 Z" />
<path fill="#000000" opacity="1.00" d=" M 795.66 84.77 C 800.99 85.50 806.22 88.34 811.69 86.72 C 812.35 87.13 813.01 87.56 813.67 88.00 C 811.03 87.80 808.42 88.07 805.90 88.81 C 802.56 87.34 798.06 87.86 795.66 84.77 Z" />
<path fill="#000000" opacity="1.00" d=" M 784.81 94.42 C 784.92 94.61 784.92 94.61 784.81 94.42 Z" />
<path fill="#000000" opacity="1.00" d=" M 785.40 95.89 C 785.95 95.51 786.52 95.14 787.10 94.78 C 790.60 98.94 796.45 95.27 800.46 97.60 C 792.60 97.35 785.00 99.64 777.15 99.28 C 777.02 98.86 776.77 98.01 776.65 97.58 C 780.81 98.71 785.16 98.24 789.34 97.44 C 788.36 97.05 786.39 96.28 785.40 95.89 Z" />
<path fill="#000000" opacity="1.00" d=" M 774.45 97.16 C 776.11 95.61 776.47 99.65 774.60 98.11 L 774.45 97.16 Z" />
<path fill="#000000" opacity="1.00" d=" M 774.39 99.37 C 774.64 99.63 774.64 99.63 774.39 99.37 Z" />
<path fill="#000000" opacity="1.00" d=" M 733.11 101.80 C 734.70 104.21 735.69 107.07 738.05 108.90 C 740.22 110.65 741.91 112.90 742.79 115.57 C 742.52 115.64 741.98 115.78 741.71 115.85 C 740.51 110.08 733.02 108.12 733.11 101.80 Z" />
<path fill="#000000" opacity="1.00" d=" M 763.24 152.28 C 763.70 152.77 763.70 152.77 763.24 152.28 Z" />
<path fill="#000000" opacity="1.00" d=" M 682.75 214.26 C 718.45 214.23 754.15 214.25 789.86 214.25 C 789.86 342.83 789.84 471.41 789.86 599.99 C 754.15 600.00 718.44 600.01 682.74 599.98 C 682.75 471.41 682.72 342.83 682.75 214.26 Z" />
</g>
<g id="#ef7d00ff">
<path fill="#ef7d00" opacity="1.00" d=" M 609.89 51.70 C 614.24 53.11 617.69 56.41 622.08 57.82 C 632.79 61.82 643.00 66.98 653.37 71.75 C 654.95 72.61 656.55 73.42 658.17 74.23 C 655.79 75.95 652.90 76.30 650.08 76.70 C 649.09 77.93 650.49 78.76 651.45 79.34 C 653.94 80.26 656.64 79.68 659.22 79.60 C 657.54 82.05 654.53 82.77 652.50 84.80 C 656.45 86.04 660.62 85.74 664.69 85.51 C 662.61 87.56 660.46 89.55 658.20 91.40 C 661.23 91.51 664.28 91.51 667.32 91.27 C 666.14 92.32 664.98 93.37 663.89 94.50 C 669.07 95.15 674.17 93.99 679.16 92.68 C 676.67 94.91 673.56 96.15 670.58 97.52 C 676.81 101.46 684.77 99.07 691.27 96.96 C 688.34 99.26 684.89 100.82 682.14 103.35 C 683.05 103.57 684.87 104.01 685.77 104.24 C 680.25 108.66 673.39 112.20 666.12 111.50 C 663.78 111.20 660.99 110.80 659.77 108.52 C 664.07 107.06 669.57 106.92 672.41 102.88 C 662.75 104.88 651.65 108.82 642.48 103.22 C 648.28 102.96 653.59 100.46 659.10 98.90 C 660.30 98.39 662.25 98.26 662.16 96.52 C 651.27 99.38 638.57 103.96 628.20 97.20 C 635.92 96.54 643.44 94.22 650.65 91.49 C 650.81 91.16 651.13 90.50 651.29 90.18 C 645.49 91.27 639.98 93.97 633.98 93.76 C 629.31 93.78 624.05 93.62 620.50 90.13 C 626.41 89.82 632.30 89.17 638.05 87.68 C 638.01 87.32 637.93 86.61 637.89 86.25 C 633.47 87.06 628.98 88.92 624.44 87.81 C 616.38 85.88 608.36 83.13 601.50 78.39 C 598.41 76.21 595.92 73.23 594.57 69.68 C 597.38 71.88 600.14 74.33 603.60 75.49 C 612.84 78.87 621.94 82.66 631.29 85.74 C 631.15 84.59 630.50 83.90 629.34 83.67 C 620.42 80.51 611.50 77.19 602.97 73.08 C 600.26 70.97 597.11 68.12 596.64 64.67 L 597.65 64.49 C 601.60 67.55 605.42 70.91 610.14 72.77 C 620.51 77.08 631.13 80.76 641.66 84.67 C 642.00 84.37 642.70 83.77 643.04 83.48 C 632.60 79.94 622.21 76.22 612.03 72.00 C 605.13 69.24 600.25 62.75 598.79 55.55 C 602.97 57.78 605.68 61.97 609.98 64.07 C 618.02 68.24 626.54 71.41 634.84 75.03 C 638.04 76.27 641.06 78.25 644.59 78.37 C 637.35 73.47 628.34 71.74 621.06 66.89 C 616.53 62.61 610.87 58.26 609.89 51.70 Z" />
<path fill="#ef7d00" opacity="1.00" d=" M 844.22 62.18 C 848.96 60.15 853.76 58.23 858.34 55.84 C 854.74 60.77 849.82 64.50 844.74 67.78 C 835.23 73.63 824.75 77.92 813.84 80.28 C 812.81 80.48 812.04 81.05 811.52 82.00 C 806.61 81.43 801.52 81.28 796.89 79.43 C 813.35 75.79 828.62 68.38 844.22 62.18 Z" />
<path fill="#ef7d00" opacity="1.00" d=" M 854.56 64.46 C 859.95 61.50 865.12 57.97 871.08 56.21 C 870.25 58.54 869.58 61.03 867.85 62.88 C 862.07 69.89 853.76 73.99 845.67 77.73 C 834.22 83.03 822.11 86.78 809.90 89.90 C 806.59 89.28 803.31 90.51 800.00 90.13 C 795.54 89.75 791.25 88.43 786.95 87.31 C 786.91 89.44 789.56 89.23 791.03 89.85 C 794.86 91.20 799.72 90.72 802.61 93.98 C 797.83 93.85 793.03 93.61 788.34 92.66 C 787.66 93.09 786.99 93.54 786.33 93.99 C 792.18 93.88 797.99 95.44 803.85 94.40 C 803.04 93.29 802.23 92.19 801.44 91.08 C 802.78 91.09 804.12 91.12 805.47 91.16 C 806.48 92.46 808.05 91.66 809.33 91.46 C 820.84 88.42 832.32 85.08 843.23 80.27 C 854.93 74.84 866.58 69.19 877.59 62.44 C 873.12 71.91 863.51 77.36 854.38 81.57 C 848.35 84.28 842.35 87.12 836.01 89.06 C 834.72 89.52 833.15 89.86 832.59 91.30 C 847.53 87.95 860.41 79.23 874.57 73.78 C 872.10 78.43 867.72 81.50 863.75 84.76 C 842.90 100.03 815.17 105.67 790.07 99.27 C 790.05 99.62 789.99 100.33 789.97 100.69 C 805.77 104.31 822.54 103.98 838.03 99.04 C 848.20 96.26 857.20 90.67 866.37 85.68 C 864.54 89.54 861.22 92.35 857.89 94.87 C 851.11 99.91 842.95 102.55 834.90 104.77 C 824.44 107.74 813.47 107.43 802.73 108.35 C 793.45 106.27 784.02 103.95 775.58 99.46 C 775.74 99.92 776.05 100.86 776.21 101.33 C 784.69 104.63 793.39 107.30 802.26 109.34 C 799.94 113.40 794.45 112.17 790.65 111.52 C 777.22 108.10 765.10 100.90 753.56 93.43 C 755.21 92.97 757.45 93.42 758.47 91.64 C 759.72 91.59 760.99 91.55 762.26 91.52 C 765.05 93.86 768.05 95.94 771.07 97.99 C 772.12 97.64 773.19 97.30 774.27 96.96 C 770.97 95.48 767.80 93.75 764.65 91.98 C 765.30 91.34 766.60 90.06 767.25 89.42 C 770.36 89.49 773.52 89.94 776.60 89.16 L 776.45 90.65 C 778.36 91.88 780.43 92.86 782.38 94.04 C 783.85 93.44 785.35 92.86 786.76 92.07 C 783.52 92.22 780.30 91.50 777.58 89.74 C 776.98 88.54 776.38 87.36 775.77 86.18 C 778.86 86.18 782.12 86.30 785.03 85.03 C 786.80 84.74 786.67 83.02 786.76 81.61 C 790.16 81.31 793.57 79.85 796.98 80.92 C 804.52 82.49 812.22 83.35 819.93 83.22 C 817.95 84.55 815.96 86.26 813.38 86.04 C 814.01 86.49 814.66 86.94 815.33 87.39 C 817.82 85.94 820.09 84.16 822.11 82.09 C 819.65 81.95 816.94 82.75 814.68 81.51 C 828.97 78.47 841.80 71.27 854.56 64.46 M 795.66 84.77 C 798.06 87.86 802.56 87.34 805.90 88.81 C 808.42 88.07 811.03 87.80 813.67 88.00 C 813.01 87.56 812.35 87.13 811.69 86.72 C 806.22 88.34 800.99 85.50 795.66 84.77 M 784.81 94.42 C 784.92 94.61 784.92 94.61 784.81 94.42 M 785.40 95.89 C 786.39 96.28 788.36 97.05 789.34 97.44 C 785.16 98.24 780.81 98.71 776.65 97.58 C 776.77 98.01 777.02 98.86 777.15 99.28 C 785.00 99.64 792.60 97.35 800.46 97.60 C 796.45 95.27 790.60 98.94 787.10 94.78 C 786.52 95.14 785.95 95.51 785.40 95.89 M 774.45 97.16 L 774.60 98.11 C 776.47 99.65 776.11 95.61 774.45 97.16 M 774.39 99.37 C 774.64 99.63 774.64 99.63 774.39 99.37 Z" />
<path fill="#ef7d00" opacity="1.00" d=" M 643.48 59.70 C 656.37 64.16 668.17 71.80 681.72 74.38 C 691.42 75.90 701.33 76.82 710.63 80.20 C 709.94 79.22 709.26 78.24 708.59 77.27 C 710.11 72.41 712.14 67.40 716.37 64.26 C 721.87 59.75 730.17 59.15 736.31 62.69 C 739.89 64.95 744.90 64.07 747.87 67.36 C 748.22 68.78 747.13 69.93 746.59 71.14 C 744.45 67.90 740.42 67.48 736.92 66.94 C 738.31 68.18 739.87 69.26 741.66 69.86 L 740.53 69.63 C 735.49 68.79 731.44 74.16 733.67 78.85 C 732.94 78.15 731.49 76.75 730.77 76.06 C 731.88 78.23 732.98 80.56 735.10 81.96 C 739.40 85.01 743.58 88.57 746.09 93.30 C 747.79 97.94 747.78 103.00 749.24 107.72 C 749.99 103.64 748.52 99.62 748.02 95.61 C 755.33 103.23 764.56 108.56 772.15 115.85 C 773.05 116.62 773.97 117.41 775.03 117.99 C 781.56 119.46 786.47 124.47 791.46 128.62 C 782.73 130.74 774.99 124.86 767.49 121.38 C 770.13 126.07 775.07 128.50 779.40 131.32 C 778.66 133.48 775.76 132.87 774.06 132.44 C 769.33 131.43 766.01 127.61 761.64 125.83 C 763.21 127.97 765.15 129.80 766.99 131.72 C 763.01 131.34 759.14 129.51 756.67 126.32 C 755.05 123.36 754.02 120.10 752.43 117.12 C 755.55 118.88 758.72 120.76 762.29 121.44 C 763.46 121.68 765.60 121.84 765.44 119.98 C 764.85 119.03 763.68 117.14 763.10 116.19 C 767.65 118.40 773.76 123.21 778.69 119.36 C 772.79 121.05 767.22 117.66 762.48 114.57 C 758.79 112.34 756.50 108.43 752.67 106.42 C 755.55 112.18 761.72 115.21 764.87 120.78 C 760.09 120.30 755.51 118.34 751.81 115.30 C 749.44 113.34 747.68 110.50 744.58 109.62 C 747.18 113.27 751.13 115.93 752.87 120.19 C 754.65 124.32 755.81 128.78 758.64 132.37 C 757.26 131.61 755.87 130.88 754.48 130.16 C 753.98 134.81 758.02 138.03 759.94 141.85 C 754.45 140.63 750.08 136.60 748.09 131.40 C 747.55 134.66 746.50 137.82 744.72 140.61 C 744.64 137.39 745.06 134.06 744.06 130.94 C 742.65 126.36 740.00 122.33 738.02 118.00 C 736.96 115.91 736.12 113.35 733.74 112.41 C 729.69 110.50 725.48 108.93 721.56 106.74 C 721.28 107.75 720.70 109.78 720.42 110.80 C 718.87 108.60 717.52 106.20 715.52 104.37 C 713.76 103.44 712.17 105.06 710.63 105.69 C 708.56 107.01 706.05 107.12 703.70 107.48 C 704.68 106.58 705.67 105.67 706.59 104.70 C 706.28 101.84 709.49 100.41 710.97 98.43 C 709.30 96.17 707.15 93.98 706.81 91.07 C 706.67 87.81 707.79 84.67 708.73 81.59 C 704.84 86.07 700.98 90.83 695.65 93.66 C 688.67 97.18 680.72 99.97 672.86 97.93 C 677.77 94.54 683.65 92.33 687.73 87.88 C 680.92 91.02 673.79 93.83 666.17 93.86 C 670.52 91.18 674.67 88.12 679.24 85.81 C 682.63 85.56 686.08 85.91 689.44 85.09 C 689.02 85.78 688.17 87.16 687.75 87.85 C 689.71 87.92 691.68 87.96 693.66 87.90 C 692.29 87.50 690.91 87.14 689.53 86.81 C 690.37 85.60 691.22 84.39 692.05 83.18 C 688.41 84.48 684.57 85.12 680.71 84.60 C 681.65 83.47 682.61 82.35 683.57 81.22 C 679.91 81.76 676.21 81.64 672.61 80.79 C 673.58 79.72 674.54 78.64 675.51 77.56 C 671.26 77.86 668.87 81.52 665.81 83.90 C 662.43 85.49 658.49 84.62 654.91 84.68 C 657.48 82.64 660.07 80.61 662.65 78.57 C 662.46 78.34 662.09 77.87 661.91 77.64 C 658.12 78.73 654.10 79.46 650.28 78.02 C 653.51 77.23 656.74 76.35 659.73 74.87 C 663.77 76.38 667.85 77.91 672.16 78.47 C 666.16 75.38 659.03 74.63 653.59 70.43 C 649.95 67.13 646.40 63.67 643.48 59.70 M 722.52 64.77 C 725.12 65.14 728.52 66.50 730.76 65.26 C 728.97 64.71 726.69 64.96 725.67 63.08 C 727.40 62.92 729.16 62.74 730.91 63.04 C 730.44 62.67 729.51 61.94 729.05 61.57 C 726.54 61.68 724.28 63.08 722.52 64.77 M 733.11 101.80 C 733.02 108.12 740.51 110.08 741.71 115.85 C 741.98 115.78 742.52 115.64 742.79 115.57 C 741.91 112.90 740.22 110.65 738.05 108.90 C 735.69 107.07 734.70 104.21 733.11 101.80 Z" />
<path fill="#ef7d00" opacity="1.00" d=" M 596.64 64.67 C 596.18 64.17 596.18 64.17 596.64 64.67 Z" />
<path fill="#ef7d00" opacity="1.00" d=" M 787.11 74.63 C 799.40 72.08 812.01 70.02 823.40 64.48 C 821.59 71.34 814.05 73.37 808.15 75.33 C 799.73 77.73 791.30 80.92 782.43 80.74 C 782.22 80.98 781.81 81.47 781.60 81.72 C 782.80 81.97 787.32 81.63 785.23 83.91 C 780.63 86.06 775.37 85.16 770.61 84.10 C 771.33 86.11 773.53 86.61 775.43 86.77 L 775.38 88.45 C 770.09 88.67 764.65 88.60 759.79 86.23 C 759.89 88.91 763.19 88.60 765.04 89.27 L 765.03 90.45 C 761.05 90.68 757.01 90.77 753.16 89.55 C 752.83 89.85 752.16 90.44 751.83 90.74 C 753.38 90.99 754.95 91.27 756.51 91.58 C 752.86 92.79 747.58 93.40 745.21 89.64 C 742.96 86.40 739.67 84.16 737.16 81.16 C 746.97 79.09 757.03 79.69 766.96 80.27 C 773.89 79.31 780.31 76.18 787.11 74.63 Z" />
<path fill="#ef7d00" opacity="1.00" d=" M 671.07 81.11 C 674.44 82.36 678.00 82.81 681.60 82.61 C 678.28 84.70 674.84 86.58 671.56 88.72 C 668.81 90.71 665.21 90.28 662.02 90.55 C 663.87 86.46 668.23 84.42 671.07 81.11 Z" />
<path fill="#ef7d00" opacity="1.00" d=" M 684.01 102.67 C 691.78 98.12 699.67 93.45 706.05 87.02 C 705.62 89.54 705.86 92.08 706.71 94.48 C 700.90 100.17 692.36 105.40 684.01 102.67 Z" />
<path fill="#ef7d00" opacity="1.00" d=" M 747.23 93.06 C 748.43 93.18 750.83 93.42 752.02 93.54 C 755.00 96.53 758.88 98.35 762.35 100.71 C 770.13 105.77 778.22 110.32 786.24 114.99 C 782.10 115.42 778.02 114.43 773.94 113.93 C 770.91 111.51 767.21 110.18 764.16 107.80 C 758.17 103.32 752.03 98.86 747.23 93.06 Z" />
<path fill="#ef7d00" opacity="1.00" d=" M 686.97 104.59 C 694.78 104.68 701.83 100.54 707.36 95.34 C 708.15 96.33 708.94 97.31 709.75 98.30 C 707.29 101.11 704.24 103.29 700.89 104.91 C 692.16 109.53 683.23 116.22 672.73 113.97 C 677.19 110.44 683.35 109.15 686.97 104.59 Z" />
<path fill="#ef7d00" opacity="1.00" d=" M 703.06 107.68 C 707.26 109.48 711.20 106.48 714.74 104.59 C 718.79 109.68 722.94 115.58 722.41 122.44 C 717.03 124.75 709.40 125.18 705.37 120.23 C 708.47 117.74 712.18 116.28 715.64 114.40 C 715.77 114.05 716.04 113.36 716.17 113.02 C 708.81 115.82 701.39 119.44 693.32 119.17 C 695.29 113.88 703.16 114.13 705.27 109.19 C 698.07 112.48 691.08 117.88 682.69 116.54 C 689.75 112.18 697.32 108.72 704.43 104.43 C 704.09 105.24 703.40 106.87 703.06 107.68 Z" />
<path fill="#ef7d00" opacity="1.00" d=" M 722.01 107.85 C 726.50 111.63 733.95 111.30 736.66 117.08 C 736.34 124.19 735.53 131.32 736.21 138.43 C 734.16 136.31 732.72 133.72 731.02 131.33 C 729.69 134.73 728.94 139.58 724.87 140.70 C 726.04 135.53 727.58 130.34 727.06 124.96 L 726.04 125.03 C 726.29 129.98 725.37 135.45 720.97 138.45 C 721.68 135.98 722.15 133.45 722.65 130.93 C 723.23 127.78 725.04 124.95 725.09 121.68 C 724.66 122.29 723.80 123.49 723.37 124.09 C 723.42 120.53 723.74 116.52 721.30 113.58 C 721.44 111.66 721.70 109.75 722.01 107.85 Z" />
<path fill="#ef7d00" opacity="1.00" d=" M 777.66 108.26 C 778.14 108.78 778.14 108.78 777.66 108.26 Z" />
<path fill="#ef7d00" opacity="1.00" d=" M 803.85 109.80 C 809.64 109.31 815.45 108.90 821.27 108.68 C 812.89 114.13 802.25 116.02 792.55 113.45 C 796.57 113.24 801.05 113.20 803.85 109.80 Z" />
<path fill="#ef7d00" opacity="1.00" d=" M 778.35 108.67 C 781.51 110.33 786.85 109.85 787.95 114.15 C 784.49 112.86 781.00 111.33 778.35 108.67 Z" />
<path fill="#ef7d00" opacity="1.00" d=" M 771.28 113.27 C 771.81 113.77 771.81 113.77 771.28 113.27 Z" />
<path fill="#ef7d00" opacity="1.00" d=" M 788.40 113.55 C 793.45 115.46 799.13 115.26 803.95 117.79 C 797.18 119.53 790.17 118.67 783.63 116.47 C 785.34 115.78 787.90 115.81 788.40 113.55 Z" />
<path fill="#ef7d00" opacity="1.00" d=" M 776.03 115.12 C 782.38 117.41 788.71 120.00 795.56 120.29 C 795.78 120.73 796.21 121.60 796.42 122.04 C 793.91 120.81 791.67 123.38 789.12 122.72 C 784.14 121.63 779.62 118.68 776.03 115.12 Z" />
<path fill="#ef7d00" opacity="1.00" d=" M 731.49 133.91 C 734.12 136.82 732.21 140.80 732.69 144.27 C 733.47 145.41 734.95 145.77 736.08 146.53 C 735.48 148.15 734.79 149.73 734.02 151.28 C 734.43 152.55 734.87 153.82 735.18 155.13 C 734.20 157.45 732.69 159.60 732.61 162.21 C 731.50 158.96 728.26 156.73 728.68 152.96 C 728.38 152.99 727.78 153.03 727.49 153.05 C 727.43 154.34 727.26 155.61 726.96 156.86 C 725.35 158.34 723.15 159.06 721.82 160.87 C 719.53 157.41 721.36 153.80 723.36 150.81 C 720.02 153.25 716.06 154.42 711.93 153.84 C 712.97 151.78 713.61 148.89 716.25 148.37 C 719.32 147.66 723.31 148.40 725.31 145.36 C 727.29 141.50 729.51 137.77 731.49 133.91 Z" />
<path fill="#ef7d00" opacity="1.00" d=" M 748.21 134.70 C 750.92 137.38 753.53 140.44 753.91 144.40 C 754.85 144.40 756.72 144.39 757.66 144.38 C 757.78 144.39 758.02 144.40 758.15 144.40 C 758.96 144.87 760.59 145.80 761.41 146.26 C 759.22 145.58 756.98 145.27 754.74 145.81 C 756.13 147.45 758.08 148.82 758.75 150.95 C 758.95 153.05 757.73 154.91 757.06 156.81 C 757.37 153.71 755.38 152.98 752.86 153.06 C 752.18 151.72 751.52 150.37 750.87 149.03 C 750.30 149.18 749.15 149.49 748.57 149.64 C 748.68 151.37 748.94 153.11 748.83 154.85 C 748.31 156.38 746.73 157.19 745.67 158.30 C 745.60 159.10 745.47 160.70 745.40 161.50 C 744.06 157.93 742.28 154.22 744.29 150.48 C 742.52 153.53 738.01 152.25 736.68 155.42 C 736.60 152.89 735.70 150.23 736.64 147.78 C 739.57 145.80 743.37 146.11 746.75 145.62 C 746.68 141.92 747.08 138.23 748.21 134.70 Z" />
<path fill="#ef7d00" opacity="1.00" d=" M 789.86 214.25 C 824.90 214.26 859.95 214.24 895.00 214.25 L 895.00 601.00 L 0.00 601.00 L 0.00 600.00 C 191.83 599.99 383.66 600.02 575.49 599.99 C 611.24 599.99 646.99 600.01 682.74 599.98 C 718.44 600.01 754.15 600.00 789.86 599.99 C 789.84 471.41 789.86 342.83 789.86 214.25 Z" />
</g>
<g id="#de2010ff">
<path fill="#de2010" opacity="1.00" d=" M 575.44 214.22 C 611.21 214.29 646.98 214.23 682.75 214.26 C 682.72 342.83 682.75 471.41 682.74 599.98 C 646.99 600.01 611.24 599.99 575.49 599.99 C 575.47 471.40 575.57 342.81 575.44 214.22 Z" />
</g>
</svg>
